<?xml version="1.0" encoding="UTF-8"?>
<svg xmlns="http://www.w3.org/2000/svg" xmlns:xlink="http://www.w3.org/1999/xlink" width="504" height="360" viewBox="0 0 504 360">
<defs>
<g>
<g id="glyph-0-0">
<path d="M 3.328125 -5.65625 L 1.140625 -2.234375 L 3.328125 -2.234375 Z M 3.09375 -6.40625 L 4.1875 -6.40625 L 4.1875 -2.234375 L 5.109375 -2.234375 L 5.109375 -1.515625 L 4.1875 -1.515625 L 4.1875 0 L 3.328125 0 L 3.328125 -1.515625 L 0.421875 -1.515625 L 0.421875 -2.34375 Z M 3.09375 -6.40625 "/>
</g>
<g id="glyph-0-1">
<path d="M 2.796875 -5.84375 C 2.347656 -5.84375 2.007812 -5.617188 1.78125 -5.171875 C 1.5625 -4.734375 1.453125 -4.078125 1.453125 -3.203125 C 1.453125 -2.316406 1.5625 -1.65625 1.78125 -1.21875 C 2.007812 -0.78125 2.347656 -0.5625 2.796875 -0.5625 C 3.242188 -0.5625 3.578125 -0.78125 3.796875 -1.21875 C 4.023438 -1.65625 4.140625 -2.316406 4.140625 -3.203125 C 4.140625 -4.078125 4.023438 -4.734375 3.796875 -5.171875 C 3.578125 -5.617188 3.242188 -5.84375 2.796875 -5.84375 Z M 2.796875 -6.53125 C 3.515625 -6.53125 4.0625 -6.242188 4.4375 -5.671875 C 4.820312 -5.109375 5.015625 -4.285156 5.015625 -3.203125 C 5.015625 -2.117188 4.820312 -1.289062 4.4375 -0.71875 C 4.0625 -0.15625 3.515625 0.125 2.796875 0.125 C 2.078125 0.125 1.523438 -0.15625 1.140625 -0.71875 C 0.765625 -1.289062 0.578125 -2.117188 0.578125 -3.203125 C 0.578125 -4.285156 0.765625 -5.109375 1.140625 -5.671875 C 1.523438 -6.242188 2.078125 -6.53125 2.796875 -6.53125 Z M 2.796875 -6.53125 "/>
</g>
<g id="glyph-0-2">
<path d="M 2.90625 -3.546875 C 2.507812 -3.546875 2.195312 -3.410156 1.96875 -3.140625 C 1.75 -2.878906 1.640625 -2.519531 1.640625 -2.0625 C 1.640625 -1.59375 1.75 -1.222656 1.96875 -0.953125 C 2.195312 -0.691406 2.507812 -0.5625 2.90625 -0.5625 C 3.289062 -0.5625 3.597656 -0.691406 3.828125 -0.953125 C 4.054688 -1.222656 4.171875 -1.59375 4.171875 -2.0625 C 4.171875 -2.519531 4.054688 -2.878906 3.828125 -3.140625 C 3.597656 -3.410156 3.289062 -3.546875 2.90625 -3.546875 Z M 4.625 -6.265625 L 4.625 -5.484375 C 4.40625 -5.585938 4.1875 -5.664062 3.96875 -5.71875 C 3.75 -5.769531 3.53125 -5.796875 3.3125 -5.796875 C 2.738281 -5.796875 2.300781 -5.601562 2 -5.21875 C 1.695312 -4.832031 1.523438 -4.25 1.484375 -3.46875 C 1.648438 -3.71875 1.859375 -3.90625 2.109375 -4.03125 C 2.367188 -4.164062 2.648438 -4.234375 2.953125 -4.234375 C 3.597656 -4.234375 4.109375 -4.035156 4.484375 -3.640625 C 4.859375 -3.253906 5.046875 -2.726562 5.046875 -2.0625 C 5.046875 -1.394531 4.847656 -0.863281 4.453125 -0.46875 C 4.066406 -0.0703125 3.550781 0.125 2.90625 0.125 C 2.164062 0.125 1.597656 -0.15625 1.203125 -0.71875 C 0.804688 -1.289062 0.609375 -2.117188 0.609375 -3.203125 C 0.609375 -4.210938 0.847656 -5.019531 1.328125 -5.625 C 1.816406 -6.226562 2.460938 -6.53125 3.265625 -6.53125 C 3.484375 -6.53125 3.703125 -6.507812 3.921875 -6.46875 C 4.148438 -6.425781 4.382812 -6.359375 4.625 -6.265625 Z M 4.625 -6.265625 "/>
</g>
<g id="glyph-0-3">
<path d="M 2.796875 -3.046875 C 2.378906 -3.046875 2.050781 -2.9375 1.8125 -2.71875 C 1.582031 -2.5 1.46875 -2.191406 1.46875 -1.796875 C 1.46875 -1.410156 1.582031 -1.109375 1.8125 -0.890625 C 2.050781 -0.671875 2.378906 -0.5625 2.796875 -0.5625 C 3.210938 -0.5625 3.535156 -0.671875 3.765625 -0.890625 C 4.003906 -1.117188 4.125 -1.421875 4.125 -1.796875 C 4.125 -2.191406 4.003906 -2.5 3.765625 -2.71875 C 3.535156 -2.9375 3.210938 -3.046875 2.796875 -3.046875 Z M 1.921875 -3.421875 C 1.554688 -3.503906 1.269531 -3.671875 1.0625 -3.921875 C 0.851562 -4.179688 0.75 -4.492188 0.75 -4.859375 C 0.75 -5.378906 0.929688 -5.785156 1.296875 -6.078125 C 1.660156 -6.378906 2.160156 -6.53125 2.796875 -6.53125 C 3.429688 -6.53125 3.929688 -6.378906 4.296875 -6.078125 C 4.660156 -5.785156 4.84375 -5.378906 4.84375 -4.859375 C 4.84375 -4.492188 4.738281 -4.179688 4.53125 -3.921875 C 4.320312 -3.671875 4.035156 -3.503906 3.671875 -3.421875 C 4.085938 -3.316406 4.410156 -3.125 4.640625 -2.84375 C 4.878906 -2.5625 5 -2.210938 5 -1.796875 C 5 -1.179688 4.804688 -0.707031 4.421875 -0.375 C 4.046875 -0.0390625 3.503906 0.125 2.796875 0.125 C 2.085938 0.125 1.539062 -0.0390625 1.15625 -0.375 C 0.78125 -0.707031 0.59375 -1.179688 0.59375 -1.796875 C 0.59375 -2.210938 0.707031 -2.5625 0.9375 -2.84375 C 1.175781 -3.125 1.503906 -3.316406 1.921875 -3.421875 Z M 1.609375 -4.78125 C 1.609375 -4.445312 1.710938 -4.1875 1.921875 -4 C 2.128906 -3.820312 2.421875 -3.734375 2.796875 -3.734375 C 3.171875 -3.734375 3.460938 -3.820312 3.671875 -4 C 3.878906 -4.1875 3.984375 -4.445312 3.984375 -4.78125 C 3.984375 -5.113281 3.878906 -5.375 3.671875 -5.5625 C 3.460938 -5.75 3.171875 -5.84375 2.796875 -5.84375 C 2.421875 -5.84375 2.128906 -5.75 1.921875 -5.5625 C 1.710938 -5.375 1.609375 -5.113281 1.609375 -4.78125 Z M 1.609375 -4.78125 "/>
</g>
<g id="glyph-0-4">
<path d="M 1.09375 -0.734375 L 2.515625 -0.734375 L 2.515625 -5.625 L 0.96875 -5.3125 L 0.96875 -6.109375 L 2.5 -6.40625 L 3.375 -6.40625 L 3.375 -0.734375 L 4.78125 -0.734375 L 4.78125 0 L 1.09375 0 Z M 1.09375 -0.734375 "/>
</g>
<g id="glyph-0-5">
<path d="M 1.6875 -0.734375 L 4.71875 -0.734375 L 4.71875 0 L 0.640625 0 L 0.640625 -0.734375 C 0.972656 -1.066406 1.421875 -1.519531 1.984375 -2.09375 C 2.554688 -2.675781 2.914062 -3.050781 3.0625 -3.21875 C 3.34375 -3.53125 3.535156 -3.789062 3.640625 -4 C 3.753906 -4.21875 3.8125 -4.429688 3.8125 -4.640625 C 3.8125 -4.984375 3.691406 -5.257812 3.453125 -5.46875 C 3.210938 -5.6875 2.898438 -5.796875 2.515625 -5.796875 C 2.242188 -5.796875 1.957031 -5.75 1.65625 -5.65625 C 1.351562 -5.5625 1.03125 -5.421875 0.6875 -5.234375 L 0.6875 -6.109375 C 1.039062 -6.242188 1.367188 -6.347656 1.671875 -6.421875 C 1.972656 -6.492188 2.25 -6.53125 2.5 -6.53125 C 3.164062 -6.53125 3.695312 -6.363281 4.09375 -6.03125 C 4.488281 -5.695312 4.6875 -5.253906 4.6875 -4.703125 C 4.6875 -4.429688 4.632812 -4.175781 4.53125 -3.9375 C 4.4375 -3.707031 4.257812 -3.429688 4 -3.109375 C 3.925781 -3.023438 3.695312 -2.785156 3.3125 -2.390625 C 2.925781 -1.992188 2.382812 -1.441406 1.6875 -0.734375 Z M 1.6875 -0.734375 "/>
</g>
<g id="glyph-0-6">
<path d="M 0.953125 -6.40625 L 4.359375 -6.40625 L 4.359375 -5.6875 L 1.75 -5.6875 L 1.75 -4.109375 C 1.875 -4.148438 2 -4.179688 2.125 -4.203125 C 2.25 -4.222656 2.375 -4.234375 2.5 -4.234375 C 3.21875 -4.234375 3.785156 -4.035156 4.203125 -3.640625 C 4.617188 -3.253906 4.828125 -2.726562 4.828125 -2.0625 C 4.828125 -1.363281 4.613281 -0.820312 4.1875 -0.4375 C 3.757812 -0.0625 3.148438 0.125 2.359375 0.125 C 2.097656 0.125 1.828125 0.0976562 1.546875 0.046875 C 1.265625 0.00390625 0.972656 -0.0625 0.671875 -0.15625 L 0.671875 -1.015625 C 0.929688 -0.878906 1.195312 -0.773438 1.46875 -0.703125 C 1.75 -0.640625 2.039062 -0.609375 2.34375 -0.609375 C 2.84375 -0.609375 3.234375 -0.738281 3.515625 -1 C 3.804688 -1.257812 3.953125 -1.613281 3.953125 -2.0625 C 3.953125 -2.507812 3.804688 -2.863281 3.515625 -3.125 C 3.234375 -3.382812 2.84375 -3.515625 2.34375 -3.515625 C 2.113281 -3.515625 1.882812 -3.488281 1.65625 -3.4375 C 1.425781 -3.382812 1.191406 -3.300781 0.953125 -3.1875 Z M 0.953125 -6.40625 "/>
</g>
<g id="glyph-0-7">
<path d="M 1.734375 -3.0625 L 1.734375 -0.71875 L 3.125 -0.71875 C 3.59375 -0.71875 3.9375 -0.8125 4.15625 -1 C 4.382812 -1.195312 4.5 -1.492188 4.5 -1.890625 C 4.5 -2.285156 4.382812 -2.578125 4.15625 -2.765625 C 3.9375 -2.960938 3.59375 -3.0625 3.125 -3.0625 Z M 1.734375 -5.703125 L 1.734375 -3.765625 L 3.015625 -3.765625 C 3.441406 -3.765625 3.757812 -3.84375 3.96875 -4 C 4.175781 -4.164062 4.28125 -4.410156 4.28125 -4.734375 C 4.28125 -5.054688 4.175781 -5.296875 3.96875 -5.453125 C 3.757812 -5.617188 3.441406 -5.703125 3.015625 -5.703125 Z M 0.859375 -6.40625 L 3.078125 -6.40625 C 3.742188 -6.40625 4.253906 -6.269531 4.609375 -6 C 4.960938 -5.726562 5.140625 -5.335938 5.140625 -4.828125 C 5.140625 -4.429688 5.046875 -4.117188 4.859375 -3.890625 C 4.679688 -3.660156 4.414062 -3.515625 4.0625 -3.453125 C 4.488281 -3.359375 4.816406 -3.164062 5.046875 -2.875 C 5.285156 -2.59375 5.40625 -2.234375 5.40625 -1.796875 C 5.40625 -1.222656 5.210938 -0.78125 4.828125 -0.46875 C 4.441406 -0.15625 3.890625 0 3.171875 0 L 0.859375 0 Z M 0.859375 -6.40625 "/>
</g>
<g id="glyph-0-8">
<path d="M 0.859375 -6.40625 L 4.546875 -6.40625 L 4.546875 -5.6875 L 1.734375 -5.6875 L 1.734375 -3.796875 L 4.28125 -3.796875 L 4.28125 -3.0625 L 1.734375 -3.0625 L 1.734375 0 L 0.859375 0 Z M 0.859375 -6.40625 "/>
</g>
<g id="glyph-0-9">
<path d="M 0.421875 -2.765625 L 2.75 -2.765625 L 2.75 -2.0625 L 0.421875 -2.0625 Z M 0.421875 -2.765625 "/>
</g>
<g id="glyph-0-10">
<path d="M 0.859375 -6.40625 L 2.03125 -6.40625 L 4.875 -1.046875 L 4.875 -6.40625 L 5.71875 -6.40625 L 5.71875 0 L 4.546875 0 L 1.703125 -5.359375 L 1.703125 0 L 0.859375 0 Z M 0.859375 -6.40625 "/>
</g>
<g id="glyph-0-11">
<path d="M 0.859375 -6.40625 L 4.921875 -6.40625 L 4.921875 -5.6875 L 1.734375 -5.6875 L 1.734375 -3.78125 L 4.78125 -3.78125 L 4.78125 -3.046875 L 1.734375 -3.046875 L 1.734375 -0.734375 L 5 -0.734375 L 5 0 L 0.859375 0 Z M 0.859375 -6.40625 "/>
</g>
<g id="glyph-0-12">
<path d="M 3.015625 -2.421875 C 2.378906 -2.421875 1.9375 -2.347656 1.6875 -2.203125 C 1.4375 -2.054688 1.3125 -1.804688 1.3125 -1.453125 C 1.3125 -1.171875 1.40625 -0.945312 1.59375 -0.78125 C 1.78125 -0.613281 2.03125 -0.53125 2.34375 -0.53125 C 2.78125 -0.53125 3.128906 -0.6875 3.390625 -1 C 3.660156 -1.3125 3.796875 -1.722656 3.796875 -2.234375 L 3.796875 -2.421875 Z M 4.59375 -2.75 L 4.59375 0 L 3.796875 0 L 3.796875 -0.734375 C 3.617188 -0.441406 3.394531 -0.222656 3.125 -0.078125 C 2.851562 0.0546875 2.523438 0.125 2.140625 0.125 C 1.648438 0.125 1.257812 -0.0078125 0.96875 -0.28125 C 0.675781 -0.5625 0.53125 -0.9375 0.53125 -1.40625 C 0.53125 -1.945312 0.707031 -2.351562 1.0625 -2.625 C 1.425781 -2.894531 1.96875 -3.03125 2.6875 -3.03125 L 3.796875 -3.03125 L 3.796875 -3.109375 C 3.796875 -3.472656 3.675781 -3.753906 3.4375 -3.953125 C 3.195312 -4.148438 2.863281 -4.25 2.4375 -4.25 C 2.15625 -4.25 1.882812 -4.21875 1.625 -4.15625 C 1.363281 -4.09375 1.113281 -3.992188 0.875 -3.859375 L 0.875 -4.59375 C 1.164062 -4.707031 1.445312 -4.789062 1.71875 -4.84375 C 1.988281 -4.894531 2.253906 -4.921875 2.515625 -4.921875 C 3.210938 -4.921875 3.734375 -4.738281 4.078125 -4.375 C 4.421875 -4.019531 4.59375 -3.476562 4.59375 -2.75 Z M 4.59375 -2.75 "/>
</g>
<g id="glyph-0-13">
<path d="M 1.609375 -6.171875 L 1.609375 -4.8125 L 3.234375 -4.8125 L 3.234375 -4.203125 L 1.609375 -4.203125 L 1.609375 -1.578125 C 1.609375 -1.191406 1.660156 -0.941406 1.765625 -0.828125 C 1.878906 -0.710938 2.097656 -0.65625 2.421875 -0.65625 L 3.234375 -0.65625 L 3.234375 0 L 2.421875 0 C 1.816406 0 1.394531 -0.113281 1.15625 -0.34375 C 0.925781 -0.570312 0.8125 -0.984375 0.8125 -1.578125 L 0.8125 -4.203125 L 0.234375 -4.203125 L 0.234375 -4.8125 L 0.8125 -4.8125 L 0.8125 -6.171875 Z M 1.609375 -6.171875 "/>
</g>
<g id="glyph-0-14">
<path d="M 0.75 -1.90625 L 0.75 -4.8125 L 1.53125 -4.8125 L 1.53125 -1.921875 C 1.53125 -1.472656 1.617188 -1.132812 1.796875 -0.90625 C 1.984375 -0.675781 2.253906 -0.5625 2.609375 -0.5625 C 3.035156 -0.5625 3.367188 -0.695312 3.609375 -0.96875 C 3.859375 -1.238281 3.984375 -1.609375 3.984375 -2.078125 L 3.984375 -4.8125 L 4.78125 -4.8125 L 4.78125 0 L 3.984375 0 L 3.984375 -0.734375 C 3.796875 -0.441406 3.570312 -0.222656 3.3125 -0.078125 C 3.0625 0.0546875 2.769531 0.125 2.4375 0.125 C 1.882812 0.125 1.460938 -0.046875 1.171875 -0.390625 C 0.890625 -0.734375 0.75 -1.238281 0.75 -1.90625 Z M 2.734375 -4.921875 Z M 2.734375 -4.921875 "/>
</g>
<g id="glyph-0-15">
<path d="M 3.609375 -4.078125 C 3.523438 -4.128906 3.429688 -4.164062 3.328125 -4.1875 C 3.222656 -4.207031 3.109375 -4.21875 2.984375 -4.21875 C 2.535156 -4.21875 2.191406 -4.070312 1.953125 -3.78125 C 1.710938 -3.488281 1.59375 -3.070312 1.59375 -2.53125 L 1.59375 0 L 0.796875 0 L 0.796875 -4.8125 L 1.59375 -4.8125 L 1.59375 -4.0625 C 1.757812 -4.351562 1.972656 -4.566406 2.234375 -4.703125 C 2.503906 -4.847656 2.832031 -4.921875 3.21875 -4.921875 C 3.269531 -4.921875 3.328125 -4.914062 3.390625 -4.90625 C 3.453125 -4.90625 3.523438 -4.898438 3.609375 -4.890625 Z M 3.609375 -4.078125 "/>
</g>
<g id="glyph-0-16">
<path d="M 0.828125 -6.6875 L 1.625 -6.6875 L 1.625 0 L 0.828125 0 Z M 0.828125 -6.6875 "/>
</g>
<g id="glyph-0-17">
</g>
<g id="glyph-0-18">
<path d="M 4.9375 -2.609375 L 4.9375 -2.21875 L 1.3125 -2.21875 C 1.34375 -1.675781 1.503906 -1.257812 1.796875 -0.96875 C 2.085938 -0.6875 2.5 -0.546875 3.03125 -0.546875 C 3.332031 -0.546875 3.625 -0.582031 3.90625 -0.65625 C 4.195312 -0.726562 4.484375 -0.84375 4.765625 -1 L 4.765625 -0.25 C 4.472656 -0.125 4.175781 -0.0273438 3.875 0.03125 C 3.582031 0.09375 3.285156 0.125 2.984375 0.125 C 2.210938 0.125 1.601562 -0.0976562 1.15625 -0.546875 C 0.707031 -0.992188 0.484375 -1.597656 0.484375 -2.359375 C 0.484375 -3.148438 0.695312 -3.773438 1.125 -4.234375 C 1.550781 -4.691406 2.125 -4.921875 2.84375 -4.921875 C 3.488281 -4.921875 4 -4.710938 4.375 -4.296875 C 4.75 -3.878906 4.9375 -3.316406 4.9375 -2.609375 Z M 4.15625 -2.828125 C 4.144531 -3.265625 4.019531 -3.609375 3.78125 -3.859375 C 3.550781 -4.117188 3.242188 -4.25 2.859375 -4.25 C 2.410156 -4.25 2.050781 -4.125 1.78125 -3.875 C 1.519531 -3.632812 1.367188 -3.285156 1.328125 -2.828125 Z M 4.15625 -2.828125 "/>
</g>
<g id="glyph-0-19">
<path d="M 4.296875 -4.625 L 4.296875 -3.890625 C 4.066406 -4.015625 3.835938 -4.101562 3.609375 -4.15625 C 3.390625 -4.21875 3.164062 -4.25 2.9375 -4.25 C 2.425781 -4.25 2.023438 -4.085938 1.734375 -3.765625 C 1.453125 -3.441406 1.3125 -2.988281 1.3125 -2.40625 C 1.3125 -1.8125 1.453125 -1.351562 1.734375 -1.03125 C 2.023438 -0.707031 2.425781 -0.546875 2.9375 -0.546875 C 3.164062 -0.546875 3.390625 -0.578125 3.609375 -0.640625 C 3.835938 -0.703125 4.066406 -0.796875 4.296875 -0.921875 L 4.296875 -0.1875 C 4.066406 -0.0820312 3.832031 -0.00390625 3.59375 0.046875 C 3.363281 0.0976562 3.117188 0.125 2.859375 0.125 C 2.128906 0.125 1.550781 -0.0976562 1.125 -0.546875 C 0.695312 -1.003906 0.484375 -1.625 0.484375 -2.40625 C 0.484375 -3.1875 0.695312 -3.800781 1.125 -4.25 C 1.5625 -4.695312 2.15625 -4.921875 2.90625 -4.921875 C 3.144531 -4.921875 3.378906 -4.894531 3.609375 -4.84375 C 3.847656 -4.800781 4.078125 -4.726562 4.296875 -4.625 Z M 4.296875 -4.625 "/>
</g>
<g id="glyph-0-20">
<path d="M 2.6875 -4.25 C 2.269531 -4.25 1.9375 -4.082031 1.6875 -3.75 C 1.4375 -3.425781 1.3125 -2.976562 1.3125 -2.40625 C 1.3125 -1.820312 1.429688 -1.363281 1.671875 -1.03125 C 1.921875 -0.707031 2.257812 -0.546875 2.6875 -0.546875 C 3.113281 -0.546875 3.445312 -0.710938 3.6875 -1.046875 C 3.9375 -1.378906 4.0625 -1.832031 4.0625 -2.40625 C 4.0625 -2.96875 3.9375 -3.414062 3.6875 -3.75 C 3.445312 -4.082031 3.113281 -4.25 2.6875 -4.25 Z M 2.6875 -4.921875 C 3.375 -4.921875 3.914062 -4.695312 4.3125 -4.25 C 4.707031 -3.8125 4.90625 -3.195312 4.90625 -2.40625 C 4.90625 -1.613281 4.707031 -0.992188 4.3125 -0.546875 C 3.914062 -0.0976562 3.375 0.125 2.6875 0.125 C 2 0.125 1.457031 -0.0976562 1.0625 -0.546875 C 0.675781 -0.992188 0.484375 -1.613281 0.484375 -2.40625 C 0.484375 -3.195312 0.675781 -3.8125 1.0625 -4.25 C 1.457031 -4.695312 2 -4.921875 2.6875 -4.921875 Z M 2.6875 -4.921875 "/>
</g>
<g id="glyph-0-21">
<path d="M 3.890625 -4.671875 L 3.890625 -3.921875 C 3.671875 -4.035156 3.441406 -4.117188 3.203125 -4.171875 C 2.960938 -4.234375 2.710938 -4.265625 2.453125 -4.265625 C 2.054688 -4.265625 1.757812 -4.203125 1.5625 -4.078125 C 1.375 -3.960938 1.28125 -3.785156 1.28125 -3.546875 C 1.28125 -3.359375 1.347656 -3.210938 1.484375 -3.109375 C 1.628906 -3.003906 1.910156 -2.90625 2.328125 -2.8125 L 2.609375 -2.75 C 3.160156 -2.632812 3.554688 -2.46875 3.796875 -2.25 C 4.035156 -2.03125 4.15625 -1.722656 4.15625 -1.328125 C 4.15625 -0.878906 3.976562 -0.523438 3.625 -0.265625 C 3.269531 -0.00390625 2.785156 0.125 2.171875 0.125 C 1.910156 0.125 1.640625 0.0976562 1.359375 0.046875 C 1.078125 -0.00390625 0.785156 -0.078125 0.484375 -0.171875 L 0.484375 -1 C 0.773438 -0.84375 1.0625 -0.722656 1.34375 -0.640625 C 1.625 -0.566406 1.90625 -0.53125 2.1875 -0.53125 C 2.550781 -0.53125 2.832031 -0.59375 3.03125 -0.71875 C 3.238281 -0.851562 3.34375 -1.035156 3.34375 -1.265625 C 3.34375 -1.484375 3.269531 -1.648438 3.125 -1.765625 C 2.976562 -1.878906 2.660156 -1.988281 2.171875 -2.09375 L 1.90625 -2.15625 C 1.40625 -2.257812 1.046875 -2.414062 0.828125 -2.625 C 0.617188 -2.84375 0.515625 -3.140625 0.515625 -3.515625 C 0.515625 -3.960938 0.671875 -4.304688 0.984375 -4.546875 C 1.304688 -4.796875 1.765625 -4.921875 2.359375 -4.921875 C 2.648438 -4.921875 2.921875 -4.898438 3.171875 -4.859375 C 3.429688 -4.816406 3.671875 -4.753906 3.890625 -4.671875 Z M 3.890625 -4.671875 "/>
</g>
<g id="glyph-0-22">
<path d="M 2.828125 0.453125 C 2.609375 1.023438 2.390625 1.394531 2.171875 1.5625 C 1.960938 1.738281 1.679688 1.828125 1.328125 1.828125 L 0.703125 1.828125 L 0.703125 1.171875 L 1.15625 1.171875 C 1.375 1.171875 1.539062 1.117188 1.65625 1.015625 C 1.78125 0.910156 1.914062 0.664062 2.0625 0.28125 L 2.203125 -0.078125 L 0.265625 -4.8125 L 1.09375 -4.8125 L 2.609375 -1.046875 L 4.109375 -4.8125 L 4.9375 -4.8125 Z M 2.828125 0.453125 "/>
</g>
<g id="glyph-0-23">
<path d="M 4.578125 -3.890625 C 4.773438 -4.242188 5.007812 -4.503906 5.28125 -4.671875 C 5.5625 -4.835938 5.882812 -4.921875 6.25 -4.921875 C 6.75 -4.921875 7.132812 -4.742188 7.40625 -4.390625 C 7.6875 -4.046875 7.828125 -3.550781 7.828125 -2.90625 L 7.828125 0 L 7.03125 0 L 7.03125 -2.875 C 7.03125 -3.332031 6.945312 -3.671875 6.78125 -3.890625 C 6.613281 -4.117188 6.363281 -4.234375 6.03125 -4.234375 C 5.625 -4.234375 5.300781 -4.097656 5.0625 -3.828125 C 4.820312 -3.554688 4.703125 -3.1875 4.703125 -2.71875 L 4.703125 0 L 3.90625 0 L 3.90625 -2.875 C 3.90625 -3.34375 3.820312 -3.6875 3.65625 -3.90625 C 3.5 -4.125 3.25 -4.234375 2.90625 -4.234375 C 2.507812 -4.234375 2.191406 -4.097656 1.953125 -3.828125 C 1.710938 -3.554688 1.59375 -3.1875 1.59375 -2.71875 L 1.59375 0 L 0.796875 0 L 0.796875 -4.8125 L 1.59375 -4.8125 L 1.59375 -4.0625 C 1.769531 -4.351562 1.984375 -4.566406 2.234375 -4.703125 C 2.492188 -4.847656 2.796875 -4.921875 3.140625 -4.921875 C 3.484375 -4.921875 3.78125 -4.832031 4.03125 -4.65625 C 4.28125 -4.476562 4.460938 -4.222656 4.578125 -3.890625 Z M 4.578125 -3.890625 "/>
</g>
<g id="glyph-1-0">
<path d="M -0.015625 -8.015625 L 1.140625 -8.015625 L 3.375 -4.71875 L 5.578125 -8.015625 L 6.734375 -8.015625 L 3.90625 -3.8125 L 3.90625 0 L 2.8125 0 L 2.8125 -3.8125 Z M -0.015625 -8.015625 "/>
</g>
<g id="glyph-1-1">
<path d="M 6.1875 -3.25 L 6.1875 -2.765625 L 1.640625 -2.765625 C 1.679688 -2.085938 1.882812 -1.570312 2.25 -1.21875 C 2.613281 -0.863281 3.125 -0.6875 3.78125 -0.6875 C 4.164062 -0.6875 4.535156 -0.734375 4.890625 -0.828125 C 5.242188 -0.921875 5.597656 -1.054688 5.953125 -1.234375 L 5.953125 -0.3125 C 5.597656 -0.15625 5.234375 -0.0390625 4.859375 0.03125 C 4.484375 0.113281 4.109375 0.15625 3.734375 0.15625 C 2.765625 0.15625 2 -0.117188 1.4375 -0.671875 C 0.882812 -1.234375 0.609375 -1.992188 0.609375 -2.953125 C 0.609375 -3.929688 0.875 -4.707031 1.40625 -5.28125 C 1.9375 -5.863281 2.65625 -6.15625 3.5625 -6.15625 C 4.363281 -6.15625 5 -5.894531 5.46875 -5.375 C 5.945312 -4.851562 6.1875 -4.144531 6.1875 -3.25 Z M 5.1875 -3.546875 C 5.1875 -4.085938 5.035156 -4.519531 4.734375 -4.84375 C 4.441406 -5.164062 4.050781 -5.328125 3.5625 -5.328125 C 3.007812 -5.328125 2.566406 -5.171875 2.234375 -4.859375 C 1.910156 -4.546875 1.722656 -4.109375 1.671875 -3.546875 Z M 5.1875 -3.546875 "/>
</g>
<g id="glyph-1-2">
<path d="M 3.765625 -3.03125 C 2.972656 -3.03125 2.421875 -2.9375 2.109375 -2.75 C 1.804688 -2.5625 1.65625 -2.25 1.65625 -1.8125 C 1.65625 -1.46875 1.769531 -1.191406 2 -0.984375 C 2.226562 -0.773438 2.539062 -0.671875 2.9375 -0.671875 C 3.488281 -0.671875 3.925781 -0.863281 4.25 -1.25 C 4.582031 -1.644531 4.75 -2.160156 4.75 -2.796875 L 4.75 -3.03125 Z M 5.734375 -3.4375 L 5.734375 0 L 4.75 0 L 4.75 -0.90625 C 4.53125 -0.539062 4.25 -0.269531 3.90625 -0.09375 C 3.570312 0.0703125 3.160156 0.15625 2.671875 0.15625 C 2.054688 0.15625 1.566406 -0.015625 1.203125 -0.359375 C 0.835938 -0.703125 0.65625 -1.164062 0.65625 -1.75 C 0.65625 -2.425781 0.878906 -2.9375 1.328125 -3.28125 C 1.785156 -3.625 2.46875 -3.796875 3.375 -3.796875 L 4.75 -3.796875 L 4.75 -3.890625 C 4.75 -4.347656 4.597656 -4.703125 4.296875 -4.953125 C 4.003906 -5.203125 3.585938 -5.328125 3.046875 -5.328125 C 2.703125 -5.328125 2.363281 -5.285156 2.03125 -5.203125 C 1.707031 -5.117188 1.394531 -4.992188 1.09375 -4.828125 L 1.09375 -5.734375 C 1.457031 -5.878906 1.8125 -5.984375 2.15625 -6.046875 C 2.5 -6.117188 2.828125 -6.15625 3.140625 -6.15625 C 4.015625 -6.15625 4.664062 -5.929688 5.09375 -5.484375 C 5.519531 -5.035156 5.734375 -4.351562 5.734375 -3.4375 Z M 5.734375 -3.4375 "/>
</g>
<g id="glyph-1-3">
<path d="M 4.515625 -5.09375 C 4.410156 -5.15625 4.289062 -5.203125 4.15625 -5.234375 C 4.03125 -5.265625 3.890625 -5.28125 3.734375 -5.28125 C 3.171875 -5.28125 2.738281 -5.097656 2.4375 -4.734375 C 2.144531 -4.367188 2 -3.847656 2 -3.171875 L 2 0 L 1 0 L 1 -6.015625 L 2 -6.015625 L 2 -5.078125 C 2.195312 -5.441406 2.460938 -5.710938 2.796875 -5.890625 C 3.128906 -6.066406 3.535156 -6.15625 4.015625 -6.15625 C 4.085938 -6.15625 4.160156 -6.148438 4.234375 -6.140625 C 4.316406 -6.140625 4.410156 -6.128906 4.515625 -6.109375 Z M 4.515625 -5.09375 "/>
</g>
<g id="glyph-1-4">
<path d="M 1.078125 -8.015625 L 2.171875 -8.015625 L 2.171875 0 L 1.078125 0 Z M 1.078125 -8.015625 "/>
</g>
<g id="glyph-1-5">
<path d="M 6.03125 -3.625 L 6.03125 0 L 5.046875 0 L 5.046875 -3.59375 C 5.046875 -4.164062 4.9375 -4.59375 4.71875 -4.875 C 4.5 -5.15625 4.164062 -5.296875 3.71875 -5.296875 C 3.1875 -5.296875 2.765625 -5.125 2.453125 -4.78125 C 2.148438 -4.445312 2 -3.988281 2 -3.40625 L 2 0 L 1 0 L 1 -6.015625 L 2 -6.015625 L 2 -5.078125 C 2.226562 -5.441406 2.503906 -5.710938 2.828125 -5.890625 C 3.148438 -6.066406 3.519531 -6.15625 3.9375 -6.15625 C 4.625 -6.15625 5.144531 -5.941406 5.5 -5.515625 C 5.851562 -5.085938 6.03125 -4.457031 6.03125 -3.625 Z M 6.03125 -3.625 "/>
</g>
<g id="glyph-1-6">
<path d="M 5 -5.109375 L 5 -8.359375 L 5.984375 -8.359375 L 5.984375 0 L 5 0 L 5 -0.90625 C 4.789062 -0.539062 4.523438 -0.269531 4.203125 -0.09375 C 3.890625 0.0703125 3.507812 0.15625 3.0625 0.15625 C 2.34375 0.15625 1.753906 -0.128906 1.296875 -0.703125 C 0.835938 -1.285156 0.609375 -2.050781 0.609375 -3 C 0.609375 -3.945312 0.835938 -4.707031 1.296875 -5.28125 C 1.753906 -5.863281 2.34375 -6.15625 3.0625 -6.15625 C 3.507812 -6.15625 3.890625 -6.066406 4.203125 -5.890625 C 4.523438 -5.722656 4.789062 -5.460938 5 -5.109375 Z M 1.625 -3 C 1.625 -2.269531 1.773438 -1.695312 2.078125 -1.28125 C 2.378906 -0.875 2.789062 -0.671875 3.3125 -0.671875 C 3.832031 -0.671875 4.242188 -0.875 4.546875 -1.28125 C 4.847656 -1.695312 5 -2.269531 5 -3 C 5 -3.726562 4.847656 -4.296875 4.546875 -4.703125 C 4.242188 -5.117188 3.832031 -5.328125 3.3125 -5.328125 C 2.789062 -5.328125 2.378906 -5.117188 2.078125 -4.703125 C 1.773438 -4.296875 1.625 -3.726562 1.625 -3 Z M 1.625 -3 "/>
</g>
<g id="glyph-1-7">
<path d="M 1.03125 -6.015625 L 2.03125 -6.015625 L 2.03125 0 L 1.03125 0 Z M 1.03125 -8.359375 L 2.03125 -8.359375 L 2.03125 -7.109375 L 1.03125 -7.109375 Z M 1.03125 -8.359375 "/>
</g>
<g id="glyph-1-8">
<path d="M 5.359375 -5.78125 L 5.359375 -4.859375 C 5.085938 -5.015625 4.8125 -5.128906 4.53125 -5.203125 C 4.25 -5.285156 3.960938 -5.328125 3.671875 -5.328125 C 3.035156 -5.328125 2.539062 -5.125 2.1875 -4.71875 C 1.832031 -4.3125 1.65625 -3.738281 1.65625 -3 C 1.65625 -2.269531 1.832031 -1.703125 2.1875 -1.296875 C 2.539062 -0.890625 3.035156 -0.6875 3.671875 -0.6875 C 3.960938 -0.6875 4.25 -0.722656 4.53125 -0.796875 C 4.8125 -0.867188 5.085938 -0.984375 5.359375 -1.140625 L 5.359375 -0.234375 C 5.085938 -0.0976562 4.800781 0 4.5 0.0625 C 4.207031 0.125 3.894531 0.15625 3.5625 0.15625 C 2.65625 0.15625 1.9375 -0.125 1.40625 -0.6875 C 0.875 -1.257812 0.609375 -2.03125 0.609375 -3 C 0.609375 -3.976562 0.875 -4.75 1.40625 -5.3125 C 1.945312 -5.875 2.6875 -6.15625 3.625 -6.15625 C 3.9375 -6.15625 4.234375 -6.125 4.515625 -6.0625 C 4.804688 -6 5.085938 -5.90625 5.359375 -5.78125 Z M 5.359375 -5.78125 "/>
</g>
<g id="glyph-1-9">
<path d="M 2.015625 -7.71875 L 2.015625 -6.015625 L 4.046875 -6.015625 L 4.046875 -5.25 L 2.015625 -5.25 L 2.015625 -1.984375 C 2.015625 -1.492188 2.082031 -1.175781 2.21875 -1.03125 C 2.351562 -0.894531 2.625 -0.828125 3.03125 -0.828125 L 4.046875 -0.828125 L 4.046875 0 L 3.03125 0 C 2.269531 0 1.742188 -0.140625 1.453125 -0.421875 C 1.160156 -0.710938 1.015625 -1.234375 1.015625 -1.984375 L 1.015625 -5.25 L 0.296875 -5.25 L 0.296875 -6.015625 L 1.015625 -6.015625 L 1.015625 -7.71875 Z M 2.015625 -7.71875 "/>
</g>
<g id="glyph-1-10">
<path d="M 3.375 -5.328125 C 2.84375 -5.328125 2.421875 -5.117188 2.109375 -4.703125 C 1.804688 -4.285156 1.65625 -3.71875 1.65625 -3 C 1.65625 -2.28125 1.804688 -1.710938 2.109375 -1.296875 C 2.410156 -0.890625 2.832031 -0.6875 3.375 -0.6875 C 3.894531 -0.6875 4.304688 -0.890625 4.609375 -1.296875 C 4.921875 -1.710938 5.078125 -2.28125 5.078125 -3 C 5.078125 -3.71875 4.921875 -4.285156 4.609375 -4.703125 C 4.304688 -5.117188 3.894531 -5.328125 3.375 -5.328125 Z M 3.375 -6.15625 C 4.226562 -6.15625 4.898438 -5.875 5.390625 -5.3125 C 5.878906 -4.757812 6.125 -3.988281 6.125 -3 C 6.125 -2.019531 5.878906 -1.25 5.390625 -0.6875 C 4.898438 -0.125 4.226562 0.15625 3.375 0.15625 C 2.507812 0.15625 1.832031 -0.125 1.34375 -0.6875 C 0.851562 -1.25 0.609375 -2.019531 0.609375 -3 C 0.609375 -3.988281 0.851562 -4.757812 1.34375 -5.3125 C 1.832031 -5.875 2.507812 -6.15625 3.375 -6.15625 Z M 3.375 -6.15625 "/>
</g>
<g id="glyph-1-11">
<path d="M 1.078125 -8.015625 L 5.6875 -8.015625 L 5.6875 -7.109375 L 2.171875 -7.109375 L 2.171875 -4.75 L 5.34375 -4.75 L 5.34375 -3.828125 L 2.171875 -3.828125 L 2.171875 0 L 1.078125 0 Z M 1.078125 -8.015625 "/>
</g>
<g id="glyph-1-12">
<path d="M 4.875 -5.84375 L 4.875 -4.90625 C 4.59375 -5.050781 4.300781 -5.15625 4 -5.21875 C 3.695312 -5.289062 3.382812 -5.328125 3.0625 -5.328125 C 2.570312 -5.328125 2.203125 -5.25 1.953125 -5.09375 C 1.710938 -4.945312 1.59375 -4.726562 1.59375 -4.4375 C 1.59375 -4.207031 1.679688 -4.023438 1.859375 -3.890625 C 2.035156 -3.765625 2.390625 -3.640625 2.921875 -3.515625 L 3.25 -3.4375 C 3.957031 -3.289062 4.457031 -3.078125 4.75 -2.796875 C 5.039062 -2.523438 5.1875 -2.144531 5.1875 -1.65625 C 5.1875 -1.101562 4.96875 -0.660156 4.53125 -0.328125 C 4.09375 -0.00390625 3.484375 0.15625 2.703125 0.15625 C 2.378906 0.15625 2.039062 0.125 1.6875 0.0625 C 1.34375 0 0.976562 -0.09375 0.59375 -0.21875 L 0.59375 -1.234375 C 0.957031 -1.046875 1.316406 -0.90625 1.671875 -0.8125 C 2.023438 -0.71875 2.378906 -0.671875 2.734375 -0.671875 C 3.191406 -0.671875 3.546875 -0.75 3.796875 -0.90625 C 4.046875 -1.070312 4.171875 -1.296875 4.171875 -1.578125 C 4.171875 -1.847656 4.082031 -2.054688 3.90625 -2.203125 C 3.726562 -2.347656 3.332031 -2.484375 2.71875 -2.609375 L 2.375 -2.703125 C 1.757812 -2.828125 1.316406 -3.019531 1.046875 -3.28125 C 0.773438 -3.550781 0.640625 -3.921875 0.640625 -4.390625 C 0.640625 -4.953125 0.835938 -5.382812 1.234375 -5.6875 C 1.640625 -6 2.210938 -6.15625 2.953125 -6.15625 C 3.316406 -6.15625 3.660156 -6.128906 3.984375 -6.078125 C 4.304688 -6.023438 4.601562 -5.945312 4.875 -5.84375 Z M 4.875 -5.84375 "/>
</g>
<g id="glyph-1-13">
</g>
<g id="glyph-1-14">
<path d="M 2 -0.90625 L 2 2.28125 L 1 2.28125 L 1 -6.015625 L 2 -6.015625 L 2 -5.109375 C 2.195312 -5.460938 2.453125 -5.722656 2.765625 -5.890625 C 3.085938 -6.066406 3.472656 -6.15625 3.921875 -6.15625 C 4.648438 -6.15625 5.238281 -5.863281 5.6875 -5.28125 C 6.144531 -4.707031 6.375 -3.945312 6.375 -3 C 6.375 -2.050781 6.144531 -1.285156 5.6875 -0.703125 C 5.238281 -0.128906 4.648438 0.15625 3.921875 0.15625 C 3.472656 0.15625 3.085938 0.0703125 2.765625 -0.09375 C 2.453125 -0.269531 2.195312 -0.539062 2 -0.90625 Z M 5.359375 -3 C 5.359375 -3.726562 5.207031 -4.296875 4.90625 -4.703125 C 4.601562 -5.117188 4.191406 -5.328125 3.671875 -5.328125 C 3.148438 -5.328125 2.738281 -5.117188 2.4375 -4.703125 C 2.144531 -4.296875 2 -3.726562 2 -3 C 2 -2.269531 2.144531 -1.695312 2.4375 -1.28125 C 2.738281 -0.875 3.148438 -0.671875 3.671875 -0.671875 C 4.191406 -0.671875 4.601562 -0.875 4.90625 -1.28125 C 5.207031 -1.695312 5.359375 -2.269531 5.359375 -3 Z M 5.359375 -3 "/>
</g>
<g id="glyph-1-15">
<path d="M 1.171875 -5 L 8.046875 -5 L 8.046875 -4.09375 L 1.171875 -4.09375 Z M 1.171875 -2.796875 L 8.046875 -2.796875 L 8.046875 -1.890625 L 1.171875 -1.890625 Z M 1.171875 -2.796875 "/>
</g>
<g id="glyph-1-16">
<path d="M 1.359375 -0.90625 L 3.140625 -0.90625 L 3.140625 -7.03125 L 1.203125 -6.640625 L 1.203125 -7.625 L 3.125 -8.015625 L 4.21875 -8.015625 L 4.21875 -0.90625 L 5.984375 -0.90625 L 5.984375 0 L 1.359375 0 Z M 1.359375 -0.90625 "/>
</g>
<g id="glyph-1-17">
<path d="M 3.5 -7.3125 C 2.9375 -7.3125 2.515625 -7.035156 2.234375 -6.484375 C 1.953125 -5.929688 1.8125 -5.101562 1.8125 -4 C 1.8125 -2.90625 1.953125 -2.082031 2.234375 -1.53125 C 2.515625 -0.976562 2.9375 -0.703125 3.5 -0.703125 C 4.0625 -0.703125 4.484375 -0.976562 4.765625 -1.53125 C 5.046875 -2.082031 5.1875 -2.90625 5.1875 -4 C 5.1875 -5.101562 5.046875 -5.929688 4.765625 -6.484375 C 4.484375 -7.035156 4.0625 -7.3125 3.5 -7.3125 Z M 3.5 -8.171875 C 4.394531 -8.171875 5.078125 -7.8125 5.546875 -7.09375 C 6.023438 -6.382812 6.265625 -5.351562 6.265625 -4 C 6.265625 -2.65625 6.023438 -1.625 5.546875 -0.90625 C 5.078125 -0.195312 4.394531 0.15625 3.5 0.15625 C 2.601562 0.15625 1.914062 -0.195312 1.4375 -0.90625 C 0.957031 -1.625 0.71875 -2.65625 0.71875 -4 C 0.71875 -5.351562 0.957031 -6.382812 1.4375 -7.09375 C 1.914062 -7.8125 2.601562 -8.171875 3.5 -8.171875 Z M 3.5 -8.171875 "/>
</g>
<g id="glyph-2-0">
<path d="M -8.015625 -1.078125 L -8.015625 -2.171875 L 0 -2.171875 L 0 -1.078125 Z M -8.015625 -1.078125 "/>
</g>
<g id="glyph-2-1">
<path d="M -3.625 -6.03125 L 0 -6.03125 L 0 -5.046875 L -3.59375 -5.046875 C -4.164062 -5.046875 -4.59375 -4.9375 -4.875 -4.71875 C -5.15625 -4.5 -5.296875 -4.164062 -5.296875 -3.71875 C -5.296875 -3.1875 -5.125 -2.765625 -4.78125 -2.453125 C -4.445312 -2.148438 -3.988281 -2 -3.40625 -2 L 0 -2 L 0 -1 L -6.015625 -1 L -6.015625 -2 L -5.078125 -2 C -5.441406 -2.226562 -5.710938 -2.503906 -5.890625 -2.828125 C -6.066406 -3.148438 -6.15625 -3.519531 -6.15625 -3.9375 C -6.15625 -4.625 -5.941406 -5.144531 -5.515625 -5.5 C -5.085938 -5.851562 -4.457031 -6.03125 -3.625 -6.03125 Z M -3.625 -6.03125 "/>
</g>
<g id="glyph-2-2">
<path d="M -5.109375 -5 L -8.359375 -5 L -8.359375 -5.984375 L 0 -5.984375 L 0 -5 L -0.90625 -5 C -0.539062 -4.789062 -0.269531 -4.523438 -0.09375 -4.203125 C 0.0703125 -3.890625 0.15625 -3.507812 0.15625 -3.0625 C 0.15625 -2.34375 -0.128906 -1.753906 -0.703125 -1.296875 C -1.285156 -0.835938 -2.050781 -0.609375 -3 -0.609375 C -3.945312 -0.609375 -4.707031 -0.835938 -5.28125 -1.296875 C -5.863281 -1.753906 -6.15625 -2.34375 -6.15625 -3.0625 C -6.15625 -3.507812 -6.066406 -3.890625 -5.890625 -4.203125 C -5.722656 -4.523438 -5.460938 -4.789062 -5.109375 -5 Z M -3 -1.625 C -2.269531 -1.625 -1.695312 -1.773438 -1.28125 -2.078125 C -0.875 -2.378906 -0.671875 -2.789062 -0.671875 -3.3125 C -0.671875 -3.832031 -0.875 -4.242188 -1.28125 -4.546875 C -1.695312 -4.847656 -2.269531 -5 -3 -5 C -3.726562 -5 -4.296875 -4.847656 -4.703125 -4.546875 C -5.117188 -4.242188 -5.328125 -3.832031 -5.328125 -3.3125 C -5.328125 -2.789062 -5.117188 -2.378906 -4.703125 -2.078125 C -4.296875 -1.773438 -3.726562 -1.625 -3 -1.625 Z M -3 -1.625 "/>
</g>
<g id="glyph-2-3">
<path d="M -3.25 -6.1875 L -2.765625 -6.1875 L -2.765625 -1.640625 C -2.085938 -1.679688 -1.570312 -1.882812 -1.21875 -2.25 C -0.863281 -2.613281 -0.6875 -3.125 -0.6875 -3.78125 C -0.6875 -4.164062 -0.734375 -4.535156 -0.828125 -4.890625 C -0.921875 -5.242188 -1.054688 -5.597656 -1.234375 -5.953125 L -0.3125 -5.953125 C -0.15625 -5.597656 -0.0390625 -5.234375 0.03125 -4.859375 C 0.113281 -4.484375 0.15625 -4.109375 0.15625 -3.734375 C 0.15625 -2.765625 -0.117188 -2 -0.671875 -1.4375 C -1.234375 -0.882812 -1.992188 -0.609375 -2.953125 -0.609375 C -3.929688 -0.609375 -4.707031 -0.875 -5.28125 -1.40625 C -5.863281 -1.9375 -6.15625 -2.65625 -6.15625 -3.5625 C -6.15625 -4.363281 -5.894531 -5 -5.375 -5.46875 C -4.851562 -5.945312 -4.144531 -6.1875 -3.25 -6.1875 Z M -3.546875 -5.1875 C -4.085938 -5.1875 -4.519531 -5.035156 -4.84375 -4.734375 C -5.164062 -4.441406 -5.328125 -4.050781 -5.328125 -3.5625 C -5.328125 -3.007812 -5.171875 -2.566406 -4.859375 -2.234375 C -4.546875 -1.910156 -4.109375 -1.722656 -3.546875 -1.671875 Z M -3.546875 -5.1875 "/>
</g>
<g id="glyph-2-4">
<path d="M -6.015625 -6.03125 L -3.09375 -3.859375 L 0 -6.15625 L 0 -4.984375 L -2.359375 -3.234375 L 0 -1.484375 L 0 -0.3125 L -3.140625 -2.65625 L -6.015625 -0.515625 L -6.015625 -1.6875 L -3.875 -3.28125 L -6.015625 -4.875 Z M -6.015625 -6.03125 "/>
</g>
<g id="glyph-3-0">
<path d="M 5.859375 -4.515625 C 6.140625 -4.421875 6.410156 -4.21875 6.671875 -3.90625 C 6.941406 -3.59375 7.207031 -3.164062 7.46875 -2.625 L 8.796875 0 L 7.390625 0 L 6.15625 -2.46875 C 5.84375 -3.113281 5.535156 -3.539062 5.234375 -3.75 C 4.941406 -3.957031 4.535156 -4.0625 4.015625 -4.0625 L 2.59375 -4.0625 L 2.59375 0 L 1.296875 0 L 1.296875 -9.625 L 4.234375 -9.625 C 5.335938 -9.625 6.160156 -9.394531 6.703125 -8.9375 C 7.242188 -8.476562 7.515625 -7.785156 7.515625 -6.859375 C 7.515625 -6.242188 7.375 -5.738281 7.09375 -5.34375 C 6.8125 -4.945312 6.398438 -4.671875 5.859375 -4.515625 Z M 2.59375 -8.5625 L 2.59375 -5.140625 L 4.234375 -5.140625 C 4.859375 -5.140625 5.332031 -5.285156 5.65625 -5.578125 C 5.976562 -5.867188 6.140625 -6.296875 6.140625 -6.859375 C 6.140625 -7.421875 5.976562 -7.84375 5.65625 -8.125 C 5.332031 -8.414062 4.859375 -8.5625 4.234375 -8.5625 Z M 2.59375 -8.5625 "/>
</g>
<g id="glyph-3-1">
<path d="M 7.421875 -3.90625 L 7.421875 -3.328125 L 1.96875 -3.328125 C 2.019531 -2.515625 2.265625 -1.890625 2.703125 -1.453125 C 3.140625 -1.023438 3.753906 -0.8125 4.546875 -0.8125 C 5.003906 -0.8125 5.445312 -0.867188 5.875 -0.984375 C 6.300781 -1.097656 6.722656 -1.265625 7.140625 -1.484375 L 7.140625 -0.375 C 6.710938 -0.1875 6.273438 -0.0429688 5.828125 0.046875 C 5.378906 0.140625 4.925781 0.1875 4.46875 0.1875 C 3.320312 0.1875 2.410156 -0.144531 1.734375 -0.8125 C 1.066406 -1.488281 0.734375 -2.398438 0.734375 -3.546875 C 0.734375 -4.722656 1.050781 -5.65625 1.6875 -6.34375 C 2.320312 -7.039062 3.179688 -7.390625 4.265625 -7.390625 C 5.234375 -7.390625 6 -7.078125 6.5625 -6.453125 C 7.132812 -5.828125 7.421875 -4.976562 7.421875 -3.90625 Z M 6.234375 -4.25 C 6.222656 -4.90625 6.039062 -5.425781 5.6875 -5.8125 C 5.332031 -6.195312 4.863281 -6.390625 4.28125 -6.390625 C 3.613281 -6.390625 3.082031 -6.203125 2.6875 -5.828125 C 2.289062 -5.453125 2.0625 -4.925781 2 -4.25 Z M 6.234375 -4.25 "/>
</g>
<g id="glyph-3-2">
<path d="M 1.25 -10.03125 L 2.4375 -10.03125 L 2.4375 0 L 1.25 0 Z M 1.25 -10.03125 "/>
</g>
<g id="glyph-3-3">
<path d="M 4.53125 -3.625 C 3.570312 -3.625 2.90625 -3.515625 2.53125 -3.296875 C 2.164062 -3.078125 1.984375 -2.703125 1.984375 -2.171875 C 1.984375 -1.753906 2.117188 -1.421875 2.390625 -1.171875 C 2.671875 -0.929688 3.050781 -0.8125 3.53125 -0.8125 C 4.1875 -0.8125 4.710938 -1.039062 5.109375 -1.5 C 5.503906 -1.96875 5.703125 -2.585938 5.703125 -3.359375 L 5.703125 -3.625 Z M 6.890625 -4.125 L 6.890625 0 L 5.703125 0 L 5.703125 -1.09375 C 5.429688 -0.65625 5.09375 -0.332031 4.6875 -0.125 C 4.289062 0.0820312 3.796875 0.1875 3.203125 0.1875 C 2.472656 0.1875 1.890625 -0.0195312 1.453125 -0.4375 C 1.015625 -0.851562 0.796875 -1.410156 0.796875 -2.109375 C 0.796875 -2.910156 1.066406 -3.519531 1.609375 -3.9375 C 2.148438 -4.351562 2.960938 -4.5625 4.046875 -4.5625 L 5.703125 -4.5625 L 5.703125 -4.671875 C 5.703125 -5.222656 5.519531 -5.644531 5.15625 -5.9375 C 4.800781 -6.238281 4.300781 -6.390625 3.65625 -6.390625 C 3.238281 -6.390625 2.832031 -6.335938 2.4375 -6.234375 C 2.050781 -6.140625 1.679688 -5.992188 1.328125 -5.796875 L 1.328125 -6.890625 C 1.753906 -7.054688 2.171875 -7.179688 2.578125 -7.265625 C 2.992188 -7.347656 3.394531 -7.390625 3.78125 -7.390625 C 4.820312 -7.390625 5.597656 -7.117188 6.109375 -6.578125 C 6.628906 -6.035156 6.890625 -5.21875 6.890625 -4.125 Z M 6.890625 -4.125 "/>
</g>
<g id="glyph-3-4">
<path d="M 2.421875 -9.265625 L 2.421875 -7.21875 L 4.859375 -7.21875 L 4.859375 -6.296875 L 2.421875 -6.296875 L 2.421875 -2.375 C 2.421875 -1.789062 2.5 -1.414062 2.65625 -1.25 C 2.820312 -1.082031 3.148438 -1 3.640625 -1 L 4.859375 -1 L 4.859375 0 L 3.640625 0 C 2.722656 0 2.085938 -0.171875 1.734375 -0.515625 C 1.390625 -0.859375 1.21875 -1.476562 1.21875 -2.375 L 1.21875 -6.296875 L 0.359375 -6.296875 L 0.359375 -7.21875 L 1.21875 -7.21875 L 1.21875 -9.265625 Z M 2.421875 -9.265625 "/>
</g>
<g id="glyph-3-5">
<path d="M 1.25 -7.21875 L 2.4375 -7.21875 L 2.4375 0 L 1.25 0 Z M 1.25 -10.03125 L 2.4375 -10.03125 L 2.4375 -8.53125 L 1.25 -8.53125 Z M 1.25 -10.03125 "/>
</g>
<g id="glyph-3-6">
<path d="M 0.390625 -7.21875 L 1.65625 -7.21875 L 3.90625 -1.15625 L 6.15625 -7.21875 L 7.421875 -7.21875 L 4.71875 0 L 3.09375 0 Z M 0.390625 -7.21875 "/>
</g>
<g id="glyph-3-7">
</g>
<g id="glyph-3-8">
<path d="M 6.4375 -6.9375 L 6.4375 -5.828125 C 6.101562 -6.015625 5.765625 -6.15625 5.421875 -6.25 C 5.085938 -6.34375 4.75 -6.390625 4.40625 -6.390625 C 3.632812 -6.390625 3.035156 -6.144531 2.609375 -5.65625 C 2.191406 -5.164062 1.984375 -4.484375 1.984375 -3.609375 C 1.984375 -2.722656 2.191406 -2.035156 2.609375 -1.546875 C 3.035156 -1.054688 3.632812 -0.8125 4.40625 -0.8125 C 4.75 -0.8125 5.085938 -0.859375 5.421875 -0.953125 C 5.765625 -1.046875 6.101562 -1.1875 6.4375 -1.375 L 6.4375 -0.28125 C 6.101562 -0.125 5.757812 -0.0078125 5.40625 0.0625 C 5.050781 0.144531 4.675781 0.1875 4.28125 0.1875 C 3.195312 0.1875 2.332031 -0.148438 1.6875 -0.828125 C 1.050781 -1.515625 0.734375 -2.441406 0.734375 -3.609375 C 0.734375 -4.785156 1.054688 -5.707031 1.703125 -6.375 C 2.347656 -7.050781 3.234375 -7.390625 4.359375 -7.390625 C 4.722656 -7.390625 5.078125 -7.351562 5.421875 -7.28125 C 5.773438 -7.207031 6.113281 -7.09375 6.4375 -6.9375 Z M 6.4375 -6.9375 "/>
</g>
<g id="glyph-3-9">
<path d="M 7.25 -4.359375 L 7.25 0 L 6.0625 0 L 6.0625 -4.3125 C 6.0625 -5 5.925781 -5.507812 5.65625 -5.84375 C 5.394531 -6.1875 5 -6.359375 4.46875 -6.359375 C 3.820312 -6.359375 3.3125 -6.15625 2.9375 -5.75 C 2.570312 -5.34375 2.390625 -4.785156 2.390625 -4.078125 L 2.390625 0 L 1.203125 0 L 1.203125 -10.03125 L 2.390625 -10.03125 L 2.390625 -6.09375 C 2.671875 -6.53125 3.003906 -6.851562 3.390625 -7.0625 C 3.773438 -7.28125 4.21875 -7.390625 4.71875 -7.390625 C 5.550781 -7.390625 6.179688 -7.132812 6.609375 -6.625 C 7.035156 -6.113281 7.25 -5.359375 7.25 -4.359375 Z M 7.25 -4.359375 "/>
</g>
<g id="glyph-3-10">
<path d="M 7.25 -4.359375 L 7.25 0 L 6.0625 0 L 6.0625 -4.3125 C 6.0625 -5 5.925781 -5.507812 5.65625 -5.84375 C 5.394531 -6.1875 5 -6.359375 4.46875 -6.359375 C 3.820312 -6.359375 3.3125 -6.15625 2.9375 -5.75 C 2.570312 -5.34375 2.390625 -4.785156 2.390625 -4.078125 L 2.390625 0 L 1.203125 0 L 1.203125 -7.21875 L 2.390625 -7.21875 L 2.390625 -6.09375 C 2.671875 -6.53125 3.003906 -6.851562 3.390625 -7.0625 C 3.773438 -7.28125 4.21875 -7.390625 4.71875 -7.390625 C 5.550781 -7.390625 6.179688 -7.132812 6.609375 -6.625 C 7.035156 -6.113281 7.25 -5.359375 7.25 -4.359375 Z M 7.25 -4.359375 "/>
</g>
<g id="glyph-3-11">
<path d="M 6 -3.6875 C 6 -4.550781 5.820312 -5.21875 5.46875 -5.6875 C 5.113281 -6.164062 4.613281 -6.40625 3.96875 -6.40625 C 3.332031 -6.40625 2.835938 -6.164062 2.484375 -5.6875 C 2.128906 -5.21875 1.953125 -4.550781 1.953125 -3.6875 C 1.953125 -2.832031 2.128906 -2.171875 2.484375 -1.703125 C 2.835938 -1.234375 3.332031 -1 3.96875 -1 C 4.613281 -1 5.113281 -1.234375 5.46875 -1.703125 C 5.820312 -2.171875 6 -2.832031 6 -3.6875 Z M 7.1875 -0.890625 C 7.1875 0.335938 6.910156 1.25 6.359375 1.84375 C 5.816406 2.445312 4.984375 2.75 3.859375 2.75 C 3.441406 2.75 3.046875 2.71875 2.671875 2.65625 C 2.304688 2.59375 1.945312 2.492188 1.59375 2.359375 L 1.59375 1.21875 C 1.945312 1.40625 2.289062 1.539062 2.625 1.625 C 2.96875 1.71875 3.316406 1.765625 3.671875 1.765625 C 4.441406 1.765625 5.019531 1.5625 5.40625 1.15625 C 5.800781 0.75 6 0.132812 6 -0.6875 L 6 -1.265625 C 5.75 -0.835938 5.429688 -0.519531 5.046875 -0.3125 C 4.671875 -0.101562 4.21875 0 3.6875 0 C 2.800781 0 2.085938 -0.335938 1.546875 -1.015625 C 1.003906 -1.691406 0.734375 -2.582031 0.734375 -3.6875 C 0.734375 -4.8125 1.003906 -5.707031 1.546875 -6.375 C 2.085938 -7.050781 2.800781 -7.390625 3.6875 -7.390625 C 4.21875 -7.390625 4.671875 -7.285156 5.046875 -7.078125 C 5.429688 -6.867188 5.75 -6.550781 6 -6.125 L 6 -7.21875 L 7.1875 -7.21875 Z M 7.1875 -0.890625 "/>
</g>
<g id="glyph-3-12">
<path d="M 2.59375 -4.59375 L 2.59375 -1.0625 L 4.6875 -1.0625 C 5.382812 -1.0625 5.898438 -1.207031 6.234375 -1.5 C 6.578125 -1.789062 6.75 -2.238281 6.75 -2.84375 C 6.75 -3.4375 6.578125 -3.875 6.234375 -4.15625 C 5.898438 -4.445312 5.382812 -4.59375 4.6875 -4.59375 Z M 2.59375 -8.5625 L 2.59375 -5.65625 L 4.53125 -5.65625 C 5.164062 -5.65625 5.640625 -5.773438 5.953125 -6.015625 C 6.265625 -6.253906 6.421875 -6.617188 6.421875 -7.109375 C 6.421875 -7.585938 6.265625 -7.945312 5.953125 -8.1875 C 5.640625 -8.4375 5.164062 -8.5625 4.53125 -8.5625 Z M 1.296875 -9.625 L 4.625 -9.625 C 5.613281 -9.625 6.375 -9.414062 6.90625 -9 C 7.445312 -8.59375 7.71875 -8.007812 7.71875 -7.25 C 7.71875 -6.65625 7.578125 -6.179688 7.296875 -5.828125 C 7.023438 -5.484375 6.625 -5.269531 6.09375 -5.1875 C 6.738281 -5.050781 7.238281 -4.765625 7.59375 -4.328125 C 7.945312 -3.890625 8.125 -3.34375 8.125 -2.6875 C 8.125 -1.832031 7.832031 -1.171875 7.25 -0.703125 C 6.664062 -0.234375 5.832031 0 4.75 0 L 1.296875 0 Z M 1.296875 -9.625 "/>
</g>
<g id="glyph-3-13">
<path d="M 1.296875 -9.625 L 6.828125 -9.625 L 6.828125 -8.53125 L 2.59375 -8.53125 L 2.59375 -5.6875 L 6.421875 -5.6875 L 6.421875 -4.59375 L 2.59375 -4.59375 L 2.59375 0 L 1.296875 0 Z M 1.296875 -9.625 "/>
</g>
<g id="glyph-3-14">
<path d="M 0.640625 -4.140625 L 4.125 -4.140625 L 4.125 -3.09375 L 0.640625 -3.09375 Z M 0.640625 -4.140625 "/>
</g>
<g id="glyph-3-15">
<path d="M 1.296875 -9.625 L 3.046875 -9.625 L 7.3125 -1.578125 L 7.3125 -9.625 L 8.578125 -9.625 L 8.578125 0 L 6.828125 0 L 2.5625 -8.046875 L 2.5625 0 L 1.296875 0 Z M 1.296875 -9.625 "/>
</g>
<g id="glyph-3-16">
<path d="M 1.296875 -9.625 L 7.375 -9.625 L 7.375 -8.53125 L 2.59375 -8.53125 L 2.59375 -5.671875 L 7.1875 -5.671875 L 7.1875 -4.578125 L 2.59375 -4.578125 L 2.59375 -1.09375 L 7.5 -1.09375 L 7.5 0 L 1.296875 0 Z M 1.296875 -9.625 "/>
</g>
<g id="glyph-3-17">
<path d="M 6 -6.125 L 6 -10.03125 L 7.1875 -10.03125 L 7.1875 0 L 6 0 L 6 -1.078125 C 5.75 -0.648438 5.429688 -0.332031 5.046875 -0.125 C 4.671875 0.0820312 4.21875 0.1875 3.6875 0.1875 C 2.8125 0.1875 2.097656 -0.160156 1.546875 -0.859375 C 1.003906 -1.554688 0.734375 -2.472656 0.734375 -3.609375 C 0.734375 -4.742188 1.003906 -5.65625 1.546875 -6.34375 C 2.097656 -7.039062 2.8125 -7.390625 3.6875 -7.390625 C 4.21875 -7.390625 4.671875 -7.285156 5.046875 -7.078125 C 5.429688 -6.867188 5.75 -6.550781 6 -6.125 Z M 1.953125 -3.609375 C 1.953125 -2.734375 2.128906 -2.046875 2.484375 -1.546875 C 2.847656 -1.054688 3.34375 -0.8125 3.96875 -0.8125 C 4.59375 -0.8125 5.085938 -1.054688 5.453125 -1.546875 C 5.816406 -2.046875 6 -2.734375 6 -3.609375 C 6 -4.472656 5.816406 -5.15625 5.453125 -5.65625 C 5.085938 -6.15625 4.59375 -6.40625 3.96875 -6.40625 C 3.34375 -6.40625 2.847656 -6.15625 2.484375 -5.65625 C 2.128906 -5.15625 1.953125 -4.472656 1.953125 -3.609375 Z M 1.953125 -3.609375 "/>
</g>
<g id="glyph-3-18">
<path d="M 1.125 -2.84375 L 1.125 -7.21875 L 2.3125 -7.21875 L 2.3125 -2.890625 C 2.3125 -2.210938 2.441406 -1.703125 2.703125 -1.359375 C 2.972656 -1.015625 3.375 -0.84375 3.90625 -0.84375 C 4.550781 -0.84375 5.054688 -1.046875 5.421875 -1.453125 C 5.796875 -1.859375 5.984375 -2.414062 5.984375 -3.125 L 5.984375 -7.21875 L 7.171875 -7.21875 L 7.171875 0 L 5.984375 0 L 5.984375 -1.109375 C 5.691406 -0.671875 5.351562 -0.34375 4.96875 -0.125 C 4.59375 0.0820312 4.15625 0.1875 3.65625 0.1875 C 2.820312 0.1875 2.191406 -0.0664062 1.765625 -0.578125 C 1.335938 -1.097656 1.125 -1.851562 1.125 -2.84375 Z M 4.109375 -7.390625 Z M 4.109375 -7.390625 "/>
</g>
<g id="glyph-3-19">
<path d="M 5.421875 -6.109375 C 5.296875 -6.191406 5.148438 -6.25 4.984375 -6.28125 C 4.828125 -6.320312 4.65625 -6.34375 4.46875 -6.34375 C 3.800781 -6.34375 3.285156 -6.125 2.921875 -5.6875 C 2.566406 -5.25 2.390625 -4.617188 2.390625 -3.796875 L 2.390625 0 L 1.203125 0 L 1.203125 -7.21875 L 2.390625 -7.21875 L 2.390625 -6.09375 C 2.640625 -6.53125 2.960938 -6.851562 3.359375 -7.0625 C 3.765625 -7.28125 4.253906 -7.390625 4.828125 -7.390625 C 4.898438 -7.390625 4.984375 -7.382812 5.078125 -7.375 C 5.179688 -7.363281 5.296875 -7.347656 5.421875 -7.328125 Z M 5.421875 -6.109375 "/>
</g>
<g id="glyph-3-20">
<path d="M 4.046875 -6.390625 C 3.410156 -6.390625 2.90625 -6.140625 2.53125 -5.640625 C 2.164062 -5.148438 1.984375 -4.472656 1.984375 -3.609375 C 1.984375 -2.742188 2.164062 -2.0625 2.53125 -1.5625 C 2.894531 -1.0625 3.398438 -0.8125 4.046875 -0.8125 C 4.671875 -0.8125 5.164062 -1.0625 5.53125 -1.5625 C 5.90625 -2.0625 6.09375 -2.742188 6.09375 -3.609375 C 6.09375 -4.460938 5.90625 -5.140625 5.53125 -5.640625 C 5.164062 -6.140625 4.671875 -6.390625 4.046875 -6.390625 Z M 4.046875 -7.390625 C 5.078125 -7.390625 5.882812 -7.054688 6.46875 -6.390625 C 7.0625 -5.722656 7.359375 -4.796875 7.359375 -3.609375 C 7.359375 -2.421875 7.0625 -1.488281 6.46875 -0.8125 C 5.882812 -0.144531 5.078125 0.1875 4.046875 0.1875 C 3.003906 0.1875 2.191406 -0.144531 1.609375 -0.8125 C 1.023438 -1.488281 0.734375 -2.421875 0.734375 -3.609375 C 0.734375 -4.796875 1.023438 -5.722656 1.609375 -6.390625 C 2.191406 -7.054688 3.003906 -7.390625 4.046875 -7.390625 Z M 4.046875 -7.390625 "/>
</g>
<g id="glyph-3-21">
<path d="M 5.84375 -7 L 5.84375 -5.890625 C 5.507812 -6.054688 5.160156 -6.179688 4.796875 -6.265625 C 4.441406 -6.359375 4.070312 -6.40625 3.6875 -6.40625 C 3.09375 -6.40625 2.648438 -6.3125 2.359375 -6.125 C 2.066406 -5.945312 1.921875 -5.675781 1.921875 -5.3125 C 1.921875 -5.039062 2.023438 -4.828125 2.234375 -4.671875 C 2.441406 -4.515625 2.863281 -4.363281 3.5 -4.21875 L 3.90625 -4.125 C 4.75 -3.945312 5.347656 -3.691406 5.703125 -3.359375 C 6.054688 -3.035156 6.234375 -2.578125 6.234375 -1.984375 C 6.234375 -1.316406 5.96875 -0.785156 5.4375 -0.390625 C 4.90625 -0.00390625 4.175781 0.1875 3.25 0.1875 C 2.863281 0.1875 2.457031 0.148438 2.03125 0.078125 C 1.613281 0.00390625 1.175781 -0.109375 0.71875 -0.265625 L 0.71875 -1.484375 C 1.15625 -1.253906 1.585938 -1.082031 2.015625 -0.96875 C 2.441406 -0.863281 2.863281 -0.8125 3.28125 -0.8125 C 3.832031 -0.8125 4.257812 -0.90625 4.5625 -1.09375 C 4.863281 -1.28125 5.015625 -1.550781 5.015625 -1.90625 C 5.015625 -2.226562 4.90625 -2.472656 4.6875 -2.640625 C 4.46875 -2.816406 3.992188 -2.984375 3.265625 -3.140625 L 2.84375 -3.234375 C 2.113281 -3.390625 1.582031 -3.625 1.25 -3.9375 C 0.925781 -4.257812 0.765625 -4.703125 0.765625 -5.265625 C 0.765625 -5.941406 1.003906 -6.460938 1.484375 -6.828125 C 1.972656 -7.203125 2.660156 -7.390625 3.546875 -7.390625 C 3.984375 -7.390625 4.394531 -7.359375 4.78125 -7.296875 C 5.164062 -7.234375 5.519531 -7.132812 5.84375 -7 Z M 5.84375 -7 "/>
</g>
<g id="glyph-3-22">
<path d="M 4.25 0.671875 C 3.914062 1.523438 3.585938 2.082031 3.265625 2.34375 C 2.953125 2.613281 2.523438 2.75 1.984375 2.75 L 1.046875 2.75 L 1.046875 1.75 L 1.734375 1.75 C 2.066406 1.75 2.320312 1.671875 2.5 1.515625 C 2.675781 1.367188 2.875 1.003906 3.09375 0.421875 L 3.3125 -0.109375 L 0.390625 -7.21875 L 1.65625 -7.21875 L 3.90625 -1.578125 L 6.15625 -7.21875 L 7.421875 -7.21875 Z M 4.25 0.671875 "/>
</g>
<g id="glyph-3-23">
<path d="M 6.859375 -5.828125 C 7.160156 -6.367188 7.515625 -6.765625 7.921875 -7.015625 C 8.335938 -7.265625 8.828125 -7.390625 9.390625 -7.390625 C 10.140625 -7.390625 10.71875 -7.125 11.125 -6.59375 C 11.53125 -6.070312 11.734375 -5.328125 11.734375 -4.359375 L 11.734375 0 L 10.546875 0 L 10.546875 -4.3125 C 10.546875 -5.007812 10.421875 -5.523438 10.171875 -5.859375 C 9.929688 -6.191406 9.5625 -6.359375 9.0625 -6.359375 C 8.445312 -6.359375 7.957031 -6.15625 7.59375 -5.75 C 7.238281 -5.34375 7.0625 -4.785156 7.0625 -4.078125 L 7.0625 0 L 5.875 0 L 5.875 -4.3125 C 5.875 -5.007812 5.75 -5.523438 5.5 -5.859375 C 5.257812 -6.191406 4.882812 -6.359375 4.375 -6.359375 C 3.769531 -6.359375 3.285156 -6.148438 2.921875 -5.734375 C 2.566406 -5.328125 2.390625 -4.773438 2.390625 -4.078125 L 2.390625 0 L 1.203125 0 L 1.203125 -7.21875 L 2.390625 -7.21875 L 2.390625 -6.09375 C 2.660156 -6.539062 2.984375 -6.867188 3.359375 -7.078125 C 3.742188 -7.285156 4.195312 -7.390625 4.71875 -7.390625 C 5.238281 -7.390625 5.679688 -7.253906 6.046875 -6.984375 C 6.421875 -6.722656 6.691406 -6.335938 6.859375 -5.828125 Z M 6.859375 -5.828125 "/>
</g>
</g>
<clipPath id="clip-0">
<path clip-rule="nonzero" d="M 40.253906 323 L 351.339844 323 L 351.339844 324 L 40.253906 324 Z M 40.253906 323 "/>
</clipPath>
<clipPath id="clip-1">
<path clip-rule="nonzero" d="M 40.253906 245 L 351.339844 245 L 351.339844 247 L 40.253906 247 Z M 40.253906 245 "/>
</clipPath>
<clipPath id="clip-2">
<path clip-rule="nonzero" d="M 40.253906 168 L 351.339844 168 L 351.339844 169 L 40.253906 169 Z M 40.253906 168 "/>
</clipPath>
<clipPath id="clip-3">
<path clip-rule="nonzero" d="M 40.253906 90 L 351.339844 90 L 351.339844 92 L 40.253906 92 Z M 40.253906 90 "/>
</clipPath>
<clipPath id="clip-4">
<path clip-rule="nonzero" d="M 101 39.113281 L 102 39.113281 L 102 328.296875 L 101 328.296875 Z M 101 39.113281 "/>
</clipPath>
<clipPath id="clip-5">
<path clip-rule="nonzero" d="M 195 39.113281 L 197 39.113281 L 197 328.296875 L 195 328.296875 Z M 195 39.113281 "/>
</clipPath>
<clipPath id="clip-6">
<path clip-rule="nonzero" d="M 289 39.113281 L 291 39.113281 L 291 328.296875 L 289 328.296875 Z M 289 39.113281 "/>
</clipPath>
<clipPath id="clip-7">
<path clip-rule="nonzero" d="M 40.253906 284 L 351.339844 284 L 351.339844 286 L 40.253906 286 Z M 40.253906 284 "/>
</clipPath>
<clipPath id="clip-8">
<path clip-rule="nonzero" d="M 40.253906 206 L 351.339844 206 L 351.339844 208 L 40.253906 208 Z M 40.253906 206 "/>
</clipPath>
<clipPath id="clip-9">
<path clip-rule="nonzero" d="M 40.253906 129 L 351.339844 129 L 351.339844 131 L 40.253906 131 Z M 40.253906 129 "/>
</clipPath>
<clipPath id="clip-10">
<path clip-rule="nonzero" d="M 40.253906 51 L 351.339844 51 L 351.339844 53 L 40.253906 53 Z M 40.253906 51 "/>
</clipPath>
<clipPath id="clip-11">
<path clip-rule="nonzero" d="M 53 39.113281 L 55 39.113281 L 55 328.296875 L 53 328.296875 Z M 53 39.113281 "/>
</clipPath>
<clipPath id="clip-12">
<path clip-rule="nonzero" d="M 148 39.113281 L 150 39.113281 L 150 328.296875 L 148 328.296875 Z M 148 39.113281 "/>
</clipPath>
<clipPath id="clip-13">
<path clip-rule="nonzero" d="M 242 39.113281 L 244 39.113281 L 244 328.296875 L 242 328.296875 Z M 242 39.113281 "/>
</clipPath>
<clipPath id="clip-14">
<path clip-rule="nonzero" d="M 336 39.113281 L 338 39.113281 L 338 328.296875 L 336 328.296875 Z M 336 39.113281 "/>
</clipPath>
</defs>
<rect x="-50.4" y="-36" width="604.8" height="432" fill="rgb(100%, 100%, 100%)" fill-opacity="1"/>
<g clip-path="url(#clip-0)">
<path fill="none" stroke-width="0.533489" stroke-linecap="butt" stroke-linejoin="round" stroke="rgb(92.156863%, 92.156863%, 92.156863%)" stroke-opacity="1" stroke-miterlimit="10" d="M 40.253906 323.390625 L 351.339844 323.390625 "/>
</g>
<g clip-path="url(#clip-1)">
<path fill="none" stroke-width="0.533489" stroke-linecap="butt" stroke-linejoin="round" stroke="rgb(92.156863%, 92.156863%, 92.156863%)" stroke-opacity="1" stroke-miterlimit="10" d="M 40.253906 245.925781 L 351.339844 245.925781 "/>
</g>
<g clip-path="url(#clip-2)">
<path fill="none" stroke-width="0.533489" stroke-linecap="butt" stroke-linejoin="round" stroke="rgb(92.156863%, 92.156863%, 92.156863%)" stroke-opacity="1" stroke-miterlimit="10" d="M 40.253906 168.457031 L 351.339844 168.457031 "/>
</g>
<g clip-path="url(#clip-3)">
<path fill="none" stroke-width="0.533489" stroke-linecap="butt" stroke-linejoin="round" stroke="rgb(92.156863%, 92.156863%, 92.156863%)" stroke-opacity="1" stroke-miterlimit="10" d="M 40.253906 90.992188 L 351.339844 90.992188 "/>
</g>
<g clip-path="url(#clip-4)">
<path fill="none" stroke-width="0.533489" stroke-linecap="butt" stroke-linejoin="round" stroke="rgb(92.156863%, 92.156863%, 92.156863%)" stroke-opacity="1" stroke-miterlimit="10" d="M 101.527344 328.296875 L 101.527344 39.113281 "/>
</g>
<g clip-path="url(#clip-5)">
<path fill="none" stroke-width="0.533489" stroke-linecap="butt" stroke-linejoin="round" stroke="rgb(92.156863%, 92.156863%, 92.156863%)" stroke-opacity="1" stroke-miterlimit="10" d="M 195.796875 328.296875 L 195.796875 39.113281 "/>
</g>
<g clip-path="url(#clip-6)">
<path fill="none" stroke-width="0.533489" stroke-linecap="butt" stroke-linejoin="round" stroke="rgb(92.156863%, 92.156863%, 92.156863%)" stroke-opacity="1" stroke-miterlimit="10" d="M 290.066406 328.296875 L 290.066406 39.113281 "/>
</g>
<g clip-path="url(#clip-7)">
<path fill="none" stroke-width="1.066978" stroke-linecap="butt" stroke-linejoin="round" stroke="rgb(92.156863%, 92.156863%, 92.156863%)" stroke-opacity="1" stroke-miterlimit="10" d="M 40.253906 284.660156 L 351.339844 284.660156 "/>
</g>
<g clip-path="url(#clip-8)">
<path fill="none" stroke-width="1.066978" stroke-linecap="butt" stroke-linejoin="round" stroke="rgb(92.156863%, 92.156863%, 92.156863%)" stroke-opacity="1" stroke-miterlimit="10" d="M 40.253906 207.191406 L 351.339844 207.191406 "/>
</g>
<g clip-path="url(#clip-9)">
<path fill="none" stroke-width="1.066978" stroke-linecap="butt" stroke-linejoin="round" stroke="rgb(92.156863%, 92.156863%, 92.156863%)" stroke-opacity="1" stroke-miterlimit="10" d="M 40.253906 129.726562 L 351.339844 129.726562 "/>
</g>
<g clip-path="url(#clip-10)">
<path fill="none" stroke-width="1.066978" stroke-linecap="butt" stroke-linejoin="round" stroke="rgb(92.156863%, 92.156863%, 92.156863%)" stroke-opacity="1" stroke-miterlimit="10" d="M 40.253906 52.257812 L 351.339844 52.257812 "/>
</g>
<g clip-path="url(#clip-11)">
<path fill="none" stroke-width="1.066978" stroke-linecap="butt" stroke-linejoin="round" stroke="rgb(92.156863%, 92.156863%, 92.156863%)" stroke-opacity="1" stroke-miterlimit="10" d="M 54.394531 328.296875 L 54.394531 39.113281 "/>
</g>
<g clip-path="url(#clip-12)">
<path fill="none" stroke-width="1.066978" stroke-linecap="butt" stroke-linejoin="round" stroke="rgb(92.156863%, 92.156863%, 92.156863%)" stroke-opacity="1" stroke-miterlimit="10" d="M 148.664062 328.296875 L 148.664062 39.113281 "/>
</g>
<g clip-path="url(#clip-13)">
<path fill="none" stroke-width="1.066978" stroke-linecap="butt" stroke-linejoin="round" stroke="rgb(92.156863%, 92.156863%, 92.156863%)" stroke-opacity="1" stroke-miterlimit="10" d="M 242.933594 328.296875 L 242.933594 39.113281 "/>
</g>
<g clip-path="url(#clip-14)">
<path fill="none" stroke-width="1.066978" stroke-linecap="butt" stroke-linejoin="round" stroke="rgb(92.156863%, 92.156863%, 92.156863%)" stroke-opacity="1" stroke-miterlimit="10" d="M 337.199219 328.296875 L 337.199219 39.113281 "/>
</g>
<path fill="none" stroke-width="1.066978" stroke-linecap="butt" stroke-linejoin="round" stroke="rgb(0%, 0%, 0%)" stroke-opacity="1" stroke-miterlimit="10" d="M 54.394531 52.257812 L 148.664062 209.753906 L 242.933594 275.511719 L 337.199219 315.152344 "/>
<path fill="none" stroke-width="1.066978" stroke-linecap="butt" stroke-linejoin="round" stroke="rgb(0%, 0%, 0%)" stroke-opacity="1" stroke-dasharray="2.133957 2.133957" stroke-miterlimit="10" d="M 54.394531 52.257812 L 148.664062 242.441406 L 242.933594 277.925781 L 337.199219 298.734375 "/>
<path fill-rule="nonzero" fill="rgb(0%, 0%, 0%)" fill-opacity="1" stroke-width="0.708661" stroke-linecap="round" stroke-linejoin="round" stroke="rgb(0%, 0%, 0%)" stroke-opacity="1" stroke-miterlimit="10" d="M 56.347656 52.257812 C 56.347656 54.863281 52.441406 54.863281 52.441406 52.257812 C 52.441406 49.652344 56.347656 49.652344 56.347656 52.257812 "/>
<path fill-rule="nonzero" fill="rgb(0%, 0%, 0%)" fill-opacity="1" stroke-width="0.708661" stroke-linecap="round" stroke-linejoin="round" stroke="rgb(0%, 0%, 0%)" stroke-opacity="1" stroke-miterlimit="10" d="M 56.347656 52.257812 C 56.347656 54.863281 52.441406 54.863281 52.441406 52.257812 C 52.441406 49.652344 56.347656 49.652344 56.347656 52.257812 "/>
<path fill-rule="nonzero" fill="rgb(0%, 0%, 0%)" fill-opacity="1" stroke-width="0.708661" stroke-linecap="round" stroke-linejoin="round" stroke="rgb(0%, 0%, 0%)" stroke-opacity="1" stroke-miterlimit="10" d="M 150.617188 209.753906 C 150.617188 212.359375 146.707031 212.359375 146.707031 209.753906 C 146.707031 207.148438 150.617188 207.148438 150.617188 209.753906 "/>
<path fill-rule="nonzero" fill="rgb(0%, 0%, 0%)" fill-opacity="1" stroke-width="0.708661" stroke-linecap="round" stroke-linejoin="round" stroke="rgb(0%, 0%, 0%)" stroke-opacity="1" stroke-miterlimit="10" d="M 150.617188 242.441406 C 150.617188 245.046875 146.707031 245.046875 146.707031 242.441406 C 146.707031 239.832031 150.617188 239.832031 150.617188 242.441406 "/>
<path fill-rule="nonzero" fill="rgb(0%, 0%, 0%)" fill-opacity="1" stroke-width="0.708661" stroke-linecap="round" stroke-linejoin="round" stroke="rgb(0%, 0%, 0%)" stroke-opacity="1" stroke-miterlimit="10" d="M 244.886719 275.511719 C 244.886719 278.121094 240.976562 278.121094 240.976562 275.511719 C 240.976562 272.90625 244.886719 272.90625 244.886719 275.511719 "/>
<path fill-rule="nonzero" fill="rgb(0%, 0%, 0%)" fill-opacity="1" stroke-width="0.708661" stroke-linecap="round" stroke-linejoin="round" stroke="rgb(0%, 0%, 0%)" stroke-opacity="1" stroke-miterlimit="10" d="M 244.886719 277.925781 C 244.886719 280.53125 240.976562 280.53125 240.976562 277.925781 C 240.976562 275.316406 244.886719 275.316406 244.886719 277.925781 "/>
<path fill-rule="nonzero" fill="rgb(0%, 0%, 0%)" fill-opacity="1" stroke-width="0.708661" stroke-linecap="round" stroke-linejoin="round" stroke="rgb(0%, 0%, 0%)" stroke-opacity="1" stroke-miterlimit="10" d="M 339.15625 315.152344 C 339.15625 317.757812 335.246094 317.757812 335.246094 315.152344 C 335.246094 312.546875 339.15625 312.546875 339.15625 315.152344 "/>
<path fill-rule="nonzero" fill="rgb(0%, 0%, 0%)" fill-opacity="1" stroke-width="0.708661" stroke-linecap="round" stroke-linejoin="round" stroke="rgb(0%, 0%, 0%)" stroke-opacity="1" stroke-miterlimit="10" d="M 339.15625 298.734375 C 339.15625 301.339844 335.246094 301.339844 335.246094 298.734375 C 335.246094 296.125 339.15625 296.125 339.15625 298.734375 "/>
<g fill="rgb(30.196078%, 30.196078%, 30.196078%)" fill-opacity="1">
<use xlink:href="#glyph-0-0" x="24.125" y="287.867188"/>
<use xlink:href="#glyph-0-1" x="29.723828" y="287.867188"/>
</g>
<g fill="rgb(30.196078%, 30.196078%, 30.196078%)" fill-opacity="1">
<use xlink:href="#glyph-0-2" x="24.125" y="210.398438"/>
<use xlink:href="#glyph-0-1" x="29.723828" y="210.398438"/>
</g>
<g fill="rgb(30.196078%, 30.196078%, 30.196078%)" fill-opacity="1">
<use xlink:href="#glyph-0-3" x="24.125" y="132.933594"/>
<use xlink:href="#glyph-0-1" x="29.723828" y="132.933594"/>
</g>
<g fill="rgb(30.196078%, 30.196078%, 30.196078%)" fill-opacity="1">
<use xlink:href="#glyph-0-4" x="18.527344" y="55.464844"/>
<use xlink:href="#glyph-0-1" x="24.126172" y="55.464844"/>
<use xlink:href="#glyph-0-1" x="29.725" y="55.464844"/>
</g>
<g fill="rgb(30.196078%, 30.196078%, 30.196078%)" fill-opacity="1">
<use xlink:href="#glyph-0-5" x="43.195312" y="339.644531"/>
<use xlink:href="#glyph-0-1" x="48.794141" y="339.644531"/>
<use xlink:href="#glyph-0-1" x="54.392969" y="339.644531"/>
<use xlink:href="#glyph-0-1" x="59.991797" y="339.644531"/>
</g>
<g fill="rgb(30.196078%, 30.196078%, 30.196078%)" fill-opacity="1">
<use xlink:href="#glyph-0-5" x="137.464844" y="339.644531"/>
<use xlink:href="#glyph-0-1" x="143.063672" y="339.644531"/>
<use xlink:href="#glyph-0-1" x="148.6625" y="339.644531"/>
<use xlink:href="#glyph-0-6" x="154.261328" y="339.644531"/>
</g>
<g fill="rgb(30.196078%, 30.196078%, 30.196078%)" fill-opacity="1">
<use xlink:href="#glyph-0-5" x="231.734375" y="339.644531"/>
<use xlink:href="#glyph-0-1" x="237.333203" y="339.644531"/>
<use xlink:href="#glyph-0-4" x="242.932031" y="339.644531"/>
<use xlink:href="#glyph-0-1" x="248.530859" y="339.644531"/>
</g>
<g fill="rgb(30.196078%, 30.196078%, 30.196078%)" fill-opacity="1">
<use xlink:href="#glyph-0-5" x="326" y="339.644531"/>
<use xlink:href="#glyph-0-1" x="331.598828" y="339.644531"/>
<use xlink:href="#glyph-0-4" x="337.197656" y="339.644531"/>
<use xlink:href="#glyph-0-6" x="342.796484" y="339.644531"/>
</g>
<g fill="rgb(0%, 0%, 0%)" fill-opacity="1">
<use xlink:href="#glyph-1-0" x="183.421875" y="352.234375"/>
<use xlink:href="#glyph-1-1" x="190.141113" y="352.234375"/>
<use xlink:href="#glyph-1-2" x="196.908691" y="352.234375"/>
<use xlink:href="#glyph-1-3" x="203.649414" y="352.234375"/>
</g>
<g fill="rgb(0%, 0%, 0%)" fill-opacity="1">
<use xlink:href="#glyph-2-0" x="13.5" y="198.945312"/>
<use xlink:href="#glyph-2-1" x="13.5" y="195.701172"/>
<use xlink:href="#glyph-2-2" x="13.5" y="188.729492"/>
<use xlink:href="#glyph-2-3" x="13.5" y="181.74707"/>
<use xlink:href="#glyph-2-4" x="13.5" y="174.979492"/>
</g>
<g fill="rgb(0%, 0%, 0%)" fill-opacity="1">
<use xlink:href="#glyph-1-4" x="367.78125" y="167.695312"/>
<use xlink:href="#glyph-1-5" x="371.025391" y="167.695312"/>
<use xlink:href="#glyph-1-6" x="377.99707" y="167.695312"/>
<use xlink:href="#glyph-1-7" x="384.979492" y="167.695312"/>
<use xlink:href="#glyph-1-8" x="388.035645" y="167.695312"/>
<use xlink:href="#glyph-1-2" x="394.083496" y="167.695312"/>
<use xlink:href="#glyph-1-9" x="400.824219" y="167.695312"/>
<use xlink:href="#glyph-1-10" x="405.137207" y="167.695312"/>
<use xlink:href="#glyph-1-3" x="411.867188" y="167.695312"/>
</g>
<path fill="none" stroke-width="1.066978" stroke-linecap="butt" stroke-linejoin="round" stroke="rgb(0%, 0%, 0%)" stroke-opacity="1" stroke-miterlimit="10" d="M 369.507812 182.957031 L 383.332031 182.957031 "/>
<path fill="none" stroke-width="1.066978" stroke-linecap="butt" stroke-linejoin="round" stroke="rgb(0%, 0%, 0%)" stroke-opacity="1" stroke-dasharray="2.133957 2.133957" stroke-miterlimit="10" d="M 369.507812 200.238281 L 383.332031 200.238281 "/>
<g fill="rgb(0%, 0%, 0%)" fill-opacity="1">
<use xlink:href="#glyph-0-7" x="390.539062" y="186.167969"/>
<use xlink:href="#glyph-0-8" x="396.576172" y="186.167969"/>
<use xlink:href="#glyph-0-9" x="401.637891" y="186.167969"/>
<use xlink:href="#glyph-0-10" x="404.813281" y="186.167969"/>
<use xlink:href="#glyph-0-11" x="411.396094" y="186.167969"/>
<use xlink:href="#glyph-0-11" x="416.95625" y="186.167969"/>
</g>
<g fill="rgb(0%, 0%, 0%)" fill-opacity="1">
<use xlink:href="#glyph-0-10" x="390.539062" y="203.445312"/>
<use xlink:href="#glyph-0-12" x="397.121875" y="203.445312"/>
<use xlink:href="#glyph-0-13" x="402.514453" y="203.445312"/>
<use xlink:href="#glyph-0-14" x="405.964844" y="203.445312"/>
<use xlink:href="#glyph-0-15" x="411.542188" y="203.445312"/>
<use xlink:href="#glyph-0-12" x="415.160156" y="203.445312"/>
<use xlink:href="#glyph-0-16" x="420.552734" y="203.445312"/>
<use xlink:href="#glyph-0-17" x="422.997656" y="203.445312"/>
<use xlink:href="#glyph-0-18" x="425.794922" y="203.445312"/>
<use xlink:href="#glyph-0-19" x="431.208984" y="203.445312"/>
<use xlink:href="#glyph-0-20" x="436.047266" y="203.445312"/>
<use xlink:href="#glyph-0-21" x="441.43125" y="203.445312"/>
<use xlink:href="#glyph-0-22" x="446.016016" y="203.445312"/>
<use xlink:href="#glyph-0-21" x="451.223828" y="203.445312"/>
<use xlink:href="#glyph-0-13" x="455.808594" y="203.445312"/>
<use xlink:href="#glyph-0-18" x="459.258984" y="203.445312"/>
<use xlink:href="#glyph-0-23" x="464.673047" y="203.445312"/>
<use xlink:href="#glyph-0-17" x="473.245313" y="203.445312"/>
<use xlink:href="#glyph-0-16" x="476.042578" y="203.445312"/>
<use xlink:href="#glyph-0-20" x="478.4875" y="203.445312"/>
<use xlink:href="#glyph-0-21" x="483.871484" y="203.445312"/>
<use xlink:href="#glyph-0-21" x="488.45625" y="203.445312"/>
</g>
<g fill="rgb(0%, 0%, 0%)" fill-opacity="1">
<use xlink:href="#glyph-1-11" x="40.253906" y="31.347656"/>
<use xlink:href="#glyph-1-7" x="46.581055" y="31.347656"/>
<use xlink:href="#glyph-1-3" x="49.637207" y="31.347656"/>
<use xlink:href="#glyph-1-12" x="54.159668" y="31.347656"/>
<use xlink:href="#glyph-1-9" x="59.890625" y="31.347656"/>
<use xlink:href="#glyph-1-13" x="64.203613" y="31.347656"/>
<use xlink:href="#glyph-1-14" x="67.700195" y="31.347656"/>
<use xlink:href="#glyph-1-1" x="74.682617" y="31.347656"/>
<use xlink:href="#glyph-1-3" x="81.450195" y="31.347656"/>
<use xlink:href="#glyph-1-7" x="85.972656" y="31.347656"/>
<use xlink:href="#glyph-1-10" x="89.028809" y="31.347656"/>
<use xlink:href="#glyph-1-6" x="95.758789" y="31.347656"/>
<use xlink:href="#glyph-1-13" x="102.741211" y="31.347656"/>
<use xlink:href="#glyph-1-15" x="106.237793" y="31.347656"/>
<use xlink:href="#glyph-1-13" x="115.45459" y="31.347656"/>
<use xlink:href="#glyph-1-16" x="118.951172" y="31.347656"/>
<use xlink:href="#glyph-1-17" x="125.949707" y="31.347656"/>
<use xlink:href="#glyph-1-17" x="132.948242" y="31.347656"/>
</g>
<g fill="rgb(0%, 0%, 0%)" fill-opacity="1">
<use xlink:href="#glyph-3-0" x="40.253906" y="15.101562"/>
<use xlink:href="#glyph-3-1" x="49.425586" y="15.101562"/>
<use xlink:href="#glyph-3-2" x="57.54668" y="15.101562"/>
<use xlink:href="#glyph-3-3" x="61.214063" y="15.101562"/>
<use xlink:href="#glyph-3-4" x="69.30293" y="15.101562"/>
<use xlink:href="#glyph-3-5" x="74.478516" y="15.101562"/>
<use xlink:href="#glyph-3-6" x="78.145898" y="15.101562"/>
<use xlink:href="#glyph-3-1" x="85.957617" y="15.101562"/>
<use xlink:href="#glyph-3-7" x="94.078711" y="15.101562"/>
<use xlink:href="#glyph-3-8" x="98.274609" y="15.101562"/>
<use xlink:href="#glyph-3-9" x="105.532031" y="15.101562"/>
<use xlink:href="#glyph-3-3" x="113.898047" y="15.101562"/>
<use xlink:href="#glyph-3-10" x="121.986914" y="15.101562"/>
<use xlink:href="#glyph-3-11" x="130.35293" y="15.101562"/>
<use xlink:href="#glyph-3-1" x="138.731836" y="15.101562"/>
<use xlink:href="#glyph-3-7" x="146.85293" y="15.101562"/>
<use xlink:href="#glyph-3-5" x="151.048828" y="15.101562"/>
<use xlink:href="#glyph-3-10" x="154.716211" y="15.101562"/>
<use xlink:href="#glyph-3-7" x="163.082227" y="15.101562"/>
<use xlink:href="#glyph-3-12" x="167.278125" y="15.101562"/>
<use xlink:href="#glyph-3-13" x="176.333789" y="15.101562"/>
<use xlink:href="#glyph-3-14" x="183.926367" y="15.101562"/>
<use xlink:href="#glyph-3-15" x="188.689453" y="15.101562"/>
<use xlink:href="#glyph-3-16" x="198.563672" y="15.101562"/>
<use xlink:href="#glyph-3-16" x="206.903906" y="15.101562"/>
<use xlink:href="#glyph-3-7" x="215.244141" y="15.101562"/>
<use xlink:href="#glyph-3-3" x="219.440039" y="15.101562"/>
<use xlink:href="#glyph-3-10" x="227.528906" y="15.101562"/>
<use xlink:href="#glyph-3-17" x="235.894922" y="15.101562"/>
<use xlink:href="#glyph-3-7" x="244.273828" y="15.101562"/>
<use xlink:href="#glyph-3-10" x="248.469727" y="15.101562"/>
<use xlink:href="#glyph-3-3" x="256.835742" y="15.101562"/>
<use xlink:href="#glyph-3-4" x="264.924609" y="15.101562"/>
<use xlink:href="#glyph-3-18" x="270.100195" y="15.101562"/>
<use xlink:href="#glyph-3-19" x="278.466211" y="15.101562"/>
<use xlink:href="#glyph-3-3" x="283.893164" y="15.101562"/>
<use xlink:href="#glyph-3-2" x="291.982031" y="15.101562"/>
<use xlink:href="#glyph-3-7" x="295.649414" y="15.101562"/>
<use xlink:href="#glyph-3-1" x="299.845312" y="15.101562"/>
<use xlink:href="#glyph-3-8" x="307.966406" y="15.101562"/>
<use xlink:href="#glyph-3-20" x="315.223828" y="15.101562"/>
<use xlink:href="#glyph-3-21" x="323.299805" y="15.101562"/>
<use xlink:href="#glyph-3-22" x="330.176953" y="15.101562"/>
<use xlink:href="#glyph-3-21" x="337.988672" y="15.101562"/>
<use xlink:href="#glyph-3-4" x="344.86582" y="15.101562"/>
<use xlink:href="#glyph-3-1" x="350.041406" y="15.101562"/>
<use xlink:href="#glyph-3-23" x="358.1625" y="15.101562"/>
<use xlink:href="#glyph-3-7" x="371.020898" y="15.101562"/>
<use xlink:href="#glyph-3-2" x="375.216797" y="15.101562"/>
<use xlink:href="#glyph-3-20" x="378.88418" y="15.101562"/>
<use xlink:href="#glyph-3-21" x="386.960156" y="15.101562"/>
<use xlink:href="#glyph-3-21" x="393.837305" y="15.101562"/>
</g>
</svg>
