<?xml version="1.0" encoding="UTF-8"?>
<svg xmlns="http://www.w3.org/2000/svg" xmlns:xlink="http://www.w3.org/1999/xlink" width="504" height="360" viewBox="0 0 504 360">
<defs>
<g>
<g id="glyph-0-0">
<path d="M 0.859375 -6.40625 L 2.15625 -6.40625 L 3.796875 -2.046875 L 5.4375 -6.40625 L 6.734375 -6.40625 L 6.734375 0 L 5.890625 0 L 5.890625 -5.625 L 4.234375 -1.234375 L 3.359375 -1.234375 L 1.703125 -5.625 L 1.703125 0 L 0.859375 0 Z M 0.859375 -6.40625 "/>
</g>
<g id="glyph-0-1">
<path d="M 3.015625 -2.421875 C 2.378906 -2.421875 1.9375 -2.347656 1.6875 -2.203125 C 1.4375 -2.054688 1.3125 -1.804688 1.3125 -1.453125 C 1.3125 -1.171875 1.40625 -0.945312 1.59375 -0.78125 C 1.78125 -0.613281 2.03125 -0.53125 2.34375 -0.53125 C 2.78125 -0.53125 3.128906 -0.6875 3.390625 -1 C 3.660156 -1.3125 3.796875 -1.722656 3.796875 -2.234375 L 3.796875 -2.421875 Z M 4.59375 -2.75 L 4.59375 0 L 3.796875 0 L 3.796875 -0.734375 C 3.617188 -0.441406 3.394531 -0.222656 3.125 -0.078125 C 2.851562 0.0546875 2.523438 0.125 2.140625 0.125 C 1.648438 0.125 1.257812 -0.0078125 0.96875 -0.28125 C 0.675781 -0.5625 0.53125 -0.9375 0.53125 -1.40625 C 0.53125 -1.945312 0.707031 -2.351562 1.0625 -2.625 C 1.425781 -2.894531 1.96875 -3.03125 2.6875 -3.03125 L 3.796875 -3.03125 L 3.796875 -3.109375 C 3.796875 -3.472656 3.675781 -3.753906 3.4375 -3.953125 C 3.195312 -4.148438 2.863281 -4.25 2.4375 -4.25 C 2.15625 -4.25 1.882812 -4.21875 1.625 -4.15625 C 1.363281 -4.09375 1.113281 -3.992188 0.875 -3.859375 L 0.875 -4.59375 C 1.164062 -4.707031 1.445312 -4.789062 1.71875 -4.84375 C 1.988281 -4.894531 2.253906 -4.921875 2.515625 -4.921875 C 3.210938 -4.921875 3.734375 -4.738281 4.078125 -4.375 C 4.421875 -4.019531 4.59375 -3.476562 4.59375 -2.75 Z M 4.59375 -2.75 "/>
</g>
<g id="glyph-0-2">
<path d="M 0.828125 -4.8125 L 1.625 -4.8125 L 1.625 0 L 0.828125 0 Z M 0.828125 -6.6875 L 1.625 -6.6875 L 1.625 -5.6875 L 0.828125 -5.6875 Z M 0.828125 -6.6875 "/>
</g>
<g id="glyph-0-3">
<path d="M 0.484375 -4.8125 L 4.234375 -4.8125 L 4.234375 -4.09375 L 1.265625 -0.625 L 4.234375 -0.625 L 4.234375 0 L 0.375 0 L 0.375 -0.71875 L 3.34375 -4.171875 L 0.484375 -4.171875 Z M 0.484375 -4.8125 "/>
</g>
<g id="glyph-0-4">
<path d="M 4.9375 -2.609375 L 4.9375 -2.21875 L 1.3125 -2.21875 C 1.34375 -1.675781 1.503906 -1.257812 1.796875 -0.96875 C 2.085938 -0.6875 2.5 -0.546875 3.03125 -0.546875 C 3.332031 -0.546875 3.625 -0.582031 3.90625 -0.65625 C 4.195312 -0.726562 4.484375 -0.84375 4.765625 -1 L 4.765625 -0.25 C 4.472656 -0.125 4.175781 -0.0273438 3.875 0.03125 C 3.582031 0.09375 3.285156 0.125 2.984375 0.125 C 2.210938 0.125 1.601562 -0.0976562 1.15625 -0.546875 C 0.707031 -0.992188 0.484375 -1.597656 0.484375 -2.359375 C 0.484375 -3.148438 0.695312 -3.773438 1.125 -4.234375 C 1.550781 -4.691406 2.125 -4.921875 2.84375 -4.921875 C 3.488281 -4.921875 4 -4.710938 4.375 -4.296875 C 4.75 -3.878906 4.9375 -3.316406 4.9375 -2.609375 Z M 4.15625 -2.828125 C 4.144531 -3.265625 4.019531 -3.609375 3.78125 -3.859375 C 3.550781 -4.117188 3.242188 -4.25 2.859375 -4.25 C 2.410156 -4.25 2.050781 -4.125 1.78125 -3.875 C 1.519531 -3.632812 1.367188 -3.285156 1.328125 -2.828125 Z M 4.15625 -2.828125 "/>
</g>
<g id="glyph-0-5">
<path d="M 3.90625 -3 C 4.09375 -2.9375 4.273438 -2.800781 4.453125 -2.59375 C 4.628906 -2.394531 4.804688 -2.113281 4.984375 -1.75 L 5.859375 0 L 4.921875 0 L 4.109375 -1.640625 C 3.890625 -2.078125 3.679688 -2.363281 3.484375 -2.5 C 3.285156 -2.632812 3.015625 -2.703125 2.671875 -2.703125 L 1.734375 -2.703125 L 1.734375 0 L 0.859375 0 L 0.859375 -6.40625 L 2.828125 -6.40625 C 3.554688 -6.40625 4.097656 -6.253906 4.453125 -5.953125 C 4.816406 -5.648438 5 -5.1875 5 -4.5625 C 5 -4.15625 4.90625 -3.816406 4.71875 -3.546875 C 4.53125 -3.285156 4.257812 -3.101562 3.90625 -3 Z M 1.734375 -5.703125 L 1.734375 -3.421875 L 2.828125 -3.421875 C 3.242188 -3.421875 3.554688 -3.515625 3.765625 -3.703125 C 3.984375 -3.898438 4.09375 -4.1875 4.09375 -4.5625 C 4.09375 -4.9375 3.984375 -5.21875 3.765625 -5.40625 C 3.554688 -5.601562 3.242188 -5.703125 2.828125 -5.703125 Z M 1.734375 -5.703125 "/>
</g>
<g id="glyph-0-6">
<path d="M 4.296875 -4.625 L 4.296875 -3.890625 C 4.066406 -4.015625 3.835938 -4.101562 3.609375 -4.15625 C 3.390625 -4.21875 3.164062 -4.25 2.9375 -4.25 C 2.425781 -4.25 2.023438 -4.085938 1.734375 -3.765625 C 1.453125 -3.441406 1.3125 -2.988281 1.3125 -2.40625 C 1.3125 -1.8125 1.453125 -1.351562 1.734375 -1.03125 C 2.023438 -0.707031 2.425781 -0.546875 2.9375 -0.546875 C 3.164062 -0.546875 3.390625 -0.578125 3.609375 -0.640625 C 3.835938 -0.703125 4.066406 -0.796875 4.296875 -0.921875 L 4.296875 -0.1875 C 4.066406 -0.0820312 3.832031 -0.00390625 3.59375 0.046875 C 3.363281 0.0976562 3.117188 0.125 2.859375 0.125 C 2.128906 0.125 1.550781 -0.0976562 1.125 -0.546875 C 0.695312 -1.003906 0.484375 -1.625 0.484375 -2.40625 C 0.484375 -3.1875 0.695312 -3.800781 1.125 -4.25 C 1.5625 -4.695312 2.15625 -4.921875 2.90625 -4.921875 C 3.144531 -4.921875 3.378906 -4.894531 3.609375 -4.84375 C 3.847656 -4.800781 4.078125 -4.726562 4.296875 -4.625 Z M 4.296875 -4.625 "/>
</g>
<g id="glyph-0-7">
<path d="M 0.859375 -6.40625 L 4.546875 -6.40625 L 4.546875 -5.6875 L 1.734375 -5.6875 L 1.734375 -3.796875 L 4.28125 -3.796875 L 4.28125 -3.0625 L 1.734375 -3.0625 L 1.734375 0 L 0.859375 0 Z M 0.859375 -6.40625 "/>
</g>
<g id="glyph-0-8">
<path d="M 4.28125 -2.40625 C 4.28125 -2.976562 4.160156 -3.429688 3.921875 -3.765625 C 3.679688 -4.097656 3.351562 -4.265625 2.9375 -4.265625 C 2.519531 -4.265625 2.191406 -4.097656 1.953125 -3.765625 C 1.710938 -3.429688 1.59375 -2.976562 1.59375 -2.40625 C 1.59375 -1.820312 1.710938 -1.363281 1.953125 -1.03125 C 2.191406 -0.695312 2.519531 -0.53125 2.9375 -0.53125 C 3.351562 -0.53125 3.679688 -0.695312 3.921875 -1.03125 C 4.160156 -1.363281 4.28125 -1.820312 4.28125 -2.40625 Z M 1.59375 -4.078125 C 1.757812 -4.367188 1.96875 -4.582031 2.21875 -4.71875 C 2.476562 -4.851562 2.78125 -4.921875 3.125 -4.921875 C 3.707031 -4.921875 4.179688 -4.6875 4.546875 -4.21875 C 4.921875 -3.757812 5.109375 -3.15625 5.109375 -2.40625 C 5.109375 -1.644531 4.921875 -1.03125 4.546875 -0.5625 C 4.179688 -0.101562 3.707031 0.125 3.125 0.125 C 2.78125 0.125 2.476562 0.0546875 2.21875 -0.078125 C 1.96875 -0.222656 1.757812 -0.4375 1.59375 -0.71875 L 1.59375 0 L 0.796875 0 L 0.796875 -6.6875 L 1.59375 -6.6875 Z M 1.59375 -4.078125 "/>
</g>
<g id="glyph-0-9">
<path d="M 3.609375 -4.078125 C 3.523438 -4.128906 3.429688 -4.164062 3.328125 -4.1875 C 3.222656 -4.207031 3.109375 -4.21875 2.984375 -4.21875 C 2.535156 -4.21875 2.191406 -4.070312 1.953125 -3.78125 C 1.710938 -3.488281 1.59375 -3.070312 1.59375 -2.53125 L 1.59375 0 L 0.796875 0 L 0.796875 -4.8125 L 1.59375 -4.8125 L 1.59375 -4.0625 C 1.757812 -4.351562 1.972656 -4.566406 2.234375 -4.703125 C 2.503906 -4.847656 2.832031 -4.921875 3.21875 -4.921875 C 3.269531 -4.921875 3.328125 -4.914062 3.390625 -4.90625 C 3.453125 -4.90625 3.523438 -4.898438 3.609375 -4.890625 Z M 3.609375 -4.078125 "/>
</g>
<g id="glyph-0-10">
<path d="M 3.890625 -4.671875 L 3.890625 -3.921875 C 3.671875 -4.035156 3.441406 -4.117188 3.203125 -4.171875 C 2.960938 -4.234375 2.710938 -4.265625 2.453125 -4.265625 C 2.054688 -4.265625 1.757812 -4.203125 1.5625 -4.078125 C 1.375 -3.960938 1.28125 -3.785156 1.28125 -3.546875 C 1.28125 -3.359375 1.347656 -3.210938 1.484375 -3.109375 C 1.628906 -3.003906 1.910156 -2.90625 2.328125 -2.8125 L 2.609375 -2.75 C 3.160156 -2.632812 3.554688 -2.46875 3.796875 -2.25 C 4.035156 -2.03125 4.15625 -1.722656 4.15625 -1.328125 C 4.15625 -0.878906 3.976562 -0.523438 3.625 -0.265625 C 3.269531 -0.00390625 2.785156 0.125 2.171875 0.125 C 1.910156 0.125 1.640625 0.0976562 1.359375 0.046875 C 1.078125 -0.00390625 0.785156 -0.078125 0.484375 -0.171875 L 0.484375 -1 C 0.773438 -0.84375 1.0625 -0.722656 1.34375 -0.640625 C 1.625 -0.566406 1.90625 -0.53125 2.1875 -0.53125 C 2.550781 -0.53125 2.832031 -0.59375 3.03125 -0.71875 C 3.238281 -0.851562 3.34375 -1.035156 3.34375 -1.265625 C 3.34375 -1.484375 3.269531 -1.648438 3.125 -1.765625 C 2.976562 -1.878906 2.660156 -1.988281 2.171875 -2.09375 L 1.90625 -2.15625 C 1.40625 -2.257812 1.046875 -2.414062 0.828125 -2.625 C 0.617188 -2.84375 0.515625 -3.140625 0.515625 -3.515625 C 0.515625 -3.960938 0.671875 -4.304688 0.984375 -4.546875 C 1.304688 -4.796875 1.765625 -4.921875 2.359375 -4.921875 C 2.648438 -4.921875 2.921875 -4.898438 3.171875 -4.859375 C 3.429688 -4.816406 3.671875 -4.753906 3.890625 -4.671875 Z M 3.890625 -4.671875 "/>
</g>
<g id="glyph-0-11">
<path d="M 3.46875 -5.828125 C 2.832031 -5.828125 2.328125 -5.59375 1.953125 -5.125 C 1.585938 -4.65625 1.40625 -4.015625 1.40625 -3.203125 C 1.40625 -2.390625 1.585938 -1.75 1.953125 -1.28125 C 2.328125 -0.8125 2.832031 -0.578125 3.46875 -0.578125 C 4.09375 -0.578125 4.585938 -0.8125 4.953125 -1.28125 C 5.328125 -1.75 5.515625 -2.390625 5.515625 -3.203125 C 5.515625 -4.015625 5.328125 -4.65625 4.953125 -5.125 C 4.585938 -5.59375 4.09375 -5.828125 3.46875 -5.828125 Z M 3.46875 -6.53125 C 4.363281 -6.53125 5.082031 -6.226562 5.625 -5.625 C 6.164062 -5.019531 6.4375 -4.210938 6.4375 -3.203125 C 6.4375 -2.191406 6.164062 -1.382812 5.625 -0.78125 C 5.082031 -0.175781 4.363281 0.125 3.46875 0.125 C 2.5625 0.125 1.835938 -0.171875 1.296875 -0.765625 C 0.765625 -1.367188 0.5 -2.179688 0.5 -3.203125 C 0.5 -4.210938 0.765625 -5.019531 1.296875 -5.625 C 1.835938 -6.226562 2.5625 -6.53125 3.46875 -6.53125 Z M 3.46875 -6.53125 "/>
</g>
<g id="glyph-0-12">
<path d="M 1.609375 -6.171875 L 1.609375 -4.8125 L 3.234375 -4.8125 L 3.234375 -4.203125 L 1.609375 -4.203125 L 1.609375 -1.578125 C 1.609375 -1.191406 1.660156 -0.941406 1.765625 -0.828125 C 1.878906 -0.710938 2.097656 -0.65625 2.421875 -0.65625 L 3.234375 -0.65625 L 3.234375 0 L 2.421875 0 C 1.816406 0 1.394531 -0.113281 1.15625 -0.34375 C 0.925781 -0.570312 0.8125 -0.984375 0.8125 -1.578125 L 0.8125 -4.203125 L 0.234375 -4.203125 L 0.234375 -4.8125 L 0.8125 -4.8125 L 0.8125 -6.171875 Z M 1.609375 -6.171875 "/>
</g>
<g id="glyph-0-13">
<path d="M 4.828125 -2.90625 L 4.828125 0 L 4.03125 0 L 4.03125 -2.875 C 4.03125 -3.332031 3.941406 -3.671875 3.765625 -3.890625 C 3.585938 -4.117188 3.320312 -4.234375 2.96875 -4.234375 C 2.539062 -4.234375 2.203125 -4.097656 1.953125 -3.828125 C 1.710938 -3.554688 1.59375 -3.1875 1.59375 -2.71875 L 1.59375 0 L 0.796875 0 L 0.796875 -6.6875 L 1.59375 -6.6875 L 1.59375 -4.0625 C 1.78125 -4.351562 2 -4.566406 2.25 -4.703125 C 2.507812 -4.847656 2.8125 -4.921875 3.15625 -4.921875 C 3.707031 -4.921875 4.125 -4.75 4.40625 -4.40625 C 4.6875 -4.070312 4.828125 -3.570312 4.828125 -2.90625 Z M 4.828125 -2.90625 "/>
</g>
<g id="glyph-0-14">
</g>
<g id="glyph-0-15">
<path d="M 2.6875 -4.25 C 2.269531 -4.25 1.9375 -4.082031 1.6875 -3.75 C 1.4375 -3.425781 1.3125 -2.976562 1.3125 -2.40625 C 1.3125 -1.820312 1.429688 -1.363281 1.671875 -1.03125 C 1.921875 -0.707031 2.257812 -0.546875 2.6875 -0.546875 C 3.113281 -0.546875 3.445312 -0.710938 3.6875 -1.046875 C 3.9375 -1.378906 4.0625 -1.832031 4.0625 -2.40625 C 4.0625 -2.96875 3.9375 -3.414062 3.6875 -3.75 C 3.445312 -4.082031 3.113281 -4.25 2.6875 -4.25 Z M 2.6875 -4.921875 C 3.375 -4.921875 3.914062 -4.695312 4.3125 -4.25 C 4.707031 -3.8125 4.90625 -3.195312 4.90625 -2.40625 C 4.90625 -1.613281 4.707031 -0.992188 4.3125 -0.546875 C 3.914062 -0.0976562 3.375 0.125 2.6875 0.125 C 2 0.125 1.457031 -0.0976562 1.0625 -0.546875 C 0.675781 -0.992188 0.484375 -1.613281 0.484375 -2.40625 C 0.484375 -3.195312 0.675781 -3.8125 1.0625 -4.25 C 1.457031 -4.695312 2 -4.921875 2.6875 -4.921875 Z M 2.6875 -4.921875 "/>
</g>
<g id="glyph-0-16">
<path d="M 1.59375 -0.71875 L 1.59375 1.828125 L 0.796875 1.828125 L 0.796875 -4.8125 L 1.59375 -4.8125 L 1.59375 -4.078125 C 1.757812 -4.367188 1.96875 -4.582031 2.21875 -4.71875 C 2.476562 -4.851562 2.78125 -4.921875 3.125 -4.921875 C 3.707031 -4.921875 4.179688 -4.6875 4.546875 -4.21875 C 4.921875 -3.757812 5.109375 -3.15625 5.109375 -2.40625 C 5.109375 -1.644531 4.921875 -1.03125 4.546875 -0.5625 C 4.179688 -0.101562 3.707031 0.125 3.125 0.125 C 2.78125 0.125 2.476562 0.0546875 2.21875 -0.078125 C 1.96875 -0.222656 1.757812 -0.4375 1.59375 -0.71875 Z M 4.28125 -2.40625 C 4.28125 -2.976562 4.160156 -3.429688 3.921875 -3.765625 C 3.679688 -4.097656 3.351562 -4.265625 2.9375 -4.265625 C 2.519531 -4.265625 2.191406 -4.097656 1.953125 -3.765625 C 1.710938 -3.429688 1.59375 -2.976562 1.59375 -2.40625 C 1.59375 -1.820312 1.710938 -1.363281 1.953125 -1.03125 C 2.191406 -0.695312 2.519531 -0.53125 2.9375 -0.53125 C 3.351562 -0.53125 3.679688 -0.695312 3.921875 -1.03125 C 4.160156 -1.363281 4.28125 -1.820312 4.28125 -2.40625 Z M 4.28125 -2.40625 "/>
</g>
<g id="glyph-0-17">
<path d="M 4.828125 -2.90625 L 4.828125 0 L 4.03125 0 L 4.03125 -2.875 C 4.03125 -3.332031 3.941406 -3.671875 3.765625 -3.890625 C 3.585938 -4.117188 3.320312 -4.234375 2.96875 -4.234375 C 2.539062 -4.234375 2.203125 -4.097656 1.953125 -3.828125 C 1.710938 -3.554688 1.59375 -3.1875 1.59375 -2.71875 L 1.59375 0 L 0.796875 0 L 0.796875 -4.8125 L 1.59375 -4.8125 L 1.59375 -4.0625 C 1.78125 -4.351562 2 -4.566406 2.25 -4.703125 C 2.507812 -4.847656 2.8125 -4.921875 3.15625 -4.921875 C 3.707031 -4.921875 4.125 -4.75 4.40625 -4.40625 C 4.6875 -4.070312 4.828125 -3.570312 4.828125 -2.90625 Z M 4.828125 -2.90625 "/>
</g>
<g id="glyph-0-18">
<path d="M 0.9375 -1.09375 L 1.84375 -1.09375 L 1.84375 0 L 0.9375 0 Z M 0.9375 -1.09375 "/>
</g>
<g id="glyph-0-19">
<path d="M 2.515625 0 L 0.0625 -6.40625 L 0.96875 -6.40625 L 3 -1.015625 L 5.046875 -6.40625 L 5.9375 -6.40625 L 3.5 0 Z M 2.515625 0 "/>
</g>
<g id="glyph-0-20">
<path d="M 4 -2.46875 C 4 -3.03125 3.878906 -3.46875 3.640625 -3.78125 C 3.398438 -4.101562 3.066406 -4.265625 2.640625 -4.265625 C 2.222656 -4.265625 1.894531 -4.101562 1.65625 -3.78125 C 1.414062 -3.46875 1.296875 -3.03125 1.296875 -2.46875 C 1.296875 -1.894531 1.414062 -1.445312 1.65625 -1.125 C 1.894531 -0.8125 2.222656 -0.65625 2.640625 -0.65625 C 3.066406 -0.65625 3.398438 -0.8125 3.640625 -1.125 C 3.878906 -1.445312 4 -1.894531 4 -2.46875 Z M 4.78125 -0.59375 C 4.78125 0.214844 4.597656 0.820312 4.234375 1.21875 C 3.867188 1.625 3.3125 1.828125 2.5625 1.828125 C 2.289062 1.828125 2.03125 1.804688 1.78125 1.765625 C 1.53125 1.722656 1.289062 1.660156 1.0625 1.578125 L 1.0625 0.8125 C 1.289062 0.9375 1.519531 1.023438 1.75 1.078125 C 1.976562 1.140625 2.207031 1.171875 2.4375 1.171875 C 2.957031 1.171875 3.347656 1.035156 3.609375 0.765625 C 3.867188 0.492188 4 0.0859375 4 -0.453125 L 4 -0.84375 C 3.832031 -0.5625 3.617188 -0.347656 3.359375 -0.203125 C 3.109375 -0.0664062 2.804688 0 2.453125 0 C 1.859375 0 1.378906 -0.222656 1.015625 -0.671875 C 0.660156 -1.117188 0.484375 -1.71875 0.484375 -2.46875 C 0.484375 -3.207031 0.660156 -3.800781 1.015625 -4.25 C 1.378906 -4.695312 1.859375 -4.921875 2.453125 -4.921875 C 2.804688 -4.921875 3.109375 -4.847656 3.359375 -4.703125 C 3.617188 -4.566406 3.832031 -4.359375 4 -4.078125 L 4 -4.8125 L 4.78125 -4.8125 Z M 4.78125 -0.59375 "/>
</g>
<g id="glyph-0-21">
<path d="M 0.828125 -6.6875 L 1.625 -6.6875 L 1.625 0 L 0.828125 0 Z M 0.828125 -6.6875 "/>
</g>
<g id="glyph-0-22">
<path d="M 4.703125 -6.203125 L 4.703125 -5.359375 C 4.378906 -5.515625 4.070312 -5.628906 3.78125 -5.703125 C 3.488281 -5.785156 3.203125 -5.828125 2.921875 -5.828125 C 2.453125 -5.828125 2.085938 -5.734375 1.828125 -5.546875 C 1.578125 -5.367188 1.453125 -5.109375 1.453125 -4.765625 C 1.453125 -4.484375 1.535156 -4.269531 1.703125 -4.125 C 1.878906 -3.976562 2.203125 -3.863281 2.671875 -3.78125 L 3.203125 -3.671875 C 3.847656 -3.546875 4.320312 -3.328125 4.625 -3.015625 C 4.9375 -2.703125 5.09375 -2.285156 5.09375 -1.765625 C 5.09375 -1.148438 4.882812 -0.679688 4.46875 -0.359375 C 4.050781 -0.0351562 3.441406 0.125 2.640625 0.125 C 2.335938 0.125 2.015625 0.0859375 1.671875 0.015625 C 1.328125 -0.046875 0.972656 -0.144531 0.609375 -0.28125 L 0.609375 -1.171875 C 0.960938 -0.972656 1.304688 -0.820312 1.640625 -0.71875 C 1.972656 -0.625 2.304688 -0.578125 2.640625 -0.578125 C 3.128906 -0.578125 3.507812 -0.671875 3.78125 -0.859375 C 4.050781 -1.054688 4.1875 -1.335938 4.1875 -1.703125 C 4.1875 -2.015625 4.085938 -2.257812 3.890625 -2.4375 C 3.703125 -2.613281 3.390625 -2.75 2.953125 -2.84375 L 2.421875 -2.953125 C 1.773438 -3.078125 1.304688 -3.273438 1.015625 -3.546875 C 0.722656 -3.828125 0.578125 -4.210938 0.578125 -4.703125 C 0.578125 -5.265625 0.773438 -5.707031 1.171875 -6.03125 C 1.578125 -6.363281 2.128906 -6.53125 2.828125 -6.53125 C 3.128906 -6.53125 3.4375 -6.5 3.75 -6.4375 C 4.0625 -6.382812 4.378906 -6.304688 4.703125 -6.203125 Z M 4.703125 -6.203125 "/>
</g>
<g id="glyph-0-23">
<path d="M 0.421875 -2.765625 L 2.75 -2.765625 L 2.75 -2.0625 L 0.421875 -2.0625 Z M 0.421875 -2.765625 "/>
</g>
<g id="glyph-0-24">
<path d="M 0.265625 -4.8125 L 1.09375 -4.8125 L 2.609375 -0.765625 L 4.109375 -4.8125 L 4.9375 -4.8125 L 3.140625 0 L 2.0625 0 Z M 0.265625 -4.8125 "/>
</g>
<g id="glyph-0-25">
<path d="M 4.578125 -3.890625 C 4.773438 -4.242188 5.007812 -4.503906 5.28125 -4.671875 C 5.5625 -4.835938 5.882812 -4.921875 6.25 -4.921875 C 6.75 -4.921875 7.132812 -4.742188 7.40625 -4.390625 C 7.6875 -4.046875 7.828125 -3.550781 7.828125 -2.90625 L 7.828125 0 L 7.03125 0 L 7.03125 -2.875 C 7.03125 -3.332031 6.945312 -3.671875 6.78125 -3.890625 C 6.613281 -4.117188 6.363281 -4.234375 6.03125 -4.234375 C 5.625 -4.234375 5.300781 -4.097656 5.0625 -3.828125 C 4.820312 -3.554688 4.703125 -3.1875 4.703125 -2.71875 L 4.703125 0 L 3.90625 0 L 3.90625 -2.875 C 3.90625 -3.34375 3.820312 -3.6875 3.65625 -3.90625 C 3.5 -4.125 3.25 -4.234375 2.90625 -4.234375 C 2.507812 -4.234375 2.191406 -4.097656 1.953125 -3.828125 C 1.710938 -3.554688 1.59375 -3.1875 1.59375 -2.71875 L 1.59375 0 L 0.796875 0 L 0.796875 -4.8125 L 1.59375 -4.8125 L 1.59375 -4.0625 C 1.769531 -4.351562 1.984375 -4.566406 2.234375 -4.703125 C 2.492188 -4.847656 2.796875 -4.921875 3.140625 -4.921875 C 3.484375 -4.921875 3.78125 -4.832031 4.03125 -4.65625 C 4.28125 -4.476562 4.460938 -4.222656 4.578125 -3.890625 Z M 4.578125 -3.890625 "/>
</g>
<g id="glyph-0-26">
<path d="M 0.75 -1.90625 L 0.75 -4.8125 L 1.53125 -4.8125 L 1.53125 -1.921875 C 1.53125 -1.472656 1.617188 -1.132812 1.796875 -0.90625 C 1.984375 -0.675781 2.253906 -0.5625 2.609375 -0.5625 C 3.035156 -0.5625 3.367188 -0.695312 3.609375 -0.96875 C 3.859375 -1.238281 3.984375 -1.609375 3.984375 -2.078125 L 3.984375 -4.8125 L 4.78125 -4.8125 L 4.78125 0 L 3.984375 0 L 3.984375 -0.734375 C 3.796875 -0.441406 3.570312 -0.222656 3.3125 -0.078125 C 3.0625 0.0546875 2.769531 0.125 2.4375 0.125 C 1.882812 0.125 1.460938 -0.046875 1.171875 -0.390625 C 0.890625 -0.734375 0.75 -1.238281 0.75 -1.90625 Z M 2.734375 -4.921875 Z M 2.734375 -4.921875 "/>
</g>
<g id="glyph-0-27">
<path d="M 4 -4.078125 L 4 -6.6875 L 4.78125 -6.6875 L 4.78125 0 L 4 0 L 4 -0.71875 C 3.832031 -0.4375 3.617188 -0.222656 3.359375 -0.078125 C 3.109375 0.0546875 2.804688 0.125 2.453125 0.125 C 1.867188 0.125 1.394531 -0.101562 1.03125 -0.5625 C 0.664062 -1.03125 0.484375 -1.644531 0.484375 -2.40625 C 0.484375 -3.15625 0.664062 -3.757812 1.03125 -4.21875 C 1.394531 -4.6875 1.867188 -4.921875 2.453125 -4.921875 C 2.804688 -4.921875 3.109375 -4.851562 3.359375 -4.71875 C 3.617188 -4.582031 3.832031 -4.367188 4 -4.078125 Z M 1.296875 -2.40625 C 1.296875 -1.820312 1.414062 -1.363281 1.65625 -1.03125 C 1.894531 -0.695312 2.222656 -0.53125 2.640625 -0.53125 C 3.054688 -0.53125 3.382812 -0.695312 3.625 -1.03125 C 3.875 -1.363281 4 -1.820312 4 -2.40625 C 4 -2.976562 3.875 -3.429688 3.625 -3.765625 C 3.382812 -4.097656 3.054688 -4.265625 2.640625 -4.265625 C 2.222656 -4.265625 1.894531 -4.097656 1.65625 -3.765625 C 1.414062 -3.429688 1.296875 -2.976562 1.296875 -2.40625 Z M 1.296875 -2.40625 "/>
</g>
<g id="glyph-0-28">
<path d="M -0.03125 -6.40625 L 5.40625 -6.40625 L 5.40625 -5.6875 L 3.125 -5.6875 L 3.125 0 L 2.25 0 L 2.25 -5.6875 L -0.03125 -5.6875 Z M -0.03125 -6.40625 "/>
</g>
<g id="glyph-0-29">
<path d="M 0.859375 -6.40625 L 2.03125 -6.40625 L 4.875 -1.046875 L 4.875 -6.40625 L 5.71875 -6.40625 L 5.71875 0 L 4.546875 0 L 1.703125 -5.359375 L 1.703125 0 L 0.859375 0 Z M 0.859375 -6.40625 "/>
</g>
<g id="glyph-0-30">
<path d="M 1.734375 -5.703125 L 1.734375 -3.296875 L 2.828125 -3.296875 C 3.222656 -3.296875 3.53125 -3.398438 3.75 -3.609375 C 3.976562 -3.816406 4.09375 -4.113281 4.09375 -4.5 C 4.09375 -4.882812 3.976562 -5.179688 3.75 -5.390625 C 3.53125 -5.597656 3.222656 -5.703125 2.828125 -5.703125 Z M 0.859375 -6.40625 L 2.828125 -6.40625 C 3.546875 -6.40625 4.085938 -6.242188 4.453125 -5.921875 C 4.816406 -5.597656 5 -5.125 5 -4.5 C 5 -3.863281 4.816406 -3.382812 4.453125 -3.0625 C 4.085938 -2.738281 3.546875 -2.578125 2.828125 -2.578125 L 1.734375 -2.578125 L 1.734375 0 L 0.859375 0 Z M 0.859375 -6.40625 "/>
</g>
<g id="glyph-0-31">
<path d="M 0.296875 -6.40625 L 1.171875 -6.40625 L 2.515625 -1 L 3.859375 -6.40625 L 4.84375 -6.40625 L 6.1875 -1 L 7.53125 -6.40625 L 8.40625 -6.40625 L 6.796875 0 L 5.703125 0 L 4.359375 -5.5625 L 2.984375 0 L 1.90625 0 Z M 0.296875 -6.40625 "/>
</g>
<g id="glyph-0-32">
<path d="M 5.671875 -5.921875 L 5.671875 -5 C 5.378906 -5.269531 5.066406 -5.472656 4.734375 -5.609375 C 4.398438 -5.742188 4.046875 -5.8125 3.671875 -5.8125 C 2.941406 -5.8125 2.378906 -5.585938 1.984375 -5.140625 C 1.597656 -4.691406 1.40625 -4.046875 1.40625 -3.203125 C 1.40625 -2.359375 1.597656 -1.710938 1.984375 -1.265625 C 2.378906 -0.816406 2.941406 -0.59375 3.671875 -0.59375 C 4.046875 -0.59375 4.398438 -0.660156 4.734375 -0.796875 C 5.066406 -0.929688 5.378906 -1.132812 5.671875 -1.40625 L 5.671875 -0.5 C 5.359375 -0.289062 5.03125 -0.132812 4.6875 -0.03125 C 4.351562 0.0703125 4 0.125 3.625 0.125 C 2.65625 0.125 1.890625 -0.171875 1.328125 -0.765625 C 0.773438 -1.359375 0.5 -2.171875 0.5 -3.203125 C 0.5 -4.234375 0.773438 -5.046875 1.328125 -5.640625 C 1.890625 -6.234375 2.65625 -6.53125 3.625 -6.53125 C 4.007812 -6.53125 4.367188 -6.476562 4.703125 -6.375 C 5.046875 -6.269531 5.367188 -6.117188 5.671875 -5.921875 Z M 5.671875 -5.921875 "/>
</g>
<g id="glyph-0-33">
<path d="M 2.796875 -5.84375 C 2.347656 -5.84375 2.007812 -5.617188 1.78125 -5.171875 C 1.5625 -4.734375 1.453125 -4.078125 1.453125 -3.203125 C 1.453125 -2.316406 1.5625 -1.65625 1.78125 -1.21875 C 2.007812 -0.78125 2.347656 -0.5625 2.796875 -0.5625 C 3.242188 -0.5625 3.578125 -0.78125 3.796875 -1.21875 C 4.023438 -1.65625 4.140625 -2.316406 4.140625 -3.203125 C 4.140625 -4.078125 4.023438 -4.734375 3.796875 -5.171875 C 3.578125 -5.617188 3.242188 -5.84375 2.796875 -5.84375 Z M 2.796875 -6.53125 C 3.515625 -6.53125 4.0625 -6.242188 4.4375 -5.671875 C 4.820312 -5.109375 5.015625 -4.285156 5.015625 -3.203125 C 5.015625 -2.117188 4.820312 -1.289062 4.4375 -0.71875 C 4.0625 -0.15625 3.515625 0.125 2.796875 0.125 C 2.078125 0.125 1.523438 -0.15625 1.140625 -0.71875 C 0.765625 -1.289062 0.578125 -2.117188 0.578125 -3.203125 C 0.578125 -4.285156 0.765625 -5.109375 1.140625 -5.671875 C 1.523438 -6.242188 2.078125 -6.53125 2.796875 -6.53125 Z M 2.796875 -6.53125 "/>
</g>
<g id="glyph-0-34">
<path d="M 1.6875 -0.734375 L 4.71875 -0.734375 L 4.71875 0 L 0.640625 0 L 0.640625 -0.734375 C 0.972656 -1.066406 1.421875 -1.519531 1.984375 -2.09375 C 2.554688 -2.675781 2.914062 -3.050781 3.0625 -3.21875 C 3.34375 -3.53125 3.535156 -3.789062 3.640625 -4 C 3.753906 -4.21875 3.8125 -4.429688 3.8125 -4.640625 C 3.8125 -4.984375 3.691406 -5.257812 3.453125 -5.46875 C 3.210938 -5.6875 2.898438 -5.796875 2.515625 -5.796875 C 2.242188 -5.796875 1.957031 -5.75 1.65625 -5.65625 C 1.351562 -5.5625 1.03125 -5.421875 0.6875 -5.234375 L 0.6875 -6.109375 C 1.039062 -6.242188 1.367188 -6.347656 1.671875 -6.421875 C 1.972656 -6.492188 2.25 -6.53125 2.5 -6.53125 C 3.164062 -6.53125 3.695312 -6.363281 4.09375 -6.03125 C 4.488281 -5.695312 4.6875 -5.253906 4.6875 -4.703125 C 4.6875 -4.429688 4.632812 -4.175781 4.53125 -3.9375 C 4.4375 -3.707031 4.257812 -3.429688 4 -3.109375 C 3.925781 -3.023438 3.695312 -2.785156 3.3125 -2.390625 C 2.925781 -1.992188 2.382812 -1.441406 1.6875 -0.734375 Z M 1.6875 -0.734375 "/>
</g>
<g id="glyph-0-35">
<path d="M 1.03125 -1.09375 L 1.9375 -1.09375 L 1.9375 -0.359375 L 1.234375 1.015625 L 0.671875 1.015625 L 1.03125 -0.359375 Z M 1.03125 -1.09375 "/>
</g>
<g id="glyph-0-36">
<path d="M 0.953125 -6.40625 L 4.359375 -6.40625 L 4.359375 -5.6875 L 1.75 -5.6875 L 1.75 -4.109375 C 1.875 -4.148438 2 -4.179688 2.125 -4.203125 C 2.25 -4.222656 2.375 -4.234375 2.5 -4.234375 C 3.21875 -4.234375 3.785156 -4.035156 4.203125 -3.640625 C 4.617188 -3.253906 4.828125 -2.726562 4.828125 -2.0625 C 4.828125 -1.363281 4.613281 -0.820312 4.1875 -0.4375 C 3.757812 -0.0625 3.148438 0.125 2.359375 0.125 C 2.097656 0.125 1.828125 0.0976562 1.546875 0.046875 C 1.265625 0.00390625 0.972656 -0.0625 0.671875 -0.15625 L 0.671875 -1.015625 C 0.929688 -0.878906 1.195312 -0.773438 1.46875 -0.703125 C 1.75 -0.640625 2.039062 -0.609375 2.34375 -0.609375 C 2.84375 -0.609375 3.234375 -0.738281 3.515625 -1 C 3.804688 -1.257812 3.953125 -1.613281 3.953125 -2.0625 C 3.953125 -2.507812 3.804688 -2.863281 3.515625 -3.125 C 3.234375 -3.382812 2.84375 -3.515625 2.34375 -3.515625 C 2.113281 -3.515625 1.882812 -3.488281 1.65625 -3.4375 C 1.425781 -3.382812 1.191406 -3.300781 0.953125 -3.1875 Z M 0.953125 -6.40625 "/>
</g>
<g id="glyph-0-37">
<path d="M 0.71875 -6.40625 L 4.84375 -6.40625 L 4.84375 -6.046875 L 2.515625 0 L 1.609375 0 L 3.796875 -5.6875 L 0.71875 -5.6875 Z M 0.71875 -6.40625 "/>
</g>
<g id="glyph-1-0">
<path d="M 2.171875 -3.828125 L 2.171875 -0.890625 L 3.90625 -0.890625 C 4.488281 -0.890625 4.921875 -1.007812 5.203125 -1.25 C 5.484375 -1.488281 5.625 -1.859375 5.625 -2.359375 C 5.625 -2.859375 5.484375 -3.226562 5.203125 -3.46875 C 4.921875 -3.707031 4.488281 -3.828125 3.90625 -3.828125 Z M 2.171875 -7.125 L 2.171875 -4.703125 L 3.765625 -4.703125 C 4.296875 -4.703125 4.691406 -4.800781 4.953125 -5 C 5.210938 -5.207031 5.34375 -5.515625 5.34375 -5.921875 C 5.34375 -6.328125 5.210938 -6.628906 4.953125 -6.828125 C 4.691406 -7.023438 4.296875 -7.125 3.765625 -7.125 Z M 1.078125 -8.015625 L 3.84375 -8.015625 C 4.675781 -8.015625 5.316406 -7.84375 5.765625 -7.5 C 6.210938 -7.15625 6.4375 -6.664062 6.4375 -6.03125 C 6.4375 -5.539062 6.320312 -5.148438 6.09375 -4.859375 C 5.863281 -4.578125 5.523438 -4.398438 5.078125 -4.328125 C 5.609375 -4.210938 6.019531 -3.972656 6.3125 -3.609375 C 6.613281 -3.242188 6.765625 -2.789062 6.765625 -2.25 C 6.765625 -1.53125 6.519531 -0.972656 6.03125 -0.578125 C 5.550781 -0.191406 4.859375 0 3.953125 0 L 1.078125 0 Z M 1.078125 -8.015625 "/>
</g>
<g id="glyph-1-1">
<path d="M 1.078125 -8.015625 L 5.6875 -8.015625 L 5.6875 -7.109375 L 2.171875 -7.109375 L 2.171875 -4.75 L 5.34375 -4.75 L 5.34375 -3.828125 L 2.171875 -3.828125 L 2.171875 0 L 1.078125 0 Z M 1.078125 -8.015625 "/>
</g>
<g id="glyph-1-2">
<path d="M 0.53125 -3.453125 L 3.4375 -3.453125 L 3.4375 -2.578125 L 0.53125 -2.578125 Z M 0.53125 -3.453125 "/>
</g>
<g id="glyph-1-3">
<path d="M 1.078125 -8.015625 L 2.546875 -8.015625 L 6.09375 -1.3125 L 6.09375 -8.015625 L 7.15625 -8.015625 L 7.15625 0 L 5.6875 0 L 2.125 -6.703125 L 2.125 0 L 1.078125 0 Z M 1.078125 -8.015625 "/>
</g>
<g id="glyph-1-4">
<path d="M 1.078125 -8.015625 L 6.15625 -8.015625 L 6.15625 -7.109375 L 2.171875 -7.109375 L 2.171875 -4.734375 L 5.984375 -4.734375 L 5.984375 -3.8125 L 2.171875 -3.8125 L 2.171875 -0.90625 L 6.25 -0.90625 L 6.25 0 L 1.078125 0 Z M 1.078125 -8.015625 "/>
</g>
<g id="glyph-1-5">
</g>
<g id="glyph-1-6">
<path d="M 3.40625 -8.34375 C 2.925781 -7.519531 2.570312 -6.703125 2.34375 -5.890625 C 2.113281 -5.085938 2 -4.273438 2 -3.453125 C 2 -2.628906 2.113281 -1.8125 2.34375 -1 C 2.582031 -0.1875 2.9375 0.628906 3.40625 1.453125 L 2.546875 1.453125 C 2.015625 0.609375 1.613281 -0.21875 1.34375 -1.03125 C 1.082031 -1.84375 0.953125 -2.648438 0.953125 -3.453125 C 0.953125 -4.253906 1.082031 -5.054688 1.34375 -5.859375 C 1.601562 -6.671875 2.003906 -7.5 2.546875 -8.34375 Z M 3.40625 -8.34375 "/>
</g>
<g id="glyph-1-7">
<path d="M 1 -8.359375 L 2 -8.359375 L 2 -3.421875 L 4.9375 -6.015625 L 6.203125 -6.015625 L 3.015625 -3.203125 L 6.34375 0 L 5.046875 0 L 2 -2.9375 L 2 0 L 1 0 Z M 1 -8.359375 "/>
</g>
<g id="glyph-1-8">
<path d="M 5.71875 -4.859375 C 5.96875 -5.304688 6.265625 -5.632812 6.609375 -5.84375 C 6.953125 -6.050781 7.359375 -6.15625 7.828125 -6.15625 C 8.453125 -6.15625 8.929688 -5.9375 9.265625 -5.5 C 9.609375 -5.0625 9.78125 -4.4375 9.78125 -3.625 L 9.78125 0 L 8.78125 0 L 8.78125 -3.59375 C 8.78125 -4.175781 8.675781 -4.601562 8.46875 -4.875 C 8.269531 -5.15625 7.960938 -5.296875 7.546875 -5.296875 C 7.035156 -5.296875 6.628906 -5.125 6.328125 -4.78125 C 6.035156 -4.445312 5.890625 -3.988281 5.890625 -3.40625 L 5.890625 0 L 4.890625 0 L 4.890625 -3.59375 C 4.890625 -4.175781 4.785156 -4.601562 4.578125 -4.875 C 4.378906 -5.15625 4.066406 -5.296875 3.640625 -5.296875 C 3.140625 -5.296875 2.738281 -5.125 2.4375 -4.78125 C 2.144531 -4.445312 2 -3.988281 2 -3.40625 L 2 0 L 1 0 L 1 -6.015625 L 2 -6.015625 L 2 -5.078125 C 2.21875 -5.453125 2.484375 -5.722656 2.796875 -5.890625 C 3.117188 -6.066406 3.492188 -6.15625 3.921875 -6.15625 C 4.359375 -6.15625 4.726562 -6.046875 5.03125 -5.828125 C 5.34375 -5.609375 5.570312 -5.285156 5.71875 -4.859375 Z M 5.71875 -4.859375 "/>
</g>
<g id="glyph-1-9">
<path d="M 1.4375 -4.203125 L 3.71875 -4.203125 L 3.71875 -3.59375 L 0.5 -3.59375 L 0.5 -4.171875 C 0.625 -4.285156 0.800781 -4.441406 1.03125 -4.640625 C 2.257812 -5.734375 2.875 -6.453125 2.875 -6.796875 C 2.875 -7.023438 2.78125 -7.210938 2.59375 -7.359375 C 2.40625 -7.503906 2.160156 -7.578125 1.859375 -7.578125 C 1.671875 -7.578125 1.46875 -7.546875 1.25 -7.484375 C 1.03125 -7.421875 0.789062 -7.328125 0.53125 -7.203125 L 0.53125 -7.859375 C 0.8125 -7.960938 1.070312 -8.039062 1.3125 -8.09375 C 1.550781 -8.144531 1.769531 -8.171875 1.96875 -8.171875 C 2.488281 -8.171875 2.90625 -8.050781 3.21875 -7.8125 C 3.53125 -7.570312 3.6875 -7.257812 3.6875 -6.875 C 3.6875 -6.375 3.09375 -5.617188 1.90625 -4.609375 C 1.707031 -4.429688 1.550781 -4.296875 1.4375 -4.203125 Z M 1.4375 -4.203125 "/>
</g>
<g id="glyph-1-10">
<path d="M 0.875 -8.34375 L 1.734375 -8.34375 C 2.273438 -7.5 2.675781 -6.671875 2.9375 -5.859375 C 3.207031 -5.054688 3.34375 -4.253906 3.34375 -3.453125 C 3.34375 -2.648438 3.207031 -1.84375 2.9375 -1.03125 C 2.675781 -0.21875 2.273438 0.609375 1.734375 1.453125 L 0.875 1.453125 C 1.351562 0.628906 1.707031 -0.1875 1.9375 -1 C 2.175781 -1.8125 2.296875 -2.628906 2.296875 -3.453125 C 2.296875 -4.273438 2.175781 -5.085938 1.9375 -5.890625 C 1.707031 -6.703125 1.351562 -7.519531 0.875 -8.34375 Z M 0.875 -8.34375 "/>
</g>
<g id="glyph-1-11">
<path d="M 3.140625 0 L 0.09375 -8.015625 L 1.21875 -8.015625 L 3.765625 -1.265625 L 6.3125 -8.015625 L 7.4375 -8.015625 L 4.375 0 Z M 3.140625 0 "/>
</g>
<g id="glyph-1-12">
<path d="M 3.765625 -3.03125 C 2.972656 -3.03125 2.421875 -2.9375 2.109375 -2.75 C 1.804688 -2.5625 1.65625 -2.25 1.65625 -1.8125 C 1.65625 -1.46875 1.769531 -1.191406 2 -0.984375 C 2.226562 -0.773438 2.539062 -0.671875 2.9375 -0.671875 C 3.488281 -0.671875 3.925781 -0.863281 4.25 -1.25 C 4.582031 -1.644531 4.75 -2.160156 4.75 -2.796875 L 4.75 -3.03125 Z M 5.734375 -3.4375 L 5.734375 0 L 4.75 0 L 4.75 -0.90625 C 4.53125 -0.539062 4.25 -0.269531 3.90625 -0.09375 C 3.570312 0.0703125 3.160156 0.15625 2.671875 0.15625 C 2.054688 0.15625 1.566406 -0.015625 1.203125 -0.359375 C 0.835938 -0.703125 0.65625 -1.164062 0.65625 -1.75 C 0.65625 -2.425781 0.878906 -2.9375 1.328125 -3.28125 C 1.785156 -3.625 2.46875 -3.796875 3.375 -3.796875 L 4.75 -3.796875 L 4.75 -3.890625 C 4.75 -4.347656 4.597656 -4.703125 4.296875 -4.953125 C 4.003906 -5.203125 3.585938 -5.328125 3.046875 -5.328125 C 2.703125 -5.328125 2.363281 -5.285156 2.03125 -5.203125 C 1.707031 -5.117188 1.394531 -4.992188 1.09375 -4.828125 L 1.09375 -5.734375 C 1.457031 -5.878906 1.8125 -5.984375 2.15625 -6.046875 C 2.5 -6.117188 2.828125 -6.15625 3.140625 -6.15625 C 4.015625 -6.15625 4.664062 -5.929688 5.09375 -5.484375 C 5.519531 -5.035156 5.734375 -4.351562 5.734375 -3.4375 Z M 5.734375 -3.4375 "/>
</g>
<g id="glyph-1-13">
<path d="M 1.03125 -8.359375 L 2.03125 -8.359375 L 2.03125 0 L 1.03125 0 Z M 1.03125 -8.359375 "/>
</g>
<g id="glyph-1-14">
<path d="M 1.03125 -6.015625 L 2.03125 -6.015625 L 2.03125 0 L 1.03125 0 Z M 1.03125 -8.359375 L 2.03125 -8.359375 L 2.03125 -7.109375 L 1.03125 -7.109375 Z M 1.03125 -8.359375 "/>
</g>
<g id="glyph-1-15">
<path d="M 5 -5.109375 L 5 -8.359375 L 5.984375 -8.359375 L 5.984375 0 L 5 0 L 5 -0.90625 C 4.789062 -0.539062 4.523438 -0.269531 4.203125 -0.09375 C 3.890625 0.0703125 3.507812 0.15625 3.0625 0.15625 C 2.34375 0.15625 1.753906 -0.128906 1.296875 -0.703125 C 0.835938 -1.285156 0.609375 -2.050781 0.609375 -3 C 0.609375 -3.945312 0.835938 -4.707031 1.296875 -5.28125 C 1.753906 -5.863281 2.34375 -6.15625 3.0625 -6.15625 C 3.507812 -6.15625 3.890625 -6.066406 4.203125 -5.890625 C 4.523438 -5.722656 4.789062 -5.460938 5 -5.109375 Z M 1.625 -3 C 1.625 -2.269531 1.773438 -1.695312 2.078125 -1.28125 C 2.378906 -0.875 2.789062 -0.671875 3.3125 -0.671875 C 3.832031 -0.671875 4.242188 -0.875 4.546875 -1.28125 C 4.847656 -1.695312 5 -2.269531 5 -3 C 5 -3.726562 4.847656 -4.296875 4.546875 -4.703125 C 4.242188 -5.117188 3.832031 -5.328125 3.3125 -5.328125 C 2.789062 -5.328125 2.378906 -5.117188 2.078125 -4.703125 C 1.773438 -4.296875 1.625 -3.726562 1.625 -3 Z M 1.625 -3 "/>
</g>
<g id="glyph-1-16">
<path d="M 2.015625 -7.71875 L 2.015625 -6.015625 L 4.046875 -6.015625 L 4.046875 -5.25 L 2.015625 -5.25 L 2.015625 -1.984375 C 2.015625 -1.492188 2.082031 -1.175781 2.21875 -1.03125 C 2.351562 -0.894531 2.625 -0.828125 3.03125 -0.828125 L 4.046875 -0.828125 L 4.046875 0 L 3.03125 0 C 2.269531 0 1.742188 -0.140625 1.453125 -0.421875 C 1.160156 -0.710938 1.015625 -1.234375 1.015625 -1.984375 L 1.015625 -5.25 L 0.296875 -5.25 L 0.296875 -6.015625 L 1.015625 -6.015625 L 1.015625 -7.71875 Z M 2.015625 -7.71875 "/>
</g>
<g id="glyph-1-17">
<path d="M 6.1875 -3.25 L 6.1875 -2.765625 L 1.640625 -2.765625 C 1.679688 -2.085938 1.882812 -1.570312 2.25 -1.21875 C 2.613281 -0.863281 3.125 -0.6875 3.78125 -0.6875 C 4.164062 -0.6875 4.535156 -0.734375 4.890625 -0.828125 C 5.242188 -0.921875 5.597656 -1.054688 5.953125 -1.234375 L 5.953125 -0.3125 C 5.597656 -0.15625 5.234375 -0.0390625 4.859375 0.03125 C 4.484375 0.113281 4.109375 0.15625 3.734375 0.15625 C 2.765625 0.15625 2 -0.117188 1.4375 -0.671875 C 0.882812 -1.234375 0.609375 -1.992188 0.609375 -2.953125 C 0.609375 -3.929688 0.875 -4.707031 1.40625 -5.28125 C 1.9375 -5.863281 2.65625 -6.15625 3.5625 -6.15625 C 4.363281 -6.15625 5 -5.894531 5.46875 -5.375 C 5.945312 -4.851562 6.1875 -4.144531 6.1875 -3.25 Z M 5.1875 -3.546875 C 5.1875 -4.085938 5.035156 -4.519531 4.734375 -4.84375 C 4.441406 -5.164062 4.050781 -5.328125 3.5625 -5.328125 C 3.007812 -5.328125 2.566406 -5.171875 2.234375 -4.859375 C 1.910156 -4.546875 1.722656 -4.109375 1.671875 -3.546875 Z M 5.1875 -3.546875 "/>
</g>
<g id="glyph-1-18">
<path d="M 5.359375 -5.78125 L 5.359375 -4.859375 C 5.085938 -5.015625 4.8125 -5.128906 4.53125 -5.203125 C 4.25 -5.285156 3.960938 -5.328125 3.671875 -5.328125 C 3.035156 -5.328125 2.539062 -5.125 2.1875 -4.71875 C 1.832031 -4.3125 1.65625 -3.738281 1.65625 -3 C 1.65625 -2.269531 1.832031 -1.703125 2.1875 -1.296875 C 2.539062 -0.890625 3.035156 -0.6875 3.671875 -0.6875 C 3.960938 -0.6875 4.25 -0.722656 4.53125 -0.796875 C 4.8125 -0.867188 5.085938 -0.984375 5.359375 -1.140625 L 5.359375 -0.234375 C 5.085938 -0.0976562 4.800781 0 4.5 0.0625 C 4.207031 0.125 3.894531 0.15625 3.5625 0.15625 C 2.65625 0.15625 1.9375 -0.125 1.40625 -0.6875 C 0.875 -1.257812 0.609375 -2.03125 0.609375 -3 C 0.609375 -3.976562 0.875 -4.75 1.40625 -5.3125 C 1.945312 -5.875 2.6875 -6.15625 3.625 -6.15625 C 3.9375 -6.15625 4.234375 -6.125 4.515625 -6.0625 C 4.804688 -6 5.085938 -5.90625 5.359375 -5.78125 Z M 5.359375 -5.78125 "/>
</g>
<g id="glyph-1-19">
<path d="M 3.375 -5.328125 C 2.84375 -5.328125 2.421875 -5.117188 2.109375 -4.703125 C 1.804688 -4.285156 1.65625 -3.71875 1.65625 -3 C 1.65625 -2.28125 1.804688 -1.710938 2.109375 -1.296875 C 2.410156 -0.890625 2.832031 -0.6875 3.375 -0.6875 C 3.894531 -0.6875 4.304688 -0.890625 4.609375 -1.296875 C 4.921875 -1.710938 5.078125 -2.28125 5.078125 -3 C 5.078125 -3.71875 4.921875 -4.285156 4.609375 -4.703125 C 4.304688 -5.117188 3.894531 -5.328125 3.375 -5.328125 Z M 3.375 -6.15625 C 4.226562 -6.15625 4.898438 -5.875 5.390625 -5.3125 C 5.878906 -4.757812 6.125 -3.988281 6.125 -3 C 6.125 -2.019531 5.878906 -1.25 5.390625 -0.6875 C 4.898438 -0.125 4.226562 0.15625 3.375 0.15625 C 2.507812 0.15625 1.832031 -0.125 1.34375 -0.6875 C 0.851562 -1.25 0.609375 -2.019531 0.609375 -3 C 0.609375 -3.988281 0.851562 -4.757812 1.34375 -5.3125 C 1.832031 -5.875 2.507812 -6.15625 3.375 -6.15625 Z M 3.375 -6.15625 "/>
</g>
<g id="glyph-1-20">
<path d="M 0.9375 -2.375 L 0.9375 -6.015625 L 1.921875 -6.015625 L 1.921875 -2.40625 C 1.921875 -1.84375 2.03125 -1.414062 2.25 -1.125 C 2.476562 -0.84375 2.8125 -0.703125 3.25 -0.703125 C 3.789062 -0.703125 4.210938 -0.867188 4.515625 -1.203125 C 4.828125 -1.546875 4.984375 -2.015625 4.984375 -2.609375 L 4.984375 -6.015625 L 5.96875 -6.015625 L 5.96875 0 L 4.984375 0 L 4.984375 -0.921875 C 4.742188 -0.554688 4.460938 -0.285156 4.140625 -0.109375 C 3.828125 0.0664062 3.460938 0.15625 3.046875 0.15625 C 2.359375 0.15625 1.832031 -0.0546875 1.46875 -0.484375 C 1.113281 -0.921875 0.9375 -1.550781 0.9375 -2.375 Z M 3.421875 -6.15625 Z M 3.421875 -6.15625 "/>
</g>
<g id="glyph-1-21">
<path d="M 6.03125 -3.625 L 6.03125 0 L 5.046875 0 L 5.046875 -3.59375 C 5.046875 -4.164062 4.9375 -4.59375 4.71875 -4.875 C 4.5 -5.15625 4.164062 -5.296875 3.71875 -5.296875 C 3.1875 -5.296875 2.765625 -5.125 2.453125 -4.78125 C 2.148438 -4.445312 2 -3.988281 2 -3.40625 L 2 0 L 1 0 L 1 -6.015625 L 2 -6.015625 L 2 -5.078125 C 2.226562 -5.441406 2.503906 -5.710938 2.828125 -5.890625 C 3.148438 -6.066406 3.519531 -6.15625 3.9375 -6.15625 C 4.625 -6.15625 5.144531 -5.941406 5.5 -5.515625 C 5.851562 -5.085938 6.03125 -4.457031 6.03125 -3.625 Z M 6.03125 -3.625 "/>
</g>
<g id="glyph-1-22">
<path d="M 4.515625 -5.09375 C 4.410156 -5.15625 4.289062 -5.203125 4.15625 -5.234375 C 4.03125 -5.265625 3.890625 -5.28125 3.734375 -5.28125 C 3.171875 -5.28125 2.738281 -5.097656 2.4375 -4.734375 C 2.144531 -4.367188 2 -3.847656 2 -3.171875 L 2 0 L 1 0 L 1 -6.015625 L 2 -6.015625 L 2 -5.078125 C 2.195312 -5.441406 2.460938 -5.710938 2.796875 -5.890625 C 3.128906 -6.066406 3.535156 -6.15625 4.015625 -6.15625 C 4.085938 -6.15625 4.160156 -6.148438 4.234375 -6.140625 C 4.316406 -6.140625 4.410156 -6.128906 4.515625 -6.109375 Z M 4.515625 -5.09375 "/>
</g>
<g id="glyph-1-23">
<path d="M 4.875 -5.84375 L 4.875 -4.90625 C 4.59375 -5.050781 4.300781 -5.15625 4 -5.21875 C 3.695312 -5.289062 3.382812 -5.328125 3.0625 -5.328125 C 2.570312 -5.328125 2.203125 -5.25 1.953125 -5.09375 C 1.710938 -4.945312 1.59375 -4.726562 1.59375 -4.4375 C 1.59375 -4.207031 1.679688 -4.023438 1.859375 -3.890625 C 2.035156 -3.765625 2.390625 -3.640625 2.921875 -3.515625 L 3.25 -3.4375 C 3.957031 -3.289062 4.457031 -3.078125 4.75 -2.796875 C 5.039062 -2.523438 5.1875 -2.144531 5.1875 -1.65625 C 5.1875 -1.101562 4.96875 -0.660156 4.53125 -0.328125 C 4.09375 -0.00390625 3.484375 0.15625 2.703125 0.15625 C 2.378906 0.15625 2.039062 0.125 1.6875 0.0625 C 1.34375 0 0.976562 -0.09375 0.59375 -0.21875 L 0.59375 -1.234375 C 0.957031 -1.046875 1.316406 -0.90625 1.671875 -0.8125 C 2.023438 -0.71875 2.378906 -0.671875 2.734375 -0.671875 C 3.191406 -0.671875 3.546875 -0.75 3.796875 -0.90625 C 4.046875 -1.070312 4.171875 -1.296875 4.171875 -1.578125 C 4.171875 -1.847656 4.082031 -2.054688 3.90625 -2.203125 C 3.726562 -2.347656 3.332031 -2.484375 2.71875 -2.609375 L 2.375 -2.703125 C 1.757812 -2.828125 1.316406 -3.019531 1.046875 -3.28125 C 0.773438 -3.550781 0.640625 -3.921875 0.640625 -4.390625 C 0.640625 -4.953125 0.835938 -5.382812 1.234375 -5.6875 C 1.640625 -6 2.210938 -6.15625 2.953125 -6.15625 C 3.316406 -6.15625 3.660156 -6.128906 3.984375 -6.078125 C 4.304688 -6.023438 4.601562 -5.945312 4.875 -5.84375 Z M 4.875 -5.84375 "/>
</g>
<g id="glyph-1-24">
<path d="M 3.546875 0.5625 C 3.265625 1.28125 2.988281 1.742188 2.71875 1.953125 C 2.457031 2.171875 2.101562 2.28125 1.65625 2.28125 L 0.875 2.28125 L 0.875 1.46875 L 1.453125 1.46875 C 1.722656 1.46875 1.929688 1.398438 2.078125 1.265625 C 2.234375 1.140625 2.398438 0.835938 2.578125 0.359375 L 2.765625 -0.09375 L 0.328125 -6.015625 L 1.375 -6.015625 L 3.25 -1.3125 L 5.140625 -6.015625 L 6.1875 -6.015625 Z M 3.546875 0.5625 "/>
</g>
<g id="glyph-2-0">
<path d="M -7.40625 -7.078125 L -6.25 -7.078125 C -6.59375 -6.710938 -6.847656 -6.320312 -7.015625 -5.90625 C -7.179688 -5.5 -7.265625 -5.0625 -7.265625 -4.59375 C -7.265625 -3.675781 -6.984375 -2.972656 -6.421875 -2.484375 C -5.867188 -2.003906 -5.0625 -1.765625 -4 -1.765625 C -2.945312 -1.765625 -2.140625 -2.003906 -1.578125 -2.484375 C -1.015625 -2.972656 -0.734375 -3.675781 -0.734375 -4.59375 C -0.734375 -5.0625 -0.816406 -5.5 -0.984375 -5.90625 C -1.148438 -6.320312 -1.40625 -6.710938 -1.75 -7.078125 L -0.625 -7.078125 C -0.363281 -6.703125 -0.164062 -6.300781 -0.03125 -5.875 C 0.09375 -5.457031 0.15625 -5.007812 0.15625 -4.53125 C 0.15625 -3.320312 -0.210938 -2.367188 -0.953125 -1.671875 C -1.703125 -0.972656 -2.71875 -0.625 -4 -0.625 C -5.289062 -0.625 -6.304688 -0.972656 -7.046875 -1.671875 C -7.796875 -2.367188 -8.171875 -3.320312 -8.171875 -4.53125 C -8.171875 -5.007812 -8.101562 -5.460938 -7.96875 -5.890625 C -7.84375 -6.316406 -7.65625 -6.710938 -7.40625 -7.078125 Z M -7.40625 -7.078125 "/>
</g>
<g id="glyph-2-1">
<path d="M -5.328125 -3.375 C -5.328125 -2.84375 -5.117188 -2.421875 -4.703125 -2.109375 C -4.285156 -1.804688 -3.71875 -1.65625 -3 -1.65625 C -2.28125 -1.65625 -1.710938 -1.804688 -1.296875 -2.109375 C -0.890625 -2.410156 -0.6875 -2.832031 -0.6875 -3.375 C -0.6875 -3.894531 -0.890625 -4.304688 -1.296875 -4.609375 C -1.710938 -4.921875 -2.28125 -5.078125 -3 -5.078125 C -3.71875 -5.078125 -4.285156 -4.921875 -4.703125 -4.609375 C -5.117188 -4.304688 -5.328125 -3.894531 -5.328125 -3.375 Z M -6.15625 -3.375 C -6.15625 -4.226562 -5.875 -4.898438 -5.3125 -5.390625 C -4.757812 -5.878906 -3.988281 -6.125 -3 -6.125 C -2.019531 -6.125 -1.25 -5.878906 -0.6875 -5.390625 C -0.125 -4.898438 0.15625 -4.226562 0.15625 -3.375 C 0.15625 -2.507812 -0.125 -1.832031 -0.6875 -1.34375 C -1.25 -0.851562 -2.019531 -0.609375 -3 -0.609375 C -3.988281 -0.609375 -4.757812 -0.851562 -5.3125 -1.34375 C -5.875 -1.832031 -6.15625 -2.507812 -6.15625 -3.375 Z M -6.15625 -3.375 "/>
</g>
<g id="glyph-2-2">
<path d="M -4.859375 -5.71875 C -5.304688 -5.96875 -5.632812 -6.265625 -5.84375 -6.609375 C -6.050781 -6.953125 -6.15625 -7.359375 -6.15625 -7.828125 C -6.15625 -8.453125 -5.9375 -8.929688 -5.5 -9.265625 C -5.0625 -9.609375 -4.4375 -9.78125 -3.625 -9.78125 L 0 -9.78125 L 0 -8.78125 L -3.59375 -8.78125 C -4.175781 -8.78125 -4.601562 -8.675781 -4.875 -8.46875 C -5.15625 -8.269531 -5.296875 -7.960938 -5.296875 -7.546875 C -5.296875 -7.035156 -5.125 -6.628906 -4.78125 -6.328125 C -4.445312 -6.035156 -3.988281 -5.890625 -3.40625 -5.890625 L 0 -5.890625 L 0 -4.890625 L -3.59375 -4.890625 C -4.175781 -4.890625 -4.601562 -4.785156 -4.875 -4.578125 C -5.15625 -4.378906 -5.296875 -4.066406 -5.296875 -3.640625 C -5.296875 -3.140625 -5.125 -2.738281 -4.78125 -2.4375 C -4.445312 -2.144531 -3.988281 -2 -3.40625 -2 L 0 -2 L 0 -1 L -6.015625 -1 L -6.015625 -2 L -5.078125 -2 C -5.453125 -2.21875 -5.722656 -2.484375 -5.890625 -2.796875 C -6.066406 -3.117188 -6.15625 -3.492188 -6.15625 -3.921875 C -6.15625 -4.359375 -6.046875 -4.726562 -5.828125 -5.03125 C -5.609375 -5.34375 -5.285156 -5.570312 -4.859375 -5.71875 Z M -4.859375 -5.71875 "/>
</g>
<g id="glyph-2-3">
<path d="M -5.109375 -5 L -8.359375 -5 L -8.359375 -5.984375 L 0 -5.984375 L 0 -5 L -0.90625 -5 C -0.539062 -4.789062 -0.269531 -4.523438 -0.09375 -4.203125 C 0.0703125 -3.890625 0.15625 -3.507812 0.15625 -3.0625 C 0.15625 -2.34375 -0.128906 -1.753906 -0.703125 -1.296875 C -1.285156 -0.835938 -2.050781 -0.609375 -3 -0.609375 C -3.945312 -0.609375 -4.707031 -0.835938 -5.28125 -1.296875 C -5.863281 -1.753906 -6.15625 -2.34375 -6.15625 -3.0625 C -6.15625 -3.507812 -6.066406 -3.890625 -5.890625 -4.203125 C -5.722656 -4.523438 -5.460938 -4.789062 -5.109375 -5 Z M -3 -1.625 C -2.269531 -1.625 -1.695312 -1.773438 -1.28125 -2.078125 C -0.875 -2.378906 -0.671875 -2.789062 -0.671875 -3.3125 C -0.671875 -3.832031 -0.875 -4.242188 -1.28125 -4.546875 C -1.695312 -4.847656 -2.269531 -5 -3 -5 C -3.726562 -5 -4.296875 -4.847656 -4.703125 -4.546875 C -5.117188 -4.242188 -5.328125 -3.832031 -5.328125 -3.3125 C -5.328125 -2.789062 -5.117188 -2.378906 -4.703125 -2.078125 C -4.296875 -1.773438 -3.726562 -1.625 -3 -1.625 Z M -3 -1.625 "/>
</g>
<g id="glyph-2-4">
<path d="M -6.015625 -1.03125 L -6.015625 -2.03125 L 0 -2.03125 L 0 -1.03125 Z M -8.359375 -1.03125 L -8.359375 -2.03125 L -7.109375 -2.03125 L -7.109375 -1.03125 Z M -8.359375 -1.03125 "/>
</g>
<g id="glyph-2-5">
<path d="M -7.71875 -2.015625 L -6.015625 -2.015625 L -6.015625 -4.046875 L -5.25 -4.046875 L -5.25 -2.015625 L -1.984375 -2.015625 C -1.492188 -2.015625 -1.175781 -2.082031 -1.03125 -2.21875 C -0.894531 -2.351562 -0.828125 -2.625 -0.828125 -3.03125 L -0.828125 -4.046875 L 0 -4.046875 L 0 -3.03125 C 0 -2.269531 -0.140625 -1.742188 -0.421875 -1.453125 C -0.710938 -1.160156 -1.234375 -1.015625 -1.984375 -1.015625 L -5.25 -1.015625 L -5.25 -0.296875 L -6.015625 -0.296875 L -6.015625 -1.015625 L -7.71875 -1.015625 Z M -7.71875 -2.015625 "/>
</g>
<g id="glyph-2-6">
<path d="M 0.5625 -3.546875 C 1.28125 -3.265625 1.742188 -2.988281 1.953125 -2.71875 C 2.171875 -2.457031 2.28125 -2.101562 2.28125 -1.65625 L 2.28125 -0.875 L 1.46875 -0.875 L 1.46875 -1.453125 C 1.46875 -1.722656 1.398438 -1.929688 1.265625 -2.078125 C 1.140625 -2.234375 0.835938 -2.398438 0.359375 -2.578125 L -0.09375 -2.765625 L -6.015625 -0.328125 L -6.015625 -1.375 L -1.3125 -3.25 L -6.015625 -5.140625 L -6.015625 -6.1875 Z M 0.5625 -3.546875 "/>
</g>
<g id="glyph-3-0">
<path d="M -0.03125 -9.625 L 8.109375 -9.625 L 8.109375 -8.53125 L 4.6875 -8.53125 L 4.6875 0 L 3.375 0 L 3.375 -8.53125 L -0.03125 -8.53125 Z M -0.03125 -9.625 "/>
</g>
<g id="glyph-3-1">
<path d="M 4.046875 -6.390625 C 3.410156 -6.390625 2.90625 -6.140625 2.53125 -5.640625 C 2.164062 -5.148438 1.984375 -4.472656 1.984375 -3.609375 C 1.984375 -2.742188 2.164062 -2.0625 2.53125 -1.5625 C 2.894531 -1.0625 3.398438 -0.8125 4.046875 -0.8125 C 4.671875 -0.8125 5.164062 -1.0625 5.53125 -1.5625 C 5.90625 -2.0625 6.09375 -2.742188 6.09375 -3.609375 C 6.09375 -4.460938 5.90625 -5.140625 5.53125 -5.640625 C 5.164062 -6.140625 4.671875 -6.390625 4.046875 -6.390625 Z M 4.046875 -7.390625 C 5.078125 -7.390625 5.882812 -7.054688 6.46875 -6.390625 C 7.0625 -5.722656 7.359375 -4.796875 7.359375 -3.609375 C 7.359375 -2.421875 7.0625 -1.488281 6.46875 -0.8125 C 5.882812 -0.144531 5.078125 0.1875 4.046875 0.1875 C 3.003906 0.1875 2.191406 -0.144531 1.609375 -0.8125 C 1.023438 -1.488281 0.734375 -2.421875 0.734375 -3.609375 C 0.734375 -4.796875 1.023438 -5.722656 1.609375 -6.390625 C 2.191406 -7.054688 3.003906 -7.390625 4.046875 -7.390625 Z M 4.046875 -7.390625 "/>
</g>
<g id="glyph-3-2">
<path d="M 2.390625 -1.078125 L 2.390625 2.75 L 1.203125 2.75 L 1.203125 -7.21875 L 2.390625 -7.21875 L 2.390625 -6.125 C 2.640625 -6.550781 2.953125 -6.867188 3.328125 -7.078125 C 3.710938 -7.285156 4.171875 -7.390625 4.703125 -7.390625 C 5.578125 -7.390625 6.285156 -7.039062 6.828125 -6.34375 C 7.378906 -5.65625 7.65625 -4.742188 7.65625 -3.609375 C 7.65625 -2.472656 7.378906 -1.554688 6.828125 -0.859375 C 6.285156 -0.160156 5.578125 0.1875 4.703125 0.1875 C 4.171875 0.1875 3.710938 0.0820312 3.328125 -0.125 C 2.953125 -0.332031 2.640625 -0.648438 2.390625 -1.078125 Z M 6.421875 -3.609375 C 6.421875 -4.472656 6.238281 -5.15625 5.875 -5.65625 C 5.519531 -6.15625 5.03125 -6.40625 4.40625 -6.40625 C 3.78125 -6.40625 3.285156 -6.15625 2.921875 -5.65625 C 2.566406 -5.15625 2.390625 -4.472656 2.390625 -3.609375 C 2.390625 -2.734375 2.566406 -2.046875 2.921875 -1.546875 C 3.285156 -1.054688 3.78125 -0.8125 4.40625 -0.8125 C 5.03125 -0.8125 5.519531 -1.054688 5.875 -1.546875 C 6.238281 -2.046875 6.421875 -2.734375 6.421875 -3.609375 Z M 6.421875 -3.609375 "/>
</g>
<g id="glyph-3-3">
</g>
<g id="glyph-3-4">
<path d="M 6.4375 -6.9375 L 6.4375 -5.828125 C 6.101562 -6.015625 5.765625 -6.15625 5.421875 -6.25 C 5.085938 -6.34375 4.75 -6.390625 4.40625 -6.390625 C 3.632812 -6.390625 3.035156 -6.144531 2.609375 -5.65625 C 2.191406 -5.164062 1.984375 -4.484375 1.984375 -3.609375 C 1.984375 -2.722656 2.191406 -2.035156 2.609375 -1.546875 C 3.035156 -1.054688 3.632812 -0.8125 4.40625 -0.8125 C 4.75 -0.8125 5.085938 -0.859375 5.421875 -0.953125 C 5.765625 -1.046875 6.101562 -1.1875 6.4375 -1.375 L 6.4375 -0.28125 C 6.101562 -0.125 5.757812 -0.0078125 5.40625 0.0625 C 5.050781 0.144531 4.675781 0.1875 4.28125 0.1875 C 3.195312 0.1875 2.332031 -0.148438 1.6875 -0.828125 C 1.050781 -1.515625 0.734375 -2.441406 0.734375 -3.609375 C 0.734375 -4.785156 1.054688 -5.707031 1.703125 -6.375 C 2.347656 -7.050781 3.234375 -7.390625 4.359375 -7.390625 C 4.722656 -7.390625 5.078125 -7.351562 5.421875 -7.28125 C 5.773438 -7.207031 6.113281 -7.09375 6.4375 -6.9375 Z M 6.4375 -6.9375 "/>
</g>
<g id="glyph-3-5">
<path d="M 6.859375 -5.828125 C 7.160156 -6.367188 7.515625 -6.765625 7.921875 -7.015625 C 8.335938 -7.265625 8.828125 -7.390625 9.390625 -7.390625 C 10.140625 -7.390625 10.71875 -7.125 11.125 -6.59375 C 11.53125 -6.070312 11.734375 -5.328125 11.734375 -4.359375 L 11.734375 0 L 10.546875 0 L 10.546875 -4.3125 C 10.546875 -5.007812 10.421875 -5.523438 10.171875 -5.859375 C 9.929688 -6.191406 9.5625 -6.359375 9.0625 -6.359375 C 8.445312 -6.359375 7.957031 -6.15625 7.59375 -5.75 C 7.238281 -5.34375 7.0625 -4.785156 7.0625 -4.078125 L 7.0625 0 L 5.875 0 L 5.875 -4.3125 C 5.875 -5.007812 5.75 -5.523438 5.5 -5.859375 C 5.257812 -6.191406 4.882812 -6.359375 4.375 -6.359375 C 3.769531 -6.359375 3.285156 -6.148438 2.921875 -5.734375 C 2.566406 -5.328125 2.390625 -4.773438 2.390625 -4.078125 L 2.390625 0 L 1.203125 0 L 1.203125 -7.21875 L 2.390625 -7.21875 L 2.390625 -6.09375 C 2.660156 -6.539062 2.984375 -6.867188 3.359375 -7.078125 C 3.742188 -7.285156 4.195312 -7.390625 4.71875 -7.390625 C 5.238281 -7.390625 5.679688 -7.253906 6.046875 -6.984375 C 6.421875 -6.722656 6.691406 -6.335938 6.859375 -5.828125 Z M 6.859375 -5.828125 "/>
</g>
<g id="glyph-3-6">
<path d="M 6 -6.125 L 6 -10.03125 L 7.1875 -10.03125 L 7.1875 0 L 6 0 L 6 -1.078125 C 5.75 -0.648438 5.429688 -0.332031 5.046875 -0.125 C 4.671875 0.0820312 4.21875 0.1875 3.6875 0.1875 C 2.8125 0.1875 2.097656 -0.160156 1.546875 -0.859375 C 1.003906 -1.554688 0.734375 -2.472656 0.734375 -3.609375 C 0.734375 -4.742188 1.003906 -5.65625 1.546875 -6.34375 C 2.097656 -7.039062 2.8125 -7.390625 3.6875 -7.390625 C 4.21875 -7.390625 4.671875 -7.285156 5.046875 -7.078125 C 5.429688 -6.867188 5.75 -6.550781 6 -6.125 Z M 1.953125 -3.609375 C 1.953125 -2.734375 2.128906 -2.046875 2.484375 -1.546875 C 2.847656 -1.054688 3.34375 -0.8125 3.96875 -0.8125 C 4.59375 -0.8125 5.085938 -1.054688 5.453125 -1.546875 C 5.816406 -2.046875 6 -2.734375 6 -3.609375 C 6 -4.472656 5.816406 -5.15625 5.453125 -5.65625 C 5.085938 -6.15625 4.59375 -6.40625 3.96875 -6.40625 C 3.34375 -6.40625 2.847656 -6.15625 2.484375 -5.65625 C 2.128906 -5.15625 1.953125 -4.472656 1.953125 -3.609375 Z M 1.953125 -3.609375 "/>
</g>
<g id="glyph-3-7">
<path d="M 1.25 -7.21875 L 2.4375 -7.21875 L 2.4375 0 L 1.25 0 Z M 1.25 -10.03125 L 2.4375 -10.03125 L 2.4375 -8.53125 L 1.25 -8.53125 Z M 1.25 -10.03125 "/>
</g>
<g id="glyph-3-8">
<path d="M 2.421875 -9.265625 L 2.421875 -7.21875 L 4.859375 -7.21875 L 4.859375 -6.296875 L 2.421875 -6.296875 L 2.421875 -2.375 C 2.421875 -1.789062 2.5 -1.414062 2.65625 -1.25 C 2.820312 -1.082031 3.148438 -1 3.640625 -1 L 4.859375 -1 L 4.859375 0 L 3.640625 0 C 2.722656 0 2.085938 -0.171875 1.734375 -0.515625 C 1.390625 -0.859375 1.21875 -1.476562 1.21875 -2.375 L 1.21875 -6.296875 L 0.359375 -6.296875 L 0.359375 -7.21875 L 1.21875 -7.21875 L 1.21875 -9.265625 Z M 2.421875 -9.265625 "/>
</g>
<g id="glyph-3-9">
<path d="M 7.421875 -3.90625 L 7.421875 -3.328125 L 1.96875 -3.328125 C 2.019531 -2.515625 2.265625 -1.890625 2.703125 -1.453125 C 3.140625 -1.023438 3.753906 -0.8125 4.546875 -0.8125 C 5.003906 -0.8125 5.445312 -0.867188 5.875 -0.984375 C 6.300781 -1.097656 6.722656 -1.265625 7.140625 -1.484375 L 7.140625 -0.375 C 6.710938 -0.1875 6.273438 -0.0429688 5.828125 0.046875 C 5.378906 0.140625 4.925781 0.1875 4.46875 0.1875 C 3.320312 0.1875 2.410156 -0.144531 1.734375 -0.8125 C 1.066406 -1.488281 0.734375 -2.398438 0.734375 -3.546875 C 0.734375 -4.722656 1.050781 -5.65625 1.6875 -6.34375 C 2.320312 -7.039062 3.179688 -7.390625 4.265625 -7.390625 C 5.234375 -7.390625 6 -7.078125 6.5625 -6.453125 C 7.132812 -5.828125 7.421875 -4.976562 7.421875 -3.90625 Z M 6.234375 -4.25 C 6.222656 -4.90625 6.039062 -5.425781 5.6875 -5.8125 C 5.332031 -6.195312 4.863281 -6.390625 4.28125 -6.390625 C 3.613281 -6.390625 3.082031 -6.203125 2.6875 -5.828125 C 2.289062 -5.453125 2.0625 -4.925781 2 -4.25 Z M 6.234375 -4.25 "/>
</g>
<g id="glyph-3-10">
<path d="M 5.84375 -7 L 5.84375 -5.890625 C 5.507812 -6.054688 5.160156 -6.179688 4.796875 -6.265625 C 4.441406 -6.359375 4.070312 -6.40625 3.6875 -6.40625 C 3.09375 -6.40625 2.648438 -6.3125 2.359375 -6.125 C 2.066406 -5.945312 1.921875 -5.675781 1.921875 -5.3125 C 1.921875 -5.039062 2.023438 -4.828125 2.234375 -4.671875 C 2.441406 -4.515625 2.863281 -4.363281 3.5 -4.21875 L 3.90625 -4.125 C 4.75 -3.945312 5.347656 -3.691406 5.703125 -3.359375 C 6.054688 -3.035156 6.234375 -2.578125 6.234375 -1.984375 C 6.234375 -1.316406 5.96875 -0.785156 5.4375 -0.390625 C 4.90625 -0.00390625 4.175781 0.1875 3.25 0.1875 C 2.863281 0.1875 2.457031 0.148438 2.03125 0.078125 C 1.613281 0.00390625 1.175781 -0.109375 0.71875 -0.265625 L 0.71875 -1.484375 C 1.15625 -1.253906 1.585938 -1.082031 2.015625 -0.96875 C 2.441406 -0.863281 2.863281 -0.8125 3.28125 -0.8125 C 3.832031 -0.8125 4.257812 -0.90625 4.5625 -1.09375 C 4.863281 -1.28125 5.015625 -1.550781 5.015625 -1.90625 C 5.015625 -2.226562 4.90625 -2.472656 4.6875 -2.640625 C 4.46875 -2.816406 3.992188 -2.984375 3.265625 -3.140625 L 2.84375 -3.234375 C 2.113281 -3.390625 1.582031 -3.625 1.25 -3.9375 C 0.925781 -4.257812 0.765625 -4.703125 0.765625 -5.265625 C 0.765625 -5.941406 1.003906 -6.460938 1.484375 -6.828125 C 1.972656 -7.203125 2.660156 -7.390625 3.546875 -7.390625 C 3.984375 -7.390625 4.394531 -7.359375 4.78125 -7.296875 C 5.164062 -7.234375 5.519531 -7.132812 5.84375 -7 Z M 5.84375 -7 "/>
</g>
<g id="glyph-3-11">
<path d="M 7.25 -4.359375 L 7.25 0 L 6.0625 0 L 6.0625 -4.3125 C 6.0625 -5 5.925781 -5.507812 5.65625 -5.84375 C 5.394531 -6.1875 5 -6.359375 4.46875 -6.359375 C 3.820312 -6.359375 3.3125 -6.15625 2.9375 -5.75 C 2.570312 -5.34375 2.390625 -4.785156 2.390625 -4.078125 L 2.390625 0 L 1.203125 0 L 1.203125 -7.21875 L 2.390625 -7.21875 L 2.390625 -6.09375 C 2.671875 -6.53125 3.003906 -6.851562 3.390625 -7.0625 C 3.773438 -7.28125 4.21875 -7.390625 4.71875 -7.390625 C 5.550781 -7.390625 6.179688 -7.132812 6.609375 -6.625 C 7.035156 -6.113281 7.25 -5.359375 7.25 -4.359375 Z M 7.25 -4.359375 "/>
</g>
<g id="glyph-3-12">
<path d="M 2.53125 -1.09375 L 7.078125 -1.09375 L 7.078125 0 L 0.96875 0 L 0.96875 -1.09375 C 1.457031 -1.601562 2.128906 -2.289062 2.984375 -3.15625 C 3.835938 -4.019531 4.375 -4.578125 4.59375 -4.828125 C 5.007812 -5.296875 5.300781 -5.691406 5.46875 -6.015625 C 5.632812 -6.335938 5.71875 -6.65625 5.71875 -6.96875 C 5.71875 -7.476562 5.535156 -7.894531 5.171875 -8.21875 C 4.816406 -8.539062 4.351562 -8.703125 3.78125 -8.703125 C 3.375 -8.703125 2.941406 -8.628906 2.484375 -8.484375 C 2.035156 -8.347656 1.550781 -8.132812 1.03125 -7.84375 L 1.03125 -9.15625 C 1.550781 -9.375 2.039062 -9.535156 2.5 -9.640625 C 2.957031 -9.742188 3.375 -9.796875 3.75 -9.796875 C 4.75 -9.796875 5.546875 -9.546875 6.140625 -9.046875 C 6.734375 -8.546875 7.03125 -7.878906 7.03125 -7.046875 C 7.03125 -6.648438 6.953125 -6.273438 6.796875 -5.921875 C 6.648438 -5.566406 6.382812 -5.148438 6 -4.671875 C 5.882812 -4.546875 5.539062 -4.1875 4.96875 -3.59375 C 4.394531 -3 3.582031 -2.164062 2.53125 -1.09375 Z M 2.53125 -1.09375 "/>
</g>
<g id="glyph-3-13">
<path d="M 4.203125 -8.765625 C 3.523438 -8.765625 3.015625 -8.429688 2.671875 -7.765625 C 2.335938 -7.109375 2.171875 -6.117188 2.171875 -4.796875 C 2.171875 -3.484375 2.335938 -2.492188 2.671875 -1.828125 C 3.015625 -1.171875 3.523438 -0.84375 4.203125 -0.84375 C 4.867188 -0.84375 5.367188 -1.171875 5.703125 -1.828125 C 6.046875 -2.492188 6.21875 -3.484375 6.21875 -4.796875 C 6.21875 -6.117188 6.046875 -7.109375 5.703125 -7.765625 C 5.367188 -8.429688 4.867188 -8.765625 4.203125 -8.765625 Z M 4.203125 -9.796875 C 5.273438 -9.796875 6.097656 -9.367188 6.671875 -8.515625 C 7.242188 -7.660156 7.53125 -6.421875 7.53125 -4.796875 C 7.53125 -3.179688 7.242188 -1.945312 6.671875 -1.09375 C 6.097656 -0.238281 5.273438 0.1875 4.203125 0.1875 C 3.117188 0.1875 2.289062 -0.238281 1.71875 -1.09375 C 1.15625 -1.945312 0.875 -3.179688 0.875 -4.796875 C 0.875 -6.421875 1.15625 -7.660156 1.71875 -8.515625 C 2.289062 -9.367188 3.117188 -9.796875 4.203125 -9.796875 Z M 4.203125 -9.796875 "/>
</g>
<g id="glyph-3-14">
<path d="M 1.640625 -1.09375 L 3.765625 -1.09375 L 3.765625 -8.4375 L 1.453125 -7.96875 L 1.453125 -9.15625 L 3.75 -9.625 L 5.046875 -9.625 L 5.046875 -1.09375 L 7.1875 -1.09375 L 7.1875 0 L 1.640625 0 Z M 1.640625 -1.09375 "/>
</g>
<g id="glyph-3-15">
<path d="M 1.421875 -9.625 L 6.53125 -9.625 L 6.53125 -8.53125 L 2.625 -8.53125 L 2.625 -6.171875 C 2.8125 -6.234375 3 -6.28125 3.1875 -6.3125 C 3.375 -6.34375 3.5625 -6.359375 3.75 -6.359375 C 4.820312 -6.359375 5.671875 -6.0625 6.296875 -5.46875 C 6.929688 -4.882812 7.25 -4.09375 7.25 -3.09375 C 7.25 -2.050781 6.925781 -1.242188 6.28125 -0.671875 C 5.632812 -0.0976562 4.722656 0.1875 3.546875 0.1875 C 3.148438 0.1875 2.738281 0.148438 2.3125 0.078125 C 1.894531 0.015625 1.460938 -0.0820312 1.015625 -0.21875 L 1.015625 -1.53125 C 1.398438 -1.320312 1.800781 -1.164062 2.21875 -1.0625 C 2.632812 -0.957031 3.070312 -0.90625 3.53125 -0.90625 C 4.269531 -0.90625 4.851562 -1.097656 5.28125 -1.484375 C 5.71875 -1.878906 5.9375 -2.414062 5.9375 -3.09375 C 5.9375 -3.757812 5.71875 -4.285156 5.28125 -4.671875 C 4.851562 -5.066406 4.269531 -5.265625 3.53125 -5.265625 C 3.175781 -5.265625 2.828125 -5.222656 2.484375 -5.140625 C 2.140625 -5.066406 1.785156 -4.953125 1.421875 -4.796875 Z M 1.421875 -9.625 "/>
</g>
</g>
<clipPath id="clip-0">
<path clip-rule="nonzero" d="M 252 39.113281 L 254 39.113281 L 254 328.296875 L 252 328.296875 Z M 252 39.113281 "/>
</clipPath>
<clipPath id="clip-1">
<path clip-rule="nonzero" d="M 327 39.113281 L 328 39.113281 L 328 328.296875 L 327 328.296875 Z M 327 39.113281 "/>
</clipPath>
<clipPath id="clip-2">
<path clip-rule="nonzero" d="M 402 39.113281 L 403 39.113281 L 403 328.296875 L 402 328.296875 Z M 402 39.113281 "/>
</clipPath>
<clipPath id="clip-3">
<path clip-rule="nonzero" d="M 477 39.113281 L 478 39.113281 L 478 328.296875 L 477 328.296875 Z M 477 39.113281 "/>
</clipPath>
<clipPath id="clip-4">
<path clip-rule="nonzero" d="M 201.847656 316 L 498.519531 316 L 498.519531 318 L 201.847656 318 Z M 201.847656 316 "/>
</clipPath>
<clipPath id="clip-5">
<path clip-rule="nonzero" d="M 201.847656 297 L 498.519531 297 L 498.519531 299 L 201.847656 299 Z M 201.847656 297 "/>
</clipPath>
<clipPath id="clip-6">
<path clip-rule="nonzero" d="M 201.847656 278 L 498.519531 278 L 498.519531 280 L 201.847656 280 Z M 201.847656 278 "/>
</clipPath>
<clipPath id="clip-7">
<path clip-rule="nonzero" d="M 201.847656 259 L 498.519531 259 L 498.519531 261 L 201.847656 261 Z M 201.847656 259 "/>
</clipPath>
<clipPath id="clip-8">
<path clip-rule="nonzero" d="M 201.847656 240 L 498.519531 240 L 498.519531 242 L 201.847656 242 Z M 201.847656 240 "/>
</clipPath>
<clipPath id="clip-9">
<path clip-rule="nonzero" d="M 201.847656 221 L 498.519531 221 L 498.519531 223 L 201.847656 223 Z M 201.847656 221 "/>
</clipPath>
<clipPath id="clip-10">
<path clip-rule="nonzero" d="M 201.847656 202 L 498.519531 202 L 498.519531 204 L 201.847656 204 Z M 201.847656 202 "/>
</clipPath>
<clipPath id="clip-11">
<path clip-rule="nonzero" d="M 201.847656 183 L 498.519531 183 L 498.519531 185 L 201.847656 185 Z M 201.847656 183 "/>
</clipPath>
<clipPath id="clip-12">
<path clip-rule="nonzero" d="M 201.847656 164 L 498.519531 164 L 498.519531 166 L 201.847656 166 Z M 201.847656 164 "/>
</clipPath>
<clipPath id="clip-13">
<path clip-rule="nonzero" d="M 201.847656 145 L 498.519531 145 L 498.519531 147 L 201.847656 147 Z M 201.847656 145 "/>
</clipPath>
<clipPath id="clip-14">
<path clip-rule="nonzero" d="M 201.847656 126 L 498.519531 126 L 498.519531 128 L 201.847656 128 Z M 201.847656 126 "/>
</clipPath>
<clipPath id="clip-15">
<path clip-rule="nonzero" d="M 201.847656 107 L 498.519531 107 L 498.519531 109 L 201.847656 109 Z M 201.847656 107 "/>
</clipPath>
<clipPath id="clip-16">
<path clip-rule="nonzero" d="M 201.847656 88 L 498.519531 88 L 498.519531 90 L 201.847656 90 Z M 201.847656 88 "/>
</clipPath>
<clipPath id="clip-17">
<path clip-rule="nonzero" d="M 201.847656 69 L 498.519531 69 L 498.519531 71 L 201.847656 71 Z M 201.847656 69 "/>
</clipPath>
<clipPath id="clip-18">
<path clip-rule="nonzero" d="M 201.847656 49 L 498.519531 49 L 498.519531 52 L 201.847656 52 Z M 201.847656 49 "/>
</clipPath>
<clipPath id="clip-19">
<path clip-rule="nonzero" d="M 214 39.113281 L 216 39.113281 L 216 328.296875 L 214 328.296875 Z M 214 39.113281 "/>
</clipPath>
<clipPath id="clip-20">
<path clip-rule="nonzero" d="M 289 39.113281 L 291 39.113281 L 291 328.296875 L 289 328.296875 Z M 289 39.113281 "/>
</clipPath>
<clipPath id="clip-21">
<path clip-rule="nonzero" d="M 364 39.113281 L 366 39.113281 L 366 328.296875 L 364 328.296875 Z M 364 39.113281 "/>
</clipPath>
<clipPath id="clip-22">
<path clip-rule="nonzero" d="M 439 39.113281 L 441 39.113281 L 441 328.296875 L 439 328.296875 Z M 439 39.113281 "/>
</clipPath>
</defs>
<rect x="-50.4" y="-36" width="604.8" height="432" fill="rgb(100%, 100%, 100%)" fill-opacity="1"/>
<g clip-path="url(#clip-0)">
<path fill="none" stroke-width="0.533489" stroke-linecap="butt" stroke-linejoin="round" stroke="rgb(92.156863%, 92.156863%, 92.156863%)" stroke-opacity="1" stroke-miterlimit="10" d="M 252.773438 328.296875 L 252.773438 39.113281 "/>
</g>
<g clip-path="url(#clip-1)">
<path fill="none" stroke-width="0.533489" stroke-linecap="butt" stroke-linejoin="round" stroke="rgb(92.156863%, 92.156863%, 92.156863%)" stroke-opacity="1" stroke-miterlimit="10" d="M 327.65625 328.296875 L 327.65625 39.113281 "/>
</g>
<g clip-path="url(#clip-2)">
<path fill="none" stroke-width="0.533489" stroke-linecap="butt" stroke-linejoin="round" stroke="rgb(92.156863%, 92.156863%, 92.156863%)" stroke-opacity="1" stroke-miterlimit="10" d="M 402.539062 328.296875 L 402.539062 39.113281 "/>
</g>
<g clip-path="url(#clip-3)">
<path fill="none" stroke-width="0.533489" stroke-linecap="butt" stroke-linejoin="round" stroke="rgb(92.156863%, 92.156863%, 92.156863%)" stroke-opacity="1" stroke-miterlimit="10" d="M 477.421875 328.296875 L 477.421875 39.113281 "/>
</g>
<g clip-path="url(#clip-4)">
<path fill="none" stroke-width="1.066978" stroke-linecap="butt" stroke-linejoin="round" stroke="rgb(92.156863%, 92.156863%, 92.156863%)" stroke-opacity="1" stroke-miterlimit="10" d="M 201.847656 316.882812 L 498.519531 316.882812 "/>
</g>
<g clip-path="url(#clip-5)">
<path fill="none" stroke-width="1.066978" stroke-linecap="butt" stroke-linejoin="round" stroke="rgb(92.156863%, 92.156863%, 92.156863%)" stroke-opacity="1" stroke-miterlimit="10" d="M 201.847656 297.855469 L 498.519531 297.855469 "/>
</g>
<g clip-path="url(#clip-6)">
<path fill="none" stroke-width="1.066978" stroke-linecap="butt" stroke-linejoin="round" stroke="rgb(92.156863%, 92.156863%, 92.156863%)" stroke-opacity="1" stroke-miterlimit="10" d="M 201.847656 278.832031 L 498.519531 278.832031 "/>
</g>
<g clip-path="url(#clip-7)">
<path fill="none" stroke-width="1.066978" stroke-linecap="butt" stroke-linejoin="round" stroke="rgb(92.156863%, 92.156863%, 92.156863%)" stroke-opacity="1" stroke-miterlimit="10" d="M 201.847656 259.804688 L 498.519531 259.804688 "/>
</g>
<g clip-path="url(#clip-8)">
<path fill="none" stroke-width="1.066978" stroke-linecap="butt" stroke-linejoin="round" stroke="rgb(92.156863%, 92.156863%, 92.156863%)" stroke-opacity="1" stroke-miterlimit="10" d="M 201.847656 240.78125 L 498.519531 240.78125 "/>
</g>
<g clip-path="url(#clip-9)">
<path fill="none" stroke-width="1.066978" stroke-linecap="butt" stroke-linejoin="round" stroke="rgb(92.156863%, 92.156863%, 92.156863%)" stroke-opacity="1" stroke-miterlimit="10" d="M 201.847656 221.753906 L 498.519531 221.753906 "/>
</g>
<g clip-path="url(#clip-10)">
<path fill="none" stroke-width="1.066978" stroke-linecap="butt" stroke-linejoin="round" stroke="rgb(92.156863%, 92.156863%, 92.156863%)" stroke-opacity="1" stroke-miterlimit="10" d="M 201.847656 202.730469 L 498.519531 202.730469 "/>
</g>
<g clip-path="url(#clip-11)">
<path fill="none" stroke-width="1.066978" stroke-linecap="butt" stroke-linejoin="round" stroke="rgb(92.156863%, 92.156863%, 92.156863%)" stroke-opacity="1" stroke-miterlimit="10" d="M 201.847656 183.707031 L 498.519531 183.707031 "/>
</g>
<g clip-path="url(#clip-12)">
<path fill="none" stroke-width="1.066978" stroke-linecap="butt" stroke-linejoin="round" stroke="rgb(92.156863%, 92.156863%, 92.156863%)" stroke-opacity="1" stroke-miterlimit="10" d="M 201.847656 164.679688 L 498.519531 164.679688 "/>
</g>
<g clip-path="url(#clip-13)">
<path fill="none" stroke-width="1.066978" stroke-linecap="butt" stroke-linejoin="round" stroke="rgb(92.156863%, 92.156863%, 92.156863%)" stroke-opacity="1" stroke-miterlimit="10" d="M 201.847656 145.65625 L 498.519531 145.65625 "/>
</g>
<g clip-path="url(#clip-14)">
<path fill="none" stroke-width="1.066978" stroke-linecap="butt" stroke-linejoin="round" stroke="rgb(92.156863%, 92.156863%, 92.156863%)" stroke-opacity="1" stroke-miterlimit="10" d="M 201.847656 126.628906 L 498.519531 126.628906 "/>
</g>
<g clip-path="url(#clip-15)">
<path fill="none" stroke-width="1.066978" stroke-linecap="butt" stroke-linejoin="round" stroke="rgb(92.156863%, 92.156863%, 92.156863%)" stroke-opacity="1" stroke-miterlimit="10" d="M 201.847656 107.605469 L 498.519531 107.605469 "/>
</g>
<g clip-path="url(#clip-16)">
<path fill="none" stroke-width="1.066978" stroke-linecap="butt" stroke-linejoin="round" stroke="rgb(92.156863%, 92.156863%, 92.156863%)" stroke-opacity="1" stroke-miterlimit="10" d="M 201.847656 88.578125 L 498.519531 88.578125 "/>
</g>
<g clip-path="url(#clip-17)">
<path fill="none" stroke-width="1.066978" stroke-linecap="butt" stroke-linejoin="round" stroke="rgb(92.156863%, 92.156863%, 92.156863%)" stroke-opacity="1" stroke-miterlimit="10" d="M 201.847656 69.554688 L 498.519531 69.554688 "/>
</g>
<g clip-path="url(#clip-18)">
<path fill="none" stroke-width="1.066978" stroke-linecap="butt" stroke-linejoin="round" stroke="rgb(92.156863%, 92.156863%, 92.156863%)" stroke-opacity="1" stroke-miterlimit="10" d="M 201.847656 50.527344 L 498.519531 50.527344 "/>
</g>
<g clip-path="url(#clip-19)">
<path fill="none" stroke-width="1.066978" stroke-linecap="butt" stroke-linejoin="round" stroke="rgb(92.156863%, 92.156863%, 92.156863%)" stroke-opacity="1" stroke-miterlimit="10" d="M 215.332031 328.296875 L 215.332031 39.113281 "/>
</g>
<g clip-path="url(#clip-20)">
<path fill="none" stroke-width="1.066978" stroke-linecap="butt" stroke-linejoin="round" stroke="rgb(92.156863%, 92.156863%, 92.156863%)" stroke-opacity="1" stroke-miterlimit="10" d="M 290.214844 328.296875 L 290.214844 39.113281 "/>
</g>
<g clip-path="url(#clip-21)">
<path fill="none" stroke-width="1.066978" stroke-linecap="butt" stroke-linejoin="round" stroke="rgb(92.156863%, 92.156863%, 92.156863%)" stroke-opacity="1" stroke-miterlimit="10" d="M 365.097656 328.296875 L 365.097656 39.113281 "/>
</g>
<g clip-path="url(#clip-22)">
<path fill="none" stroke-width="1.066978" stroke-linecap="butt" stroke-linejoin="round" stroke="rgb(92.156863%, 92.156863%, 92.156863%)" stroke-opacity="1" stroke-miterlimit="10" d="M 439.980469 328.296875 L 439.980469 39.113281 "/>
</g>
<path fill-rule="nonzero" fill="rgb(34.901961%, 34.901961%, 34.901961%)" fill-opacity="1" d="M 215.332031 59.089844 L 485.035156 59.089844 L 485.035156 41.96875 L 215.332031 41.96875 Z M 215.332031 59.089844 "/>
<path fill-rule="nonzero" fill="rgb(34.901961%, 34.901961%, 34.901961%)" fill-opacity="1" d="M 215.332031 78.117188 L 389.390625 78.117188 L 389.390625 60.996094 L 215.332031 60.996094 Z M 215.332031 78.117188 "/>
<path fill-rule="nonzero" fill="rgb(34.901961%, 34.901961%, 34.901961%)" fill-opacity="1" d="M 215.332031 97.140625 L 342.800781 97.140625 L 342.800781 80.019531 L 215.332031 80.019531 Z M 215.332031 97.140625 "/>
<path fill-rule="nonzero" fill="rgb(34.901961%, 34.901961%, 34.901961%)" fill-opacity="1" d="M 215.332031 116.164062 L 292.617188 116.164062 L 292.617188 99.042969 L 215.332031 99.042969 Z M 215.332031 116.164062 "/>
<path fill-rule="nonzero" fill="rgb(34.901961%, 34.901961%, 34.901961%)" fill-opacity="1" d="M 215.332031 135.191406 L 263.285156 135.191406 L 263.285156 118.070312 L 215.332031 118.070312 Z M 215.332031 135.191406 "/>
<path fill-rule="nonzero" fill="rgb(34.901961%, 34.901961%, 34.901961%)" fill-opacity="1" d="M 215.332031 154.214844 L 245.0625 154.214844 L 245.0625 137.09375 L 215.332031 137.09375 Z M 215.332031 154.214844 "/>
<path fill-rule="nonzero" fill="rgb(34.901961%, 34.901961%, 34.901961%)" fill-opacity="1" d="M 215.332031 173.242188 L 238.832031 173.242188 L 238.832031 156.121094 L 215.332031 156.121094 Z M 215.332031 173.242188 "/>
<path fill-rule="nonzero" fill="rgb(34.901961%, 34.901961%, 34.901961%)" fill-opacity="1" d="M 215.332031 192.265625 L 232.90625 192.265625 L 232.90625 175.144531 L 215.332031 175.144531 Z M 215.332031 192.265625 "/>
<path fill-rule="nonzero" fill="rgb(34.901961%, 34.901961%, 34.901961%)" fill-opacity="1" d="M 215.332031 211.292969 L 230.621094 211.292969 L 230.621094 194.171875 L 215.332031 194.171875 Z M 215.332031 211.292969 "/>
<path fill-rule="nonzero" fill="rgb(34.901961%, 34.901961%, 34.901961%)" fill-opacity="1" d="M 215.332031 230.316406 L 228.351562 230.316406 L 228.351562 213.195312 L 215.332031 213.195312 Z M 215.332031 230.316406 "/>
<path fill-rule="nonzero" fill="rgb(34.901961%, 34.901961%, 34.901961%)" fill-opacity="1" d="M 215.332031 249.34375 L 225.355469 249.34375 L 225.355469 232.222656 L 215.332031 232.222656 Z M 215.332031 249.34375 "/>
<path fill-rule="nonzero" fill="rgb(34.901961%, 34.901961%, 34.901961%)" fill-opacity="1" d="M 215.332031 268.367188 L 220.683594 268.367188 L 220.683594 251.246094 L 215.332031 251.246094 Z M 215.332031 268.367188 "/>
<path fill-rule="nonzero" fill="rgb(34.901961%, 34.901961%, 34.901961%)" fill-opacity="1" d="M 215.332031 287.390625 L 218.550781 287.390625 L 218.550781 270.269531 L 215.332031 270.269531 Z M 215.332031 287.390625 "/>
<path fill-rule="nonzero" fill="rgb(34.901961%, 34.901961%, 34.901961%)" fill-opacity="1" d="M 215.332031 306.417969 L 218.210938 306.417969 L 218.210938 289.296875 L 215.332031 289.296875 Z M 215.332031 306.417969 "/>
<g fill="rgb(30.196078%, 30.196078%, 30.196078%)" fill-opacity="1">
<use xlink:href="#glyph-0-0" x="171.449219" y="320.089844"/>
<use xlink:href="#glyph-0-1" x="179.041797" y="320.089844"/>
<use xlink:href="#glyph-0-2" x="184.434375" y="320.089844"/>
<use xlink:href="#glyph-0-3" x="186.879297" y="320.089844"/>
<use xlink:href="#glyph-0-4" x="191.498437" y="320.089844"/>
</g>
<g fill="rgb(30.196078%, 30.196078%, 30.196078%)" fill-opacity="1">
<use xlink:href="#glyph-0-5" x="178.101562" y="301.0625"/>
<use xlink:href="#glyph-0-2" x="184.216016" y="301.0625"/>
<use xlink:href="#glyph-0-6" x="186.660938" y="301.0625"/>
<use xlink:href="#glyph-0-4" x="191.499219" y="301.0625"/>
</g>
<g fill="rgb(30.196078%, 30.196078%, 30.196078%)" fill-opacity="1">
<use xlink:href="#glyph-0-7" x="170.203125" y="282.039062"/>
<use xlink:href="#glyph-0-2" x="175.264844" y="282.039062"/>
<use xlink:href="#glyph-0-8" x="177.709766" y="282.039062"/>
<use xlink:href="#glyph-0-9" x="183.295703" y="282.039062"/>
<use xlink:href="#glyph-0-4" x="186.913672" y="282.039062"/>
<use xlink:href="#glyph-0-10" x="192.327734" y="282.039062"/>
</g>
<g fill="rgb(30.196078%, 30.196078%, 30.196078%)" fill-opacity="1">
<use xlink:href="#glyph-0-11" x="120.898438" y="263.011719"/>
<use xlink:href="#glyph-0-12" x="127.825" y="263.011719"/>
<use xlink:href="#glyph-0-13" x="131.275391" y="263.011719"/>
<use xlink:href="#glyph-0-4" x="136.852734" y="263.011719"/>
<use xlink:href="#glyph-0-9" x="142.266797" y="263.011719"/>
<use xlink:href="#glyph-0-14" x="145.884766" y="263.011719"/>
<use xlink:href="#glyph-0-6" x="148.682031" y="263.011719"/>
<use xlink:href="#glyph-0-9" x="153.520312" y="263.011719"/>
<use xlink:href="#glyph-0-15" x="157.138281" y="263.011719"/>
<use xlink:href="#glyph-0-16" x="162.522266" y="263.011719"/>
<use xlink:href="#glyph-0-10" x="168.108203" y="263.011719"/>
<use xlink:href="#glyph-0-14" x="172.692969" y="263.011719"/>
<use xlink:href="#glyph-0-17" x="175.490234" y="263.011719"/>
<use xlink:href="#glyph-0-18" x="181.067578" y="263.011719"/>
<use xlink:href="#glyph-0-4" x="183.864844" y="263.011719"/>
<use xlink:href="#glyph-0-18" x="189.278906" y="263.011719"/>
<use xlink:href="#glyph-0-6" x="192.076172" y="263.011719"/>
</g>
<g fill="rgb(30.196078%, 30.196078%, 30.196078%)" fill-opacity="1">
<use xlink:href="#glyph-0-19" x="147.609375" y="243.988281"/>
<use xlink:href="#glyph-0-4" x="153.629297" y="243.988281"/>
<use xlink:href="#glyph-0-20" x="159.043359" y="243.988281"/>
<use xlink:href="#glyph-0-4" x="164.629297" y="243.988281"/>
<use xlink:href="#glyph-0-12" x="170.043359" y="243.988281"/>
<use xlink:href="#glyph-0-1" x="173.49375" y="243.988281"/>
<use xlink:href="#glyph-0-8" x="178.886328" y="243.988281"/>
<use xlink:href="#glyph-0-21" x="184.472266" y="243.988281"/>
<use xlink:href="#glyph-0-4" x="186.917188" y="243.988281"/>
<use xlink:href="#glyph-0-10" x="192.33125" y="243.988281"/>
</g>
<g fill="rgb(30.196078%, 30.196078%, 30.196078%)" fill-opacity="1">
<use xlink:href="#glyph-0-22" x="18.523438" y="224.964844"/>
<use xlink:href="#glyph-0-16" x="24.109375" y="224.964844"/>
<use xlink:href="#glyph-0-2" x="29.695312" y="224.964844"/>
<use xlink:href="#glyph-0-6" x="32.140234" y="224.964844"/>
<use xlink:href="#glyph-0-4" x="36.978516" y="224.964844"/>
<use xlink:href="#glyph-0-14" x="42.392578" y="224.964844"/>
<use xlink:href="#glyph-0-23" x="45.189844" y="224.964844"/>
<use xlink:href="#glyph-0-14" x="48.365234" y="224.964844"/>
<use xlink:href="#glyph-0-8" x="51.1625" y="224.964844"/>
<use xlink:href="#glyph-0-4" x="56.748438" y="224.964844"/>
<use xlink:href="#glyph-0-24" x="62.1625" y="224.964844"/>
<use xlink:href="#glyph-0-4" x="67.370312" y="224.964844"/>
<use xlink:href="#glyph-0-9" x="72.784375" y="224.964844"/>
<use xlink:href="#glyph-0-1" x="76.402344" y="224.964844"/>
<use xlink:href="#glyph-0-20" x="81.794922" y="224.964844"/>
<use xlink:href="#glyph-0-4" x="87.380859" y="224.964844"/>
<use xlink:href="#glyph-0-14" x="92.794922" y="224.964844"/>
<use xlink:href="#glyph-0-23" x="95.592187" y="224.964844"/>
<use xlink:href="#glyph-0-14" x="98.767578" y="224.964844"/>
<use xlink:href="#glyph-0-16" x="101.564844" y="224.964844"/>
<use xlink:href="#glyph-0-13" x="107.150781" y="224.964844"/>
<use xlink:href="#glyph-0-1" x="112.728125" y="224.964844"/>
<use xlink:href="#glyph-0-9" x="118.120703" y="224.964844"/>
<use xlink:href="#glyph-0-25" x="121.738672" y="224.964844"/>
<use xlink:href="#glyph-0-1" x="130.310937" y="224.964844"/>
<use xlink:href="#glyph-0-6" x="135.703516" y="224.964844"/>
<use xlink:href="#glyph-0-4" x="140.541797" y="224.964844"/>
<use xlink:href="#glyph-0-26" x="145.955859" y="224.964844"/>
<use xlink:href="#glyph-0-12" x="151.533203" y="224.964844"/>
<use xlink:href="#glyph-0-2" x="154.983594" y="224.964844"/>
<use xlink:href="#glyph-0-6" x="157.428516" y="224.964844"/>
<use xlink:href="#glyph-0-1" x="162.266797" y="224.964844"/>
<use xlink:href="#glyph-0-21" x="167.659375" y="224.964844"/>
<use xlink:href="#glyph-0-14" x="170.104297" y="224.964844"/>
<use xlink:href="#glyph-0-6" x="172.901563" y="224.964844"/>
<use xlink:href="#glyph-0-9" x="177.739844" y="224.964844"/>
<use xlink:href="#glyph-0-15" x="181.357812" y="224.964844"/>
<use xlink:href="#glyph-0-16" x="186.741797" y="224.964844"/>
<use xlink:href="#glyph-0-10" x="192.327734" y="224.964844"/>
</g>
<g fill="rgb(30.196078%, 30.196078%, 30.196078%)" fill-opacity="1">
<use xlink:href="#glyph-0-5" x="121.617188" y="205.9375"/>
<use xlink:href="#glyph-0-15" x="127.731641" y="205.9375"/>
<use xlink:href="#glyph-0-15" x="133.115625" y="205.9375"/>
<use xlink:href="#glyph-0-12" x="138.499609" y="205.9375"/>
<use xlink:href="#glyph-0-10" x="141.95" y="205.9375"/>
<use xlink:href="#glyph-0-14" x="146.534766" y="205.9375"/>
<use xlink:href="#glyph-0-1" x="149.332031" y="205.9375"/>
<use xlink:href="#glyph-0-17" x="154.724609" y="205.9375"/>
<use xlink:href="#glyph-0-27" x="160.301953" y="205.9375"/>
<use xlink:href="#glyph-0-14" x="165.887891" y="205.9375"/>
<use xlink:href="#glyph-0-12" x="168.685156" y="205.9375"/>
<use xlink:href="#glyph-0-26" x="172.135547" y="205.9375"/>
<use xlink:href="#glyph-0-8" x="177.712891" y="205.9375"/>
<use xlink:href="#glyph-0-4" x="183.298828" y="205.9375"/>
<use xlink:href="#glyph-0-9" x="188.712891" y="205.9375"/>
<use xlink:href="#glyph-0-10" x="192.330859" y="205.9375"/>
</g>
<g fill="rgb(30.196078%, 30.196078%, 30.196078%)" fill-opacity="1">
<use xlink:href="#glyph-0-28" x="160.117188" y="186.914062"/>
<use xlink:href="#glyph-0-15" x="165.492578" y="186.914062"/>
<use xlink:href="#glyph-0-8" x="170.876563" y="186.914062"/>
<use xlink:href="#glyph-0-1" x="176.4625" y="186.914062"/>
<use xlink:href="#glyph-0-6" x="181.855078" y="186.914062"/>
<use xlink:href="#glyph-0-6" x="186.693359" y="186.914062"/>
<use xlink:href="#glyph-0-15" x="191.531641" y="186.914062"/>
</g>
<g fill="rgb(30.196078%, 30.196078%, 30.196078%)" fill-opacity="1">
<use xlink:href="#glyph-0-22" x="144.347656" y="167.886719"/>
<use xlink:href="#glyph-0-26" x="149.933594" y="167.886719"/>
<use xlink:href="#glyph-0-20" x="155.510938" y="167.886719"/>
<use xlink:href="#glyph-0-1" x="161.096875" y="167.886719"/>
<use xlink:href="#glyph-0-9" x="166.489453" y="167.886719"/>
<use xlink:href="#glyph-0-14" x="170.107422" y="167.886719"/>
<use xlink:href="#glyph-0-6" x="172.904687" y="167.886719"/>
<use xlink:href="#glyph-0-9" x="177.742969" y="167.886719"/>
<use xlink:href="#glyph-0-15" x="181.360937" y="167.886719"/>
<use xlink:href="#glyph-0-16" x="186.744922" y="167.886719"/>
<use xlink:href="#glyph-0-10" x="192.330859" y="167.886719"/>
</g>
<g fill="rgb(30.196078%, 30.196078%, 30.196078%)" fill-opacity="1">
<use xlink:href="#glyph-0-29" x="176.71875" y="148.863281"/>
<use xlink:href="#glyph-0-26" x="183.301562" y="148.863281"/>
<use xlink:href="#glyph-0-12" x="188.878906" y="148.863281"/>
<use xlink:href="#glyph-0-10" x="192.329297" y="148.863281"/>
</g>
<g fill="rgb(30.196078%, 30.196078%, 30.196078%)" fill-opacity="1">
<use xlink:href="#glyph-0-30" x="169" y="129.835938"/>
<use xlink:href="#glyph-0-26" x="174.306641" y="129.835938"/>
<use xlink:href="#glyph-0-21" x="179.883984" y="129.835938"/>
<use xlink:href="#glyph-0-10" x="182.328906" y="129.835938"/>
<use xlink:href="#glyph-0-4" x="186.913672" y="129.835938"/>
<use xlink:href="#glyph-0-10" x="192.327734" y="129.835938"/>
</g>
<g fill="rgb(30.196078%, 30.196078%, 30.196078%)" fill-opacity="1">
<use xlink:href="#glyph-0-7" x="172.175781" y="110.8125"/>
<use xlink:href="#glyph-0-9" x="177.2375" y="110.8125"/>
<use xlink:href="#glyph-0-26" x="180.855469" y="110.8125"/>
<use xlink:href="#glyph-0-2" x="186.432813" y="110.8125"/>
<use xlink:href="#glyph-0-12" x="188.877734" y="110.8125"/>
<use xlink:href="#glyph-0-10" x="192.328125" y="110.8125"/>
</g>
<g fill="rgb(30.196078%, 30.196078%, 30.196078%)" fill-opacity="1">
<use xlink:href="#glyph-0-31" x="168.378906" y="91.785156"/>
<use xlink:href="#glyph-0-13" x="177.080078" y="91.785156"/>
<use xlink:href="#glyph-0-4" x="182.657422" y="91.785156"/>
<use xlink:href="#glyph-0-1" x="188.071484" y="91.785156"/>
<use xlink:href="#glyph-0-12" x="193.464063" y="91.785156"/>
</g>
<g fill="rgb(30.196078%, 30.196078%, 30.196078%)" fill-opacity="1">
<use xlink:href="#glyph-0-32" x="136.882812" y="72.761719"/>
<use xlink:href="#glyph-0-4" x="143.027344" y="72.761719"/>
<use xlink:href="#glyph-0-9" x="148.441406" y="72.761719"/>
<use xlink:href="#glyph-0-4" x="152.059375" y="72.761719"/>
<use xlink:href="#glyph-0-1" x="157.473437" y="72.761719"/>
<use xlink:href="#glyph-0-21" x="162.866016" y="72.761719"/>
<use xlink:href="#glyph-0-10" x="165.310937" y="72.761719"/>
<use xlink:href="#glyph-0-14" x="169.895703" y="72.761719"/>
<use xlink:href="#glyph-0-17" x="172.692969" y="72.761719"/>
<use xlink:href="#glyph-0-18" x="178.270312" y="72.761719"/>
<use xlink:href="#glyph-0-4" x="181.067578" y="72.761719"/>
<use xlink:href="#glyph-0-18" x="186.481641" y="72.761719"/>
<use xlink:href="#glyph-0-6" x="189.278906" y="72.761719"/>
<use xlink:href="#glyph-0-18" x="194.117187" y="72.761719"/>
</g>
<g fill="rgb(30.196078%, 30.196078%, 30.196078%)" fill-opacity="1">
<use xlink:href="#glyph-0-11" x="121.875" y="53.738281"/>
<use xlink:href="#glyph-0-2" x="128.801562" y="53.738281"/>
<use xlink:href="#glyph-0-21" x="131.246484" y="53.738281"/>
<use xlink:href="#glyph-0-14" x="133.691406" y="53.738281"/>
<use xlink:href="#glyph-0-8" x="136.488672" y="53.738281"/>
<use xlink:href="#glyph-0-4" x="142.074609" y="53.738281"/>
<use xlink:href="#glyph-0-1" x="147.488672" y="53.738281"/>
<use xlink:href="#glyph-0-9" x="152.88125" y="53.738281"/>
<use xlink:href="#glyph-0-2" x="156.499219" y="53.738281"/>
<use xlink:href="#glyph-0-17" x="158.944141" y="53.738281"/>
<use xlink:href="#glyph-0-20" x="164.521484" y="53.738281"/>
<use xlink:href="#glyph-0-14" x="170.107422" y="53.738281"/>
<use xlink:href="#glyph-0-6" x="172.904687" y="53.738281"/>
<use xlink:href="#glyph-0-9" x="177.742969" y="53.738281"/>
<use xlink:href="#glyph-0-15" x="181.360937" y="53.738281"/>
<use xlink:href="#glyph-0-16" x="186.744922" y="53.738281"/>
<use xlink:href="#glyph-0-10" x="192.330859" y="53.738281"/>
</g>
<g fill="rgb(30.196078%, 30.196078%, 30.196078%)" fill-opacity="1">
<use xlink:href="#glyph-0-33" x="212.53125" y="339.644531"/>
</g>
<g fill="rgb(30.196078%, 30.196078%, 30.196078%)" fill-opacity="1">
<use xlink:href="#glyph-0-34" x="277.617188" y="339.644531"/>
<use xlink:href="#glyph-0-35" x="283.216016" y="339.644531"/>
<use xlink:href="#glyph-0-36" x="286.013281" y="339.644531"/>
<use xlink:href="#glyph-0-33" x="291.612109" y="339.644531"/>
<use xlink:href="#glyph-0-33" x="297.210938" y="339.644531"/>
</g>
<g fill="rgb(30.196078%, 30.196078%, 30.196078%)" fill-opacity="1">
<use xlink:href="#glyph-0-36" x="352.5" y="339.644531"/>
<use xlink:href="#glyph-0-35" x="358.098828" y="339.644531"/>
<use xlink:href="#glyph-0-33" x="360.896094" y="339.644531"/>
<use xlink:href="#glyph-0-33" x="366.494922" y="339.644531"/>
<use xlink:href="#glyph-0-33" x="372.09375" y="339.644531"/>
</g>
<g fill="rgb(30.196078%, 30.196078%, 30.196078%)" fill-opacity="1">
<use xlink:href="#glyph-0-37" x="427.382812" y="339.644531"/>
<use xlink:href="#glyph-0-35" x="432.981641" y="339.644531"/>
<use xlink:href="#glyph-0-36" x="435.778906" y="339.644531"/>
<use xlink:href="#glyph-0-33" x="441.377734" y="339.644531"/>
<use xlink:href="#glyph-0-33" x="446.976563" y="339.644531"/>
</g>
<g fill="rgb(0%, 0%, 0%)" fill-opacity="1">
<use xlink:href="#glyph-1-0" x="313.410156" y="352.234375"/>
<use xlink:href="#glyph-1-1" x="320.956543" y="352.234375"/>
<use xlink:href="#glyph-1-2" x="327.283691" y="352.234375"/>
<use xlink:href="#glyph-1-3" x="331.25293" y="352.234375"/>
<use xlink:href="#glyph-1-4" x="339.481445" y="352.234375"/>
<use xlink:href="#glyph-1-4" x="346.431641" y="352.234375"/>
<use xlink:href="#glyph-1-5" x="353.381836" y="352.234375"/>
<use xlink:href="#glyph-1-6" x="356.878418" y="352.234375"/>
<use xlink:href="#glyph-1-7" x="361.169922" y="352.234375"/>
<use xlink:href="#glyph-1-8" x="367.540039" y="352.234375"/>
<use xlink:href="#glyph-1-9" x="378.255371" y="352.234375"/>
<use xlink:href="#glyph-1-10" x="382.665039" y="352.234375"/>
</g>
<g fill="rgb(0%, 0%, 0%)" fill-opacity="1">
<use xlink:href="#glyph-2-0" x="13.5" y="215.421875"/>
<use xlink:href="#glyph-2-1" x="13.5" y="207.741211"/>
<use xlink:href="#glyph-2-2" x="13.5" y="201.01123"/>
<use xlink:href="#glyph-2-2" x="13.5" y="190.295898"/>
<use xlink:href="#glyph-2-1" x="13.5" y="179.580566"/>
<use xlink:href="#glyph-2-3" x="13.5" y="172.850586"/>
<use xlink:href="#glyph-2-4" x="13.5" y="165.868164"/>
<use xlink:href="#glyph-2-5" x="13.5" y="162.812012"/>
<use xlink:href="#glyph-2-6" x="13.5" y="158.499023"/>
</g>
<g fill="rgb(0%, 0%, 0%)" fill-opacity="1">
<use xlink:href="#glyph-1-11" x="201.847656" y="31.347656"/>
<use xlink:href="#glyph-1-12" x="209.372559" y="31.347656"/>
<use xlink:href="#glyph-1-13" x="216.113281" y="31.347656"/>
<use xlink:href="#glyph-1-14" x="219.169434" y="31.347656"/>
<use xlink:href="#glyph-1-15" x="222.225586" y="31.347656"/>
<use xlink:href="#glyph-1-12" x="229.208008" y="31.347656"/>
<use xlink:href="#glyph-1-16" x="235.94873" y="31.347656"/>
<use xlink:href="#glyph-1-17" x="240.261719" y="31.347656"/>
<use xlink:href="#glyph-1-15" x="247.029297" y="31.347656"/>
<use xlink:href="#glyph-1-5" x="254.011719" y="31.347656"/>
<use xlink:href="#glyph-1-18" x="257.508301" y="31.347656"/>
<use xlink:href="#glyph-1-19" x="263.556152" y="31.347656"/>
<use xlink:href="#glyph-1-20" x="270.286133" y="31.347656"/>
<use xlink:href="#glyph-1-21" x="277.257812" y="31.347656"/>
<use xlink:href="#glyph-1-16" x="284.229492" y="31.347656"/>
<use xlink:href="#glyph-1-22" x="288.54248" y="31.347656"/>
<use xlink:href="#glyph-1-14" x="293.064941" y="31.347656"/>
<use xlink:href="#glyph-1-17" x="296.121094" y="31.347656"/>
<use xlink:href="#glyph-1-23" x="302.888672" y="31.347656"/>
<use xlink:href="#glyph-1-5" x="308.619629" y="31.347656"/>
<use xlink:href="#glyph-1-19" x="312.116211" y="31.347656"/>
<use xlink:href="#glyph-1-21" x="318.846191" y="31.347656"/>
<use xlink:href="#glyph-1-13" x="325.817871" y="31.347656"/>
<use xlink:href="#glyph-1-24" x="328.874023" y="31.347656"/>
</g>
<g fill="rgb(0%, 0%, 0%)" fill-opacity="1">
<use xlink:href="#glyph-3-0" x="201.847656" y="15.101562"/>
<use xlink:href="#glyph-3-1" x="209.910742" y="15.101562"/>
<use xlink:href="#glyph-3-2" x="217.986719" y="15.101562"/>
<use xlink:href="#glyph-3-3" x="226.365625" y="15.101562"/>
<use xlink:href="#glyph-3-4" x="230.561523" y="15.101562"/>
<use xlink:href="#glyph-3-1" x="237.818945" y="15.101562"/>
<use xlink:href="#glyph-3-5" x="245.894922" y="15.101562"/>
<use xlink:href="#glyph-3-5" x="258.75332" y="15.101562"/>
<use xlink:href="#glyph-3-1" x="271.611719" y="15.101562"/>
<use xlink:href="#glyph-3-6" x="279.687695" y="15.101562"/>
<use xlink:href="#glyph-3-7" x="288.066602" y="15.101562"/>
<use xlink:href="#glyph-3-8" x="291.733984" y="15.101562"/>
<use xlink:href="#glyph-3-7" x="296.90957" y="15.101562"/>
<use xlink:href="#glyph-3-9" x="300.576953" y="15.101562"/>
<use xlink:href="#glyph-3-10" x="308.698047" y="15.101562"/>
<use xlink:href="#glyph-3-3" x="315.575195" y="15.101562"/>
<use xlink:href="#glyph-3-7" x="319.771094" y="15.101562"/>
<use xlink:href="#glyph-3-11" x="323.438477" y="15.101562"/>
<use xlink:href="#glyph-3-3" x="331.804492" y="15.101562"/>
<use xlink:href="#glyph-3-12" x="336.000391" y="15.101562"/>
<use xlink:href="#glyph-3-13" x="344.398633" y="15.101562"/>
<use xlink:href="#glyph-3-14" x="352.796875" y="15.101562"/>
<use xlink:href="#glyph-3-15" x="361.195117" y="15.101562"/>
</g>
</svg>
