<?xml version="1.0" encoding="UTF-8"?>
<svg xmlns="http://www.w3.org/2000/svg" xmlns:xlink="http://www.w3.org/1999/xlink" width="504" height="360" viewBox="0 0 504 360">
<defs>
<g>
<g id="glyph-0-0">
<path d="M 2.796875 -5.84375 C 2.347656 -5.84375 2.007812 -5.617188 1.78125 -5.171875 C 1.5625 -4.734375 1.453125 -4.078125 1.453125 -3.203125 C 1.453125 -2.316406 1.5625 -1.65625 1.78125 -1.21875 C 2.007812 -0.78125 2.347656 -0.5625 2.796875 -0.5625 C 3.242188 -0.5625 3.578125 -0.78125 3.796875 -1.21875 C 4.023438 -1.65625 4.140625 -2.316406 4.140625 -3.203125 C 4.140625 -4.078125 4.023438 -4.734375 3.796875 -5.171875 C 3.578125 -5.617188 3.242188 -5.84375 2.796875 -5.84375 Z M 2.796875 -6.53125 C 3.515625 -6.53125 4.0625 -6.242188 4.4375 -5.671875 C 4.820312 -5.109375 5.015625 -4.285156 5.015625 -3.203125 C 5.015625 -2.117188 4.820312 -1.289062 4.4375 -0.71875 C 4.0625 -0.15625 3.515625 0.125 2.796875 0.125 C 2.078125 0.125 1.523438 -0.15625 1.140625 -0.71875 C 0.765625 -1.289062 0.578125 -2.117188 0.578125 -3.203125 C 0.578125 -4.285156 0.765625 -5.109375 1.140625 -5.671875 C 1.523438 -6.242188 2.078125 -6.53125 2.796875 -6.53125 Z M 2.796875 -6.53125 "/>
</g>
<g id="glyph-0-1">
<path d="M 0.953125 -6.40625 L 4.359375 -6.40625 L 4.359375 -5.6875 L 1.75 -5.6875 L 1.75 -4.109375 C 1.875 -4.148438 2 -4.179688 2.125 -4.203125 C 2.25 -4.222656 2.375 -4.234375 2.5 -4.234375 C 3.21875 -4.234375 3.785156 -4.035156 4.203125 -3.640625 C 4.617188 -3.253906 4.828125 -2.726562 4.828125 -2.0625 C 4.828125 -1.363281 4.613281 -0.820312 4.1875 -0.4375 C 3.757812 -0.0625 3.148438 0.125 2.359375 0.125 C 2.097656 0.125 1.828125 0.0976562 1.546875 0.046875 C 1.265625 0.00390625 0.972656 -0.0625 0.671875 -0.15625 L 0.671875 -1.015625 C 0.929688 -0.878906 1.195312 -0.773438 1.46875 -0.703125 C 1.75 -0.640625 2.039062 -0.609375 2.34375 -0.609375 C 2.84375 -0.609375 3.234375 -0.738281 3.515625 -1 C 3.804688 -1.257812 3.953125 -1.613281 3.953125 -2.0625 C 3.953125 -2.507812 3.804688 -2.863281 3.515625 -3.125 C 3.234375 -3.382812 2.84375 -3.515625 2.34375 -3.515625 C 2.113281 -3.515625 1.882812 -3.488281 1.65625 -3.4375 C 1.425781 -3.382812 1.191406 -3.300781 0.953125 -3.1875 Z M 0.953125 -6.40625 "/>
</g>
<g id="glyph-0-2">
<path d="M 1.09375 -0.734375 L 2.515625 -0.734375 L 2.515625 -5.625 L 0.96875 -5.3125 L 0.96875 -6.109375 L 2.5 -6.40625 L 3.375 -6.40625 L 3.375 -0.734375 L 4.78125 -0.734375 L 4.78125 0 L 1.09375 0 Z M 1.09375 -0.734375 "/>
</g>
<g id="glyph-0-3">
<path d="M 0.96875 -0.140625 L 0.96875 -0.921875 C 1.1875 -0.816406 1.40625 -0.738281 1.625 -0.6875 C 1.851562 -0.632812 2.070312 -0.609375 2.28125 -0.609375 C 2.851562 -0.609375 3.289062 -0.800781 3.59375 -1.1875 C 3.894531 -1.570312 4.066406 -2.15625 4.109375 -2.9375 C 3.941406 -2.6875 3.726562 -2.492188 3.46875 -2.359375 C 3.21875 -2.234375 2.941406 -2.171875 2.640625 -2.171875 C 1.992188 -2.171875 1.484375 -2.363281 1.109375 -2.75 C 0.734375 -3.144531 0.546875 -3.675781 0.546875 -4.34375 C 0.546875 -5 0.738281 -5.523438 1.125 -5.921875 C 1.519531 -6.328125 2.039062 -6.53125 2.6875 -6.53125 C 3.4375 -6.53125 4.003906 -6.242188 4.390625 -5.671875 C 4.785156 -5.109375 4.984375 -4.285156 4.984375 -3.203125 C 4.984375 -2.191406 4.742188 -1.382812 4.265625 -0.78125 C 3.785156 -0.175781 3.140625 0.125 2.328125 0.125 C 2.109375 0.125 1.882812 0.101562 1.65625 0.0625 C 1.4375 0.0195312 1.207031 -0.046875 0.96875 -0.140625 Z M 2.6875 -2.859375 C 3.082031 -2.859375 3.390625 -2.988281 3.609375 -3.25 C 3.835938 -3.519531 3.953125 -3.882812 3.953125 -4.34375 C 3.953125 -4.800781 3.835938 -5.164062 3.609375 -5.4375 C 3.390625 -5.707031 3.082031 -5.84375 2.6875 -5.84375 C 2.300781 -5.84375 1.992188 -5.707031 1.765625 -5.4375 C 1.535156 -5.164062 1.421875 -4.800781 1.421875 -4.34375 C 1.421875 -3.882812 1.535156 -3.519531 1.765625 -3.25 C 1.992188 -2.988281 2.300781 -2.859375 2.6875 -2.859375 Z M 2.6875 -2.859375 "/>
</g>
<g id="glyph-0-4">
<path d="M 4.484375 1.453125 L 4.484375 2.078125 L -0.078125 2.078125 L -0.078125 1.453125 Z M 4.484375 1.453125 "/>
</g>
<g id="glyph-0-5">
<path d="M 1.6875 -0.734375 L 4.71875 -0.734375 L 4.71875 0 L 0.640625 0 L 0.640625 -0.734375 C 0.972656 -1.066406 1.421875 -1.519531 1.984375 -2.09375 C 2.554688 -2.675781 2.914062 -3.050781 3.0625 -3.21875 C 3.34375 -3.53125 3.535156 -3.789062 3.640625 -4 C 3.753906 -4.21875 3.8125 -4.429688 3.8125 -4.640625 C 3.8125 -4.984375 3.691406 -5.257812 3.453125 -5.46875 C 3.210938 -5.6875 2.898438 -5.796875 2.515625 -5.796875 C 2.242188 -5.796875 1.957031 -5.75 1.65625 -5.65625 C 1.351562 -5.5625 1.03125 -5.421875 0.6875 -5.234375 L 0.6875 -6.109375 C 1.039062 -6.242188 1.367188 -6.347656 1.671875 -6.421875 C 1.972656 -6.492188 2.25 -6.53125 2.5 -6.53125 C 3.164062 -6.53125 3.695312 -6.363281 4.09375 -6.03125 C 4.488281 -5.695312 4.6875 -5.253906 4.6875 -4.703125 C 4.6875 -4.429688 4.632812 -4.175781 4.53125 -3.9375 C 4.4375 -3.707031 4.257812 -3.429688 4 -3.109375 C 3.925781 -3.023438 3.695312 -2.785156 3.3125 -2.390625 C 2.925781 -1.992188 2.382812 -1.441406 1.6875 -0.734375 Z M 1.6875 -0.734375 "/>
</g>
<g id="glyph-0-6">
<path d="M 0.859375 -6.40625 L 4.546875 -6.40625 L 4.546875 -5.6875 L 1.734375 -5.6875 L 1.734375 -3.796875 L 4.28125 -3.796875 L 4.28125 -3.0625 L 1.734375 -3.0625 L 1.734375 0 L 0.859375 0 Z M 0.859375 -6.40625 "/>
</g>
<g id="glyph-0-7">
<path d="M 3 -5.5625 L 1.828125 -2.359375 L 4.1875 -2.359375 Z M 2.515625 -6.40625 L 3.5 -6.40625 L 5.9375 0 L 5.046875 0 L 4.453125 -1.640625 L 1.5625 -1.640625 L 0.984375 0 L 0.0625 0 Z M 2.515625 -6.40625 "/>
</g>
<g id="glyph-0-8">
<path d="M 0.859375 -6.40625 L 1.734375 -6.40625 L 1.734375 -0.734375 L 4.859375 -0.734375 L 4.859375 0 L 0.859375 0 Z M 0.859375 -6.40625 "/>
</g>
<g id="glyph-0-9">
<path d="M 4.703125 -6.203125 L 4.703125 -5.359375 C 4.378906 -5.515625 4.070312 -5.628906 3.78125 -5.703125 C 3.488281 -5.785156 3.203125 -5.828125 2.921875 -5.828125 C 2.453125 -5.828125 2.085938 -5.734375 1.828125 -5.546875 C 1.578125 -5.367188 1.453125 -5.109375 1.453125 -4.765625 C 1.453125 -4.484375 1.535156 -4.269531 1.703125 -4.125 C 1.878906 -3.976562 2.203125 -3.863281 2.671875 -3.78125 L 3.203125 -3.671875 C 3.847656 -3.546875 4.320312 -3.328125 4.625 -3.015625 C 4.9375 -2.703125 5.09375 -2.285156 5.09375 -1.765625 C 5.09375 -1.148438 4.882812 -0.679688 4.46875 -0.359375 C 4.050781 -0.0351562 3.441406 0.125 2.640625 0.125 C 2.335938 0.125 2.015625 0.0859375 1.671875 0.015625 C 1.328125 -0.046875 0.972656 -0.144531 0.609375 -0.28125 L 0.609375 -1.171875 C 0.960938 -0.972656 1.304688 -0.820312 1.640625 -0.71875 C 1.972656 -0.625 2.304688 -0.578125 2.640625 -0.578125 C 3.128906 -0.578125 3.507812 -0.671875 3.78125 -0.859375 C 4.050781 -1.054688 4.1875 -1.335938 4.1875 -1.703125 C 4.1875 -2.015625 4.085938 -2.257812 3.890625 -2.4375 C 3.703125 -2.613281 3.390625 -2.75 2.953125 -2.84375 L 2.421875 -2.953125 C 1.773438 -3.078125 1.304688 -3.273438 1.015625 -3.546875 C 0.722656 -3.828125 0.578125 -4.210938 0.578125 -4.703125 C 0.578125 -5.265625 0.773438 -5.707031 1.171875 -6.03125 C 1.578125 -6.363281 2.128906 -6.53125 2.828125 -6.53125 C 3.128906 -6.53125 3.4375 -6.5 3.75 -6.4375 C 4.0625 -6.382812 4.378906 -6.304688 4.703125 -6.203125 Z M 4.703125 -6.203125 "/>
</g>
<g id="glyph-0-10">
<path d="M 0.859375 -6.40625 L 4.921875 -6.40625 L 4.921875 -5.6875 L 1.734375 -5.6875 L 1.734375 -3.78125 L 4.78125 -3.78125 L 4.78125 -3.046875 L 1.734375 -3.046875 L 1.734375 -0.734375 L 5 -0.734375 L 5 0 L 0.859375 0 Z M 0.859375 -6.40625 "/>
</g>
<g id="glyph-1-0">
<path d="M -0.03125 -8.015625 L 6.75 -8.015625 L 6.75 -7.109375 L 3.90625 -7.109375 L 3.90625 0 L 2.8125 0 L 2.8125 -7.109375 L -0.03125 -7.109375 Z M -0.03125 -8.015625 "/>
</g>
<g id="glyph-1-1">
<path d="M 4.515625 -5.09375 C 4.410156 -5.15625 4.289062 -5.203125 4.15625 -5.234375 C 4.03125 -5.265625 3.890625 -5.28125 3.734375 -5.28125 C 3.171875 -5.28125 2.738281 -5.097656 2.4375 -4.734375 C 2.144531 -4.367188 2 -3.847656 2 -3.171875 L 2 0 L 1 0 L 1 -6.015625 L 2 -6.015625 L 2 -5.078125 C 2.195312 -5.441406 2.460938 -5.710938 2.796875 -5.890625 C 3.128906 -6.066406 3.535156 -6.15625 4.015625 -6.15625 C 4.085938 -6.15625 4.160156 -6.148438 4.234375 -6.140625 C 4.316406 -6.140625 4.410156 -6.128906 4.515625 -6.109375 Z M 4.515625 -5.09375 "/>
</g>
<g id="glyph-1-2">
<path d="M 3.765625 -3.03125 C 2.972656 -3.03125 2.421875 -2.9375 2.109375 -2.75 C 1.804688 -2.5625 1.65625 -2.25 1.65625 -1.8125 C 1.65625 -1.46875 1.769531 -1.191406 2 -0.984375 C 2.226562 -0.773438 2.539062 -0.671875 2.9375 -0.671875 C 3.488281 -0.671875 3.925781 -0.863281 4.25 -1.25 C 4.582031 -1.644531 4.75 -2.160156 4.75 -2.796875 L 4.75 -3.03125 Z M 5.734375 -3.4375 L 5.734375 0 L 4.75 0 L 4.75 -0.90625 C 4.53125 -0.539062 4.25 -0.269531 3.90625 -0.09375 C 3.570312 0.0703125 3.160156 0.15625 2.671875 0.15625 C 2.054688 0.15625 1.566406 -0.015625 1.203125 -0.359375 C 0.835938 -0.703125 0.65625 -1.164062 0.65625 -1.75 C 0.65625 -2.425781 0.878906 -2.9375 1.328125 -3.28125 C 1.785156 -3.625 2.46875 -3.796875 3.375 -3.796875 L 4.75 -3.796875 L 4.75 -3.890625 C 4.75 -4.347656 4.597656 -4.703125 4.296875 -4.953125 C 4.003906 -5.203125 3.585938 -5.328125 3.046875 -5.328125 C 2.703125 -5.328125 2.363281 -5.285156 2.03125 -5.203125 C 1.707031 -5.117188 1.394531 -4.992188 1.09375 -4.828125 L 1.09375 -5.734375 C 1.457031 -5.878906 1.8125 -5.984375 2.15625 -6.046875 C 2.5 -6.117188 2.828125 -6.15625 3.140625 -6.15625 C 4.015625 -6.15625 4.664062 -5.929688 5.09375 -5.484375 C 5.519531 -5.035156 5.734375 -4.351562 5.734375 -3.4375 Z M 5.734375 -3.4375 "/>
</g>
<g id="glyph-1-3">
<path d="M 6.03125 -3.625 L 6.03125 0 L 5.046875 0 L 5.046875 -3.59375 C 5.046875 -4.164062 4.9375 -4.59375 4.71875 -4.875 C 4.5 -5.15625 4.164062 -5.296875 3.71875 -5.296875 C 3.1875 -5.296875 2.765625 -5.125 2.453125 -4.78125 C 2.148438 -4.445312 2 -3.988281 2 -3.40625 L 2 0 L 1 0 L 1 -6.015625 L 2 -6.015625 L 2 -5.078125 C 2.226562 -5.441406 2.503906 -5.710938 2.828125 -5.890625 C 3.148438 -6.066406 3.519531 -6.15625 3.9375 -6.15625 C 4.625 -6.15625 5.144531 -5.941406 5.5 -5.515625 C 5.851562 -5.085938 6.03125 -4.457031 6.03125 -3.625 Z M 6.03125 -3.625 "/>
</g>
<g id="glyph-1-4">
<path d="M 4.875 -5.84375 L 4.875 -4.90625 C 4.59375 -5.050781 4.300781 -5.15625 4 -5.21875 C 3.695312 -5.289062 3.382812 -5.328125 3.0625 -5.328125 C 2.570312 -5.328125 2.203125 -5.25 1.953125 -5.09375 C 1.710938 -4.945312 1.59375 -4.726562 1.59375 -4.4375 C 1.59375 -4.207031 1.679688 -4.023438 1.859375 -3.890625 C 2.035156 -3.765625 2.390625 -3.640625 2.921875 -3.515625 L 3.25 -3.4375 C 3.957031 -3.289062 4.457031 -3.078125 4.75 -2.796875 C 5.039062 -2.523438 5.1875 -2.144531 5.1875 -1.65625 C 5.1875 -1.101562 4.96875 -0.660156 4.53125 -0.328125 C 4.09375 -0.00390625 3.484375 0.15625 2.703125 0.15625 C 2.378906 0.15625 2.039062 0.125 1.6875 0.0625 C 1.34375 0 0.976562 -0.09375 0.59375 -0.21875 L 0.59375 -1.234375 C 0.957031 -1.046875 1.316406 -0.90625 1.671875 -0.8125 C 2.023438 -0.71875 2.378906 -0.671875 2.734375 -0.671875 C 3.191406 -0.671875 3.546875 -0.75 3.796875 -0.90625 C 4.046875 -1.070312 4.171875 -1.296875 4.171875 -1.578125 C 4.171875 -1.847656 4.082031 -2.054688 3.90625 -2.203125 C 3.726562 -2.347656 3.332031 -2.484375 2.71875 -2.609375 L 2.375 -2.703125 C 1.757812 -2.828125 1.316406 -3.019531 1.046875 -3.28125 C 0.773438 -3.550781 0.640625 -3.921875 0.640625 -4.390625 C 0.640625 -4.953125 0.835938 -5.382812 1.234375 -5.6875 C 1.640625 -6 2.210938 -6.15625 2.953125 -6.15625 C 3.316406 -6.15625 3.660156 -6.128906 3.984375 -6.078125 C 4.304688 -6.023438 4.601562 -5.945312 4.875 -5.84375 Z M 4.875 -5.84375 "/>
</g>
<g id="glyph-1-5">
<path d="M 1.03125 -6.015625 L 2.03125 -6.015625 L 2.03125 0 L 1.03125 0 Z M 1.03125 -8.359375 L 2.03125 -8.359375 L 2.03125 -7.109375 L 1.03125 -7.109375 Z M 1.03125 -8.359375 "/>
</g>
<g id="glyph-1-6">
<path d="M 2.015625 -7.71875 L 2.015625 -6.015625 L 4.046875 -6.015625 L 4.046875 -5.25 L 2.015625 -5.25 L 2.015625 -1.984375 C 2.015625 -1.492188 2.082031 -1.175781 2.21875 -1.03125 C 2.351562 -0.894531 2.625 -0.828125 3.03125 -0.828125 L 4.046875 -0.828125 L 4.046875 0 L 3.03125 0 C 2.269531 0 1.742188 -0.140625 1.453125 -0.421875 C 1.160156 -0.710938 1.015625 -1.234375 1.015625 -1.984375 L 1.015625 -5.25 L 0.296875 -5.25 L 0.296875 -6.015625 L 1.015625 -6.015625 L 1.015625 -7.71875 Z M 2.015625 -7.71875 "/>
</g>
<g id="glyph-1-7">
<path d="M 3.375 -5.328125 C 2.84375 -5.328125 2.421875 -5.117188 2.109375 -4.703125 C 1.804688 -4.285156 1.65625 -3.71875 1.65625 -3 C 1.65625 -2.28125 1.804688 -1.710938 2.109375 -1.296875 C 2.410156 -0.890625 2.832031 -0.6875 3.375 -0.6875 C 3.894531 -0.6875 4.304688 -0.890625 4.609375 -1.296875 C 4.921875 -1.710938 5.078125 -2.28125 5.078125 -3 C 5.078125 -3.71875 4.921875 -4.285156 4.609375 -4.703125 C 4.304688 -5.117188 3.894531 -5.328125 3.375 -5.328125 Z M 3.375 -6.15625 C 4.226562 -6.15625 4.898438 -5.875 5.390625 -5.3125 C 5.878906 -4.757812 6.125 -3.988281 6.125 -3 C 6.125 -2.019531 5.878906 -1.25 5.390625 -0.6875 C 4.898438 -0.125 4.226562 0.15625 3.375 0.15625 C 2.507812 0.15625 1.832031 -0.125 1.34375 -0.6875 C 0.851562 -1.25 0.609375 -2.019531 0.609375 -3 C 0.609375 -3.988281 0.851562 -4.757812 1.34375 -5.3125 C 1.832031 -5.875 2.507812 -6.15625 3.375 -6.15625 Z M 3.375 -6.15625 "/>
</g>
<g id="glyph-1-8">
<path d="M 4.328125 -7.28125 C 3.546875 -7.28125 2.921875 -6.984375 2.453125 -6.390625 C 1.992188 -5.804688 1.765625 -5.007812 1.765625 -4 C 1.765625 -2.988281 1.992188 -2.1875 2.453125 -1.59375 C 2.921875 -1.007812 3.546875 -0.71875 4.328125 -0.71875 C 5.117188 -0.71875 5.742188 -1.007812 6.203125 -1.59375 C 6.660156 -2.1875 6.890625 -2.988281 6.890625 -4 C 6.890625 -5.007812 6.660156 -5.804688 6.203125 -6.390625 C 5.742188 -6.984375 5.117188 -7.28125 4.328125 -7.28125 Z M 4.328125 -8.171875 C 5.453125 -8.171875 6.351562 -7.789062 7.03125 -7.03125 C 7.707031 -6.28125 8.046875 -5.269531 8.046875 -4 C 8.046875 -2.738281 7.707031 -1.726562 7.03125 -0.96875 C 6.351562 -0.21875 5.453125 0.15625 4.328125 0.15625 C 3.203125 0.15625 2.300781 -0.21875 1.625 -0.96875 C 0.957031 -1.71875 0.625 -2.726562 0.625 -4 C 0.625 -5.269531 0.957031 -6.28125 1.625 -7.03125 C 2.300781 -7.789062 3.203125 -8.171875 4.328125 -8.171875 Z M 4.328125 -8.171875 "/>
</g>
<g id="glyph-1-9">
<path d="M 1.03125 -8.359375 L 2.03125 -8.359375 L 2.03125 0 L 1.03125 0 Z M 1.03125 -8.359375 "/>
</g>
<g id="glyph-1-10">
<path d="M 5 -5.109375 L 5 -8.359375 L 5.984375 -8.359375 L 5.984375 0 L 5 0 L 5 -0.90625 C 4.789062 -0.539062 4.523438 -0.269531 4.203125 -0.09375 C 3.890625 0.0703125 3.507812 0.15625 3.0625 0.15625 C 2.34375 0.15625 1.753906 -0.128906 1.296875 -0.703125 C 0.835938 -1.285156 0.609375 -2.050781 0.609375 -3 C 0.609375 -3.945312 0.835938 -4.707031 1.296875 -5.28125 C 1.753906 -5.863281 2.34375 -6.15625 3.0625 -6.15625 C 3.507812 -6.15625 3.890625 -6.066406 4.203125 -5.890625 C 4.523438 -5.722656 4.789062 -5.460938 5 -5.109375 Z M 1.625 -3 C 1.625 -2.269531 1.773438 -1.695312 2.078125 -1.28125 C 2.378906 -0.875 2.789062 -0.671875 3.3125 -0.671875 C 3.832031 -0.671875 4.242188 -0.875 4.546875 -1.28125 C 4.847656 -1.695312 5 -2.269531 5 -3 C 5 -3.726562 4.847656 -4.296875 4.546875 -4.703125 C 4.242188 -5.117188 3.832031 -5.328125 3.3125 -5.328125 C 2.789062 -5.328125 2.378906 -5.117188 2.078125 -4.703125 C 1.773438 -4.296875 1.625 -3.726562 1.625 -3 Z M 1.625 -3 "/>
</g>
<g id="glyph-1-11">
</g>
<g id="glyph-1-12">
<path d="M 5.359375 -5.78125 L 5.359375 -4.859375 C 5.085938 -5.015625 4.8125 -5.128906 4.53125 -5.203125 C 4.25 -5.285156 3.960938 -5.328125 3.671875 -5.328125 C 3.035156 -5.328125 2.539062 -5.125 2.1875 -4.71875 C 1.832031 -4.3125 1.65625 -3.738281 1.65625 -3 C 1.65625 -2.269531 1.832031 -1.703125 2.1875 -1.296875 C 2.539062 -0.890625 3.035156 -0.6875 3.671875 -0.6875 C 3.960938 -0.6875 4.25 -0.722656 4.53125 -0.796875 C 4.8125 -0.867188 5.085938 -0.984375 5.359375 -1.140625 L 5.359375 -0.234375 C 5.085938 -0.0976562 4.800781 0 4.5 0.0625 C 4.207031 0.125 3.894531 0.15625 3.5625 0.15625 C 2.65625 0.15625 1.9375 -0.125 1.40625 -0.6875 C 0.875 -1.257812 0.609375 -2.03125 0.609375 -3 C 0.609375 -3.976562 0.875 -4.75 1.40625 -5.3125 C 1.945312 -5.875 2.6875 -6.15625 3.625 -6.15625 C 3.9375 -6.15625 4.234375 -6.125 4.515625 -6.0625 C 4.804688 -6 5.085938 -5.90625 5.359375 -5.78125 Z M 5.359375 -5.78125 "/>
</g>
<g id="glyph-1-13">
<path d="M 6.1875 -3.25 L 6.1875 -2.765625 L 1.640625 -2.765625 C 1.679688 -2.085938 1.882812 -1.570312 2.25 -1.21875 C 2.613281 -0.863281 3.125 -0.6875 3.78125 -0.6875 C 4.164062 -0.6875 4.535156 -0.734375 4.890625 -0.828125 C 5.242188 -0.921875 5.597656 -1.054688 5.953125 -1.234375 L 5.953125 -0.3125 C 5.597656 -0.15625 5.234375 -0.0390625 4.859375 0.03125 C 4.484375 0.113281 4.109375 0.15625 3.734375 0.15625 C 2.765625 0.15625 2 -0.117188 1.4375 -0.671875 C 0.882812 -1.234375 0.609375 -1.992188 0.609375 -2.953125 C 0.609375 -3.929688 0.875 -4.707031 1.40625 -5.28125 C 1.9375 -5.863281 2.65625 -6.15625 3.5625 -6.15625 C 4.363281 -6.15625 5 -5.894531 5.46875 -5.375 C 5.945312 -4.851562 6.1875 -4.144531 6.1875 -3.25 Z M 5.1875 -3.546875 C 5.1875 -4.085938 5.035156 -4.519531 4.734375 -4.84375 C 4.441406 -5.164062 4.050781 -5.328125 3.5625 -5.328125 C 3.007812 -5.328125 2.566406 -5.171875 2.234375 -4.859375 C 1.910156 -4.546875 1.722656 -4.109375 1.671875 -3.546875 Z M 5.1875 -3.546875 "/>
</g>
<g id="glyph-1-14">
<path d="M 2.09375 -1.359375 L 3.1875 -1.359375 L 3.1875 0 L 2.09375 0 Z M 3.15625 -2.15625 L 2.125 -2.15625 L 2.125 -2.984375 C 2.125 -3.347656 2.175781 -3.644531 2.28125 -3.875 C 2.382812 -4.101562 2.597656 -4.375 2.921875 -4.6875 L 3.40625 -5.15625 C 3.601562 -5.351562 3.75 -5.535156 3.84375 -5.703125 C 3.9375 -5.867188 3.984375 -6.039062 3.984375 -6.21875 C 3.984375 -6.53125 3.863281 -6.785156 3.625 -6.984375 C 3.394531 -7.179688 3.085938 -7.28125 2.703125 -7.28125 C 2.410156 -7.28125 2.101562 -7.21875 1.78125 -7.09375 C 1.46875 -6.96875 1.140625 -6.785156 0.796875 -6.546875 L 0.796875 -7.5625 C 1.128906 -7.757812 1.46875 -7.910156 1.8125 -8.015625 C 2.15625 -8.117188 2.515625 -8.171875 2.890625 -8.171875 C 3.546875 -8.171875 4.070312 -7.992188 4.46875 -7.640625 C 4.875 -7.296875 5.078125 -6.835938 5.078125 -6.265625 C 5.078125 -5.992188 5.007812 -5.734375 4.875 -5.484375 C 4.75 -5.242188 4.523438 -4.96875 4.203125 -4.65625 L 3.734375 -4.203125 C 3.554688 -4.035156 3.429688 -3.898438 3.359375 -3.796875 C 3.296875 -3.703125 3.25 -3.613281 3.21875 -3.53125 C 3.195312 -3.457031 3.179688 -3.363281 3.171875 -3.25 C 3.160156 -3.144531 3.15625 -3 3.15625 -2.8125 Z M 3.15625 -2.15625 "/>
</g>
<g id="glyph-2-0">
<path d="M -8.015625 -1.078125 L -8.015625 -2.546875 L -1.3125 -6.09375 L -8.015625 -6.09375 L -8.015625 -7.15625 L 0 -7.15625 L 0 -5.6875 L -6.703125 -2.125 L 0 -2.125 L 0 -1.078125 Z M -8.015625 -1.078125 "/>
</g>
<g id="glyph-2-1">
<path d="M -2.375 -0.9375 L -6.015625 -0.9375 L -6.015625 -1.921875 L -2.40625 -1.921875 C -1.84375 -1.921875 -1.414062 -2.03125 -1.125 -2.25 C -0.84375 -2.476562 -0.703125 -2.8125 -0.703125 -3.25 C -0.703125 -3.789062 -0.867188 -4.210938 -1.203125 -4.515625 C -1.546875 -4.828125 -2.015625 -4.984375 -2.609375 -4.984375 L -6.015625 -4.984375 L -6.015625 -5.96875 L 0 -5.96875 L 0 -4.984375 L -0.921875 -4.984375 C -0.554688 -4.742188 -0.285156 -4.460938 -0.109375 -4.140625 C 0.0664062 -3.828125 0.15625 -3.460938 0.15625 -3.046875 C 0.15625 -2.359375 -0.0546875 -1.832031 -0.484375 -1.46875 C -0.921875 -1.113281 -1.550781 -0.9375 -2.375 -0.9375 Z M -6.15625 -3.421875 Z M -6.15625 -3.421875 "/>
</g>
<g id="glyph-2-2">
<path d="M -4.859375 -5.71875 C -5.304688 -5.96875 -5.632812 -6.265625 -5.84375 -6.609375 C -6.050781 -6.953125 -6.15625 -7.359375 -6.15625 -7.828125 C -6.15625 -8.453125 -5.9375 -8.929688 -5.5 -9.265625 C -5.0625 -9.609375 -4.4375 -9.78125 -3.625 -9.78125 L 0 -9.78125 L 0 -8.78125 L -3.59375 -8.78125 C -4.175781 -8.78125 -4.601562 -8.675781 -4.875 -8.46875 C -5.15625 -8.269531 -5.296875 -7.960938 -5.296875 -7.546875 C -5.296875 -7.035156 -5.125 -6.628906 -4.78125 -6.328125 C -4.445312 -6.035156 -3.988281 -5.890625 -3.40625 -5.890625 L 0 -5.890625 L 0 -4.890625 L -3.59375 -4.890625 C -4.175781 -4.890625 -4.601562 -4.785156 -4.875 -4.578125 C -5.15625 -4.378906 -5.296875 -4.066406 -5.296875 -3.640625 C -5.296875 -3.140625 -5.125 -2.738281 -4.78125 -2.4375 C -4.445312 -2.144531 -3.988281 -2 -3.40625 -2 L 0 -2 L 0 -1 L -6.015625 -1 L -6.015625 -2 L -5.078125 -2 C -5.453125 -2.21875 -5.722656 -2.484375 -5.890625 -2.796875 C -6.066406 -3.117188 -6.15625 -3.492188 -6.15625 -3.921875 C -6.15625 -4.359375 -6.046875 -4.726562 -5.828125 -5.03125 C -5.609375 -5.34375 -5.285156 -5.570312 -4.859375 -5.71875 Z M -4.859375 -5.71875 "/>
</g>
<g id="glyph-2-3">
<path d="M -3 -5.359375 C -3.726562 -5.359375 -4.296875 -5.207031 -4.703125 -4.90625 C -5.117188 -4.601562 -5.328125 -4.191406 -5.328125 -3.671875 C -5.328125 -3.148438 -5.117188 -2.738281 -4.703125 -2.4375 C -4.296875 -2.144531 -3.726562 -2 -3 -2 C -2.269531 -2 -1.695312 -2.144531 -1.28125 -2.4375 C -0.875 -2.738281 -0.671875 -3.148438 -0.671875 -3.671875 C -0.671875 -4.191406 -0.875 -4.601562 -1.28125 -4.90625 C -1.695312 -5.207031 -2.269531 -5.359375 -3 -5.359375 Z M -5.109375 -2 C -5.460938 -2.195312 -5.722656 -2.453125 -5.890625 -2.765625 C -6.066406 -3.085938 -6.15625 -3.472656 -6.15625 -3.921875 C -6.15625 -4.648438 -5.863281 -5.238281 -5.28125 -5.6875 C -4.707031 -6.144531 -3.945312 -6.375 -3 -6.375 C -2.050781 -6.375 -1.285156 -6.144531 -0.703125 -5.6875 C -0.128906 -5.238281 0.15625 -4.648438 0.15625 -3.921875 C 0.15625 -3.472656 0.0703125 -3.085938 -0.09375 -2.765625 C -0.269531 -2.453125 -0.539062 -2.195312 -0.90625 -2 L 0 -2 L 0 -1 L -8.359375 -1 L -8.359375 -2 Z M -5.109375 -2 "/>
</g>
<g id="glyph-2-4">
<path d="M -3.25 -6.1875 L -2.765625 -6.1875 L -2.765625 -1.640625 C -2.085938 -1.679688 -1.570312 -1.882812 -1.21875 -2.25 C -0.863281 -2.613281 -0.6875 -3.125 -0.6875 -3.78125 C -0.6875 -4.164062 -0.734375 -4.535156 -0.828125 -4.890625 C -0.921875 -5.242188 -1.054688 -5.597656 -1.234375 -5.953125 L -0.3125 -5.953125 C -0.15625 -5.597656 -0.0390625 -5.234375 0.03125 -4.859375 C 0.113281 -4.484375 0.15625 -4.109375 0.15625 -3.734375 C 0.15625 -2.765625 -0.117188 -2 -0.671875 -1.4375 C -1.234375 -0.882812 -1.992188 -0.609375 -2.953125 -0.609375 C -3.929688 -0.609375 -4.707031 -0.875 -5.28125 -1.40625 C -5.863281 -1.9375 -6.15625 -2.65625 -6.15625 -3.5625 C -6.15625 -4.363281 -5.894531 -5 -5.375 -5.46875 C -4.851562 -5.945312 -4.144531 -6.1875 -3.25 -6.1875 Z M -3.546875 -5.1875 C -4.085938 -5.1875 -4.519531 -5.035156 -4.84375 -4.734375 C -5.164062 -4.441406 -5.328125 -4.050781 -5.328125 -3.5625 C -5.328125 -3.007812 -5.171875 -2.566406 -4.859375 -2.234375 C -4.546875 -1.910156 -4.109375 -1.722656 -3.546875 -1.671875 Z M -3.546875 -5.1875 "/>
</g>
<g id="glyph-2-5">
<path d="M -5.09375 -4.515625 C -5.15625 -4.410156 -5.203125 -4.289062 -5.234375 -4.15625 C -5.265625 -4.03125 -5.28125 -3.890625 -5.28125 -3.734375 C -5.28125 -3.171875 -5.097656 -2.738281 -4.734375 -2.4375 C -4.367188 -2.144531 -3.847656 -2 -3.171875 -2 L 0 -2 L 0 -1 L -6.015625 -1 L -6.015625 -2 L -5.078125 -2 C -5.441406 -2.195312 -5.710938 -2.460938 -5.890625 -2.796875 C -6.066406 -3.128906 -6.15625 -3.535156 -6.15625 -4.015625 C -6.15625 -4.085938 -6.148438 -4.160156 -6.140625 -4.234375 C -6.140625 -4.316406 -6.128906 -4.410156 -6.109375 -4.515625 Z M -5.09375 -4.515625 "/>
</g>
<g id="glyph-2-6">
</g>
<g id="glyph-2-7">
<path d="M -5.328125 -3.375 C -5.328125 -2.84375 -5.117188 -2.421875 -4.703125 -2.109375 C -4.285156 -1.804688 -3.71875 -1.65625 -3 -1.65625 C -2.28125 -1.65625 -1.710938 -1.804688 -1.296875 -2.109375 C -0.890625 -2.410156 -0.6875 -2.832031 -0.6875 -3.375 C -0.6875 -3.894531 -0.890625 -4.304688 -1.296875 -4.609375 C -1.710938 -4.921875 -2.28125 -5.078125 -3 -5.078125 C -3.71875 -5.078125 -4.285156 -4.921875 -4.703125 -4.609375 C -5.117188 -4.304688 -5.328125 -3.894531 -5.328125 -3.375 Z M -6.15625 -3.375 C -6.15625 -4.226562 -5.875 -4.898438 -5.3125 -5.390625 C -4.757812 -5.878906 -3.988281 -6.125 -3 -6.125 C -2.019531 -6.125 -1.25 -5.878906 -0.6875 -5.390625 C -0.125 -4.898438 0.15625 -4.226562 0.15625 -3.375 C 0.15625 -2.507812 -0.125 -1.832031 -0.6875 -1.34375 C -1.25 -0.851562 -2.019531 -0.609375 -3 -0.609375 C -3.988281 -0.609375 -4.757812 -0.851562 -5.3125 -1.34375 C -5.875 -1.832031 -6.15625 -2.507812 -6.15625 -3.375 Z M -6.15625 -3.375 "/>
</g>
<g id="glyph-2-8">
<path d="M -8.359375 -4.078125 L -7.53125 -4.078125 L -7.53125 -3.140625 C -7.53125 -2.785156 -7.457031 -2.535156 -7.3125 -2.390625 C -7.175781 -2.253906 -6.921875 -2.1875 -6.546875 -2.1875 L -6.015625 -2.1875 L -6.015625 -3.8125 L -5.25 -3.8125 L -5.25 -2.1875 L 0 -2.1875 L 0 -1.203125 L -5.25 -1.203125 L -5.25 -0.25 L -6.015625 -0.25 L -6.015625 -1.203125 L -6.4375 -1.203125 C -7.101562 -1.203125 -7.585938 -1.351562 -7.890625 -1.65625 C -8.203125 -1.96875 -8.359375 -2.460938 -8.359375 -3.140625 Z M -8.359375 -4.078125 "/>
</g>
<g id="glyph-2-9">
<path d="M -5.78125 -5.359375 L -4.859375 -5.359375 C -5.015625 -5.085938 -5.128906 -4.8125 -5.203125 -4.53125 C -5.285156 -4.25 -5.328125 -3.960938 -5.328125 -3.671875 C -5.328125 -3.035156 -5.125 -2.539062 -4.71875 -2.1875 C -4.3125 -1.832031 -3.738281 -1.65625 -3 -1.65625 C -2.269531 -1.65625 -1.703125 -1.832031 -1.296875 -2.1875 C -0.890625 -2.539062 -0.6875 -3.035156 -0.6875 -3.671875 C -0.6875 -3.960938 -0.722656 -4.25 -0.796875 -4.53125 C -0.867188 -4.8125 -0.984375 -5.085938 -1.140625 -5.359375 L -0.234375 -5.359375 C -0.0976562 -5.085938 0 -4.800781 0.0625 -4.5 C 0.125 -4.207031 0.15625 -3.894531 0.15625 -3.5625 C 0.15625 -2.65625 -0.125 -1.9375 -0.6875 -1.40625 C -1.257812 -0.875 -2.03125 -0.609375 -3 -0.609375 C -3.976562 -0.609375 -4.75 -0.875 -5.3125 -1.40625 C -5.875 -1.945312 -6.15625 -2.6875 -6.15625 -3.625 C -6.15625 -3.9375 -6.125 -4.234375 -6.0625 -4.515625 C -6 -4.804688 -5.90625 -5.085938 -5.78125 -5.359375 Z M -5.78125 -5.359375 "/>
</g>
<g id="glyph-2-10">
<path d="M -3.625 -6.03125 L 0 -6.03125 L 0 -5.046875 L -3.59375 -5.046875 C -4.164062 -5.046875 -4.59375 -4.9375 -4.875 -4.71875 C -5.15625 -4.5 -5.296875 -4.164062 -5.296875 -3.71875 C -5.296875 -3.1875 -5.125 -2.765625 -4.78125 -2.453125 C -4.445312 -2.148438 -3.988281 -2 -3.40625 -2 L 0 -2 L 0 -1 L -6.015625 -1 L -6.015625 -2 L -5.078125 -2 C -5.441406 -2.226562 -5.710938 -2.503906 -5.890625 -2.828125 C -6.066406 -3.148438 -6.15625 -3.519531 -6.15625 -3.9375 C -6.15625 -4.625 -5.941406 -5.144531 -5.515625 -5.5 C -5.085938 -5.851562 -4.457031 -6.03125 -3.625 -6.03125 Z M -3.625 -6.03125 "/>
</g>
<g id="glyph-2-11">
<path d="M -7.71875 -2.015625 L -6.015625 -2.015625 L -6.015625 -4.046875 L -5.25 -4.046875 L -5.25 -2.015625 L -1.984375 -2.015625 C -1.492188 -2.015625 -1.175781 -2.082031 -1.03125 -2.21875 C -0.894531 -2.351562 -0.828125 -2.625 -0.828125 -3.03125 L -0.828125 -4.046875 L 0 -4.046875 L 0 -3.03125 C 0 -2.269531 -0.140625 -1.742188 -0.421875 -1.453125 C -0.710938 -1.160156 -1.234375 -1.015625 -1.984375 -1.015625 L -5.25 -1.015625 L -5.25 -0.296875 L -6.015625 -0.296875 L -6.015625 -1.015625 L -7.71875 -1.015625 Z M -7.71875 -2.015625 "/>
</g>
<g id="glyph-2-12">
<path d="M 0.5625 -3.546875 C 1.28125 -3.265625 1.742188 -2.988281 1.953125 -2.71875 C 2.171875 -2.457031 2.28125 -2.101562 2.28125 -1.65625 L 2.28125 -0.875 L 1.46875 -0.875 L 1.46875 -1.453125 C 1.46875 -1.722656 1.398438 -1.929688 1.265625 -2.078125 C 1.140625 -2.234375 0.835938 -2.398438 0.359375 -2.578125 L -0.09375 -2.765625 L -6.015625 -0.328125 L -6.015625 -1.375 L -1.3125 -3.25 L -6.015625 -5.140625 L -6.015625 -6.1875 Z M 0.5625 -3.546875 "/>
</g>
<g id="glyph-2-13">
<path d="M -3.453125 -0.53125 L -3.453125 -3.4375 L -2.578125 -3.4375 L -2.578125 -0.53125 Z M -3.453125 -0.53125 "/>
</g>
<g id="glyph-2-14">
<path d="M -3.03125 -3.765625 C -3.03125 -2.972656 -2.9375 -2.421875 -2.75 -2.109375 C -2.5625 -1.804688 -2.25 -1.65625 -1.8125 -1.65625 C -1.46875 -1.65625 -1.191406 -1.769531 -0.984375 -2 C -0.773438 -2.226562 -0.671875 -2.539062 -0.671875 -2.9375 C -0.671875 -3.488281 -0.863281 -3.925781 -1.25 -4.25 C -1.644531 -4.582031 -2.160156 -4.75 -2.796875 -4.75 L -3.03125 -4.75 Z M -3.4375 -5.734375 L 0 -5.734375 L 0 -4.75 L -0.90625 -4.75 C -0.539062 -4.53125 -0.269531 -4.25 -0.09375 -3.90625 C 0.0703125 -3.570312 0.15625 -3.160156 0.15625 -2.671875 C 0.15625 -2.054688 -0.015625 -1.566406 -0.359375 -1.203125 C -0.703125 -0.835938 -1.164062 -0.65625 -1.75 -0.65625 C -2.425781 -0.65625 -2.9375 -0.878906 -3.28125 -1.328125 C -3.625 -1.785156 -3.796875 -2.46875 -3.796875 -3.375 L -3.796875 -4.75 L -3.890625 -4.75 C -4.347656 -4.75 -4.703125 -4.597656 -4.953125 -4.296875 C -5.203125 -4.003906 -5.328125 -3.585938 -5.328125 -3.046875 C -5.328125 -2.703125 -5.285156 -2.363281 -5.203125 -2.03125 C -5.117188 -1.707031 -4.992188 -1.394531 -4.828125 -1.09375 L -5.734375 -1.09375 C -5.878906 -1.457031 -5.984375 -1.8125 -6.046875 -2.15625 C -6.117188 -2.5 -6.15625 -2.828125 -6.15625 -3.140625 C -6.15625 -4.015625 -5.929688 -4.664062 -5.484375 -5.09375 C -5.035156 -5.519531 -4.351562 -5.734375 -3.4375 -5.734375 Z M -3.4375 -5.734375 "/>
</g>
<g id="glyph-2-15">
<path d="M -5.84375 -4.875 L -4.90625 -4.875 C -5.050781 -4.59375 -5.15625 -4.300781 -5.21875 -4 C -5.289062 -3.695312 -5.328125 -3.382812 -5.328125 -3.0625 C -5.328125 -2.570312 -5.25 -2.203125 -5.09375 -1.953125 C -4.945312 -1.710938 -4.726562 -1.59375 -4.4375 -1.59375 C -4.207031 -1.59375 -4.023438 -1.679688 -3.890625 -1.859375 C -3.765625 -2.035156 -3.640625 -2.390625 -3.515625 -2.921875 L -3.4375 -3.25 C -3.289062 -3.957031 -3.078125 -4.457031 -2.796875 -4.75 C -2.523438 -5.039062 -2.144531 -5.1875 -1.65625 -5.1875 C -1.101562 -5.1875 -0.660156 -4.96875 -0.328125 -4.53125 C -0.00390625 -4.09375 0.15625 -3.484375 0.15625 -2.703125 C 0.15625 -2.378906 0.125 -2.039062 0.0625 -1.6875 C 0 -1.34375 -0.09375 -0.976562 -0.21875 -0.59375 L -1.234375 -0.59375 C -1.046875 -0.957031 -0.90625 -1.316406 -0.8125 -1.671875 C -0.71875 -2.023438 -0.671875 -2.378906 -0.671875 -2.734375 C -0.671875 -3.191406 -0.75 -3.546875 -0.90625 -3.796875 C -1.070312 -4.046875 -1.296875 -4.171875 -1.578125 -4.171875 C -1.847656 -4.171875 -2.054688 -4.082031 -2.203125 -3.90625 C -2.347656 -3.726562 -2.484375 -3.332031 -2.609375 -2.71875 L -2.703125 -2.375 C -2.828125 -1.757812 -3.019531 -1.316406 -3.28125 -1.046875 C -3.550781 -0.773438 -3.921875 -0.640625 -4.390625 -0.640625 C -4.953125 -0.640625 -5.382812 -0.835938 -5.6875 -1.234375 C -6 -1.640625 -6.15625 -2.210938 -6.15625 -2.953125 C -6.15625 -3.316406 -6.128906 -3.660156 -6.078125 -3.984375 C -6.023438 -4.304688 -5.945312 -4.601562 -5.84375 -4.875 Z M -5.84375 -4.875 "/>
</g>
<g id="glyph-2-16">
<path d="M -6.015625 -1.03125 L -6.015625 -2.03125 L 0 -2.03125 L 0 -1.03125 Z M -8.359375 -1.03125 L -8.359375 -2.03125 L -7.109375 -2.03125 L -7.109375 -1.03125 Z M -8.359375 -1.03125 "/>
</g>
<g id="glyph-2-17">
<path d="M -0.90625 -2 L 2.28125 -2 L 2.28125 -1 L -6.015625 -1 L -6.015625 -2 L -5.109375 -2 C -5.460938 -2.195312 -5.722656 -2.453125 -5.890625 -2.765625 C -6.066406 -3.085938 -6.15625 -3.472656 -6.15625 -3.921875 C -6.15625 -4.648438 -5.863281 -5.238281 -5.28125 -5.6875 C -4.707031 -6.144531 -3.945312 -6.375 -3 -6.375 C -2.050781 -6.375 -1.285156 -6.144531 -0.703125 -5.6875 C -0.128906 -5.238281 0.15625 -4.648438 0.15625 -3.921875 C 0.15625 -3.472656 0.0703125 -3.085938 -0.09375 -2.765625 C -0.269531 -2.453125 -0.539062 -2.195312 -0.90625 -2 Z M -3 -5.359375 C -3.726562 -5.359375 -4.296875 -5.207031 -4.703125 -4.90625 C -5.117188 -4.601562 -5.328125 -4.191406 -5.328125 -3.671875 C -5.328125 -3.148438 -5.117188 -2.738281 -4.703125 -2.4375 C -4.296875 -2.144531 -3.726562 -2 -3 -2 C -2.269531 -2 -1.695312 -2.144531 -1.28125 -2.4375 C -0.875 -2.738281 -0.671875 -3.148438 -0.671875 -3.671875 C -0.671875 -4.191406 -0.875 -4.601562 -1.28125 -4.90625 C -1.695312 -5.207031 -2.269531 -5.359375 -3 -5.359375 Z M -3 -5.359375 "/>
</g>
<g id="glyph-3-0">
<path d="M 7.0625 -9.3125 L 7.0625 -8.046875 C 6.570312 -8.273438 6.109375 -8.445312 5.671875 -8.5625 C 5.234375 -8.675781 4.804688 -8.734375 4.390625 -8.734375 C 3.679688 -8.734375 3.132812 -8.597656 2.75 -8.328125 C 2.363281 -8.054688 2.171875 -7.664062 2.171875 -7.15625 C 2.171875 -6.726562 2.300781 -6.40625 2.5625 -6.1875 C 2.820312 -5.96875 3.304688 -5.796875 4.015625 -5.671875 L 4.796875 -5.5 C 5.773438 -5.320312 6.492188 -5 6.953125 -4.53125 C 7.410156 -4.0625 7.640625 -3.4375 7.640625 -2.65625 C 7.640625 -1.71875 7.328125 -1.007812 6.703125 -0.53125 C 6.078125 -0.0507812 5.160156 0.1875 3.953125 0.1875 C 3.503906 0.1875 3.019531 0.132812 2.5 0.03125 C 1.988281 -0.0703125 1.457031 -0.222656 0.90625 -0.421875 L 0.90625 -1.765625 C 1.4375 -1.472656 1.953125 -1.25 2.453125 -1.09375 C 2.960938 -0.945312 3.460938 -0.875 3.953125 -0.875 C 4.703125 -0.875 5.273438 -1.019531 5.671875 -1.3125 C 6.078125 -1.601562 6.28125 -2.019531 6.28125 -2.5625 C 6.28125 -3.03125 6.132812 -3.394531 5.84375 -3.65625 C 5.5625 -3.925781 5.085938 -4.128906 4.421875 -4.265625 L 3.625 -4.421875 C 2.65625 -4.617188 1.953125 -4.921875 1.515625 -5.328125 C 1.085938 -5.742188 0.875 -6.316406 0.875 -7.046875 C 0.875 -7.898438 1.171875 -8.570312 1.765625 -9.0625 C 2.367188 -9.550781 3.195312 -9.796875 4.25 -9.796875 C 4.695312 -9.796875 5.15625 -9.753906 5.625 -9.671875 C 6.09375 -9.585938 6.570312 -9.46875 7.0625 -9.3125 Z M 7.0625 -9.3125 "/>
</g>
<g id="glyph-3-1">
<path d="M 1.125 -2.84375 L 1.125 -7.21875 L 2.3125 -7.21875 L 2.3125 -2.890625 C 2.3125 -2.210938 2.441406 -1.703125 2.703125 -1.359375 C 2.972656 -1.015625 3.375 -0.84375 3.90625 -0.84375 C 4.550781 -0.84375 5.054688 -1.046875 5.421875 -1.453125 C 5.796875 -1.859375 5.984375 -2.414062 5.984375 -3.125 L 5.984375 -7.21875 L 7.171875 -7.21875 L 7.171875 0 L 5.984375 0 L 5.984375 -1.109375 C 5.691406 -0.671875 5.351562 -0.34375 4.96875 -0.125 C 4.59375 0.0820312 4.15625 0.1875 3.65625 0.1875 C 2.820312 0.1875 2.191406 -0.0664062 1.765625 -0.578125 C 1.335938 -1.097656 1.125 -1.851562 1.125 -2.84375 Z M 4.109375 -7.390625 Z M 4.109375 -7.390625 "/>
</g>
<g id="glyph-3-2">
<path d="M 5.84375 -7 L 5.84375 -5.890625 C 5.507812 -6.054688 5.160156 -6.179688 4.796875 -6.265625 C 4.441406 -6.359375 4.070312 -6.40625 3.6875 -6.40625 C 3.09375 -6.40625 2.648438 -6.3125 2.359375 -6.125 C 2.066406 -5.945312 1.921875 -5.675781 1.921875 -5.3125 C 1.921875 -5.039062 2.023438 -4.828125 2.234375 -4.671875 C 2.441406 -4.515625 2.863281 -4.363281 3.5 -4.21875 L 3.90625 -4.125 C 4.75 -3.945312 5.347656 -3.691406 5.703125 -3.359375 C 6.054688 -3.035156 6.234375 -2.578125 6.234375 -1.984375 C 6.234375 -1.316406 5.96875 -0.785156 5.4375 -0.390625 C 4.90625 -0.00390625 4.175781 0.1875 3.25 0.1875 C 2.863281 0.1875 2.457031 0.148438 2.03125 0.078125 C 1.613281 0.00390625 1.175781 -0.109375 0.71875 -0.265625 L 0.71875 -1.484375 C 1.15625 -1.253906 1.585938 -1.082031 2.015625 -0.96875 C 2.441406 -0.863281 2.863281 -0.8125 3.28125 -0.8125 C 3.832031 -0.8125 4.257812 -0.90625 4.5625 -1.09375 C 4.863281 -1.28125 5.015625 -1.550781 5.015625 -1.90625 C 5.015625 -2.226562 4.90625 -2.472656 4.6875 -2.640625 C 4.46875 -2.816406 3.992188 -2.984375 3.265625 -3.140625 L 2.84375 -3.234375 C 2.113281 -3.390625 1.582031 -3.625 1.25 -3.9375 C 0.925781 -4.257812 0.765625 -4.703125 0.765625 -5.265625 C 0.765625 -5.941406 1.003906 -6.460938 1.484375 -6.828125 C 1.972656 -7.203125 2.660156 -7.390625 3.546875 -7.390625 C 3.984375 -7.390625 4.394531 -7.359375 4.78125 -7.296875 C 5.164062 -7.234375 5.519531 -7.132812 5.84375 -7 Z M 5.84375 -7 "/>
</g>
<g id="glyph-3-3">
<path d="M 2.390625 -1.078125 L 2.390625 2.75 L 1.203125 2.75 L 1.203125 -7.21875 L 2.390625 -7.21875 L 2.390625 -6.125 C 2.640625 -6.550781 2.953125 -6.867188 3.328125 -7.078125 C 3.710938 -7.285156 4.171875 -7.390625 4.703125 -7.390625 C 5.578125 -7.390625 6.285156 -7.039062 6.828125 -6.34375 C 7.378906 -5.65625 7.65625 -4.742188 7.65625 -3.609375 C 7.65625 -2.472656 7.378906 -1.554688 6.828125 -0.859375 C 6.285156 -0.160156 5.578125 0.1875 4.703125 0.1875 C 4.171875 0.1875 3.710938 0.0820312 3.328125 -0.125 C 2.953125 -0.332031 2.640625 -0.648438 2.390625 -1.078125 Z M 6.421875 -3.609375 C 6.421875 -4.472656 6.238281 -5.15625 5.875 -5.65625 C 5.519531 -6.15625 5.03125 -6.40625 4.40625 -6.40625 C 3.78125 -6.40625 3.285156 -6.15625 2.921875 -5.65625 C 2.566406 -5.15625 2.390625 -4.472656 2.390625 -3.609375 C 2.390625 -2.734375 2.566406 -2.046875 2.921875 -1.546875 C 3.285156 -1.054688 3.78125 -0.8125 4.40625 -0.8125 C 5.03125 -0.8125 5.519531 -1.054688 5.875 -1.546875 C 6.238281 -2.046875 6.421875 -2.734375 6.421875 -3.609375 Z M 6.421875 -3.609375 "/>
</g>
<g id="glyph-3-4">
<path d="M 1.25 -7.21875 L 2.4375 -7.21875 L 2.4375 0 L 1.25 0 Z M 1.25 -10.03125 L 2.4375 -10.03125 L 2.4375 -8.53125 L 1.25 -8.53125 Z M 1.25 -10.03125 "/>
</g>
<g id="glyph-3-5">
<path d="M 6.4375 -6.9375 L 6.4375 -5.828125 C 6.101562 -6.015625 5.765625 -6.15625 5.421875 -6.25 C 5.085938 -6.34375 4.75 -6.390625 4.40625 -6.390625 C 3.632812 -6.390625 3.035156 -6.144531 2.609375 -5.65625 C 2.191406 -5.164062 1.984375 -4.484375 1.984375 -3.609375 C 1.984375 -2.722656 2.191406 -2.035156 2.609375 -1.546875 C 3.035156 -1.054688 3.632812 -0.8125 4.40625 -0.8125 C 4.75 -0.8125 5.085938 -0.859375 5.421875 -0.953125 C 5.765625 -1.046875 6.101562 -1.1875 6.4375 -1.375 L 6.4375 -0.28125 C 6.101562 -0.125 5.757812 -0.0078125 5.40625 0.0625 C 5.050781 0.144531 4.675781 0.1875 4.28125 0.1875 C 3.195312 0.1875 2.332031 -0.148438 1.6875 -0.828125 C 1.050781 -1.515625 0.734375 -2.441406 0.734375 -3.609375 C 0.734375 -4.785156 1.054688 -5.707031 1.703125 -6.375 C 2.347656 -7.050781 3.234375 -7.390625 4.359375 -7.390625 C 4.722656 -7.390625 5.078125 -7.351562 5.421875 -7.28125 C 5.773438 -7.207031 6.113281 -7.09375 6.4375 -6.9375 Z M 6.4375 -6.9375 "/>
</g>
<g id="glyph-3-6">
<path d="M 4.046875 -6.390625 C 3.410156 -6.390625 2.90625 -6.140625 2.53125 -5.640625 C 2.164062 -5.148438 1.984375 -4.472656 1.984375 -3.609375 C 1.984375 -2.742188 2.164062 -2.0625 2.53125 -1.5625 C 2.894531 -1.0625 3.398438 -0.8125 4.046875 -0.8125 C 4.671875 -0.8125 5.164062 -1.0625 5.53125 -1.5625 C 5.90625 -2.0625 6.09375 -2.742188 6.09375 -3.609375 C 6.09375 -4.460938 5.90625 -5.140625 5.53125 -5.640625 C 5.164062 -6.140625 4.671875 -6.390625 4.046875 -6.390625 Z M 4.046875 -7.390625 C 5.078125 -7.390625 5.882812 -7.054688 6.46875 -6.390625 C 7.0625 -5.722656 7.359375 -4.796875 7.359375 -3.609375 C 7.359375 -2.421875 7.0625 -1.488281 6.46875 -0.8125 C 5.882812 -0.144531 5.078125 0.1875 4.046875 0.1875 C 3.003906 0.1875 2.191406 -0.144531 1.609375 -0.8125 C 1.023438 -1.488281 0.734375 -2.421875 0.734375 -3.609375 C 0.734375 -4.796875 1.023438 -5.722656 1.609375 -6.390625 C 2.191406 -7.054688 3.003906 -7.390625 4.046875 -7.390625 Z M 4.046875 -7.390625 "/>
</g>
<g id="glyph-3-7">
</g>
<g id="glyph-3-8">
<path d="M 1.25 -10.03125 L 2.4375 -10.03125 L 2.4375 0 L 1.25 0 Z M 1.25 -10.03125 "/>
</g>
<g id="glyph-3-9">
<path d="M 6 -6.125 L 6 -10.03125 L 7.1875 -10.03125 L 7.1875 0 L 6 0 L 6 -1.078125 C 5.75 -0.648438 5.429688 -0.332031 5.046875 -0.125 C 4.671875 0.0820312 4.21875 0.1875 3.6875 0.1875 C 2.8125 0.1875 2.097656 -0.160156 1.546875 -0.859375 C 1.003906 -1.554688 0.734375 -2.472656 0.734375 -3.609375 C 0.734375 -4.742188 1.003906 -5.65625 1.546875 -6.34375 C 2.097656 -7.039062 2.8125 -7.390625 3.6875 -7.390625 C 4.21875 -7.390625 4.671875 -7.285156 5.046875 -7.078125 C 5.429688 -6.867188 5.75 -6.550781 6 -6.125 Z M 1.953125 -3.609375 C 1.953125 -2.734375 2.128906 -2.046875 2.484375 -1.546875 C 2.847656 -1.054688 3.34375 -0.8125 3.96875 -0.8125 C 4.59375 -0.8125 5.085938 -1.054688 5.453125 -1.546875 C 5.816406 -2.046875 6 -2.734375 6 -3.609375 C 6 -4.472656 5.816406 -5.15625 5.453125 -5.65625 C 5.085938 -6.15625 4.59375 -6.40625 3.96875 -6.40625 C 3.34375 -6.40625 2.847656 -6.15625 2.484375 -5.65625 C 2.128906 -5.15625 1.953125 -4.472656 1.953125 -3.609375 Z M 1.953125 -3.609375 "/>
</g>
<g id="glyph-3-10">
<path d="M 0.640625 -4.140625 L 4.125 -4.140625 L 4.125 -3.09375 L 0.640625 -3.09375 Z M 0.640625 -4.140625 "/>
</g>
<g id="glyph-3-11">
<path d="M 4.53125 -3.625 C 3.570312 -3.625 2.90625 -3.515625 2.53125 -3.296875 C 2.164062 -3.078125 1.984375 -2.703125 1.984375 -2.171875 C 1.984375 -1.753906 2.117188 -1.421875 2.390625 -1.171875 C 2.671875 -0.929688 3.050781 -0.8125 3.53125 -0.8125 C 4.1875 -0.8125 4.710938 -1.039062 5.109375 -1.5 C 5.503906 -1.96875 5.703125 -2.585938 5.703125 -3.359375 L 5.703125 -3.625 Z M 6.890625 -4.125 L 6.890625 0 L 5.703125 0 L 5.703125 -1.09375 C 5.429688 -0.65625 5.09375 -0.332031 4.6875 -0.125 C 4.289062 0.0820312 3.796875 0.1875 3.203125 0.1875 C 2.472656 0.1875 1.890625 -0.0195312 1.453125 -0.4375 C 1.015625 -0.851562 0.796875 -1.410156 0.796875 -2.109375 C 0.796875 -2.910156 1.066406 -3.519531 1.609375 -3.9375 C 2.148438 -4.351562 2.960938 -4.5625 4.046875 -4.5625 L 5.703125 -4.5625 L 5.703125 -4.671875 C 5.703125 -5.222656 5.519531 -5.644531 5.15625 -5.9375 C 4.800781 -6.238281 4.300781 -6.390625 3.65625 -6.390625 C 3.238281 -6.390625 2.832031 -6.335938 2.4375 -6.234375 C 2.050781 -6.140625 1.679688 -5.992188 1.328125 -5.796875 L 1.328125 -6.890625 C 1.753906 -7.054688 2.171875 -7.179688 2.578125 -7.265625 C 2.992188 -7.347656 3.394531 -7.390625 3.78125 -7.390625 C 4.820312 -7.390625 5.597656 -7.117188 6.109375 -6.578125 C 6.628906 -6.035156 6.890625 -5.21875 6.890625 -4.125 Z M 6.890625 -4.125 "/>
</g>
<g id="glyph-3-12">
<path d="M 7.421875 -3.90625 L 7.421875 -3.328125 L 1.96875 -3.328125 C 2.019531 -2.515625 2.265625 -1.890625 2.703125 -1.453125 C 3.140625 -1.023438 3.753906 -0.8125 4.546875 -0.8125 C 5.003906 -0.8125 5.445312 -0.867188 5.875 -0.984375 C 6.300781 -1.097656 6.722656 -1.265625 7.140625 -1.484375 L 7.140625 -0.375 C 6.710938 -0.1875 6.273438 -0.0429688 5.828125 0.046875 C 5.378906 0.140625 4.925781 0.1875 4.46875 0.1875 C 3.320312 0.1875 2.410156 -0.144531 1.734375 -0.8125 C 1.066406 -1.488281 0.734375 -2.398438 0.734375 -3.546875 C 0.734375 -4.722656 1.050781 -5.65625 1.6875 -6.34375 C 2.320312 -7.039062 3.179688 -7.390625 4.265625 -7.390625 C 5.234375 -7.390625 6 -7.078125 6.5625 -6.453125 C 7.132812 -5.828125 7.421875 -4.976562 7.421875 -3.90625 Z M 6.234375 -4.25 C 6.222656 -4.90625 6.039062 -5.425781 5.6875 -5.8125 C 5.332031 -6.195312 4.863281 -6.390625 4.28125 -6.390625 C 3.613281 -6.390625 3.082031 -6.203125 2.6875 -5.828125 C 2.289062 -5.453125 2.0625 -4.925781 2 -4.25 Z M 6.234375 -4.25 "/>
</g>
<g id="glyph-3-13">
<path d="M 2.421875 -9.265625 L 2.421875 -7.21875 L 4.859375 -7.21875 L 4.859375 -6.296875 L 2.421875 -6.296875 L 2.421875 -2.375 C 2.421875 -1.789062 2.5 -1.414062 2.65625 -1.25 C 2.820312 -1.082031 3.148438 -1 3.640625 -1 L 4.859375 -1 L 4.859375 0 L 3.640625 0 C 2.722656 0 2.085938 -0.171875 1.734375 -0.515625 C 1.390625 -0.859375 1.21875 -1.476562 1.21875 -2.375 L 1.21875 -6.296875 L 0.359375 -6.296875 L 0.359375 -7.21875 L 1.21875 -7.21875 L 1.21875 -9.265625 Z M 2.421875 -9.265625 "/>
</g>
<g id="glyph-3-14">
<path d="M 6.421875 -3.609375 C 6.421875 -4.472656 6.238281 -5.15625 5.875 -5.65625 C 5.519531 -6.15625 5.03125 -6.40625 4.40625 -6.40625 C 3.78125 -6.40625 3.285156 -6.15625 2.921875 -5.65625 C 2.566406 -5.15625 2.390625 -4.472656 2.390625 -3.609375 C 2.390625 -2.734375 2.566406 -2.046875 2.921875 -1.546875 C 3.285156 -1.054688 3.78125 -0.8125 4.40625 -0.8125 C 5.03125 -0.8125 5.519531 -1.054688 5.875 -1.546875 C 6.238281 -2.046875 6.421875 -2.734375 6.421875 -3.609375 Z M 2.390625 -6.125 C 2.640625 -6.550781 2.953125 -6.867188 3.328125 -7.078125 C 3.710938 -7.285156 4.171875 -7.390625 4.703125 -7.390625 C 5.578125 -7.390625 6.285156 -7.039062 6.828125 -6.34375 C 7.378906 -5.65625 7.65625 -4.742188 7.65625 -3.609375 C 7.65625 -2.472656 7.378906 -1.554688 6.828125 -0.859375 C 6.285156 -0.160156 5.578125 0.1875 4.703125 0.1875 C 4.171875 0.1875 3.710938 0.0820312 3.328125 -0.125 C 2.953125 -0.332031 2.640625 -0.648438 2.390625 -1.078125 L 2.390625 0 L 1.203125 0 L 1.203125 -10.03125 L 2.390625 -10.03125 Z M 2.390625 -6.125 "/>
</g>
<g id="glyph-3-15">
<path d="M 4.25 0.671875 C 3.914062 1.523438 3.585938 2.082031 3.265625 2.34375 C 2.953125 2.613281 2.523438 2.75 1.984375 2.75 L 1.046875 2.75 L 1.046875 1.75 L 1.734375 1.75 C 2.066406 1.75 2.320312 1.671875 2.5 1.515625 C 2.675781 1.367188 2.875 1.003906 3.09375 0.421875 L 3.3125 -0.109375 L 0.390625 -7.21875 L 1.65625 -7.21875 L 3.90625 -1.578125 L 6.15625 -7.21875 L 7.421875 -7.21875 Z M 4.25 0.671875 "/>
</g>
<g id="glyph-3-16">
<path d="M 5.421875 -6.109375 C 5.296875 -6.191406 5.148438 -6.25 4.984375 -6.28125 C 4.828125 -6.320312 4.65625 -6.34375 4.46875 -6.34375 C 3.800781 -6.34375 3.285156 -6.125 2.921875 -5.6875 C 2.566406 -5.25 2.390625 -4.617188 2.390625 -3.796875 L 2.390625 0 L 1.203125 0 L 1.203125 -7.21875 L 2.390625 -7.21875 L 2.390625 -6.09375 C 2.640625 -6.53125 2.960938 -6.851562 3.359375 -7.0625 C 3.765625 -7.28125 4.253906 -7.390625 4.828125 -7.390625 C 4.898438 -7.390625 4.984375 -7.382812 5.078125 -7.375 C 5.179688 -7.363281 5.296875 -7.347656 5.421875 -7.328125 Z M 5.421875 -6.109375 "/>
</g>
<g id="glyph-3-17">
<path d="M 7.25 -4.359375 L 7.25 0 L 6.0625 0 L 6.0625 -4.3125 C 6.0625 -5 5.925781 -5.507812 5.65625 -5.84375 C 5.394531 -6.1875 5 -6.359375 4.46875 -6.359375 C 3.820312 -6.359375 3.3125 -6.15625 2.9375 -5.75 C 2.570312 -5.34375 2.390625 -4.785156 2.390625 -4.078125 L 2.390625 0 L 1.203125 0 L 1.203125 -7.21875 L 2.390625 -7.21875 L 2.390625 -6.09375 C 2.671875 -6.53125 3.003906 -6.851562 3.390625 -7.0625 C 3.773438 -7.28125 4.21875 -7.390625 4.71875 -7.390625 C 5.550781 -7.390625 6.179688 -7.132812 6.609375 -6.625 C 7.035156 -6.113281 7.25 -5.359375 7.25 -4.359375 Z M 7.25 -4.359375 "/>
</g>
</g>
<clipPath id="clip-0">
<path clip-rule="nonzero" d="M 40.253906 269 L 420.226562 269 L 420.226562 270 L 40.253906 270 Z M 40.253906 269 "/>
</clipPath>
<clipPath id="clip-1">
<path clip-rule="nonzero" d="M 40.253906 180 L 420.226562 180 L 420.226562 181 L 40.253906 181 Z M 40.253906 180 "/>
</clipPath>
<clipPath id="clip-2">
<path clip-rule="nonzero" d="M 40.253906 90 L 420.226562 90 L 420.226562 92 L 40.253906 92 Z M 40.253906 90 "/>
</clipPath>
<clipPath id="clip-3">
<path clip-rule="nonzero" d="M 40.253906 313 L 420.226562 313 L 420.226562 315 L 40.253906 315 Z M 40.253906 313 "/>
</clipPath>
<clipPath id="clip-4">
<path clip-rule="nonzero" d="M 40.253906 224 L 420.226562 224 L 420.226562 226 L 40.253906 226 Z M 40.253906 224 "/>
</clipPath>
<clipPath id="clip-5">
<path clip-rule="nonzero" d="M 40.253906 135 L 420.226562 135 L 420.226562 137 L 40.253906 137 Z M 40.253906 135 "/>
</clipPath>
<clipPath id="clip-6">
<path clip-rule="nonzero" d="M 40.253906 45 L 420.226562 45 L 420.226562 47 L 40.253906 47 Z M 40.253906 45 "/>
</clipPath>
<clipPath id="clip-7">
<path clip-rule="nonzero" d="M 94 23.328125 L 96 23.328125 L 96 328.296875 L 94 328.296875 Z M 94 23.328125 "/>
</clipPath>
<clipPath id="clip-8">
<path clip-rule="nonzero" d="M 184 23.328125 L 186 23.328125 L 186 328.296875 L 184 328.296875 Z M 184 23.328125 "/>
</clipPath>
<clipPath id="clip-9">
<path clip-rule="nonzero" d="M 274 23.328125 L 277 23.328125 L 277 328.296875 L 274 328.296875 Z M 274 23.328125 "/>
</clipPath>
<clipPath id="clip-10">
<path clip-rule="nonzero" d="M 365 23.328125 L 367 23.328125 L 367 328.296875 L 365 328.296875 Z M 365 23.328125 "/>
</clipPath>
</defs>
<rect x="-50.4" y="-36" width="604.8" height="432" fill="rgb(100%, 100%, 100%)" fill-opacity="1"/>
<g clip-path="url(#clip-0)">
<path fill="none" stroke-width="0.533489" stroke-linecap="butt" stroke-linejoin="round" stroke="rgb(92.156863%, 92.156863%, 92.156863%)" stroke-opacity="1" stroke-miterlimit="10" d="M 40.253906 269.71875 L 420.226562 269.71875 "/>
</g>
<g clip-path="url(#clip-1)">
<path fill="none" stroke-width="0.533489" stroke-linecap="butt" stroke-linejoin="round" stroke="rgb(92.156863%, 92.156863%, 92.156863%)" stroke-opacity="1" stroke-miterlimit="10" d="M 40.253906 180.285156 L 420.226562 180.285156 "/>
</g>
<g clip-path="url(#clip-2)">
<path fill="none" stroke-width="0.533489" stroke-linecap="butt" stroke-linejoin="round" stroke="rgb(92.156863%, 92.156863%, 92.156863%)" stroke-opacity="1" stroke-miterlimit="10" d="M 40.253906 90.851562 L 420.226562 90.851562 "/>
</g>
<g clip-path="url(#clip-3)">
<path fill="none" stroke-width="1.066978" stroke-linecap="butt" stroke-linejoin="round" stroke="rgb(92.156863%, 92.156863%, 92.156863%)" stroke-opacity="1" stroke-miterlimit="10" d="M 40.253906 314.433594 L 420.226562 314.433594 "/>
</g>
<g clip-path="url(#clip-4)">
<path fill="none" stroke-width="1.066978" stroke-linecap="butt" stroke-linejoin="round" stroke="rgb(92.156863%, 92.156863%, 92.156863%)" stroke-opacity="1" stroke-miterlimit="10" d="M 40.253906 225 L 420.226562 225 "/>
</g>
<g clip-path="url(#clip-5)">
<path fill="none" stroke-width="1.066978" stroke-linecap="butt" stroke-linejoin="round" stroke="rgb(92.156863%, 92.156863%, 92.156863%)" stroke-opacity="1" stroke-miterlimit="10" d="M 40.253906 135.566406 L 420.226562 135.566406 "/>
</g>
<g clip-path="url(#clip-6)">
<path fill="none" stroke-width="1.066978" stroke-linecap="butt" stroke-linejoin="round" stroke="rgb(92.156863%, 92.156863%, 92.156863%)" stroke-opacity="1" stroke-miterlimit="10" d="M 40.253906 46.132812 L 420.226562 46.132812 "/>
</g>
<g clip-path="url(#clip-7)">
<path fill="none" stroke-width="1.066978" stroke-linecap="butt" stroke-linejoin="round" stroke="rgb(92.156863%, 92.156863%, 92.156863%)" stroke-opacity="1" stroke-miterlimit="10" d="M 94.535156 328.296875 L 94.535156 23.328125 "/>
</g>
<g clip-path="url(#clip-8)">
<path fill="none" stroke-width="1.066978" stroke-linecap="butt" stroke-linejoin="round" stroke="rgb(92.156863%, 92.156863%, 92.156863%)" stroke-opacity="1" stroke-miterlimit="10" d="M 185.007812 328.296875 L 185.007812 23.328125 "/>
</g>
<g clip-path="url(#clip-9)">
<path fill="none" stroke-width="1.066978" stroke-linecap="butt" stroke-linejoin="round" stroke="rgb(92.156863%, 92.156863%, 92.156863%)" stroke-opacity="1" stroke-miterlimit="10" d="M 275.476562 328.296875 L 275.476562 23.328125 "/>
</g>
<g clip-path="url(#clip-10)">
<path fill="none" stroke-width="1.066978" stroke-linecap="butt" stroke-linejoin="round" stroke="rgb(92.156863%, 92.156863%, 92.156863%)" stroke-opacity="1" stroke-miterlimit="10" d="M 365.945312 328.296875 L 365.945312 23.328125 "/>
</g>
<path fill-rule="nonzero" fill="rgb(97.254902%, 46.27451%, 42.745098%)" fill-opacity="1" d="M 53.824219 314.433594 L 135.246094 314.433594 L 135.246094 37.1875 L 53.824219 37.1875 Z M 53.824219 314.433594 "/>
<path fill-rule="nonzero" fill="rgb(97.254902%, 46.27451%, 42.745098%)" fill-opacity="1" d="M 144.292969 314.433594 L 225.714844 314.433594 L 225.714844 37.1875 L 144.292969 37.1875 Z M 144.292969 314.433594 "/>
<path fill-rule="nonzero" fill="rgb(97.254902%, 46.27451%, 42.745098%)" fill-opacity="1" d="M 234.765625 314.433594 L 316.1875 314.433594 L 316.1875 37.1875 L 234.765625 37.1875 Z M 234.765625 314.433594 "/>
<path fill-rule="nonzero" fill="rgb(97.254902%, 46.27451%, 42.745098%)" fill-opacity="1" d="M 325.234375 314.433594 L 406.65625 314.433594 L 406.65625 37.1875 L 325.234375 37.1875 Z M 325.234375 314.433594 "/>
<g fill="rgb(30.196078%, 30.196078%, 30.196078%)" fill-opacity="1">
<use xlink:href="#glyph-0-0" x="29.726562" y="317.640625"/>
</g>
<g fill="rgb(30.196078%, 30.196078%, 30.196078%)" fill-opacity="1">
<use xlink:href="#glyph-0-1" x="24.125" y="228.207031"/>
<use xlink:href="#glyph-0-0" x="29.723828" y="228.207031"/>
</g>
<g fill="rgb(30.196078%, 30.196078%, 30.196078%)" fill-opacity="1">
<use xlink:href="#glyph-0-2" x="18.527344" y="138.773438"/>
<use xlink:href="#glyph-0-0" x="24.126172" y="138.773438"/>
<use xlink:href="#glyph-0-0" x="29.725" y="138.773438"/>
</g>
<g fill="rgb(30.196078%, 30.196078%, 30.196078%)" fill-opacity="1">
<use xlink:href="#glyph-0-2" x="18.527344" y="49.339844"/>
<use xlink:href="#glyph-0-1" x="24.126172" y="49.339844"/>
<use xlink:href="#glyph-0-0" x="29.725" y="49.339844"/>
</g>
<g fill="rgb(30.196078%, 30.196078%, 30.196078%)" fill-opacity="1">
<use xlink:href="#glyph-0-2" x="69.941406" y="339.644531"/>
<use xlink:href="#glyph-0-3" x="75.540234" y="339.644531"/>
<use xlink:href="#glyph-0-3" x="81.139062" y="339.644531"/>
<use xlink:href="#glyph-0-1" x="86.737891" y="339.644531"/>
<use xlink:href="#glyph-0-4" x="92.336719" y="339.644531"/>
<use xlink:href="#glyph-0-5" x="96.736719" y="339.644531"/>
<use xlink:href="#glyph-0-0" x="102.335547" y="339.644531"/>
<use xlink:href="#glyph-0-0" x="107.934375" y="339.644531"/>
<use xlink:href="#glyph-0-0" x="113.533203" y="339.644531"/>
</g>
<g fill="rgb(30.196078%, 30.196078%, 30.196078%)" fill-opacity="1">
<use xlink:href="#glyph-0-5" x="160.414062" y="339.644531"/>
<use xlink:href="#glyph-0-0" x="166.012891" y="339.644531"/>
<use xlink:href="#glyph-0-0" x="171.611719" y="339.644531"/>
<use xlink:href="#glyph-0-0" x="177.210547" y="339.644531"/>
<use xlink:href="#glyph-0-4" x="182.809375" y="339.644531"/>
<use xlink:href="#glyph-0-5" x="187.209375" y="339.644531"/>
<use xlink:href="#glyph-0-0" x="192.808203" y="339.644531"/>
<use xlink:href="#glyph-0-0" x="198.407031" y="339.644531"/>
<use xlink:href="#glyph-0-1" x="204.005859" y="339.644531"/>
</g>
<g fill="rgb(30.196078%, 30.196078%, 30.196078%)" fill-opacity="1">
<use xlink:href="#glyph-0-5" x="250.882812" y="339.644531"/>
<use xlink:href="#glyph-0-0" x="256.481641" y="339.644531"/>
<use xlink:href="#glyph-0-0" x="262.080469" y="339.644531"/>
<use xlink:href="#glyph-0-1" x="267.679297" y="339.644531"/>
<use xlink:href="#glyph-0-4" x="273.278125" y="339.644531"/>
<use xlink:href="#glyph-0-5" x="277.678125" y="339.644531"/>
<use xlink:href="#glyph-0-0" x="283.276953" y="339.644531"/>
<use xlink:href="#glyph-0-2" x="288.875781" y="339.644531"/>
<use xlink:href="#glyph-0-0" x="294.474609" y="339.644531"/>
</g>
<g fill="rgb(30.196078%, 30.196078%, 30.196078%)" fill-opacity="1">
<use xlink:href="#glyph-0-5" x="341.351562" y="339.644531"/>
<use xlink:href="#glyph-0-0" x="346.950391" y="339.644531"/>
<use xlink:href="#glyph-0-2" x="352.549219" y="339.644531"/>
<use xlink:href="#glyph-0-0" x="358.148047" y="339.644531"/>
<use xlink:href="#glyph-0-4" x="363.746875" y="339.644531"/>
<use xlink:href="#glyph-0-5" x="368.146875" y="339.644531"/>
<use xlink:href="#glyph-0-0" x="373.745703" y="339.644531"/>
<use xlink:href="#glyph-0-2" x="379.344531" y="339.644531"/>
<use xlink:href="#glyph-0-1" x="384.943359" y="339.644531"/>
</g>
<g fill="rgb(0%, 0%, 0%)" fill-opacity="1">
<use xlink:href="#glyph-1-0" x="202.835938" y="352.234375"/>
<use xlink:href="#glyph-1-1" x="209.555176" y="352.234375"/>
<use xlink:href="#glyph-1-2" x="214.077637" y="352.234375"/>
<use xlink:href="#glyph-1-3" x="220.818359" y="352.234375"/>
<use xlink:href="#glyph-1-4" x="227.790039" y="352.234375"/>
<use xlink:href="#glyph-1-5" x="233.520996" y="352.234375"/>
<use xlink:href="#glyph-1-6" x="236.577148" y="352.234375"/>
<use xlink:href="#glyph-1-5" x="240.890137" y="352.234375"/>
<use xlink:href="#glyph-1-7" x="243.946289" y="352.234375"/>
<use xlink:href="#glyph-1-3" x="250.67627" y="352.234375"/>
</g>
<g fill="rgb(0%, 0%, 0%)" fill-opacity="1">
<use xlink:href="#glyph-2-0" x="13.5" y="278.679688"/>
<use xlink:href="#glyph-2-1" x="13.5" y="270.451172"/>
<use xlink:href="#glyph-2-2" x="13.5" y="263.479492"/>
<use xlink:href="#glyph-2-3" x="13.5" y="252.76416"/>
<use xlink:href="#glyph-2-4" x="13.5" y="245.781738"/>
<use xlink:href="#glyph-2-5" x="13.5" y="239.01416"/>
<use xlink:href="#glyph-2-6" x="13.5" y="234.491699"/>
<use xlink:href="#glyph-2-7" x="13.5" y="230.995117"/>
<use xlink:href="#glyph-2-8" x="13.5" y="224.265137"/>
<use xlink:href="#glyph-2-6" x="13.5" y="220.392578"/>
<use xlink:href="#glyph-2-9" x="13.5" y="216.895996"/>
<use xlink:href="#glyph-2-7" x="13.5" y="210.848145"/>
<use xlink:href="#glyph-2-1" x="13.5" y="204.118164"/>
<use xlink:href="#glyph-2-10" x="13.5" y="197.146484"/>
<use xlink:href="#glyph-2-11" x="13.5" y="190.174805"/>
<use xlink:href="#glyph-2-5" x="13.5" y="185.861816"/>
<use xlink:href="#glyph-2-12" x="13.5" y="181.339355"/>
<use xlink:href="#glyph-2-13" x="13.5" y="174.82959"/>
<use xlink:href="#glyph-2-11" x="13.5" y="170.860352"/>
<use xlink:href="#glyph-2-5" x="13.5" y="166.547363"/>
<use xlink:href="#glyph-2-14" x="13.5" y="162.024902"/>
<use xlink:href="#glyph-2-10" x="13.5" y="155.28418"/>
<use xlink:href="#glyph-2-15" x="13.5" y="148.3125"/>
<use xlink:href="#glyph-2-16" x="13.5" y="142.581543"/>
<use xlink:href="#glyph-2-11" x="13.5" y="139.525391"/>
<use xlink:href="#glyph-2-16" x="13.5" y="135.212402"/>
<use xlink:href="#glyph-2-7" x="13.5" y="132.15625"/>
<use xlink:href="#glyph-2-10" x="13.5" y="125.42627"/>
<use xlink:href="#glyph-2-6" x="13.5" y="118.45459"/>
<use xlink:href="#glyph-2-7" x="13.5" y="114.958008"/>
<use xlink:href="#glyph-2-1" x="13.5" y="108.228027"/>
<use xlink:href="#glyph-2-11" x="13.5" y="101.256348"/>
<use xlink:href="#glyph-2-17" x="13.5" y="96.943359"/>
<use xlink:href="#glyph-2-1" x="13.5" y="89.960938"/>
<use xlink:href="#glyph-2-11" x="13.5" y="82.989258"/>
<use xlink:href="#glyph-2-15" x="13.5" y="78.67627"/>
</g>
<g fill="rgb(0%, 0%, 0%)" fill-opacity="1">
<use xlink:href="#glyph-1-8" x="436.667969" y="168.441406"/>
<use xlink:href="#glyph-1-9" x="445.326172" y="168.441406"/>
<use xlink:href="#glyph-1-10" x="448.382324" y="168.441406"/>
<use xlink:href="#glyph-1-11" x="455.364746" y="168.441406"/>
<use xlink:href="#glyph-1-4" x="458.861328" y="168.441406"/>
<use xlink:href="#glyph-1-12" x="464.592285" y="168.441406"/>
<use xlink:href="#glyph-1-2" x="470.640137" y="168.441406"/>
<use xlink:href="#glyph-1-9" x="477.380859" y="168.441406"/>
<use xlink:href="#glyph-1-13" x="480.437012" y="168.441406"/>
<use xlink:href="#glyph-1-14" x="487.20459" y="168.441406"/>
</g>
<path fill-rule="nonzero" fill="rgb(97.254902%, 46.27451%, 42.745098%)" fill-opacity="1" d="M 437.375 191.636719 L 453.238281 191.636719 L 453.238281 175.773438 L 437.375 175.773438 Z M 437.375 191.636719 "/>
<g fill="rgb(0%, 0%, 0%)" fill-opacity="1">
<use xlink:href="#glyph-0-6" x="459.425781" y="186.914062"/>
<use xlink:href="#glyph-0-7" x="464.4875" y="186.914062"/>
<use xlink:href="#glyph-0-8" x="470.507422" y="186.914062"/>
<use xlink:href="#glyph-0-9" x="475.410156" y="186.914062"/>
<use xlink:href="#glyph-0-10" x="480.996094" y="186.914062"/>
</g>
<g fill="rgb(0%, 0%, 0%)" fill-opacity="1">
<use xlink:href="#glyph-3-0" x="40.253906" y="15.101562"/>
<use xlink:href="#glyph-3-1" x="48.632812" y="15.101562"/>
<use xlink:href="#glyph-3-2" x="56.998828" y="15.101562"/>
<use xlink:href="#glyph-3-3" x="63.875977" y="15.101562"/>
<use xlink:href="#glyph-3-4" x="72.254883" y="15.101562"/>
<use xlink:href="#glyph-3-5" x="75.922266" y="15.101562"/>
<use xlink:href="#glyph-3-4" x="83.179688" y="15.101562"/>
<use xlink:href="#glyph-3-6" x="86.84707" y="15.101562"/>
<use xlink:href="#glyph-3-1" x="94.923047" y="15.101562"/>
<use xlink:href="#glyph-3-2" x="103.289062" y="15.101562"/>
<use xlink:href="#glyph-3-7" x="110.166211" y="15.101562"/>
<use xlink:href="#glyph-3-6" x="114.362109" y="15.101562"/>
<use xlink:href="#glyph-3-8" x="122.438086" y="15.101562"/>
<use xlink:href="#glyph-3-9" x="126.105469" y="15.101562"/>
<use xlink:href="#glyph-3-10" x="134.484375" y="15.101562"/>
<use xlink:href="#glyph-3-2" x="139.247461" y="15.101562"/>
<use xlink:href="#glyph-3-5" x="146.124609" y="15.101562"/>
<use xlink:href="#glyph-3-11" x="153.382031" y="15.101562"/>
<use xlink:href="#glyph-3-8" x="161.470898" y="15.101562"/>
<use xlink:href="#glyph-3-12" x="165.138281" y="15.101562"/>
<use xlink:href="#glyph-3-7" x="173.259375" y="15.101562"/>
<use xlink:href="#glyph-3-6" x="177.455273" y="15.101562"/>
<use xlink:href="#glyph-3-1" x="185.53125" y="15.101562"/>
<use xlink:href="#glyph-3-13" x="193.897266" y="15.101562"/>
<use xlink:href="#glyph-3-3" x="199.072852" y="15.101562"/>
<use xlink:href="#glyph-3-1" x="207.451758" y="15.101562"/>
<use xlink:href="#glyph-3-13" x="215.817773" y="15.101562"/>
<use xlink:href="#glyph-3-2" x="220.993359" y="15.101562"/>
<use xlink:href="#glyph-3-7" x="227.870508" y="15.101562"/>
<use xlink:href="#glyph-3-14" x="232.066406" y="15.101562"/>
<use xlink:href="#glyph-3-15" x="240.445312" y="15.101562"/>
<use xlink:href="#glyph-3-7" x="248.257031" y="15.101562"/>
<use xlink:href="#glyph-3-13" x="252.45293" y="15.101562"/>
<use xlink:href="#glyph-3-16" x="257.628516" y="15.101562"/>
<use xlink:href="#glyph-3-11" x="263.055469" y="15.101562"/>
<use xlink:href="#glyph-3-17" x="271.144336" y="15.101562"/>
<use xlink:href="#glyph-3-2" x="279.510352" y="15.101562"/>
<use xlink:href="#glyph-3-4" x="286.3875" y="15.101562"/>
<use xlink:href="#glyph-3-13" x="290.054883" y="15.101562"/>
<use xlink:href="#glyph-3-4" x="295.230469" y="15.101562"/>
<use xlink:href="#glyph-3-6" x="298.897852" y="15.101562"/>
<use xlink:href="#glyph-3-17" x="306.973828" y="15.101562"/>
</g>
</svg>
