<?xml version="1.0" encoding="UTF-8"?>
<svg xmlns="http://www.w3.org/2000/svg" xmlns:xlink="http://www.w3.org/1999/xlink" width="504" height="360" viewBox="0 0 504 360">
<defs>
<g>
<g id="glyph-0-0">
<path d="M 2.515625 0 L 0.0625 -6.40625 L 0.96875 -6.40625 L 3 -1.015625 L 5.046875 -6.40625 L 5.9375 -6.40625 L 3.5 0 Z M 2.515625 0 "/>
</g>
<g id="glyph-0-1">
<path d="M 0.859375 -6.40625 L 2.03125 -6.40625 L 4.875 -1.046875 L 4.875 -6.40625 L 5.71875 -6.40625 L 5.71875 0 L 4.546875 0 L 1.703125 -5.359375 L 1.703125 0 L 0.859375 0 Z M 0.859375 -6.40625 "/>
</g>
<g id="glyph-0-2">
<path d="M 0.859375 -6.40625 L 2.15625 -6.40625 L 3.796875 -2.046875 L 5.4375 -6.40625 L 6.734375 -6.40625 L 6.734375 0 L 5.890625 0 L 5.890625 -5.625 L 4.234375 -1.234375 L 3.359375 -1.234375 L 1.703125 -5.625 L 1.703125 0 L 0.859375 0 Z M 0.859375 -6.40625 "/>
</g>
<g id="glyph-0-3">
<path d="M 0.859375 -6.40625 L 1.734375 -6.40625 L 1.734375 0 L 0.859375 0 Z M 0.859375 -6.40625 "/>
</g>
<g id="glyph-0-4">
<path d="M 1.734375 -5.703125 L 1.734375 -0.71875 L 2.78125 -0.71875 C 3.664062 -0.71875 4.3125 -0.914062 4.71875 -1.3125 C 5.132812 -1.71875 5.34375 -2.351562 5.34375 -3.21875 C 5.34375 -4.070312 5.132812 -4.695312 4.71875 -5.09375 C 4.3125 -5.5 3.664062 -5.703125 2.78125 -5.703125 Z M 0.859375 -6.40625 L 2.640625 -6.40625 C 3.890625 -6.40625 4.800781 -6.144531 5.375 -5.625 C 5.957031 -5.113281 6.25 -4.3125 6.25 -3.21875 C 6.25 -2.113281 5.957031 -1.300781 5.375 -0.78125 C 4.789062 -0.257812 3.878906 0 2.640625 0 L 0.859375 0 Z M 0.859375 -6.40625 "/>
</g>
<g id="glyph-0-5">
<path d="M 0.859375 -6.40625 L 1.734375 -6.40625 L 1.734375 -0.734375 L 4.859375 -0.734375 L 4.859375 0 L 0.859375 0 Z M 0.859375 -6.40625 "/>
</g>
<g id="glyph-0-6">
<path d="M -0.03125 -6.40625 L 5.40625 -6.40625 L 5.40625 -5.6875 L 3.125 -5.6875 L 3.125 0 L 2.25 0 L 2.25 -5.6875 L -0.03125 -5.6875 Z M -0.03125 -6.40625 "/>
</g>
<g id="glyph-0-7">
<path d="M 0.765625 -6.40625 L 1.640625 -6.40625 L 1.640625 -2.515625 C 1.640625 -1.828125 1.765625 -1.332031 2.015625 -1.03125 C 2.265625 -0.726562 2.664062 -0.578125 3.21875 -0.578125 C 3.78125 -0.578125 4.179688 -0.726562 4.421875 -1.03125 C 4.671875 -1.332031 4.796875 -1.828125 4.796875 -2.515625 L 4.796875 -6.40625 L 5.671875 -6.40625 L 5.671875 -2.40625 C 5.671875 -1.570312 5.460938 -0.941406 5.046875 -0.515625 C 4.640625 -0.0859375 4.03125 0.125 3.21875 0.125 C 2.40625 0.125 1.789062 -0.0859375 1.375 -0.515625 C 0.96875 -0.941406 0.765625 -1.570312 0.765625 -2.40625 Z M 0.765625 -6.40625 "/>
</g>
<g id="glyph-0-8">
<path d="M 4.703125 -6.203125 L 4.703125 -5.359375 C 4.378906 -5.515625 4.070312 -5.628906 3.78125 -5.703125 C 3.488281 -5.785156 3.203125 -5.828125 2.921875 -5.828125 C 2.453125 -5.828125 2.085938 -5.734375 1.828125 -5.546875 C 1.578125 -5.367188 1.453125 -5.109375 1.453125 -4.765625 C 1.453125 -4.484375 1.535156 -4.269531 1.703125 -4.125 C 1.878906 -3.976562 2.203125 -3.863281 2.671875 -3.78125 L 3.203125 -3.671875 C 3.847656 -3.546875 4.320312 -3.328125 4.625 -3.015625 C 4.9375 -2.703125 5.09375 -2.285156 5.09375 -1.765625 C 5.09375 -1.148438 4.882812 -0.679688 4.46875 -0.359375 C 4.050781 -0.0351562 3.441406 0.125 2.640625 0.125 C 2.335938 0.125 2.015625 0.0859375 1.671875 0.015625 C 1.328125 -0.046875 0.972656 -0.144531 0.609375 -0.28125 L 0.609375 -1.171875 C 0.960938 -0.972656 1.304688 -0.820312 1.640625 -0.71875 C 1.972656 -0.625 2.304688 -0.578125 2.640625 -0.578125 C 3.128906 -0.578125 3.507812 -0.671875 3.78125 -0.859375 C 4.050781 -1.054688 4.1875 -1.335938 4.1875 -1.703125 C 4.1875 -2.015625 4.085938 -2.257812 3.890625 -2.4375 C 3.703125 -2.613281 3.390625 -2.75 2.953125 -2.84375 L 2.421875 -2.953125 C 1.773438 -3.078125 1.304688 -3.273438 1.015625 -3.546875 C 0.722656 -3.828125 0.578125 -4.210938 0.578125 -4.703125 C 0.578125 -5.265625 0.773438 -5.707031 1.171875 -6.03125 C 1.578125 -6.363281 2.128906 -6.53125 2.828125 -6.53125 C 3.128906 -6.53125 3.4375 -6.5 3.75 -6.4375 C 4.0625 -6.382812 4.378906 -6.304688 4.703125 -6.203125 Z M 4.703125 -6.203125 "/>
</g>
<g id="glyph-0-9">
<path d="M 0.296875 -6.40625 L 1.171875 -6.40625 L 2.515625 -1 L 3.859375 -6.40625 L 4.84375 -6.40625 L 6.1875 -1 L 7.53125 -6.40625 L 8.40625 -6.40625 L 6.796875 0 L 5.703125 0 L 4.359375 -5.5625 L 2.984375 0 L 1.90625 0 Z M 0.296875 -6.40625 "/>
</g>
<g id="glyph-0-10">
<path d="M 0.859375 -6.40625 L 4.921875 -6.40625 L 4.921875 -5.6875 L 1.734375 -5.6875 L 1.734375 -3.78125 L 4.78125 -3.78125 L 4.78125 -3.046875 L 1.734375 -3.046875 L 1.734375 -0.734375 L 5 -0.734375 L 5 0 L 0.859375 0 Z M 0.859375 -6.40625 "/>
</g>
<g id="glyph-0-11">
<path d="M 0.859375 -6.40625 L 1.734375 -6.40625 L 1.734375 -3.703125 L 4.609375 -6.40625 L 5.71875 -6.40625 L 2.546875 -3.421875 L 5.953125 0 L 4.8125 0 L 1.734375 -3.09375 L 1.734375 0 L 0.859375 0 Z M 0.859375 -6.40625 "/>
</g>
<g id="glyph-0-12">
<path d="M 3.90625 -3 C 4.09375 -2.9375 4.273438 -2.800781 4.453125 -2.59375 C 4.628906 -2.394531 4.804688 -2.113281 4.984375 -1.75 L 5.859375 0 L 4.921875 0 L 4.109375 -1.640625 C 3.890625 -2.078125 3.679688 -2.363281 3.484375 -2.5 C 3.285156 -2.632812 3.015625 -2.703125 2.671875 -2.703125 L 1.734375 -2.703125 L 1.734375 0 L 0.859375 0 L 0.859375 -6.40625 L 2.828125 -6.40625 C 3.554688 -6.40625 4.097656 -6.253906 4.453125 -5.953125 C 4.816406 -5.648438 5 -5.1875 5 -4.5625 C 5 -4.15625 4.90625 -3.816406 4.71875 -3.546875 C 4.53125 -3.285156 4.257812 -3.101562 3.90625 -3 Z M 1.734375 -5.703125 L 1.734375 -3.421875 L 2.828125 -3.421875 C 3.242188 -3.421875 3.554688 -3.515625 3.765625 -3.703125 C 3.984375 -3.898438 4.09375 -4.1875 4.09375 -4.5625 C 4.09375 -4.9375 3.984375 -5.21875 3.765625 -5.40625 C 3.554688 -5.601562 3.242188 -5.703125 2.828125 -5.703125 Z M 1.734375 -5.703125 "/>
</g>
<g id="glyph-0-13">
<path d="M 1.734375 -3.0625 L 1.734375 -0.71875 L 3.125 -0.71875 C 3.59375 -0.71875 3.9375 -0.8125 4.15625 -1 C 4.382812 -1.195312 4.5 -1.492188 4.5 -1.890625 C 4.5 -2.285156 4.382812 -2.578125 4.15625 -2.765625 C 3.9375 -2.960938 3.59375 -3.0625 3.125 -3.0625 Z M 1.734375 -5.703125 L 1.734375 -3.765625 L 3.015625 -3.765625 C 3.441406 -3.765625 3.757812 -3.84375 3.96875 -4 C 4.175781 -4.164062 4.28125 -4.410156 4.28125 -4.734375 C 4.28125 -5.054688 4.175781 -5.296875 3.96875 -5.453125 C 3.757812 -5.617188 3.441406 -5.703125 3.015625 -5.703125 Z M 0.859375 -6.40625 L 3.078125 -6.40625 C 3.742188 -6.40625 4.253906 -6.269531 4.609375 -6 C 4.960938 -5.726562 5.140625 -5.335938 5.140625 -4.828125 C 5.140625 -4.429688 5.046875 -4.117188 4.859375 -3.890625 C 4.679688 -3.660156 4.414062 -3.515625 4.0625 -3.453125 C 4.488281 -3.359375 4.816406 -3.164062 5.046875 -2.875 C 5.285156 -2.59375 5.40625 -2.234375 5.40625 -1.796875 C 5.40625 -1.222656 5.210938 -0.78125 4.828125 -0.46875 C 4.441406 -0.15625 3.890625 0 3.171875 0 L 0.859375 0 Z M 0.859375 -6.40625 "/>
</g>
<g id="glyph-0-14">
<path d="M 3.46875 -5.828125 C 2.832031 -5.828125 2.328125 -5.59375 1.953125 -5.125 C 1.585938 -4.65625 1.40625 -4.015625 1.40625 -3.203125 C 1.40625 -2.390625 1.585938 -1.75 1.953125 -1.28125 C 2.328125 -0.8125 2.832031 -0.578125 3.46875 -0.578125 C 4.09375 -0.578125 4.585938 -0.8125 4.953125 -1.28125 C 5.328125 -1.75 5.515625 -2.390625 5.515625 -3.203125 C 5.515625 -4.015625 5.328125 -4.65625 4.953125 -5.125 C 4.585938 -5.59375 4.09375 -5.828125 3.46875 -5.828125 Z M 3.46875 -6.53125 C 4.363281 -6.53125 5.082031 -6.226562 5.625 -5.625 C 6.164062 -5.019531 6.4375 -4.210938 6.4375 -3.203125 C 6.4375 -2.191406 6.164062 -1.382812 5.625 -0.78125 C 5.082031 -0.175781 4.363281 0.125 3.46875 0.125 C 2.5625 0.125 1.835938 -0.171875 1.296875 -0.765625 C 0.765625 -1.367188 0.5 -2.179688 0.5 -3.203125 C 0.5 -4.210938 0.765625 -5.019531 1.296875 -5.625 C 1.835938 -6.226562 2.5625 -6.53125 3.46875 -6.53125 Z M 3.46875 -6.53125 "/>
</g>
<g id="glyph-0-15">
<path d="M 0.859375 -6.40625 L 4.546875 -6.40625 L 4.546875 -5.6875 L 1.734375 -5.6875 L 1.734375 -3.796875 L 4.28125 -3.796875 L 4.28125 -3.0625 L 1.734375 -3.0625 L 1.734375 0 L 0.859375 0 Z M 0.859375 -6.40625 "/>
</g>
<g id="glyph-0-16">
<path d="M 3 -5.5625 L 1.828125 -2.359375 L 4.1875 -2.359375 Z M 2.515625 -6.40625 L 3.5 -6.40625 L 5.9375 0 L 5.046875 0 L 4.453125 -1.640625 L 1.5625 -1.640625 L 0.984375 0 L 0.0625 0 Z M 2.515625 -6.40625 "/>
</g>
<g id="glyph-0-17">
<path d="M 5.234375 -0.921875 L 5.234375 -2.640625 L 3.8125 -2.640625 L 3.8125 -3.34375 L 6.09375 -3.34375 L 6.09375 -0.59375 C 5.757812 -0.351562 5.390625 -0.171875 4.984375 -0.046875 C 4.578125 0.0664062 4.144531 0.125 3.6875 0.125 C 2.6875 0.125 1.90625 -0.164062 1.34375 -0.75 C 0.78125 -1.332031 0.5 -2.148438 0.5 -3.203125 C 0.5 -4.242188 0.78125 -5.054688 1.34375 -5.640625 C 1.90625 -6.234375 2.6875 -6.53125 3.6875 -6.53125 C 4.113281 -6.53125 4.515625 -6.476562 4.890625 -6.375 C 5.265625 -6.269531 5.609375 -6.117188 5.921875 -5.921875 L 5.921875 -5 C 5.609375 -5.269531 5.269531 -5.472656 4.90625 -5.609375 C 4.539062 -5.742188 4.160156 -5.8125 3.765625 -5.8125 C 2.984375 -5.8125 2.394531 -5.59375 2 -5.15625 C 1.601562 -4.71875 1.40625 -4.066406 1.40625 -3.203125 C 1.40625 -2.335938 1.601562 -1.6875 2 -1.25 C 2.394531 -0.8125 2.984375 -0.59375 3.765625 -0.59375 C 4.078125 -0.59375 4.351562 -0.617188 4.59375 -0.671875 C 4.832031 -0.722656 5.046875 -0.804688 5.234375 -0.921875 Z M 5.234375 -0.921875 "/>
</g>
<g id="glyph-0-18">
<path d="M 0.5 -6.40625 L 5.53125 -6.40625 L 5.53125 -5.75 L 1.484375 -0.734375 L 5.625 -0.734375 L 5.625 0 L 0.390625 0 L 0.390625 -0.65625 L 4.453125 -5.6875 L 0.5 -5.6875 Z M 0.5 -6.40625 "/>
</g>
<g id="glyph-0-19">
<path d="M 1.734375 -5.703125 L 1.734375 -3.296875 L 2.828125 -3.296875 C 3.222656 -3.296875 3.53125 -3.398438 3.75 -3.609375 C 3.976562 -3.816406 4.09375 -4.113281 4.09375 -4.5 C 4.09375 -4.882812 3.976562 -5.179688 3.75 -5.390625 C 3.53125 -5.597656 3.222656 -5.703125 2.828125 -5.703125 Z M 0.859375 -6.40625 L 2.828125 -6.40625 C 3.546875 -6.40625 4.085938 -6.242188 4.453125 -5.921875 C 4.816406 -5.597656 5 -5.125 5 -4.5 C 5 -3.863281 4.816406 -3.382812 4.453125 -3.0625 C 4.085938 -2.738281 3.546875 -2.578125 2.828125 -2.578125 L 1.734375 -2.578125 L 1.734375 0 L 0.859375 0 Z M 0.859375 -6.40625 "/>
</g>
<g id="glyph-0-20">
<path d="M 5.671875 -5.921875 L 5.671875 -5 C 5.378906 -5.269531 5.066406 -5.472656 4.734375 -5.609375 C 4.398438 -5.742188 4.046875 -5.8125 3.671875 -5.8125 C 2.941406 -5.8125 2.378906 -5.585938 1.984375 -5.140625 C 1.597656 -4.691406 1.40625 -4.046875 1.40625 -3.203125 C 1.40625 -2.359375 1.597656 -1.710938 1.984375 -1.265625 C 2.378906 -0.816406 2.941406 -0.59375 3.671875 -0.59375 C 4.046875 -0.59375 4.398438 -0.660156 4.734375 -0.796875 C 5.066406 -0.929688 5.378906 -1.132812 5.671875 -1.40625 L 5.671875 -0.5 C 5.359375 -0.289062 5.03125 -0.132812 4.6875 -0.03125 C 4.351562 0.0703125 4 0.125 3.625 0.125 C 2.65625 0.125 1.890625 -0.171875 1.328125 -0.765625 C 0.773438 -1.359375 0.5 -2.171875 0.5 -3.203125 C 0.5 -4.234375 0.773438 -5.046875 1.328125 -5.640625 C 1.890625 -6.234375 2.65625 -6.53125 3.625 -6.53125 C 4.007812 -6.53125 4.367188 -6.476562 4.703125 -6.375 C 5.046875 -6.269531 5.367188 -6.117188 5.671875 -5.921875 Z M 5.671875 -5.921875 "/>
</g>
<g id="glyph-0-21">
<path d="M 0.859375 -6.40625 L 1.734375 -6.40625 L 1.734375 -3.78125 L 4.890625 -3.78125 L 4.890625 -6.40625 L 5.75 -6.40625 L 5.75 0 L 4.890625 0 L 4.890625 -3.046875 L 1.734375 -3.046875 L 1.734375 0 L 0.859375 0 Z M 0.859375 -6.40625 "/>
</g>
<g id="glyph-0-22">
<path d="M -0.015625 -6.40625 L 0.921875 -6.40625 L 2.6875 -3.78125 L 4.453125 -6.40625 L 5.390625 -6.40625 L 3.125 -3.046875 L 3.125 0 L 2.25 0 L 2.25 -3.046875 Z M -0.015625 -6.40625 "/>
</g>
<g id="glyph-0-23">
<path d="M 2.796875 -5.84375 C 2.347656 -5.84375 2.007812 -5.617188 1.78125 -5.171875 C 1.5625 -4.734375 1.453125 -4.078125 1.453125 -3.203125 C 1.453125 -2.316406 1.5625 -1.65625 1.78125 -1.21875 C 2.007812 -0.78125 2.347656 -0.5625 2.796875 -0.5625 C 3.242188 -0.5625 3.578125 -0.78125 3.796875 -1.21875 C 4.023438 -1.65625 4.140625 -2.316406 4.140625 -3.203125 C 4.140625 -4.078125 4.023438 -4.734375 3.796875 -5.171875 C 3.578125 -5.617188 3.242188 -5.84375 2.796875 -5.84375 Z M 2.796875 -6.53125 C 3.515625 -6.53125 4.0625 -6.242188 4.4375 -5.671875 C 4.820312 -5.109375 5.015625 -4.285156 5.015625 -3.203125 C 5.015625 -2.117188 4.820312 -1.289062 4.4375 -0.71875 C 4.0625 -0.15625 3.515625 0.125 2.796875 0.125 C 2.078125 0.125 1.523438 -0.15625 1.140625 -0.71875 C 0.765625 -1.289062 0.578125 -2.117188 0.578125 -3.203125 C 0.578125 -4.285156 0.765625 -5.109375 1.140625 -5.671875 C 1.523438 -6.242188 2.078125 -6.53125 2.796875 -6.53125 Z M 2.796875 -6.53125 "/>
</g>
<g id="glyph-0-24">
<path d="M 1.09375 -0.734375 L 2.515625 -0.734375 L 2.515625 -5.625 L 0.96875 -5.3125 L 0.96875 -6.109375 L 2.5 -6.40625 L 3.375 -6.40625 L 3.375 -0.734375 L 4.78125 -0.734375 L 4.78125 0 L 1.09375 0 Z M 1.09375 -0.734375 "/>
</g>
<g id="glyph-0-25">
<path d="M 1.03125 -1.09375 L 1.9375 -1.09375 L 1.9375 -0.359375 L 1.234375 1.015625 L 0.671875 1.015625 L 1.03125 -0.359375 Z M 1.03125 -1.09375 "/>
</g>
<g id="glyph-0-26">
<path d="M 1.6875 -0.734375 L 4.71875 -0.734375 L 4.71875 0 L 0.640625 0 L 0.640625 -0.734375 C 0.972656 -1.066406 1.421875 -1.519531 1.984375 -2.09375 C 2.554688 -2.675781 2.914062 -3.050781 3.0625 -3.21875 C 3.34375 -3.53125 3.535156 -3.789062 3.640625 -4 C 3.753906 -4.21875 3.8125 -4.429688 3.8125 -4.640625 C 3.8125 -4.984375 3.691406 -5.257812 3.453125 -5.46875 C 3.210938 -5.6875 2.898438 -5.796875 2.515625 -5.796875 C 2.242188 -5.796875 1.957031 -5.75 1.65625 -5.65625 C 1.351562 -5.5625 1.03125 -5.421875 0.6875 -5.234375 L 0.6875 -6.109375 C 1.039062 -6.242188 1.367188 -6.347656 1.671875 -6.421875 C 1.972656 -6.492188 2.25 -6.53125 2.5 -6.53125 C 3.164062 -6.53125 3.695312 -6.363281 4.09375 -6.03125 C 4.488281 -5.695312 4.6875 -5.253906 4.6875 -4.703125 C 4.6875 -4.429688 4.632812 -4.175781 4.53125 -3.9375 C 4.4375 -3.707031 4.257812 -3.429688 4 -3.109375 C 3.925781 -3.023438 3.695312 -2.785156 3.3125 -2.390625 C 2.925781 -1.992188 2.382812 -1.441406 1.6875 -0.734375 Z M 1.6875 -0.734375 "/>
</g>
<g id="glyph-0-27">
<path d="M 3.5625 -3.453125 C 3.976562 -3.367188 4.300781 -3.1875 4.53125 -2.90625 C 4.769531 -2.625 4.890625 -2.273438 4.890625 -1.859375 C 4.890625 -1.234375 4.671875 -0.742188 4.234375 -0.390625 C 3.804688 -0.046875 3.191406 0.125 2.390625 0.125 C 2.117188 0.125 1.835938 0.0976562 1.546875 0.046875 C 1.265625 -0.00390625 0.972656 -0.0820312 0.671875 -0.1875 L 0.671875 -1.03125 C 0.910156 -0.894531 1.171875 -0.789062 1.453125 -0.71875 C 1.742188 -0.644531 2.046875 -0.609375 2.359375 -0.609375 C 2.898438 -0.609375 3.3125 -0.710938 3.59375 -0.921875 C 3.882812 -1.140625 4.03125 -1.453125 4.03125 -1.859375 C 4.03125 -2.242188 3.894531 -2.539062 3.625 -2.75 C 3.363281 -2.96875 3 -3.078125 2.53125 -3.078125 L 1.78125 -3.078125 L 1.78125 -3.78125 L 2.5625 -3.78125 C 2.988281 -3.78125 3.3125 -3.863281 3.53125 -4.03125 C 3.757812 -4.207031 3.875 -4.457031 3.875 -4.78125 C 3.875 -5.101562 3.753906 -5.351562 3.515625 -5.53125 C 3.285156 -5.707031 2.957031 -5.796875 2.53125 -5.796875 C 2.289062 -5.796875 2.035156 -5.769531 1.765625 -5.71875 C 1.492188 -5.664062 1.191406 -5.585938 0.859375 -5.484375 L 0.859375 -6.25 C 1.191406 -6.34375 1.5 -6.410156 1.78125 -6.453125 C 2.070312 -6.503906 2.347656 -6.53125 2.609375 -6.53125 C 3.265625 -6.53125 3.78125 -6.378906 4.15625 -6.078125 C 4.539062 -5.773438 4.734375 -5.367188 4.734375 -4.859375 C 4.734375 -4.503906 4.628906 -4.203125 4.421875 -3.953125 C 4.222656 -3.710938 3.9375 -3.546875 3.5625 -3.453125 Z M 3.5625 -3.453125 "/>
</g>
<g id="glyph-1-0">
<path d="M 2.171875 -3.828125 L 2.171875 -0.890625 L 3.90625 -0.890625 C 4.488281 -0.890625 4.921875 -1.007812 5.203125 -1.25 C 5.484375 -1.488281 5.625 -1.859375 5.625 -2.359375 C 5.625 -2.859375 5.484375 -3.226562 5.203125 -3.46875 C 4.921875 -3.707031 4.488281 -3.828125 3.90625 -3.828125 Z M 2.171875 -7.125 L 2.171875 -4.703125 L 3.765625 -4.703125 C 4.296875 -4.703125 4.691406 -4.800781 4.953125 -5 C 5.210938 -5.207031 5.34375 -5.515625 5.34375 -5.921875 C 5.34375 -6.328125 5.210938 -6.628906 4.953125 -6.828125 C 4.691406 -7.023438 4.296875 -7.125 3.765625 -7.125 Z M 1.078125 -8.015625 L 3.84375 -8.015625 C 4.675781 -8.015625 5.316406 -7.84375 5.765625 -7.5 C 6.210938 -7.15625 6.4375 -6.664062 6.4375 -6.03125 C 6.4375 -5.539062 6.320312 -5.148438 6.09375 -4.859375 C 5.863281 -4.578125 5.523438 -4.398438 5.078125 -4.328125 C 5.609375 -4.210938 6.019531 -3.972656 6.3125 -3.609375 C 6.613281 -3.242188 6.765625 -2.789062 6.765625 -2.25 C 6.765625 -1.53125 6.519531 -0.972656 6.03125 -0.578125 C 5.550781 -0.191406 4.859375 0 3.953125 0 L 1.078125 0 Z M 1.078125 -8.015625 "/>
</g>
<g id="glyph-1-1">
<path d="M 1.078125 -8.015625 L 5.6875 -8.015625 L 5.6875 -7.109375 L 2.171875 -7.109375 L 2.171875 -4.75 L 5.34375 -4.75 L 5.34375 -3.828125 L 2.171875 -3.828125 L 2.171875 0 L 1.078125 0 Z M 1.078125 -8.015625 "/>
</g>
<g id="glyph-1-2">
<path d="M 0.53125 -3.453125 L 3.4375 -3.453125 L 3.4375 -2.578125 L 0.53125 -2.578125 Z M 0.53125 -3.453125 "/>
</g>
<g id="glyph-1-3">
<path d="M 1.078125 -8.015625 L 2.546875 -8.015625 L 6.09375 -1.3125 L 6.09375 -8.015625 L 7.15625 -8.015625 L 7.15625 0 L 5.6875 0 L 2.125 -6.703125 L 2.125 0 L 1.078125 0 Z M 1.078125 -8.015625 "/>
</g>
<g id="glyph-1-4">
<path d="M 1.078125 -8.015625 L 6.15625 -8.015625 L 6.15625 -7.109375 L 2.171875 -7.109375 L 2.171875 -4.734375 L 5.984375 -4.734375 L 5.984375 -3.8125 L 2.171875 -3.8125 L 2.171875 -0.90625 L 6.25 -0.90625 L 6.25 0 L 1.078125 0 Z M 1.078125 -8.015625 "/>
</g>
<g id="glyph-1-5">
</g>
<g id="glyph-1-6">
<path d="M 3.40625 -8.34375 C 2.925781 -7.519531 2.570312 -6.703125 2.34375 -5.890625 C 2.113281 -5.085938 2 -4.273438 2 -3.453125 C 2 -2.628906 2.113281 -1.8125 2.34375 -1 C 2.582031 -0.1875 2.9375 0.628906 3.40625 1.453125 L 2.546875 1.453125 C 2.015625 0.609375 1.613281 -0.21875 1.34375 -1.03125 C 1.082031 -1.84375 0.953125 -2.648438 0.953125 -3.453125 C 0.953125 -4.253906 1.082031 -5.054688 1.34375 -5.859375 C 1.601562 -6.671875 2.003906 -7.5 2.546875 -8.34375 Z M 3.40625 -8.34375 "/>
</g>
<g id="glyph-1-7">
<path d="M 1 -8.359375 L 2 -8.359375 L 2 -3.421875 L 4.9375 -6.015625 L 6.203125 -6.015625 L 3.015625 -3.203125 L 6.34375 0 L 5.046875 0 L 2 -2.9375 L 2 0 L 1 0 Z M 1 -8.359375 "/>
</g>
<g id="glyph-1-8">
<path d="M 5.71875 -4.859375 C 5.96875 -5.304688 6.265625 -5.632812 6.609375 -5.84375 C 6.953125 -6.050781 7.359375 -6.15625 7.828125 -6.15625 C 8.453125 -6.15625 8.929688 -5.9375 9.265625 -5.5 C 9.609375 -5.0625 9.78125 -4.4375 9.78125 -3.625 L 9.78125 0 L 8.78125 0 L 8.78125 -3.59375 C 8.78125 -4.175781 8.675781 -4.601562 8.46875 -4.875 C 8.269531 -5.15625 7.960938 -5.296875 7.546875 -5.296875 C 7.035156 -5.296875 6.628906 -5.125 6.328125 -4.78125 C 6.035156 -4.445312 5.890625 -3.988281 5.890625 -3.40625 L 5.890625 0 L 4.890625 0 L 4.890625 -3.59375 C 4.890625 -4.175781 4.785156 -4.601562 4.578125 -4.875 C 4.378906 -5.15625 4.066406 -5.296875 3.640625 -5.296875 C 3.140625 -5.296875 2.738281 -5.125 2.4375 -4.78125 C 2.144531 -4.445312 2 -3.988281 2 -3.40625 L 2 0 L 1 0 L 1 -6.015625 L 2 -6.015625 L 2 -5.078125 C 2.21875 -5.453125 2.484375 -5.722656 2.796875 -5.890625 C 3.117188 -6.066406 3.492188 -6.15625 3.921875 -6.15625 C 4.359375 -6.15625 4.726562 -6.046875 5.03125 -5.828125 C 5.34375 -5.609375 5.570312 -5.285156 5.71875 -4.859375 Z M 5.71875 -4.859375 "/>
</g>
<g id="glyph-1-9">
<path d="M 1.4375 -4.203125 L 3.71875 -4.203125 L 3.71875 -3.59375 L 0.5 -3.59375 L 0.5 -4.171875 C 0.625 -4.285156 0.800781 -4.441406 1.03125 -4.640625 C 2.257812 -5.734375 2.875 -6.453125 2.875 -6.796875 C 2.875 -7.023438 2.78125 -7.210938 2.59375 -7.359375 C 2.40625 -7.503906 2.160156 -7.578125 1.859375 -7.578125 C 1.671875 -7.578125 1.46875 -7.546875 1.25 -7.484375 C 1.03125 -7.421875 0.789062 -7.328125 0.53125 -7.203125 L 0.53125 -7.859375 C 0.8125 -7.960938 1.070312 -8.039062 1.3125 -8.09375 C 1.550781 -8.144531 1.769531 -8.171875 1.96875 -8.171875 C 2.488281 -8.171875 2.90625 -8.050781 3.21875 -7.8125 C 3.53125 -7.570312 3.6875 -7.257812 3.6875 -6.875 C 3.6875 -6.375 3.09375 -5.617188 1.90625 -4.609375 C 1.707031 -4.429688 1.550781 -4.296875 1.4375 -4.203125 Z M 1.4375 -4.203125 "/>
</g>
<g id="glyph-1-10">
<path d="M 0.875 -8.34375 L 1.734375 -8.34375 C 2.273438 -7.5 2.675781 -6.671875 2.9375 -5.859375 C 3.207031 -5.054688 3.34375 -4.253906 3.34375 -3.453125 C 3.34375 -2.648438 3.207031 -1.84375 2.9375 -1.03125 C 2.675781 -0.21875 2.273438 0.609375 1.734375 1.453125 L 0.875 1.453125 C 1.351562 0.628906 1.707031 -0.1875 1.9375 -1 C 2.175781 -1.8125 2.296875 -2.628906 2.296875 -3.453125 C 2.296875 -4.273438 2.175781 -5.085938 1.9375 -5.890625 C 1.707031 -6.703125 1.351562 -7.519531 0.875 -8.34375 Z M 0.875 -8.34375 "/>
</g>
<g id="glyph-1-11">
<path d="M 3.140625 0 L 0.09375 -8.015625 L 1.21875 -8.015625 L 3.765625 -1.265625 L 6.3125 -8.015625 L 7.4375 -8.015625 L 4.375 0 Z M 3.140625 0 "/>
</g>
<g id="glyph-1-12">
<path d="M 3.765625 -3.03125 C 2.972656 -3.03125 2.421875 -2.9375 2.109375 -2.75 C 1.804688 -2.5625 1.65625 -2.25 1.65625 -1.8125 C 1.65625 -1.46875 1.769531 -1.191406 2 -0.984375 C 2.226562 -0.773438 2.539062 -0.671875 2.9375 -0.671875 C 3.488281 -0.671875 3.925781 -0.863281 4.25 -1.25 C 4.582031 -1.644531 4.75 -2.160156 4.75 -2.796875 L 4.75 -3.03125 Z M 5.734375 -3.4375 L 5.734375 0 L 4.75 0 L 4.75 -0.90625 C 4.53125 -0.539062 4.25 -0.269531 3.90625 -0.09375 C 3.570312 0.0703125 3.160156 0.15625 2.671875 0.15625 C 2.054688 0.15625 1.566406 -0.015625 1.203125 -0.359375 C 0.835938 -0.703125 0.65625 -1.164062 0.65625 -1.75 C 0.65625 -2.425781 0.878906 -2.9375 1.328125 -3.28125 C 1.785156 -3.625 2.46875 -3.796875 3.375 -3.796875 L 4.75 -3.796875 L 4.75 -3.890625 C 4.75 -4.347656 4.597656 -4.703125 4.296875 -4.953125 C 4.003906 -5.203125 3.585938 -5.328125 3.046875 -5.328125 C 2.703125 -5.328125 2.363281 -5.285156 2.03125 -5.203125 C 1.707031 -5.117188 1.394531 -4.992188 1.09375 -4.828125 L 1.09375 -5.734375 C 1.457031 -5.878906 1.8125 -5.984375 2.15625 -6.046875 C 2.5 -6.117188 2.828125 -6.15625 3.140625 -6.15625 C 4.015625 -6.15625 4.664062 -5.929688 5.09375 -5.484375 C 5.519531 -5.035156 5.734375 -4.351562 5.734375 -3.4375 Z M 5.734375 -3.4375 "/>
</g>
<g id="glyph-1-13">
<path d="M 1.03125 -8.359375 L 2.03125 -8.359375 L 2.03125 0 L 1.03125 0 Z M 1.03125 -8.359375 "/>
</g>
<g id="glyph-1-14">
<path d="M 1.03125 -6.015625 L 2.03125 -6.015625 L 2.03125 0 L 1.03125 0 Z M 1.03125 -8.359375 L 2.03125 -8.359375 L 2.03125 -7.109375 L 1.03125 -7.109375 Z M 1.03125 -8.359375 "/>
</g>
<g id="glyph-1-15">
<path d="M 5 -5.109375 L 5 -8.359375 L 5.984375 -8.359375 L 5.984375 0 L 5 0 L 5 -0.90625 C 4.789062 -0.539062 4.523438 -0.269531 4.203125 -0.09375 C 3.890625 0.0703125 3.507812 0.15625 3.0625 0.15625 C 2.34375 0.15625 1.753906 -0.128906 1.296875 -0.703125 C 0.835938 -1.285156 0.609375 -2.050781 0.609375 -3 C 0.609375 -3.945312 0.835938 -4.707031 1.296875 -5.28125 C 1.753906 -5.863281 2.34375 -6.15625 3.0625 -6.15625 C 3.507812 -6.15625 3.890625 -6.066406 4.203125 -5.890625 C 4.523438 -5.722656 4.789062 -5.460938 5 -5.109375 Z M 1.625 -3 C 1.625 -2.269531 1.773438 -1.695312 2.078125 -1.28125 C 2.378906 -0.875 2.789062 -0.671875 3.3125 -0.671875 C 3.832031 -0.671875 4.242188 -0.875 4.546875 -1.28125 C 4.847656 -1.695312 5 -2.269531 5 -3 C 5 -3.726562 4.847656 -4.296875 4.546875 -4.703125 C 4.242188 -5.117188 3.832031 -5.328125 3.3125 -5.328125 C 2.789062 -5.328125 2.378906 -5.117188 2.078125 -4.703125 C 1.773438 -4.296875 1.625 -3.726562 1.625 -3 Z M 1.625 -3 "/>
</g>
<g id="glyph-1-16">
<path d="M 2.015625 -7.71875 L 2.015625 -6.015625 L 4.046875 -6.015625 L 4.046875 -5.25 L 2.015625 -5.25 L 2.015625 -1.984375 C 2.015625 -1.492188 2.082031 -1.175781 2.21875 -1.03125 C 2.351562 -0.894531 2.625 -0.828125 3.03125 -0.828125 L 4.046875 -0.828125 L 4.046875 0 L 3.03125 0 C 2.269531 0 1.742188 -0.140625 1.453125 -0.421875 C 1.160156 -0.710938 1.015625 -1.234375 1.015625 -1.984375 L 1.015625 -5.25 L 0.296875 -5.25 L 0.296875 -6.015625 L 1.015625 -6.015625 L 1.015625 -7.71875 Z M 2.015625 -7.71875 "/>
</g>
<g id="glyph-1-17">
<path d="M 6.1875 -3.25 L 6.1875 -2.765625 L 1.640625 -2.765625 C 1.679688 -2.085938 1.882812 -1.570312 2.25 -1.21875 C 2.613281 -0.863281 3.125 -0.6875 3.78125 -0.6875 C 4.164062 -0.6875 4.535156 -0.734375 4.890625 -0.828125 C 5.242188 -0.921875 5.597656 -1.054688 5.953125 -1.234375 L 5.953125 -0.3125 C 5.597656 -0.15625 5.234375 -0.0390625 4.859375 0.03125 C 4.484375 0.113281 4.109375 0.15625 3.734375 0.15625 C 2.765625 0.15625 2 -0.117188 1.4375 -0.671875 C 0.882812 -1.234375 0.609375 -1.992188 0.609375 -2.953125 C 0.609375 -3.929688 0.875 -4.707031 1.40625 -5.28125 C 1.9375 -5.863281 2.65625 -6.15625 3.5625 -6.15625 C 4.363281 -6.15625 5 -5.894531 5.46875 -5.375 C 5.945312 -4.851562 6.1875 -4.144531 6.1875 -3.25 Z M 5.1875 -3.546875 C 5.1875 -4.085938 5.035156 -4.519531 4.734375 -4.84375 C 4.441406 -5.164062 4.050781 -5.328125 3.5625 -5.328125 C 3.007812 -5.328125 2.566406 -5.171875 2.234375 -4.859375 C 1.910156 -4.546875 1.722656 -4.109375 1.671875 -3.546875 Z M 5.1875 -3.546875 "/>
</g>
<g id="glyph-1-18">
<path d="M 5.359375 -5.78125 L 5.359375 -4.859375 C 5.085938 -5.015625 4.8125 -5.128906 4.53125 -5.203125 C 4.25 -5.285156 3.960938 -5.328125 3.671875 -5.328125 C 3.035156 -5.328125 2.539062 -5.125 2.1875 -4.71875 C 1.832031 -4.3125 1.65625 -3.738281 1.65625 -3 C 1.65625 -2.269531 1.832031 -1.703125 2.1875 -1.296875 C 2.539062 -0.890625 3.035156 -0.6875 3.671875 -0.6875 C 3.960938 -0.6875 4.25 -0.722656 4.53125 -0.796875 C 4.8125 -0.867188 5.085938 -0.984375 5.359375 -1.140625 L 5.359375 -0.234375 C 5.085938 -0.0976562 4.800781 0 4.5 0.0625 C 4.207031 0.125 3.894531 0.15625 3.5625 0.15625 C 2.65625 0.15625 1.9375 -0.125 1.40625 -0.6875 C 0.875 -1.257812 0.609375 -2.03125 0.609375 -3 C 0.609375 -3.976562 0.875 -4.75 1.40625 -5.3125 C 1.945312 -5.875 2.6875 -6.15625 3.625 -6.15625 C 3.9375 -6.15625 4.234375 -6.125 4.515625 -6.0625 C 4.804688 -6 5.085938 -5.90625 5.359375 -5.78125 Z M 5.359375 -5.78125 "/>
</g>
<g id="glyph-1-19">
<path d="M 3.375 -5.328125 C 2.84375 -5.328125 2.421875 -5.117188 2.109375 -4.703125 C 1.804688 -4.285156 1.65625 -3.71875 1.65625 -3 C 1.65625 -2.28125 1.804688 -1.710938 2.109375 -1.296875 C 2.410156 -0.890625 2.832031 -0.6875 3.375 -0.6875 C 3.894531 -0.6875 4.304688 -0.890625 4.609375 -1.296875 C 4.921875 -1.710938 5.078125 -2.28125 5.078125 -3 C 5.078125 -3.71875 4.921875 -4.285156 4.609375 -4.703125 C 4.304688 -5.117188 3.894531 -5.328125 3.375 -5.328125 Z M 3.375 -6.15625 C 4.226562 -6.15625 4.898438 -5.875 5.390625 -5.3125 C 5.878906 -4.757812 6.125 -3.988281 6.125 -3 C 6.125 -2.019531 5.878906 -1.25 5.390625 -0.6875 C 4.898438 -0.125 4.226562 0.15625 3.375 0.15625 C 2.507812 0.15625 1.832031 -0.125 1.34375 -0.6875 C 0.851562 -1.25 0.609375 -2.019531 0.609375 -3 C 0.609375 -3.988281 0.851562 -4.757812 1.34375 -5.3125 C 1.832031 -5.875 2.507812 -6.15625 3.375 -6.15625 Z M 3.375 -6.15625 "/>
</g>
<g id="glyph-1-20">
<path d="M 0.9375 -2.375 L 0.9375 -6.015625 L 1.921875 -6.015625 L 1.921875 -2.40625 C 1.921875 -1.84375 2.03125 -1.414062 2.25 -1.125 C 2.476562 -0.84375 2.8125 -0.703125 3.25 -0.703125 C 3.789062 -0.703125 4.210938 -0.867188 4.515625 -1.203125 C 4.828125 -1.546875 4.984375 -2.015625 4.984375 -2.609375 L 4.984375 -6.015625 L 5.96875 -6.015625 L 5.96875 0 L 4.984375 0 L 4.984375 -0.921875 C 4.742188 -0.554688 4.460938 -0.285156 4.140625 -0.109375 C 3.828125 0.0664062 3.460938 0.15625 3.046875 0.15625 C 2.359375 0.15625 1.832031 -0.0546875 1.46875 -0.484375 C 1.113281 -0.921875 0.9375 -1.550781 0.9375 -2.375 Z M 3.421875 -6.15625 Z M 3.421875 -6.15625 "/>
</g>
<g id="glyph-1-21">
<path d="M 6.03125 -3.625 L 6.03125 0 L 5.046875 0 L 5.046875 -3.59375 C 5.046875 -4.164062 4.9375 -4.59375 4.71875 -4.875 C 4.5 -5.15625 4.164062 -5.296875 3.71875 -5.296875 C 3.1875 -5.296875 2.765625 -5.125 2.453125 -4.78125 C 2.148438 -4.445312 2 -3.988281 2 -3.40625 L 2 0 L 1 0 L 1 -6.015625 L 2 -6.015625 L 2 -5.078125 C 2.226562 -5.441406 2.503906 -5.710938 2.828125 -5.890625 C 3.148438 -6.066406 3.519531 -6.15625 3.9375 -6.15625 C 4.625 -6.15625 5.144531 -5.941406 5.5 -5.515625 C 5.851562 -5.085938 6.03125 -4.457031 6.03125 -3.625 Z M 6.03125 -3.625 "/>
</g>
<g id="glyph-1-22">
<path d="M 4.515625 -5.09375 C 4.410156 -5.15625 4.289062 -5.203125 4.15625 -5.234375 C 4.03125 -5.265625 3.890625 -5.28125 3.734375 -5.28125 C 3.171875 -5.28125 2.738281 -5.097656 2.4375 -4.734375 C 2.144531 -4.367188 2 -3.847656 2 -3.171875 L 2 0 L 1 0 L 1 -6.015625 L 2 -6.015625 L 2 -5.078125 C 2.195312 -5.441406 2.460938 -5.710938 2.796875 -5.890625 C 3.128906 -6.066406 3.535156 -6.15625 4.015625 -6.15625 C 4.085938 -6.15625 4.160156 -6.148438 4.234375 -6.140625 C 4.316406 -6.140625 4.410156 -6.128906 4.515625 -6.109375 Z M 4.515625 -5.09375 "/>
</g>
<g id="glyph-1-23">
<path d="M 4.875 -5.84375 L 4.875 -4.90625 C 4.59375 -5.050781 4.300781 -5.15625 4 -5.21875 C 3.695312 -5.289062 3.382812 -5.328125 3.0625 -5.328125 C 2.570312 -5.328125 2.203125 -5.25 1.953125 -5.09375 C 1.710938 -4.945312 1.59375 -4.726562 1.59375 -4.4375 C 1.59375 -4.207031 1.679688 -4.023438 1.859375 -3.890625 C 2.035156 -3.765625 2.390625 -3.640625 2.921875 -3.515625 L 3.25 -3.4375 C 3.957031 -3.289062 4.457031 -3.078125 4.75 -2.796875 C 5.039062 -2.523438 5.1875 -2.144531 5.1875 -1.65625 C 5.1875 -1.101562 4.96875 -0.660156 4.53125 -0.328125 C 4.09375 -0.00390625 3.484375 0.15625 2.703125 0.15625 C 2.378906 0.15625 2.039062 0.125 1.6875 0.0625 C 1.34375 0 0.976562 -0.09375 0.59375 -0.21875 L 0.59375 -1.234375 C 0.957031 -1.046875 1.316406 -0.90625 1.671875 -0.8125 C 2.023438 -0.71875 2.378906 -0.671875 2.734375 -0.671875 C 3.191406 -0.671875 3.546875 -0.75 3.796875 -0.90625 C 4.046875 -1.070312 4.171875 -1.296875 4.171875 -1.578125 C 4.171875 -1.847656 4.082031 -2.054688 3.90625 -2.203125 C 3.726562 -2.347656 3.332031 -2.484375 2.71875 -2.609375 L 2.375 -2.703125 C 1.757812 -2.828125 1.316406 -3.019531 1.046875 -3.28125 C 0.773438 -3.550781 0.640625 -3.921875 0.640625 -4.390625 C 0.640625 -4.953125 0.835938 -5.382812 1.234375 -5.6875 C 1.640625 -6 2.210938 -6.15625 2.953125 -6.15625 C 3.316406 -6.15625 3.660156 -6.128906 3.984375 -6.078125 C 4.304688 -6.023438 4.601562 -5.945312 4.875 -5.84375 Z M 4.875 -5.84375 "/>
</g>
<g id="glyph-1-24">
<path d="M 3.546875 0.5625 C 3.265625 1.28125 2.988281 1.742188 2.71875 1.953125 C 2.457031 2.171875 2.101562 2.28125 1.65625 2.28125 L 0.875 2.28125 L 0.875 1.46875 L 1.453125 1.46875 C 1.722656 1.46875 1.929688 1.398438 2.078125 1.265625 C 2.234375 1.140625 2.398438 0.835938 2.578125 0.359375 L 2.765625 -0.09375 L 0.328125 -6.015625 L 1.375 -6.015625 L 3.25 -1.3125 L 5.140625 -6.015625 L 6.1875 -6.015625 Z M 3.546875 0.5625 "/>
</g>
<g id="glyph-2-0">
<path d="M -7.40625 -7.078125 L -6.25 -7.078125 C -6.59375 -6.710938 -6.847656 -6.320312 -7.015625 -5.90625 C -7.179688 -5.5 -7.265625 -5.0625 -7.265625 -4.59375 C -7.265625 -3.675781 -6.984375 -2.972656 -6.421875 -2.484375 C -5.867188 -2.003906 -5.0625 -1.765625 -4 -1.765625 C -2.945312 -1.765625 -2.140625 -2.003906 -1.578125 -2.484375 C -1.015625 -2.972656 -0.734375 -3.675781 -0.734375 -4.59375 C -0.734375 -5.0625 -0.816406 -5.5 -0.984375 -5.90625 C -1.148438 -6.320312 -1.40625 -6.710938 -1.75 -7.078125 L -0.625 -7.078125 C -0.363281 -6.703125 -0.164062 -6.300781 -0.03125 -5.875 C 0.09375 -5.457031 0.15625 -5.007812 0.15625 -4.53125 C 0.15625 -3.320312 -0.210938 -2.367188 -0.953125 -1.671875 C -1.703125 -0.972656 -2.71875 -0.625 -4 -0.625 C -5.289062 -0.625 -6.304688 -0.972656 -7.046875 -1.671875 C -7.796875 -2.367188 -8.171875 -3.320312 -8.171875 -4.53125 C -8.171875 -5.007812 -8.101562 -5.460938 -7.96875 -5.890625 C -7.84375 -6.316406 -7.65625 -6.710938 -7.40625 -7.078125 Z M -7.40625 -7.078125 "/>
</g>
<g id="glyph-2-1">
<path d="M -5.328125 -3.375 C -5.328125 -2.84375 -5.117188 -2.421875 -4.703125 -2.109375 C -4.285156 -1.804688 -3.71875 -1.65625 -3 -1.65625 C -2.28125 -1.65625 -1.710938 -1.804688 -1.296875 -2.109375 C -0.890625 -2.410156 -0.6875 -2.832031 -0.6875 -3.375 C -0.6875 -3.894531 -0.890625 -4.304688 -1.296875 -4.609375 C -1.710938 -4.921875 -2.28125 -5.078125 -3 -5.078125 C -3.71875 -5.078125 -4.285156 -4.921875 -4.703125 -4.609375 C -5.117188 -4.304688 -5.328125 -3.894531 -5.328125 -3.375 Z M -6.15625 -3.375 C -6.15625 -4.226562 -5.875 -4.898438 -5.3125 -5.390625 C -4.757812 -5.878906 -3.988281 -6.125 -3 -6.125 C -2.019531 -6.125 -1.25 -5.878906 -0.6875 -5.390625 C -0.125 -4.898438 0.15625 -4.226562 0.15625 -3.375 C 0.15625 -2.507812 -0.125 -1.832031 -0.6875 -1.34375 C -1.25 -0.851562 -2.019531 -0.609375 -3 -0.609375 C -3.988281 -0.609375 -4.757812 -0.851562 -5.3125 -1.34375 C -5.875 -1.832031 -6.15625 -2.507812 -6.15625 -3.375 Z M -6.15625 -3.375 "/>
</g>
<g id="glyph-2-2">
<path d="M -2.375 -0.9375 L -6.015625 -0.9375 L -6.015625 -1.921875 L -2.40625 -1.921875 C -1.84375 -1.921875 -1.414062 -2.03125 -1.125 -2.25 C -0.84375 -2.476562 -0.703125 -2.8125 -0.703125 -3.25 C -0.703125 -3.789062 -0.867188 -4.210938 -1.203125 -4.515625 C -1.546875 -4.828125 -2.015625 -4.984375 -2.609375 -4.984375 L -6.015625 -4.984375 L -6.015625 -5.96875 L 0 -5.96875 L 0 -4.984375 L -0.921875 -4.984375 C -0.554688 -4.742188 -0.285156 -4.460938 -0.109375 -4.140625 C 0.0664062 -3.828125 0.15625 -3.460938 0.15625 -3.046875 C 0.15625 -2.359375 -0.0546875 -1.832031 -0.484375 -1.46875 C -0.921875 -1.113281 -1.550781 -0.9375 -2.375 -0.9375 Z M -6.15625 -3.421875 Z M -6.15625 -3.421875 "/>
</g>
<g id="glyph-2-3">
<path d="M -3.625 -6.03125 L 0 -6.03125 L 0 -5.046875 L -3.59375 -5.046875 C -4.164062 -5.046875 -4.59375 -4.9375 -4.875 -4.71875 C -5.15625 -4.5 -5.296875 -4.164062 -5.296875 -3.71875 C -5.296875 -3.1875 -5.125 -2.765625 -4.78125 -2.453125 C -4.445312 -2.148438 -3.988281 -2 -3.40625 -2 L 0 -2 L 0 -1 L -6.015625 -1 L -6.015625 -2 L -5.078125 -2 C -5.441406 -2.226562 -5.710938 -2.503906 -5.890625 -2.828125 C -6.066406 -3.148438 -6.15625 -3.519531 -6.15625 -3.9375 C -6.15625 -4.625 -5.941406 -5.144531 -5.515625 -5.5 C -5.085938 -5.851562 -4.457031 -6.03125 -3.625 -6.03125 Z M -3.625 -6.03125 "/>
</g>
<g id="glyph-2-4">
<path d="M -7.71875 -2.015625 L -6.015625 -2.015625 L -6.015625 -4.046875 L -5.25 -4.046875 L -5.25 -2.015625 L -1.984375 -2.015625 C -1.492188 -2.015625 -1.175781 -2.082031 -1.03125 -2.21875 C -0.894531 -2.351562 -0.828125 -2.625 -0.828125 -3.03125 L -0.828125 -4.046875 L 0 -4.046875 L 0 -3.03125 C 0 -2.269531 -0.140625 -1.742188 -0.421875 -1.453125 C -0.710938 -1.160156 -1.234375 -1.015625 -1.984375 -1.015625 L -5.25 -1.015625 L -5.25 -0.296875 L -6.015625 -0.296875 L -6.015625 -1.015625 L -7.71875 -1.015625 Z M -7.71875 -2.015625 "/>
</g>
<g id="glyph-2-5">
<path d="M -5.09375 -4.515625 C -5.15625 -4.410156 -5.203125 -4.289062 -5.234375 -4.15625 C -5.265625 -4.03125 -5.28125 -3.890625 -5.28125 -3.734375 C -5.28125 -3.171875 -5.097656 -2.738281 -4.734375 -2.4375 C -4.367188 -2.144531 -3.847656 -2 -3.171875 -2 L 0 -2 L 0 -1 L -6.015625 -1 L -6.015625 -2 L -5.078125 -2 C -5.441406 -2.195312 -5.710938 -2.460938 -5.890625 -2.796875 C -6.066406 -3.128906 -6.15625 -3.535156 -6.15625 -4.015625 C -6.15625 -4.085938 -6.148438 -4.160156 -6.140625 -4.234375 C -6.140625 -4.316406 -6.128906 -4.410156 -6.109375 -4.515625 Z M -5.09375 -4.515625 "/>
</g>
<g id="glyph-2-6">
<path d="M 0.5625 -3.546875 C 1.28125 -3.265625 1.742188 -2.988281 1.953125 -2.71875 C 2.171875 -2.457031 2.28125 -2.101562 2.28125 -1.65625 L 2.28125 -0.875 L 1.46875 -0.875 L 1.46875 -1.453125 C 1.46875 -1.722656 1.398438 -1.929688 1.265625 -2.078125 C 1.140625 -2.234375 0.835938 -2.398438 0.359375 -2.578125 L -0.09375 -2.765625 L -6.015625 -0.328125 L -6.015625 -1.375 L -1.3125 -3.25 L -6.015625 -5.140625 L -6.015625 -6.1875 Z M 0.5625 -3.546875 "/>
</g>
<g id="glyph-3-0">
<path d="M -0.03125 -9.625 L 8.109375 -9.625 L 8.109375 -8.53125 L 4.6875 -8.53125 L 4.6875 0 L 3.375 0 L 3.375 -8.53125 L -0.03125 -8.53125 Z M -0.03125 -9.625 "/>
</g>
<g id="glyph-3-1">
<path d="M 4.046875 -6.390625 C 3.410156 -6.390625 2.90625 -6.140625 2.53125 -5.640625 C 2.164062 -5.148438 1.984375 -4.472656 1.984375 -3.609375 C 1.984375 -2.742188 2.164062 -2.0625 2.53125 -1.5625 C 2.894531 -1.0625 3.398438 -0.8125 4.046875 -0.8125 C 4.671875 -0.8125 5.164062 -1.0625 5.53125 -1.5625 C 5.90625 -2.0625 6.09375 -2.742188 6.09375 -3.609375 C 6.09375 -4.460938 5.90625 -5.140625 5.53125 -5.640625 C 5.164062 -6.140625 4.671875 -6.390625 4.046875 -6.390625 Z M 4.046875 -7.390625 C 5.078125 -7.390625 5.882812 -7.054688 6.46875 -6.390625 C 7.0625 -5.722656 7.359375 -4.796875 7.359375 -3.609375 C 7.359375 -2.421875 7.0625 -1.488281 6.46875 -0.8125 C 5.882812 -0.144531 5.078125 0.1875 4.046875 0.1875 C 3.003906 0.1875 2.191406 -0.144531 1.609375 -0.8125 C 1.023438 -1.488281 0.734375 -2.421875 0.734375 -3.609375 C 0.734375 -4.796875 1.023438 -5.722656 1.609375 -6.390625 C 2.191406 -7.054688 3.003906 -7.390625 4.046875 -7.390625 Z M 4.046875 -7.390625 "/>
</g>
<g id="glyph-3-2">
<path d="M 2.390625 -1.078125 L 2.390625 2.75 L 1.203125 2.75 L 1.203125 -7.21875 L 2.390625 -7.21875 L 2.390625 -6.125 C 2.640625 -6.550781 2.953125 -6.867188 3.328125 -7.078125 C 3.710938 -7.285156 4.171875 -7.390625 4.703125 -7.390625 C 5.578125 -7.390625 6.285156 -7.039062 6.828125 -6.34375 C 7.378906 -5.65625 7.65625 -4.742188 7.65625 -3.609375 C 7.65625 -2.472656 7.378906 -1.554688 6.828125 -0.859375 C 6.285156 -0.160156 5.578125 0.1875 4.703125 0.1875 C 4.171875 0.1875 3.710938 0.0820312 3.328125 -0.125 C 2.953125 -0.332031 2.640625 -0.648438 2.390625 -1.078125 Z M 6.421875 -3.609375 C 6.421875 -4.472656 6.238281 -5.15625 5.875 -5.65625 C 5.519531 -6.15625 5.03125 -6.40625 4.40625 -6.40625 C 3.78125 -6.40625 3.285156 -6.15625 2.921875 -5.65625 C 2.566406 -5.15625 2.390625 -4.472656 2.390625 -3.609375 C 2.390625 -2.734375 2.566406 -2.046875 2.921875 -1.546875 C 3.285156 -1.054688 3.78125 -0.8125 4.40625 -0.8125 C 5.03125 -0.8125 5.519531 -1.054688 5.875 -1.546875 C 6.238281 -2.046875 6.421875 -2.734375 6.421875 -3.609375 Z M 6.421875 -3.609375 "/>
</g>
<g id="glyph-3-3">
</g>
<g id="glyph-3-4">
<path d="M 2.59375 -4.59375 L 2.59375 -1.0625 L 4.6875 -1.0625 C 5.382812 -1.0625 5.898438 -1.207031 6.234375 -1.5 C 6.578125 -1.789062 6.75 -2.238281 6.75 -2.84375 C 6.75 -3.4375 6.578125 -3.875 6.234375 -4.15625 C 5.898438 -4.445312 5.382812 -4.59375 4.6875 -4.59375 Z M 2.59375 -8.5625 L 2.59375 -5.65625 L 4.53125 -5.65625 C 5.164062 -5.65625 5.640625 -5.773438 5.953125 -6.015625 C 6.265625 -6.253906 6.421875 -6.617188 6.421875 -7.109375 C 6.421875 -7.585938 6.265625 -7.945312 5.953125 -8.1875 C 5.640625 -8.4375 5.164062 -8.5625 4.53125 -8.5625 Z M 1.296875 -9.625 L 4.625 -9.625 C 5.613281 -9.625 6.375 -9.414062 6.90625 -9 C 7.445312 -8.59375 7.71875 -8.007812 7.71875 -7.25 C 7.71875 -6.65625 7.578125 -6.179688 7.296875 -5.828125 C 7.023438 -5.484375 6.625 -5.269531 6.09375 -5.1875 C 6.738281 -5.050781 7.238281 -4.765625 7.59375 -4.328125 C 7.945312 -3.890625 8.125 -3.34375 8.125 -2.6875 C 8.125 -1.832031 7.832031 -1.171875 7.25 -0.703125 C 6.664062 -0.234375 5.832031 0 4.75 0 L 1.296875 0 Z M 1.296875 -9.625 "/>
</g>
<g id="glyph-3-5">
<path d="M 1.296875 -9.625 L 6.828125 -9.625 L 6.828125 -8.53125 L 2.59375 -8.53125 L 2.59375 -5.6875 L 6.421875 -5.6875 L 6.421875 -4.59375 L 2.59375 -4.59375 L 2.59375 0 L 1.296875 0 Z M 1.296875 -9.625 "/>
</g>
<g id="glyph-3-6">
<path d="M 0.640625 -4.140625 L 4.125 -4.140625 L 4.125 -3.09375 L 0.640625 -3.09375 Z M 0.640625 -4.140625 "/>
</g>
<g id="glyph-3-7">
<path d="M 1.296875 -9.625 L 3.046875 -9.625 L 7.3125 -1.578125 L 7.3125 -9.625 L 8.578125 -9.625 L 8.578125 0 L 6.828125 0 L 2.5625 -8.046875 L 2.5625 0 L 1.296875 0 Z M 1.296875 -9.625 "/>
</g>
<g id="glyph-3-8">
<path d="M 1.296875 -9.625 L 7.375 -9.625 L 7.375 -8.53125 L 2.59375 -8.53125 L 2.59375 -5.671875 L 7.1875 -5.671875 L 7.1875 -4.578125 L 2.59375 -4.578125 L 2.59375 -1.09375 L 7.5 -1.09375 L 7.5 0 L 1.296875 0 Z M 1.296875 -9.625 "/>
</g>
<g id="glyph-3-9">
<path d="M 6.4375 -6.9375 L 6.4375 -5.828125 C 6.101562 -6.015625 5.765625 -6.15625 5.421875 -6.25 C 5.085938 -6.34375 4.75 -6.390625 4.40625 -6.390625 C 3.632812 -6.390625 3.035156 -6.144531 2.609375 -5.65625 C 2.191406 -5.164062 1.984375 -4.484375 1.984375 -3.609375 C 1.984375 -2.722656 2.191406 -2.035156 2.609375 -1.546875 C 3.035156 -1.054688 3.632812 -0.8125 4.40625 -0.8125 C 4.75 -0.8125 5.085938 -0.859375 5.421875 -0.953125 C 5.765625 -1.046875 6.101562 -1.1875 6.4375 -1.375 L 6.4375 -0.28125 C 6.101562 -0.125 5.757812 -0.0078125 5.40625 0.0625 C 5.050781 0.144531 4.675781 0.1875 4.28125 0.1875 C 3.195312 0.1875 2.332031 -0.148438 1.6875 -0.828125 C 1.050781 -1.515625 0.734375 -2.441406 0.734375 -3.609375 C 0.734375 -4.785156 1.054688 -5.707031 1.703125 -6.375 C 2.347656 -7.050781 3.234375 -7.390625 4.359375 -7.390625 C 4.722656 -7.390625 5.078125 -7.351562 5.421875 -7.28125 C 5.773438 -7.207031 6.113281 -7.09375 6.4375 -6.9375 Z M 6.4375 -6.9375 "/>
</g>
<g id="glyph-3-10">
<path d="M 1.125 -2.84375 L 1.125 -7.21875 L 2.3125 -7.21875 L 2.3125 -2.890625 C 2.3125 -2.210938 2.441406 -1.703125 2.703125 -1.359375 C 2.972656 -1.015625 3.375 -0.84375 3.90625 -0.84375 C 4.550781 -0.84375 5.054688 -1.046875 5.421875 -1.453125 C 5.796875 -1.859375 5.984375 -2.414062 5.984375 -3.125 L 5.984375 -7.21875 L 7.171875 -7.21875 L 7.171875 0 L 5.984375 0 L 5.984375 -1.109375 C 5.691406 -0.671875 5.351562 -0.34375 4.96875 -0.125 C 4.59375 0.0820312 4.15625 0.1875 3.65625 0.1875 C 2.820312 0.1875 2.191406 -0.0664062 1.765625 -0.578125 C 1.335938 -1.097656 1.125 -1.851562 1.125 -2.84375 Z M 4.109375 -7.390625 Z M 4.109375 -7.390625 "/>
</g>
<g id="glyph-3-11">
<path d="M 7.25 -4.359375 L 7.25 0 L 6.0625 0 L 6.0625 -4.3125 C 6.0625 -5 5.925781 -5.507812 5.65625 -5.84375 C 5.394531 -6.1875 5 -6.359375 4.46875 -6.359375 C 3.820312 -6.359375 3.3125 -6.15625 2.9375 -5.75 C 2.570312 -5.34375 2.390625 -4.785156 2.390625 -4.078125 L 2.390625 0 L 1.203125 0 L 1.203125 -7.21875 L 2.390625 -7.21875 L 2.390625 -6.09375 C 2.671875 -6.53125 3.003906 -6.851562 3.390625 -7.0625 C 3.773438 -7.28125 4.21875 -7.390625 4.71875 -7.390625 C 5.550781 -7.390625 6.179688 -7.132812 6.609375 -6.625 C 7.035156 -6.113281 7.25 -5.359375 7.25 -4.359375 Z M 7.25 -4.359375 "/>
</g>
<g id="glyph-3-12">
<path d="M 2.421875 -9.265625 L 2.421875 -7.21875 L 4.859375 -7.21875 L 4.859375 -6.296875 L 2.421875 -6.296875 L 2.421875 -2.375 C 2.421875 -1.789062 2.5 -1.414062 2.65625 -1.25 C 2.820312 -1.082031 3.148438 -1 3.640625 -1 L 4.859375 -1 L 4.859375 0 L 3.640625 0 C 2.722656 0 2.085938 -0.171875 1.734375 -0.515625 C 1.390625 -0.859375 1.21875 -1.476562 1.21875 -2.375 L 1.21875 -6.296875 L 0.359375 -6.296875 L 0.359375 -7.21875 L 1.21875 -7.21875 L 1.21875 -9.265625 Z M 2.421875 -9.265625 "/>
</g>
<g id="glyph-3-13">
<path d="M 5.421875 -6.109375 C 5.296875 -6.191406 5.148438 -6.25 4.984375 -6.28125 C 4.828125 -6.320312 4.65625 -6.34375 4.46875 -6.34375 C 3.800781 -6.34375 3.285156 -6.125 2.921875 -5.6875 C 2.566406 -5.25 2.390625 -4.617188 2.390625 -3.796875 L 2.390625 0 L 1.203125 0 L 1.203125 -7.21875 L 2.390625 -7.21875 L 2.390625 -6.09375 C 2.640625 -6.53125 2.960938 -6.851562 3.359375 -7.0625 C 3.765625 -7.28125 4.253906 -7.390625 4.828125 -7.390625 C 4.898438 -7.390625 4.984375 -7.382812 5.078125 -7.375 C 5.179688 -7.363281 5.296875 -7.347656 5.421875 -7.328125 Z M 5.421875 -6.109375 "/>
</g>
<g id="glyph-3-14">
<path d="M 1.25 -7.21875 L 2.4375 -7.21875 L 2.4375 0 L 1.25 0 Z M 1.25 -10.03125 L 2.4375 -10.03125 L 2.4375 -8.53125 L 1.25 -8.53125 Z M 1.25 -10.03125 "/>
</g>
<g id="glyph-3-15">
<path d="M 7.421875 -3.90625 L 7.421875 -3.328125 L 1.96875 -3.328125 C 2.019531 -2.515625 2.265625 -1.890625 2.703125 -1.453125 C 3.140625 -1.023438 3.753906 -0.8125 4.546875 -0.8125 C 5.003906 -0.8125 5.445312 -0.867188 5.875 -0.984375 C 6.300781 -1.097656 6.722656 -1.265625 7.140625 -1.484375 L 7.140625 -0.375 C 6.710938 -0.1875 6.273438 -0.0429688 5.828125 0.046875 C 5.378906 0.140625 4.925781 0.1875 4.46875 0.1875 C 3.320312 0.1875 2.410156 -0.144531 1.734375 -0.8125 C 1.066406 -1.488281 0.734375 -2.398438 0.734375 -3.546875 C 0.734375 -4.722656 1.050781 -5.65625 1.6875 -6.34375 C 2.320312 -7.039062 3.179688 -7.390625 4.265625 -7.390625 C 5.234375 -7.390625 6 -7.078125 6.5625 -6.453125 C 7.132812 -5.828125 7.421875 -4.976562 7.421875 -3.90625 Z M 6.234375 -4.25 C 6.222656 -4.90625 6.039062 -5.425781 5.6875 -5.8125 C 5.332031 -6.195312 4.863281 -6.390625 4.28125 -6.390625 C 3.613281 -6.390625 3.082031 -6.203125 2.6875 -5.828125 C 2.289062 -5.453125 2.0625 -4.925781 2 -4.25 Z M 6.234375 -4.25 "/>
</g>
<g id="glyph-3-16">
<path d="M 5.84375 -7 L 5.84375 -5.890625 C 5.507812 -6.054688 5.160156 -6.179688 4.796875 -6.265625 C 4.441406 -6.359375 4.070312 -6.40625 3.6875 -6.40625 C 3.09375 -6.40625 2.648438 -6.3125 2.359375 -6.125 C 2.066406 -5.945312 1.921875 -5.675781 1.921875 -5.3125 C 1.921875 -5.039062 2.023438 -4.828125 2.234375 -4.671875 C 2.441406 -4.515625 2.863281 -4.363281 3.5 -4.21875 L 3.90625 -4.125 C 4.75 -3.945312 5.347656 -3.691406 5.703125 -3.359375 C 6.054688 -3.035156 6.234375 -2.578125 6.234375 -1.984375 C 6.234375 -1.316406 5.96875 -0.785156 5.4375 -0.390625 C 4.90625 -0.00390625 4.175781 0.1875 3.25 0.1875 C 2.863281 0.1875 2.457031 0.148438 2.03125 0.078125 C 1.613281 0.00390625 1.175781 -0.109375 0.71875 -0.265625 L 0.71875 -1.484375 C 1.15625 -1.253906 1.585938 -1.082031 2.015625 -0.96875 C 2.441406 -0.863281 2.863281 -0.8125 3.28125 -0.8125 C 3.832031 -0.8125 4.257812 -0.90625 4.5625 -1.09375 C 4.863281 -1.28125 5.015625 -1.550781 5.015625 -1.90625 C 5.015625 -2.226562 4.90625 -2.472656 4.6875 -2.640625 C 4.46875 -2.816406 3.992188 -2.984375 3.265625 -3.140625 L 2.84375 -3.234375 C 2.113281 -3.390625 1.582031 -3.625 1.25 -3.9375 C 0.925781 -4.257812 0.765625 -4.703125 0.765625 -5.265625 C 0.765625 -5.941406 1.003906 -6.460938 1.484375 -6.828125 C 1.972656 -7.203125 2.660156 -7.390625 3.546875 -7.390625 C 3.984375 -7.390625 4.394531 -7.359375 4.78125 -7.296875 C 5.164062 -7.234375 5.519531 -7.132812 5.84375 -7 Z M 5.84375 -7 "/>
</g>
<g id="glyph-3-17">
<path d="M 2.53125 -1.09375 L 7.078125 -1.09375 L 7.078125 0 L 0.96875 0 L 0.96875 -1.09375 C 1.457031 -1.601562 2.128906 -2.289062 2.984375 -3.15625 C 3.835938 -4.019531 4.375 -4.578125 4.59375 -4.828125 C 5.007812 -5.296875 5.300781 -5.691406 5.46875 -6.015625 C 5.632812 -6.335938 5.71875 -6.65625 5.71875 -6.96875 C 5.71875 -7.476562 5.535156 -7.894531 5.171875 -8.21875 C 4.816406 -8.539062 4.351562 -8.703125 3.78125 -8.703125 C 3.375 -8.703125 2.941406 -8.628906 2.484375 -8.484375 C 2.035156 -8.347656 1.550781 -8.132812 1.03125 -7.84375 L 1.03125 -9.15625 C 1.550781 -9.375 2.039062 -9.535156 2.5 -9.640625 C 2.957031 -9.742188 3.375 -9.796875 3.75 -9.796875 C 4.75 -9.796875 5.546875 -9.546875 6.140625 -9.046875 C 6.734375 -8.546875 7.03125 -7.878906 7.03125 -7.046875 C 7.03125 -6.648438 6.953125 -6.273438 6.796875 -5.921875 C 6.648438 -5.566406 6.382812 -5.148438 6 -4.671875 C 5.882812 -4.546875 5.539062 -4.1875 4.96875 -3.59375 C 4.394531 -3 3.582031 -2.164062 2.53125 -1.09375 Z M 2.53125 -1.09375 "/>
</g>
<g id="glyph-3-18">
<path d="M 4.203125 -8.765625 C 3.523438 -8.765625 3.015625 -8.429688 2.671875 -7.765625 C 2.335938 -7.109375 2.171875 -6.117188 2.171875 -4.796875 C 2.171875 -3.484375 2.335938 -2.492188 2.671875 -1.828125 C 3.015625 -1.171875 3.523438 -0.84375 4.203125 -0.84375 C 4.867188 -0.84375 5.367188 -1.171875 5.703125 -1.828125 C 6.046875 -2.492188 6.21875 -3.484375 6.21875 -4.796875 C 6.21875 -6.117188 6.046875 -7.109375 5.703125 -7.765625 C 5.367188 -8.429688 4.867188 -8.765625 4.203125 -8.765625 Z M 4.203125 -9.796875 C 5.273438 -9.796875 6.097656 -9.367188 6.671875 -8.515625 C 7.242188 -7.660156 7.53125 -6.421875 7.53125 -4.796875 C 7.53125 -3.179688 7.242188 -1.945312 6.671875 -1.09375 C 6.097656 -0.238281 5.273438 0.1875 4.203125 0.1875 C 3.117188 0.1875 2.289062 -0.238281 1.71875 -1.09375 C 1.15625 -1.945312 0.875 -3.179688 0.875 -4.796875 C 0.875 -6.421875 1.15625 -7.660156 1.71875 -8.515625 C 2.289062 -9.367188 3.117188 -9.796875 4.203125 -9.796875 Z M 4.203125 -9.796875 "/>
</g>
<g id="glyph-3-19">
<path d="M 1.640625 -1.09375 L 3.765625 -1.09375 L 3.765625 -8.4375 L 1.453125 -7.96875 L 1.453125 -9.15625 L 3.75 -9.625 L 5.046875 -9.625 L 5.046875 -1.09375 L 7.1875 -1.09375 L 7.1875 0 L 1.640625 0 Z M 1.640625 -1.09375 "/>
</g>
<g id="glyph-3-20">
<path d="M 1.421875 -9.625 L 6.53125 -9.625 L 6.53125 -8.53125 L 2.625 -8.53125 L 2.625 -6.171875 C 2.8125 -6.234375 3 -6.28125 3.1875 -6.3125 C 3.375 -6.34375 3.5625 -6.359375 3.75 -6.359375 C 4.820312 -6.359375 5.671875 -6.0625 6.296875 -5.46875 C 6.929688 -4.882812 7.25 -4.09375 7.25 -3.09375 C 7.25 -2.050781 6.925781 -1.242188 6.28125 -0.671875 C 5.632812 -0.0976562 4.722656 0.1875 3.546875 0.1875 C 3.148438 0.1875 2.738281 0.148438 2.3125 0.078125 C 1.894531 0.015625 1.460938 -0.0820312 1.015625 -0.21875 L 1.015625 -1.53125 C 1.398438 -1.320312 1.800781 -1.164062 2.21875 -1.0625 C 2.632812 -0.957031 3.070312 -0.90625 3.53125 -0.90625 C 4.269531 -0.90625 4.851562 -1.097656 5.28125 -1.484375 C 5.71875 -1.878906 5.9375 -2.414062 5.9375 -3.09375 C 5.9375 -3.757812 5.71875 -4.285156 5.28125 -4.671875 C 4.851562 -5.066406 4.269531 -5.265625 3.53125 -5.265625 C 3.175781 -5.265625 2.828125 -5.222656 2.484375 -5.140625 C 2.140625 -5.066406 1.785156 -4.953125 1.421875 -4.796875 Z M 1.421875 -9.625 "/>
</g>
</g>
<clipPath id="clip-0">
<path clip-rule="nonzero" d="M 130 39.113281 L 132 39.113281 L 132 328.296875 L 130 328.296875 Z M 130 39.113281 "/>
</clipPath>
<clipPath id="clip-1">
<path clip-rule="nonzero" d="M 264 39.113281 L 265 39.113281 L 265 328.296875 L 264 328.296875 Z M 264 39.113281 "/>
</clipPath>
<clipPath id="clip-2">
<path clip-rule="nonzero" d="M 397 39.113281 L 399 39.113281 L 399 328.296875 L 397 328.296875 Z M 397 39.113281 "/>
</clipPath>
<clipPath id="clip-3">
<path clip-rule="nonzero" d="M 43.652344 319 L 498.519531 319 L 498.519531 321 L 43.652344 321 Z M 43.652344 319 "/>
</clipPath>
<clipPath id="clip-4">
<path clip-rule="nonzero" d="M 43.652344 304 L 498.519531 304 L 498.519531 306 L 43.652344 306 Z M 43.652344 304 "/>
</clipPath>
<clipPath id="clip-5">
<path clip-rule="nonzero" d="M 43.652344 290 L 498.519531 290 L 498.519531 292 L 43.652344 292 Z M 43.652344 290 "/>
</clipPath>
<clipPath id="clip-6">
<path clip-rule="nonzero" d="M 43.652344 276 L 498.519531 276 L 498.519531 278 L 43.652344 278 Z M 43.652344 276 "/>
</clipPath>
<clipPath id="clip-7">
<path clip-rule="nonzero" d="M 43.652344 261 L 498.519531 261 L 498.519531 263 L 43.652344 263 Z M 43.652344 261 "/>
</clipPath>
<clipPath id="clip-8">
<path clip-rule="nonzero" d="M 43.652344 247 L 498.519531 247 L 498.519531 249 L 43.652344 249 Z M 43.652344 247 "/>
</clipPath>
<clipPath id="clip-9">
<path clip-rule="nonzero" d="M 43.652344 233 L 498.519531 233 L 498.519531 235 L 43.652344 235 Z M 43.652344 233 "/>
</clipPath>
<clipPath id="clip-10">
<path clip-rule="nonzero" d="M 43.652344 218 L 498.519531 218 L 498.519531 221 L 43.652344 221 Z M 43.652344 218 "/>
</clipPath>
<clipPath id="clip-11">
<path clip-rule="nonzero" d="M 43.652344 204 L 498.519531 204 L 498.519531 206 L 43.652344 206 Z M 43.652344 204 "/>
</clipPath>
<clipPath id="clip-12">
<path clip-rule="nonzero" d="M 43.652344 190 L 498.519531 190 L 498.519531 192 L 43.652344 192 Z M 43.652344 190 "/>
</clipPath>
<clipPath id="clip-13">
<path clip-rule="nonzero" d="M 43.652344 176 L 498.519531 176 L 498.519531 178 L 43.652344 178 Z M 43.652344 176 "/>
</clipPath>
<clipPath id="clip-14">
<path clip-rule="nonzero" d="M 43.652344 161 L 498.519531 161 L 498.519531 163 L 43.652344 163 Z M 43.652344 161 "/>
</clipPath>
<clipPath id="clip-15">
<path clip-rule="nonzero" d="M 43.652344 147 L 498.519531 147 L 498.519531 149 L 43.652344 149 Z M 43.652344 147 "/>
</clipPath>
<clipPath id="clip-16">
<path clip-rule="nonzero" d="M 43.652344 133 L 498.519531 133 L 498.519531 135 L 43.652344 135 Z M 43.652344 133 "/>
</clipPath>
<clipPath id="clip-17">
<path clip-rule="nonzero" d="M 43.652344 118 L 498.519531 118 L 498.519531 120 L 43.652344 120 Z M 43.652344 118 "/>
</clipPath>
<clipPath id="clip-18">
<path clip-rule="nonzero" d="M 43.652344 104 L 498.519531 104 L 498.519531 106 L 43.652344 106 Z M 43.652344 104 "/>
</clipPath>
<clipPath id="clip-19">
<path clip-rule="nonzero" d="M 43.652344 90 L 498.519531 90 L 498.519531 92 L 43.652344 92 Z M 43.652344 90 "/>
</clipPath>
<clipPath id="clip-20">
<path clip-rule="nonzero" d="M 43.652344 75 L 498.519531 75 L 498.519531 77 L 43.652344 77 Z M 43.652344 75 "/>
</clipPath>
<clipPath id="clip-21">
<path clip-rule="nonzero" d="M 43.652344 61 L 498.519531 61 L 498.519531 63 L 43.652344 63 Z M 43.652344 61 "/>
</clipPath>
<clipPath id="clip-22">
<path clip-rule="nonzero" d="M 43.652344 47 L 498.519531 47 L 498.519531 49 L 43.652344 49 Z M 43.652344 47 "/>
</clipPath>
<clipPath id="clip-23">
<path clip-rule="nonzero" d="M 63 39.113281 L 65 39.113281 L 65 328.296875 L 63 328.296875 Z M 63 39.113281 "/>
</clipPath>
<clipPath id="clip-24">
<path clip-rule="nonzero" d="M 197 39.113281 L 199 39.113281 L 199 328.296875 L 197 328.296875 Z M 197 39.113281 "/>
</clipPath>
<clipPath id="clip-25">
<path clip-rule="nonzero" d="M 330 39.113281 L 332 39.113281 L 332 328.296875 L 330 328.296875 Z M 330 39.113281 "/>
</clipPath>
<clipPath id="clip-26">
<path clip-rule="nonzero" d="M 464 39.113281 L 466 39.113281 L 466 328.296875 L 464 328.296875 Z M 464 39.113281 "/>
</clipPath>
</defs>
<rect x="-50.4" y="-36" width="604.8" height="432" fill="rgb(100%, 100%, 100%)" fill-opacity="1"/>
<g clip-path="url(#clip-0)">
<path fill="none" stroke-width="0.533489" stroke-linecap="butt" stroke-linejoin="round" stroke="rgb(92.156863%, 92.156863%, 92.156863%)" stroke-opacity="1" stroke-miterlimit="10" d="M 131.070312 328.296875 L 131.070312 39.113281 "/>
</g>
<g clip-path="url(#clip-1)">
<path fill="none" stroke-width="0.533489" stroke-linecap="butt" stroke-linejoin="round" stroke="rgb(92.156863%, 92.156863%, 92.156863%)" stroke-opacity="1" stroke-miterlimit="10" d="M 264.554688 328.296875 L 264.554688 39.113281 "/>
</g>
<g clip-path="url(#clip-2)">
<path fill="none" stroke-width="0.533489" stroke-linecap="butt" stroke-linejoin="round" stroke="rgb(92.156863%, 92.156863%, 92.156863%)" stroke-opacity="1" stroke-miterlimit="10" d="M 398.039062 328.296875 L 398.039062 39.113281 "/>
</g>
<g clip-path="url(#clip-3)">
<path fill="none" stroke-width="1.066978" stroke-linecap="butt" stroke-linejoin="round" stroke="rgb(92.156863%, 92.156863%, 92.156863%)" stroke-opacity="1" stroke-miterlimit="10" d="M 43.652344 319.707031 L 498.519531 319.707031 "/>
</g>
<g clip-path="url(#clip-4)">
<path fill="none" stroke-width="1.066978" stroke-linecap="butt" stroke-linejoin="round" stroke="rgb(92.156863%, 92.156863%, 92.156863%)" stroke-opacity="1" stroke-miterlimit="10" d="M 43.652344 305.390625 L 498.519531 305.390625 "/>
</g>
<g clip-path="url(#clip-5)">
<path fill="none" stroke-width="1.066978" stroke-linecap="butt" stroke-linejoin="round" stroke="rgb(92.156863%, 92.156863%, 92.156863%)" stroke-opacity="1" stroke-miterlimit="10" d="M 43.652344 291.074219 L 498.519531 291.074219 "/>
</g>
<g clip-path="url(#clip-6)">
<path fill="none" stroke-width="1.066978" stroke-linecap="butt" stroke-linejoin="round" stroke="rgb(92.156863%, 92.156863%, 92.156863%)" stroke-opacity="1" stroke-miterlimit="10" d="M 43.652344 276.757812 L 498.519531 276.757812 "/>
</g>
<g clip-path="url(#clip-7)">
<path fill="none" stroke-width="1.066978" stroke-linecap="butt" stroke-linejoin="round" stroke="rgb(92.156863%, 92.156863%, 92.156863%)" stroke-opacity="1" stroke-miterlimit="10" d="M 43.652344 262.441406 L 498.519531 262.441406 "/>
</g>
<g clip-path="url(#clip-8)">
<path fill="none" stroke-width="1.066978" stroke-linecap="butt" stroke-linejoin="round" stroke="rgb(92.156863%, 92.156863%, 92.156863%)" stroke-opacity="1" stroke-miterlimit="10" d="M 43.652344 248.128906 L 498.519531 248.128906 "/>
</g>
<g clip-path="url(#clip-9)">
<path fill="none" stroke-width="1.066978" stroke-linecap="butt" stroke-linejoin="round" stroke="rgb(92.156863%, 92.156863%, 92.156863%)" stroke-opacity="1" stroke-miterlimit="10" d="M 43.652344 233.8125 L 498.519531 233.8125 "/>
</g>
<g clip-path="url(#clip-10)">
<path fill="none" stroke-width="1.066978" stroke-linecap="butt" stroke-linejoin="round" stroke="rgb(92.156863%, 92.156863%, 92.156863%)" stroke-opacity="1" stroke-miterlimit="10" d="M 43.652344 219.496094 L 498.519531 219.496094 "/>
</g>
<g clip-path="url(#clip-11)">
<path fill="none" stroke-width="1.066978" stroke-linecap="butt" stroke-linejoin="round" stroke="rgb(92.156863%, 92.156863%, 92.156863%)" stroke-opacity="1" stroke-miterlimit="10" d="M 43.652344 205.179688 L 498.519531 205.179688 "/>
</g>
<g clip-path="url(#clip-12)">
<path fill="none" stroke-width="1.066978" stroke-linecap="butt" stroke-linejoin="round" stroke="rgb(92.156863%, 92.156863%, 92.156863%)" stroke-opacity="1" stroke-miterlimit="10" d="M 43.652344 190.863281 L 498.519531 190.863281 "/>
</g>
<g clip-path="url(#clip-13)">
<path fill="none" stroke-width="1.066978" stroke-linecap="butt" stroke-linejoin="round" stroke="rgb(92.156863%, 92.156863%, 92.156863%)" stroke-opacity="1" stroke-miterlimit="10" d="M 43.652344 176.546875 L 498.519531 176.546875 "/>
</g>
<g clip-path="url(#clip-14)">
<path fill="none" stroke-width="1.066978" stroke-linecap="butt" stroke-linejoin="round" stroke="rgb(92.156863%, 92.156863%, 92.156863%)" stroke-opacity="1" stroke-miterlimit="10" d="M 43.652344 162.230469 L 498.519531 162.230469 "/>
</g>
<g clip-path="url(#clip-15)">
<path fill="none" stroke-width="1.066978" stroke-linecap="butt" stroke-linejoin="round" stroke="rgb(92.156863%, 92.156863%, 92.156863%)" stroke-opacity="1" stroke-miterlimit="10" d="M 43.652344 147.914062 L 498.519531 147.914062 "/>
</g>
<g clip-path="url(#clip-16)">
<path fill="none" stroke-width="1.066978" stroke-linecap="butt" stroke-linejoin="round" stroke="rgb(92.156863%, 92.156863%, 92.156863%)" stroke-opacity="1" stroke-miterlimit="10" d="M 43.652344 133.597656 L 498.519531 133.597656 "/>
</g>
<g clip-path="url(#clip-17)">
<path fill="none" stroke-width="1.066978" stroke-linecap="butt" stroke-linejoin="round" stroke="rgb(92.156863%, 92.156863%, 92.156863%)" stroke-opacity="1" stroke-miterlimit="10" d="M 43.652344 119.285156 L 498.519531 119.285156 "/>
</g>
<g clip-path="url(#clip-18)">
<path fill="none" stroke-width="1.066978" stroke-linecap="butt" stroke-linejoin="round" stroke="rgb(92.156863%, 92.156863%, 92.156863%)" stroke-opacity="1" stroke-miterlimit="10" d="M 43.652344 104.96875 L 498.519531 104.96875 "/>
</g>
<g clip-path="url(#clip-19)">
<path fill="none" stroke-width="1.066978" stroke-linecap="butt" stroke-linejoin="round" stroke="rgb(92.156863%, 92.156863%, 92.156863%)" stroke-opacity="1" stroke-miterlimit="10" d="M 43.652344 90.652344 L 498.519531 90.652344 "/>
</g>
<g clip-path="url(#clip-20)">
<path fill="none" stroke-width="1.066978" stroke-linecap="butt" stroke-linejoin="round" stroke="rgb(92.156863%, 92.156863%, 92.156863%)" stroke-opacity="1" stroke-miterlimit="10" d="M 43.652344 76.335938 L 498.519531 76.335938 "/>
</g>
<g clip-path="url(#clip-21)">
<path fill="none" stroke-width="1.066978" stroke-linecap="butt" stroke-linejoin="round" stroke="rgb(92.156863%, 92.156863%, 92.156863%)" stroke-opacity="1" stroke-miterlimit="10" d="M 43.652344 62.019531 L 498.519531 62.019531 "/>
</g>
<g clip-path="url(#clip-22)">
<path fill="none" stroke-width="1.066978" stroke-linecap="butt" stroke-linejoin="round" stroke="rgb(92.156863%, 92.156863%, 92.156863%)" stroke-opacity="1" stroke-miterlimit="10" d="M 43.652344 47.703125 L 498.519531 47.703125 "/>
</g>
<g clip-path="url(#clip-23)">
<path fill="none" stroke-width="1.066978" stroke-linecap="butt" stroke-linejoin="round" stroke="rgb(92.156863%, 92.156863%, 92.156863%)" stroke-opacity="1" stroke-miterlimit="10" d="M 64.328125 328.296875 L 64.328125 39.113281 "/>
</g>
<g clip-path="url(#clip-24)">
<path fill="none" stroke-width="1.066978" stroke-linecap="butt" stroke-linejoin="round" stroke="rgb(92.156863%, 92.156863%, 92.156863%)" stroke-opacity="1" stroke-miterlimit="10" d="M 197.8125 328.296875 L 197.8125 39.113281 "/>
</g>
<g clip-path="url(#clip-25)">
<path fill="none" stroke-width="1.066978" stroke-linecap="butt" stroke-linejoin="round" stroke="rgb(92.156863%, 92.156863%, 92.156863%)" stroke-opacity="1" stroke-miterlimit="10" d="M 331.296875 328.296875 L 331.296875 39.113281 "/>
</g>
<g clip-path="url(#clip-26)">
<path fill="none" stroke-width="1.066978" stroke-linecap="butt" stroke-linejoin="round" stroke="rgb(92.156863%, 92.156863%, 92.156863%)" stroke-opacity="1" stroke-miterlimit="10" d="M 464.785156 328.296875 L 464.785156 39.113281 "/>
</g>
<path fill-rule="nonzero" fill="rgb(34.901961%, 34.901961%, 34.901961%)" fill-opacity="1" d="M 64.328125 54.144531 L 477.84375 54.144531 L 477.84375 41.261719 L 64.328125 41.261719 Z M 64.328125 54.144531 "/>
<path fill-rule="nonzero" fill="rgb(34.901961%, 34.901961%, 34.901961%)" fill-opacity="1" d="M 64.328125 68.460938 L 472.949219 68.460938 L 472.949219 55.578125 L 64.328125 55.578125 Z M 64.328125 68.460938 "/>
<path fill-rule="nonzero" fill="rgb(34.901961%, 34.901961%, 34.901961%)" fill-opacity="1" d="M 64.328125 82.777344 L 389.480469 82.777344 L 389.480469 69.894531 L 64.328125 69.894531 Z M 64.328125 82.777344 "/>
<path fill-rule="nonzero" fill="rgb(34.901961%, 34.901961%, 34.901961%)" fill-opacity="1" d="M 64.328125 97.09375 L 298.21875 97.09375 L 298.21875 84.210938 L 64.328125 84.210938 Z M 64.328125 97.09375 "/>
<path fill-rule="nonzero" fill="rgb(34.901961%, 34.901961%, 34.901961%)" fill-opacity="1" d="M 64.328125 111.410156 L 261.257812 111.410156 L 261.257812 98.527344 L 64.328125 98.527344 Z M 64.328125 111.410156 "/>
<path fill-rule="nonzero" fill="rgb(34.901961%, 34.901961%, 34.901961%)" fill-opacity="1" d="M 64.328125 125.726562 L 191.222656 125.726562 L 191.222656 112.84375 L 64.328125 112.84375 Z M 64.328125 125.726562 "/>
<path fill-rule="nonzero" fill="rgb(34.901961%, 34.901961%, 34.901961%)" fill-opacity="1" d="M 64.328125 140.042969 L 179.339844 140.042969 L 179.339844 127.160156 L 64.328125 127.160156 Z M 64.328125 140.042969 "/>
<path fill-rule="nonzero" fill="rgb(34.901961%, 34.901961%, 34.901961%)" fill-opacity="1" d="M 64.328125 154.359375 L 171.050781 154.359375 L 171.050781 141.476562 L 64.328125 141.476562 Z M 64.328125 154.359375 "/>
<path fill-rule="nonzero" fill="rgb(34.901961%, 34.901961%, 34.901961%)" fill-opacity="1" d="M 64.328125 168.671875 L 157.199219 168.671875 L 157.199219 155.789062 L 64.328125 155.789062 Z M 64.328125 168.671875 "/>
<path fill-rule="nonzero" fill="rgb(34.901961%, 34.901961%, 34.901961%)" fill-opacity="1" d="M 64.328125 182.988281 L 148.414062 182.988281 L 148.414062 170.105469 L 64.328125 170.105469 Z M 64.328125 182.988281 "/>
<path fill-rule="nonzero" fill="rgb(34.901961%, 34.901961%, 34.901961%)" fill-opacity="1" d="M 64.328125 197.304688 L 142.332031 197.304688 L 142.332031 184.421875 L 64.328125 184.421875 Z M 64.328125 197.304688 "/>
<path fill-rule="nonzero" fill="rgb(34.901961%, 34.901961%, 34.901961%)" fill-opacity="1" d="M 64.328125 211.621094 L 136.078125 211.621094 L 136.078125 198.738281 L 64.328125 198.738281 Z M 64.328125 211.621094 "/>
<path fill-rule="nonzero" fill="rgb(34.901961%, 34.901961%, 34.901961%)" fill-opacity="1" d="M 64.328125 225.9375 L 134.308594 225.9375 L 134.308594 213.054688 L 64.328125 213.054688 Z M 64.328125 225.9375 "/>
<path fill-rule="nonzero" fill="rgb(34.901961%, 34.901961%, 34.901961%)" fill-opacity="1" d="M 64.328125 240.253906 L 131.734375 240.253906 L 131.734375 227.371094 L 64.328125 227.371094 Z M 64.328125 240.253906 "/>
<path fill-rule="nonzero" fill="rgb(34.901961%, 34.901961%, 34.901961%)" fill-opacity="1" d="M 64.328125 254.570312 L 120.003906 254.570312 L 120.003906 241.6875 L 64.328125 241.6875 Z M 64.328125 254.570312 "/>
<path fill-rule="nonzero" fill="rgb(34.901961%, 34.901961%, 34.901961%)" fill-opacity="1" d="M 64.328125 268.886719 L 119.78125 268.886719 L 119.78125 256.003906 L 64.328125 256.003906 Z M 64.328125 268.886719 "/>
<path fill-rule="nonzero" fill="rgb(34.901961%, 34.901961%, 34.901961%)" fill-opacity="1" d="M 64.328125 283.203125 L 112.332031 283.203125 L 112.332031 270.320312 L 64.328125 270.320312 Z M 64.328125 283.203125 "/>
<path fill-rule="nonzero" fill="rgb(34.901961%, 34.901961%, 34.901961%)" fill-opacity="1" d="M 64.328125 297.515625 L 110.960938 297.515625 L 110.960938 284.632812 L 64.328125 284.632812 Z M 64.328125 297.515625 "/>
<path fill-rule="nonzero" fill="rgb(34.901961%, 34.901961%, 34.901961%)" fill-opacity="1" d="M 64.328125 311.832031 L 110.863281 311.832031 L 110.863281 298.949219 L 64.328125 298.949219 Z M 64.328125 311.832031 "/>
<path fill-rule="nonzero" fill="rgb(34.901961%, 34.901961%, 34.901961%)" fill-opacity="1" d="M 64.328125 326.148438 L 110.632812 326.148438 L 110.632812 313.265625 L 64.328125 313.265625 Z M 64.328125 326.148438 "/>
<g fill="rgb(30.196078%, 30.196078%, 30.196078%)" fill-opacity="1">
<use xlink:href="#glyph-0-0" x="18.527344" y="322.914062"/>
<use xlink:href="#glyph-0-1" x="24.547266" y="322.914062"/>
<use xlink:href="#glyph-0-2" x="31.130078" y="322.914062"/>
</g>
<g fill="rgb(30.196078%, 30.196078%, 30.196078%)" fill-opacity="1">
<use xlink:href="#glyph-0-3" x="22.769531" y="308.597656"/>
<use xlink:href="#glyph-0-1" x="25.364844" y="308.597656"/>
<use xlink:href="#glyph-0-4" x="31.947656" y="308.597656"/>
</g>
<g fill="rgb(30.196078%, 30.196078%, 30.196078%)" fill-opacity="1">
<use xlink:href="#glyph-0-5" x="22.003906" y="294.28125"/>
<use xlink:href="#glyph-0-6" x="26.906641" y="294.28125"/>
<use xlink:href="#glyph-0-7" x="32.282031" y="294.28125"/>
</g>
<g fill="rgb(30.196078%, 30.196078%, 30.196078%)" fill-opacity="1">
<use xlink:href="#glyph-0-8" x="18.875" y="279.964844"/>
<use xlink:href="#glyph-0-9" x="24.460938" y="279.964844"/>
<use xlink:href="#glyph-0-10" x="33.162109" y="279.964844"/>
</g>
<g fill="rgb(30.196078%, 30.196078%, 30.196078%)" fill-opacity="1">
<use xlink:href="#glyph-0-7" x="20.394531" y="265.652344"/>
<use xlink:href="#glyph-0-11" x="26.835547" y="265.652344"/>
<use xlink:href="#glyph-0-12" x="32.60625" y="265.652344"/>
</g>
<g fill="rgb(30.196078%, 30.196078%, 30.196078%)" fill-opacity="1">
<use xlink:href="#glyph-0-13" x="20.855469" y="251.335938"/>
<use xlink:href="#glyph-0-14" x="26.892578" y="251.335938"/>
<use xlink:href="#glyph-0-5" x="33.819141" y="251.335938"/>
</g>
<g fill="rgb(30.196078%, 30.196078%, 30.196078%)" fill-opacity="1">
<use xlink:href="#glyph-0-15" x="21.527344" y="237.019531"/>
<use xlink:href="#glyph-0-12" x="26.589063" y="237.019531"/>
<use xlink:href="#glyph-0-16" x="32.703516" y="237.019531"/>
</g>
<g fill="rgb(30.196078%, 30.196078%, 30.196078%)" fill-opacity="1">
<use xlink:href="#glyph-0-6" x="20.792969" y="222.703125"/>
<use xlink:href="#glyph-0-7" x="26.168359" y="222.703125"/>
<use xlink:href="#glyph-0-12" x="32.609375" y="222.703125"/>
</g>
<g fill="rgb(30.196078%, 30.196078%, 30.196078%)" fill-opacity="1">
<use xlink:href="#glyph-0-16" x="19.769531" y="208.386719"/>
<use xlink:href="#glyph-0-12" x="25.789453" y="208.386719"/>
<use xlink:href="#glyph-0-17" x="31.903906" y="208.386719"/>
</g>
<g fill="rgb(30.196078%, 30.196078%, 30.196078%)" fill-opacity="1">
<use xlink:href="#glyph-0-7" x="20.675781" y="194.070312"/>
<use xlink:href="#glyph-0-8" x="27.116797" y="194.070312"/>
<use xlink:href="#glyph-0-16" x="32.702734" y="194.070312"/>
</g>
<g fill="rgb(30.196078%, 30.196078%, 30.196078%)" fill-opacity="1">
<use xlink:href="#glyph-0-11" x="20.902344" y="179.753906"/>
<use xlink:href="#glyph-0-16" x="26.673047" y="179.753906"/>
<use xlink:href="#glyph-0-18" x="32.692969" y="179.753906"/>
</g>
<g fill="rgb(30.196078%, 30.196078%, 30.196078%)" fill-opacity="1">
<use xlink:href="#glyph-0-16" x="20.675781" y="165.4375"/>
<use xlink:href="#glyph-0-7" x="26.695703" y="165.4375"/>
<use xlink:href="#glyph-0-8" x="33.136719" y="165.4375"/>
</g>
<g fill="rgb(30.196078%, 30.196078%, 30.196078%)" fill-opacity="1">
<use xlink:href="#glyph-0-10" x="22.269531" y="151.121094"/>
<use xlink:href="#glyph-0-8" x="27.829687" y="151.121094"/>
<use xlink:href="#glyph-0-19" x="33.415625" y="151.121094"/>
</g>
<g fill="rgb(30.196078%, 30.196078%, 30.196078%)" fill-opacity="1">
<use xlink:href="#glyph-0-20" x="23.964844" y="136.808594"/>
<use xlink:href="#glyph-0-3" x="30.109375" y="136.808594"/>
<use xlink:href="#glyph-0-0" x="32.704687" y="136.808594"/>
</g>
<g fill="rgb(30.196078%, 30.196078%, 30.196078%)" fill-opacity="1">
<use xlink:href="#glyph-0-20" x="19.378906" y="122.492188"/>
<use xlink:href="#glyph-0-21" x="25.523438" y="122.492188"/>
<use xlink:href="#glyph-0-1" x="32.140625" y="122.492188"/>
</g>
<g fill="rgb(30.196078%, 30.196078%, 30.196078%)" fill-opacity="1">
<use xlink:href="#glyph-0-20" x="19.976562" y="108.175781"/>
<use xlink:href="#glyph-0-16" x="26.121094" y="108.175781"/>
<use xlink:href="#glyph-0-1" x="32.141016" y="108.175781"/>
</g>
<g fill="rgb(30.196078%, 30.196078%, 30.196078%)" fill-opacity="1">
<use xlink:href="#glyph-0-19" x="21.925781" y="93.859375"/>
<use xlink:href="#glyph-0-12" x="27.232422" y="93.859375"/>
<use xlink:href="#glyph-0-22" x="33.346875" y="93.859375"/>
</g>
<g fill="rgb(30.196078%, 30.196078%, 30.196078%)" fill-opacity="1">
<use xlink:href="#glyph-0-4" x="19.945312" y="79.542969"/>
<use xlink:href="#glyph-0-10" x="26.721484" y="79.542969"/>
<use xlink:href="#glyph-0-7" x="32.281641" y="79.542969"/>
</g>
<g fill="rgb(30.196078%, 30.196078%, 30.196078%)" fill-opacity="1">
<use xlink:href="#glyph-0-12" x="20.582031" y="65.226562"/>
<use xlink:href="#glyph-0-7" x="26.696484" y="65.226562"/>
<use xlink:href="#glyph-0-8" x="33.1375" y="65.226562"/>
</g>
<g fill="rgb(30.196078%, 30.196078%, 30.196078%)" fill-opacity="1">
<use xlink:href="#glyph-0-13" x="20.550781" y="50.910156"/>
<use xlink:href="#glyph-0-12" x="26.587891" y="50.910156"/>
<use xlink:href="#glyph-0-16" x="32.702344" y="50.910156"/>
</g>
<g fill="rgb(30.196078%, 30.196078%, 30.196078%)" fill-opacity="1">
<use xlink:href="#glyph-0-23" x="61.527344" y="339.644531"/>
</g>
<g fill="rgb(30.196078%, 30.196078%, 30.196078%)" fill-opacity="1">
<use xlink:href="#glyph-0-24" x="185.214844" y="339.644531"/>
<use xlink:href="#glyph-0-25" x="190.813672" y="339.644531"/>
<use xlink:href="#glyph-0-23" x="193.610938" y="339.644531"/>
<use xlink:href="#glyph-0-23" x="199.209766" y="339.644531"/>
<use xlink:href="#glyph-0-23" x="204.808594" y="339.644531"/>
</g>
<g fill="rgb(30.196078%, 30.196078%, 30.196078%)" fill-opacity="1">
<use xlink:href="#glyph-0-26" x="318.699219" y="339.644531"/>
<use xlink:href="#glyph-0-25" x="324.298047" y="339.644531"/>
<use xlink:href="#glyph-0-23" x="327.095313" y="339.644531"/>
<use xlink:href="#glyph-0-23" x="332.694141" y="339.644531"/>
<use xlink:href="#glyph-0-23" x="338.292969" y="339.644531"/>
</g>
<g fill="rgb(30.196078%, 30.196078%, 30.196078%)" fill-opacity="1">
<use xlink:href="#glyph-0-27" x="452.1875" y="339.644531"/>
<use xlink:href="#glyph-0-25" x="457.786328" y="339.644531"/>
<use xlink:href="#glyph-0-23" x="460.583594" y="339.644531"/>
<use xlink:href="#glyph-0-23" x="466.182422" y="339.644531"/>
<use xlink:href="#glyph-0-23" x="471.78125" y="339.644531"/>
</g>
<g fill="rgb(0%, 0%, 0%)" fill-opacity="1">
<use xlink:href="#glyph-1-0" x="234.3125" y="352.234375"/>
<use xlink:href="#glyph-1-1" x="241.858887" y="352.234375"/>
<use xlink:href="#glyph-1-2" x="248.186035" y="352.234375"/>
<use xlink:href="#glyph-1-3" x="252.155273" y="352.234375"/>
<use xlink:href="#glyph-1-4" x="260.383789" y="352.234375"/>
<use xlink:href="#glyph-1-4" x="267.333984" y="352.234375"/>
<use xlink:href="#glyph-1-5" x="274.28418" y="352.234375"/>
<use xlink:href="#glyph-1-6" x="277.780762" y="352.234375"/>
<use xlink:href="#glyph-1-7" x="282.072266" y="352.234375"/>
<use xlink:href="#glyph-1-8" x="288.442383" y="352.234375"/>
<use xlink:href="#glyph-1-9" x="299.157715" y="352.234375"/>
<use xlink:href="#glyph-1-10" x="303.567383" y="352.234375"/>
</g>
<g fill="rgb(0%, 0%, 0%)" fill-opacity="1">
<use xlink:href="#glyph-2-0" x="13.5" y="205.558594"/>
<use xlink:href="#glyph-2-1" x="13.5" y="197.87793"/>
<use xlink:href="#glyph-2-2" x="13.5" y="191.147949"/>
<use xlink:href="#glyph-2-3" x="13.5" y="184.17627"/>
<use xlink:href="#glyph-2-4" x="13.5" y="177.20459"/>
<use xlink:href="#glyph-2-5" x="13.5" y="172.891602"/>
<use xlink:href="#glyph-2-6" x="13.5" y="168.369141"/>
</g>
<g fill="rgb(0%, 0%, 0%)" fill-opacity="1">
<use xlink:href="#glyph-1-11" x="43.652344" y="31.347656"/>
<use xlink:href="#glyph-1-12" x="51.177246" y="31.347656"/>
<use xlink:href="#glyph-1-13" x="57.917969" y="31.347656"/>
<use xlink:href="#glyph-1-14" x="60.974121" y="31.347656"/>
<use xlink:href="#glyph-1-15" x="64.030273" y="31.347656"/>
<use xlink:href="#glyph-1-12" x="71.012695" y="31.347656"/>
<use xlink:href="#glyph-1-16" x="77.753418" y="31.347656"/>
<use xlink:href="#glyph-1-17" x="82.066406" y="31.347656"/>
<use xlink:href="#glyph-1-15" x="88.833984" y="31.347656"/>
<use xlink:href="#glyph-1-5" x="95.816406" y="31.347656"/>
<use xlink:href="#glyph-1-18" x="99.312988" y="31.347656"/>
<use xlink:href="#glyph-1-19" x="105.36084" y="31.347656"/>
<use xlink:href="#glyph-1-20" x="112.09082" y="31.347656"/>
<use xlink:href="#glyph-1-21" x="119.0625" y="31.347656"/>
<use xlink:href="#glyph-1-16" x="126.03418" y="31.347656"/>
<use xlink:href="#glyph-1-22" x="130.347168" y="31.347656"/>
<use xlink:href="#glyph-1-14" x="134.869629" y="31.347656"/>
<use xlink:href="#glyph-1-17" x="137.925781" y="31.347656"/>
<use xlink:href="#glyph-1-23" x="144.693359" y="31.347656"/>
<use xlink:href="#glyph-1-5" x="150.424316" y="31.347656"/>
<use xlink:href="#glyph-1-19" x="153.920898" y="31.347656"/>
<use xlink:href="#glyph-1-21" x="160.650879" y="31.347656"/>
<use xlink:href="#glyph-1-13" x="167.622559" y="31.347656"/>
<use xlink:href="#glyph-1-24" x="170.678711" y="31.347656"/>
</g>
<g fill="rgb(0%, 0%, 0%)" fill-opacity="1">
<use xlink:href="#glyph-3-0" x="43.652344" y="15.101562"/>
<use xlink:href="#glyph-3-1" x="51.71543" y="15.101562"/>
<use xlink:href="#glyph-3-2" x="59.791406" y="15.101562"/>
<use xlink:href="#glyph-3-3" x="68.170312" y="15.101562"/>
<use xlink:href="#glyph-3-4" x="72.366211" y="15.101562"/>
<use xlink:href="#glyph-3-5" x="81.421875" y="15.101562"/>
<use xlink:href="#glyph-3-6" x="89.014453" y="15.101562"/>
<use xlink:href="#glyph-3-7" x="93.777539" y="15.101562"/>
<use xlink:href="#glyph-3-8" x="103.651758" y="15.101562"/>
<use xlink:href="#glyph-3-8" x="111.991992" y="15.101562"/>
<use xlink:href="#glyph-3-3" x="120.332227" y="15.101562"/>
<use xlink:href="#glyph-3-9" x="124.528125" y="15.101562"/>
<use xlink:href="#glyph-3-1" x="131.785547" y="15.101562"/>
<use xlink:href="#glyph-3-10" x="139.861523" y="15.101562"/>
<use xlink:href="#glyph-3-11" x="148.227539" y="15.101562"/>
<use xlink:href="#glyph-3-12" x="156.593555" y="15.101562"/>
<use xlink:href="#glyph-3-13" x="161.769141" y="15.101562"/>
<use xlink:href="#glyph-3-14" x="167.196094" y="15.101562"/>
<use xlink:href="#glyph-3-15" x="170.863477" y="15.101562"/>
<use xlink:href="#glyph-3-16" x="178.98457" y="15.101562"/>
<use xlink:href="#glyph-3-3" x="185.861719" y="15.101562"/>
<use xlink:href="#glyph-3-14" x="190.057617" y="15.101562"/>
<use xlink:href="#glyph-3-11" x="193.725" y="15.101562"/>
<use xlink:href="#glyph-3-3" x="202.091016" y="15.101562"/>
<use xlink:href="#glyph-3-17" x="206.286914" y="15.101562"/>
<use xlink:href="#glyph-3-18" x="214.685156" y="15.101562"/>
<use xlink:href="#glyph-3-19" x="223.083398" y="15.101562"/>
<use xlink:href="#glyph-3-20" x="231.481641" y="15.101562"/>
</g>
</svg>
